<svg id="图层_1" data-name="图层 1" xmlns="http://www.w3.org/2000/svg" viewBox="0 0 710.23 540.73"><defs><style>.cls-1{fill:#f2f2f2;}.cls-2{fill:#fff;}.cls-3{fill:#e6e6e6;}.cls-4{fill:#ffb8b8;}.cls-5{fill:#2f2e41;}.cls-6{fill:#00ab55;}.cls-7{fill:#ccc;}.cls-8{fill:#3f3d56;}.cls-9{isolation:isolate;opacity:0.2;}</style></defs><g id="图层_1-2" data-name="图层 1"><path class="cls-1" d="M696.58,431H166.36a13.67,13.67,0,0,1-13.65-13.65V90.37a10,10,0,0,1,10-10H700.06a10.19,10.19,0,0,1,10.17,10.18V417.31A13.67,13.67,0,0,1,696.58,431Z" transform="translate(0 -58.21)"/><path class="cls-2" d="M677.24,411.63H183.09c-7.24,0-13.14-5.52-13.14-12.3V114.62c0-5,4.37-9.12,9.74-9.12H680.48c5.46,0,9.9,4.16,9.9,9.27V399.33C690.38,406.11,684.48,411.63,677.24,411.63Z" transform="translate(0 -58.21)"/><path class="cls-3" d="M710,89.59H152.52v-7a13.72,13.72,0,0,1,13.7-13.7H696.34A13.71,13.71,0,0,1,710,82.64Z" transform="translate(0 -58.21)"/><circle class="cls-2" cx="177.42" cy="21.08" r="3.54"/><circle class="cls-2" cx="190.87" cy="21.08" r="3.54"/><circle class="cls-2" cx="204.33" cy="21.08" r="3.54"/><path class="cls-1" d="M391,324.25H655.63a13.23,13.23,0,0,0,13.24-13.2h0V191.42a13.24,13.24,0,0,0-13.24-13.24H391a13.24,13.24,0,0,0-13.24,13.24h0V311.05A13.23,13.23,0,0,0,391,324.25Z" transform="translate(0 -58.21)"/><path class="cls-2" d="M626.74,293.31h-211a6.62,6.62,0,0,1,0-13.24h211a6.62,6.62,0,0,1,0,13.24Z" transform="translate(0 -58.21)"/><path class="cls-2" d="M625.42,235.91H417.08c-4.39,0-7.94-2.71-7.94-6s3.55-6.05,7.94-6.05H625.42c4.39,0,7.94,2.71,7.94,6.05S629.81,235.91,625.42,235.91Z" transform="translate(0 -58.21)"/><path class="cls-4" d="M261.05,385.15a10.05,10.05,0,0,1,13.59-7.28l23.46-26.95,5,17.88-23,22.86a10.11,10.11,0,0,1-19-6.51Z" transform="translate(0 -58.21)"/><circle class="cls-4" cx="389.8" cy="175.88" r="24.56"/><polygon class="cls-4" points="360.95 513.96 348.69 513.96 342.86 466.67 360.95 466.67 360.95 513.96"/><path class="cls-5" d="M364.08,584.05H324.54v-.5a15.39,15.39,0,0,1,15.39-15.39h24.15Z" transform="translate(0 -58.21)"/><polygon class="cls-4" points="397.95 526.96 385.69 526.95 383.99 480.8 397.95 479.67 397.95 526.96"/><path class="cls-5" d="M401.08,597.05H361.54v-.5a15.39,15.39,0,0,1,15.39-15.39h24.15Z" transform="translate(0 -58.21)"/><path class="cls-5" d="M394.46,576.53l-9.55-1.12a4.52,4.52,0,0,1-4-4.4l-1.79-124.34a1.5,1.5,0,0,0-2.91-.48L363,483.59l.95,70.1a4.5,4.5,0,0,1-4.23,4.55l-12.46.53a4.53,4.53,0,0,1-4.75-3.92L336,475.55v-.05l9.88-82.82,74.17,5.37L399.46,572.59a4.49,4.49,0,0,1-4.47,4A4.78,4.78,0,0,1,394.46,576.53Z" transform="translate(0 -58.21)"/><path class="cls-6" d="M346.18,400.05a4.47,4.47,0,0,1-2.35-3.62s6.67-41.48,9.11-42.26L347.6,309.8a40.89,40.89,0,0,1,8.78-30.49,39,39,0,0,1,27-14.48c.74-.07,1.49-.12,2.23-.15a39.36,39.36,0,0,1,33.13,15.08,40.11,40.11,0,0,1,7.22,36.4l-3,10.44v73a4.58,4.58,0,0,1-1.86,3.65c-9.34,6.86-19.9,9.28-30.16,9.28C371.56,412.46,353.22,403.78,346.18,400.05Z" transform="translate(0 -58.21)"/><path class="cls-6" d="M288.59,386.67l-12.9-9.62a4.5,4.5,0,0,1-.91-6.3h0c.1-.13.2-.25.31-.37L352,287.87a15.06,15.06,0,0,1,19.52-2.07h0a15,15,0,0,1,3.72,20.85,14.52,14.52,0,0,1-1.8,2.12l-79,77.51a4.46,4.46,0,0,1-5.36.7A5,5,0,0,1,288.59,386.67Z" transform="translate(0 -58.21)"/><path class="cls-4" d="M387.34,375.75a10.06,10.06,0,0,1,13.15-5.43,10.18,10.18,0,0,1,1.57.82l28.08-22.09,1.55,18.5L404.78,385.7a10.11,10.11,0,0,1-17.44-9.95Z" transform="translate(0 -58.21)"/><path class="cls-6" d="M412.48,384.37a4.43,4.43,0,0,1-3-3.25l-2.84-11.91a4.47,4.47,0,0,1,1.65-4.62L427.38,344l-28.08-43.3a15.24,15.24,0,1,1,23.52-19.38,14.91,14.91,0,0,1,2.29,3.78l26.11,50.81a23.13,23.13,0,0,1-7.72,29.8l-26.68,17.79a4.54,4.54,0,0,1-3,1.14A4.7,4.7,0,0,1,412.48,384.37Z" transform="translate(0 -58.21)"/><path class="cls-5" d="M408,256.05a4.4,4.4,0,0,1-6-1.51,4.15,4.15,0,0,1-.46-1.06v-.06c-.5-2-.1-4.18,0-6.28s-.09-4.41-1.53-5.94c-2.68-2.86-7.41-1.31-11.27-2a9.49,9.49,0,0,1-7.47-10.15,11.58,11.58,0,0,1,.23-1.31,7.32,7.32,0,0,0-5.64-8.68h0a7.47,7.47,0,0,0-2-.15c-3.9.25-8.09,1.45-11.33-1.42a8.35,8.35,0,0,1-2.06-9c1.82-5.32,7-8.13,12.14-9.69a44.61,44.61,0,0,1,37.83,6c3.26,2.28,6.31,5.14,7.71,8.86s.77,8.43-2.34,10.9a20.12,20.12,0,0,1,4.76,19.52C419,249.05,411.71,253.89,408,256.05Z" transform="translate(0 -58.21)"/><path class="cls-7" d="M434.9,598.94h-147a1,1,0,0,1,0-2h147c.55,0,.45,1,1,1C436.15,597.94,435.45,598.94,434.9,598.94Z" transform="translate(0 -58.21)"/><path class="cls-2" d="M273.31,186.78a12.11,12.11,0,0,0-11.39-8H12.1A12.09,12.09,0,0,0,0,190.86H0V382.57a12.12,12.12,0,0,0,12.1,12.11H261.92A12.13,12.13,0,0,0,274,382.57V190.87A11.88,11.88,0,0,0,273.31,186.78Z" transform="translate(0 -58.21)"/><path class="cls-8" d="M273.31,186.78a12.11,12.11,0,0,0-11.39-8H12.1A12.09,12.09,0,0,0,0,190.86H0V382.57a12.12,12.12,0,0,0,12.1,12.11H261.92A12.13,12.13,0,0,0,274,382.57V190.87A11.88,11.88,0,0,0,273.31,186.78Zm-.71,195.79a10.71,10.71,0,0,1-10.68,10.69H12.1A10.71,10.71,0,0,1,1.42,382.57V190.87A10.7,10.7,0,0,1,12.1,180.19H261.92a10.7,10.7,0,0,1,10.68,10.68Z" transform="translate(0 -58.21)"/><path class="cls-3" d="M254.76,204.56V338.42a3.37,3.37,0,0,1-3.37,3.37H23.67a3.37,3.37,0,0,1-2.89-3.34V204.56a3.37,3.37,0,0,1,3.37-3.37H251.39A3.37,3.37,0,0,1,254.76,204.56Z" transform="translate(0 -58.21)"/><circle class="cls-6" cx="78.06" cy="193.01" r="29.57"/><path class="cls-8" d="M170.78,342.33H25.24L93.84,223.5a4.81,4.81,0,0,1,8.36,0l46,79.74,2.2,3.82Z" transform="translate(0 -58.21)"/><polygon class="cls-9" points="170.78 284.12 121.25 284.12 145.56 248.81 147.31 246.27 148.19 245 150.39 248.81 170.78 284.12"/><path class="cls-8" d="M251.54,342.33H126.08l24.31-35.28,1.75-2.55,31.68-46c2.08-3,7.08-3.21,9.52-.57a6.26,6.26,0,0,1,.45.57Z" transform="translate(0 -58.21)"/><path class="cls-8" d="M424.8,218.12l2.28-16.32h-2.2l.56-3.72h10.72l-.56,3.72h-2.12l-2,14.52,3-.8-.64,4.68-11.88,3.2.64-4.68Zm24.6-9.84-1.12,8-.08.08,6.44,8.92h-7.08l-2.72-5.16-4.6,5.16H433.4l8.88-9,1.12-8Zm9.52-11-.52,3.88h-8.2l-.88,1.92h7.92l-2,14.28h-4.88l-.8-.92,1.36-9.8h-8.6l-1.36,9.8-1,.92H435l2-14.28h6.32l.88-1.92h-7.68l.52-3.88Z" transform="translate(0 -58.21)"/><path class="cls-8" d="M463.72,198.84l-1.32-1.52h31.92l-3.84,27.36h-30.4Zm19.68,22,.56-4.16h-15.2l-.56,4.16Zm-14.08-8h15.2l.6-4.2h-15.2Zm1.12-8h15.2l.56-3.8H471Z" transform="translate(0 -58.21)"/><path class="cls-8" d="M526,211l-.84,6.08h-19L506,218.2h19.8l-1,7.16H497.36l2-14.36h-3l.84-6.08h12.32l-.16-1.08h8.84l.16,1.08h12.28L529.8,211Zm-18.64-12.92h7.52l-.4,3h-3.12l1.28,2.28h-6.08l-1.12-2-1.16,2h-6.84l3.36-5.8-.88-1h8.36Zm-3.24,11.76h18.24l.16-1.12H504.28Zm1.4,11.4-.16,1.16h12.2l.16-1.16Zm1.2-8.36-.16,1.16H518l.16-1.16Zm16.64-14.8h8.24l-.4,3h-3.84l1.24,2.28h-6.08l-1.12-2-1.16,2H513.4l3.36-5.8-.88-1h8.36Z" transform="translate(0 -58.21)"/><path class="cls-8" d="M537.28,207.64l1-6.8h-1.92l.48-3.56h10.56l-.48,3.56h-2.32l-1,6.8H546l-.6,4H543l-1,7.56,2.32-.44-.52,3.88-11,2,.52-3.8,2.2-.4,1.24-8.76h-2.08l.6-4Zm15.64,7.12.32-2.32H546.6l2.12-15.16H568.8l-2.12,15.16h-7.36l-.32,2.32h7.28l-.56,3.8h-7.24l-.32,2.28h8.12l-.52,3.8H544l.52-3.8h7.52l.32-2.28h-6.76l.56-3.8Zm.84-6,.32-2.16h-2.24l-.28,2.16ZM552.32,203h2.28l.28-2.16h-2.24Zm9.8,5.76.28-2.16h-2.24l-.32,2.16ZM561,200.88l-.28,2.16h2.2l.32-2.16Z" transform="translate(0 -58.21)"/><path class="cls-8" d="M449.8,256.77l-4,6.17,11.28,22.63h-7.6l-7.92-16.08-10.32,16.08h-7.6l17.84-27.8-.84-1Z" transform="translate(0 -58.21)"/><path class="cls-8" d="M481.76,274.25l-.44,3.08L492,285.57H481.2l-4.72-3.6-5.68,3.6H460l13-8.24.44-3.08Zm11.76-5.31L492,280H487.6l-2.92-2.28.72-5H470.2l-.72,5L465.92,280h-4.36l1.56-11ZM465.28,259,464,257.53h30.36L493,267.42H464.12Zm20.64,4.6.32-2.28H472.56l-.32,2.28Z" transform="translate(0 -58.21)"/><path class="cls-8" d="M526,271.21l-.84,6.08h-19l-.16,1.13h19.8l-1,7.15H497.36l2-14.36h-3l.84-6.08h12.32l-.16-1.08h8.84l.16,1.08h12.28l-.84,6.08Zm-18.64-12.92h7.52l-.4,3h-3.12l1.28,2.28h-6.08l-1.12-2-1.16,2h-6.84l3.36-5.8-.88-1h8.36Zm-3.24,11.76h18.24l.16-1.11H504.28Zm1.4,11.41-.16,1.15h12.2l.16-1.15Zm1.2-8.37-.16,1.16H518l.16-1.16Zm16.64-14.8h8.24l-.4,3h-3.84l1.24,2.28h-6.08l-1.12-2-1.16,2H513.4l3.36-5.8-.88-1h8.36Z" transform="translate(0 -58.21)"/><path class="cls-8" d="M537.28,267.85l1-6.8h-1.92l.48-3.56h10.56l-.48,3.56h-2.32l-1,6.8H546l-.6,4H543l-1,7.56,2.32-.45-.52,3.89-11,2,.52-3.8,2.2-.4,1.24-8.75h-2.08l.6-4ZM552.92,275l.32-2.32H546.6l2.12-15.16H568.8l-2.12,15.16h-7.36L559,275h7.28l-.56,3.8h-7.24l-.32,2.28h8.12l-.52,3.8H544l.52-3.8h7.52l.32-2.28h-6.76l.56-3.8Zm.84-6,.32-2.16h-2.24l-.28,2.16Zm-1.44-5.76h2.28l.28-2.16h-2.24Zm9.8,5.76.28-2.16h-2.24l-.32,2.16ZM561,261.09l-.28,2.16h2.2l.32-2.16Z" transform="translate(0 -58.21)"/><path class="cls-2" d="M98.46,309.57H90.78l.36-2.68h-9.2l-1.92,15h9.2l.4-4.6-2.32-3.84H97.66l-1.52,12.28H74.62a2.75,2.75,0,0,1-1-.2,2.35,2.35,0,0,1-.82-.56,1.85,1.85,0,0,1-.46-.86,2,2,0,0,1,0-1.06l2.68-20h24.2Z" transform="translate(0 -58.21)"/><path class="cls-2" d="M113.78,303.05l-3.48,22.64H103l2.68-21.12-1.16-1.52Z" transform="translate(0 -58.21)"/><path class="cls-2" d="M123.34,325.69l2.68-18.8h-8.44l.4-3.84h24.56l-.76,3.84H133.7L131,325.69Z" transform="translate(0 -58.21)"/><path class="cls-2" d="M174.74,314.09l-.84,6.08h-19l-.16,1.12h19.8l-1,7.16H146.1l2-14.36h-3l.84-6.08h12.32l-.16-1.08h8.84l.16,1.08h12.28l-.84,6.08ZM156.1,301.17h7.52l-.4,3H160.1l1.28,2.28H155.3l-1.12-2-1.16,2h-6.84l3.36-5.8-.88-1H157Zm-3.24,11.76H171.1l.16-1.12H153Zm1.4,11.4-.16,1.16h12.2l.16-1.16Zm1.2-8.36-.16,1.16h11.4l.16-1.16Zm16.64-14.8h8.24l-.4,3H176.1l1.24,2.28h-6.08l-1.12-2-1.16,2h-6.84l3.36-5.8-.88-1H173Z" transform="translate(0 -58.21)"/><path class="cls-2" d="M186,310.73l1-6.8h-1.92l.48-3.56H196.1l-.48,3.56H193.3l-1,6.8h2.44l-.6,4h-2.4l-1,7.56,2.32-.44-.52,3.88-11,2,.52-3.8,2.2-.4,1.24-8.76h-2.08l.6-4Zm15.64,7.12.32-2.32h-6.64l2.12-15.16h20.08l-2.12,15.16h-7.36l-.32,2.32H215l-.56,3.8h-7.24l-.32,2.28H215l-.52,3.8H192.78l.52-3.8h7.52l.32-2.28h-6.76l.56-3.8Zm.84-6,.32-2.16h-2.24l-.28,2.16Zm-1.44-5.76h2.28l.28-2.16h-2.24Zm9.8,5.76.28-2.16H208.9l-.32,2.16ZM209.7,304l-.28,2.16h2.2l.32-2.16Z" transform="translate(0 -58.21)"/></g><path class="cls-6" d="M294.69,87.09,293,99.25H254.94l-.32,2.24h39.59l-2.07,14.32H237.42l4.08-28.72h-6.08l1.68-12.16h24.63l-.31-2.16H279.1l.32,2.16H304l-1.69,12.16ZM257.42,61.25h15l-.81,6.08h-6.23L268,71.89H255.81l-2.23-4-2.33,4H237.58l6.71-11.6-1.75-2.08h16.71Zm-6.48,23.52h36.48l.31-2.24H251.25Zm2.79,22.8-.31,2.32h24.39l.33-2.32Zm2.41-16.72-.33,2.32h22.81l.32-2.32Zm33.28-29.6H305.9l-.8,6.08h-7.68l2.48,4.56H287.73l-2.23-4-2.33,4H269.5l6.71-11.6-1.75-2.08h16.71Z" transform="translate(0 -58.21)"/><path class="cls-6" d="M317.25,80.37l1.92-13.6h-3.84l1-7.12h21.12l-1,7.12h-4.64l-1.91,13.6h4.87l-1.2,8.08h-4.8l-2.08,15.12,4.64-.88-1,7.76-22.08,3.92,1-7.6,4.4-.8,2.48-17.52H312l1.19-8.08Zm31.28,14.24.64-4.64H335.9l4.23-30.32h40.16L376.05,90H361.33l-.63,4.64h14.55l-1.12,7.6H359.65l-.64,4.56h16.24l-1,7.6H330.77l1-7.6h15l.64-4.56H334l1.11-7.6Zm1.68-11.92.64-4.32h-4.48l-.56,4.32Zm-2.88-11.52h4.57l.55-4.32H348Zm19.61,11.52.55-4.32H363l-.63,4.32Zm-2.32-15.84-.57,4.32h4.41l.63-4.32Z" transform="translate(0 -58.21)"/><path class="cls-6" d="M427,93.17l-.88,6.16,21.28,16.48H425.89l-9.43-7.2-11.37,7.2H383.57l25.92-16.48.89-6.16Zm23.53-10.64-3.13,22.08h-8.72l-5.84-4.56,1.44-9.92h-30.4l-1.43,9.92-7.13,4.56h-8.72l3.12-22.08ZM394.05,62.69l-2.56-3h60.72l-2.72,19.76H391.73Zm41.28,9.2.64-4.56H408.61L408,71.89Z" transform="translate(0 -58.21)"/></svg>