<svg id="图层_1" data-name="图层 1" xmlns="http://www.w3.org/2000/svg" viewBox="0 0 550.42 569.2"><defs><style>.cls-1{fill:#f2f2f2;}.cls-2{fill:#9e616a;}.cls-3{fill:#00ab55;}.cls-4{fill:#e6e6e6;}.cls-5{fill:#fff;}.cls-6{fill:#ccc;}.cls-7{fill:#2f2e41;}</style></defs><g id="图层_1-2" data-name="图层 1-2"><path class="cls-1" d="M386.3,568H235.6a6.66,6.66,0,0,1-6.6-6.6V456a6.66,6.66,0,0,1,6.6-6.6H386.3a6.66,6.66,0,0,1,6.6,6.6V561.4A6.73,6.73,0,0,1,386.3,568Z" transform="translate(-0.08)"/><path class="cls-2" d="M91.1,293.3a11.27,11.27,0,0,0-1.9-15.8,9.91,9.91,0,0,0-1.7-1.1l-.9-100.8-18.8,8.6,4.1,97.5a11.29,11.29,0,0,0,5.7,14.9A11.16,11.16,0,0,0,91.1,293.3Z" transform="translate(-0.08)"/><path class="cls-2" d="M90.6,150.1s-18.3-8.9-20.9,7.9-13,60.4-13,60.4l31.6-2.2Z" transform="translate(-0.08)"/><path class="cls-2" d="M91.1,293.3a11.27,11.27,0,0,0-1.9-15.8,9.91,9.91,0,0,0-1.7-1.1l-.9-100.8-18.8,8.6,4.1,97.5a11.29,11.29,0,0,0,5.7,14.9A11.16,11.16,0,0,0,91.1,293.3Z" transform="translate(-0.08)"/><path class="cls-3" d="M90.6,150.1s-18.3-8.9-20.9,7.9-13,60.4-13,60.4l31.6-2.2Z" transform="translate(-0.08)"/><path class="cls-1" d="M86.4,538.5a3.54,3.54,0,0,1-2.6-6.2,3.55,3.55,0,0,0,.2-1c0-.1,0-.1-.1-.2a9.83,9.83,0,0,0-12.7-5.2,10.15,10.15,0,0,0-5.2,5.2c-2.9,7.1-6.7,14.1-7.6,21.6a29.88,29.88,0,0,0,.5,9.9,116,116,0,0,1-10.5-47.8,103.09,103.09,0,0,1,.7-12.4c.4-3.4.9-6.7,1.6-10a116.62,116.62,0,0,1,23.1-49.3,30.38,30.38,0,0,0,12.9-13.4,24.71,24.71,0,0,0,2.1-6.5c-.6.1-1.3.1-1.9.2h-.7a3.55,3.55,0,0,1-2.9-5.8c.3-.3.5-.7.8-1l1.2-1.5c.1-.1.1-.1.1-.2.5-.6.9-1.2,1.4-1.7a10.72,10.72,0,0,0-3.4-3.3c-4.7-2.8-11.3-.9-14.7,3.4s-4.1,10.3-2.9,15.7a42.14,42.14,0,0,0,5.7,12.8,3.92,3.92,0,0,0-.8,1,111.13,111.13,0,0,0-12.2,19.4,49.62,49.62,0,0,0-2.9-22.6c-2.8-6.7-8-12.4-12.6-18.2-5.5-7-16.8-3.9-17.8,4.9v.3c.7.4,1.4.8,2,1.2a4.77,4.77,0,0,1,1.4,6.7v.1a5.15,5.15,0,0,1-3.3,2.1h-.1a44.63,44.63,0,0,0,1.3,7.3,50.3,50.3,0,0,0,25,31.5l1.2.6a121.26,121.26,0,0,0-6.4,30.3,111.82,111.82,0,0,0,.1,18.3v-.2a29.7,29.7,0,0,0-10.2-17.3c-7.9-6.5-19-8.9-27.5-14A5.5,5.5,0,0,0,1,494.8a6.46,6.46,0,0,0-.9,3.9v.2a25.28,25.28,0,0,1,3.7,1.8c.7.4,1.4.8,2,1.2a4.77,4.77,0,0,1,1.4,6.7v.1a5.15,5.15,0,0,1-3.3,2.1H3.6A49,49,0,0,0,49,540.9h0a119.67,119.67,0,0,0,8,23.4H85.7c.1-.3.2-.6.3-1a30,30,0,0,1-7.9-.5c2.1-2.6,4.3-5.2,6.4-7.9.1-.1.1-.1.1-.2,1.1-1.3,2.2-2.7,3.2-4h0a45.73,45.73,0,0,0-1.4-12.2Z" transform="translate(-0.08)"/><path class="cls-1" d="M509.4,538.5a3.54,3.54,0,0,1-2.6-6.2,3.55,3.55,0,0,0,.2-1c0-.1,0-.1-.1-.2a9.83,9.83,0,0,0-12.7-5.2,10.15,10.15,0,0,0-5.2,5.2c-2.9,7.1-6.7,14.1-7.6,21.6a29.88,29.88,0,0,0,.5,9.9,116,116,0,0,1-10.5-47.8,103.09,103.09,0,0,1,.7-12.4c.4-3.4.9-6.7,1.6-10a116.62,116.62,0,0,1,23.1-49.3,30.38,30.38,0,0,0,12.9-13.4,24.71,24.71,0,0,0,2.1-6.5c-.6.1-1.3.1-1.9.2h-.7a3.55,3.55,0,0,1-2.9-5.8c.3-.3.5-.7.8-1l1.2-1.5c.1-.1.1-.1.1-.2.5-.6.9-1.2,1.4-1.7a10.72,10.72,0,0,0-3.4-3.3c-4.7-2.8-11.3-.9-14.7,3.4s-4.1,10.3-2.9,15.7a42.14,42.14,0,0,0,5.7,12.8,3.92,3.92,0,0,0-.8,1,111.13,111.13,0,0,0-12.2,19.4,49.62,49.62,0,0,0-2.9-22.6c-2.8-6.7-8-12.4-12.6-18.2-5.5-7-16.8-3.9-17.8,4.9v.3c.7.4,1.4.8,2,1.2a4.77,4.77,0,0,1,1.4,6.7v.1a5.15,5.15,0,0,1-3.3,2.1h-.1a44.63,44.63,0,0,0,1.3,7.3,50.3,50.3,0,0,0,25,31.5l1.2.6a117,117,0,0,0-6.4,30.3,111.82,111.82,0,0,0,.1,18.3v-.2a29.7,29.7,0,0,0-10.2-17.3c-7.9-6.5-19-8.9-27.5-14a5.5,5.5,0,0,0-7.7,1.6,6.46,6.46,0,0,0-.9,3.9v.2a25.28,25.28,0,0,1,3.7,1.8c.7.4,1.4.8,2,1.2a4.77,4.77,0,0,1,1.4,6.7v.1a5.15,5.15,0,0,1-3.3,2.1h-.3A49,49,0,0,0,472,540.9h0a119.67,119.67,0,0,0,8,23.4h28.7c.1-.3.2-.6.3-1a30,30,0,0,1-7.9-.5c2.1-2.6,4.3-5.2,6.4-7.9.1-.1.1-.1.1-.2,1.1-1.3,2.2-2.7,3.2-4h0a45.73,45.73,0,0,0-1.4-12.2Z" transform="translate(-0.08)"/><path class="cls-4" d="M359.6,563.9h-.2c-3-.2-5.4-3.9-5.3-8.3,0-12.8-6.3-20.3-12.6-22s-14,1.9-17.3,13.8l-2.9,10.7c-5.3,7.7-13.9,7.7-19.2,0l-.2-.3.1-.3,52.1-154.1v-3.8a20.45,20.45,0,0,1,0-3.5V7.9c0-4.4,2.5-7.9,5.5-7.9h.2c3,.2,5.4,3.9,5.3,8.3V396.2a20.45,20.45,0,0,1,0,3.5v3.7l52.2,154.5-.2.3c-5.3,7.7-13.9,7.7-19.2,0l-.1-.2-2.9-10.5c-3.2-11.9-11-15.5-17.3-13.8s-12.6,9.2-12.6,22v.3C365,560.3,362.6,563.9,359.6,563.9Z" transform="translate(-0.08)"/><path class="cls-5" d="M533.2,279.1H185c-8.4,0-15.3-5.4-15.3-12.1V74.2c0-6.7,6.8-12.1,15.3-12.1H533.3c8.4,0,15.3,5.4,15.3,12.1V267C548.5,273.7,541.7,279.1,533.2,279.1Z" transform="translate(-0.08)"/><path class="cls-1" d="M533.2,280.6H185c-9.5,0-17.2-6.1-17.2-13.6V74.2c0-7.5,7.7-13.6,17.2-13.6H533.3c9.5,0,17.2,6.1,17.2,13.6V267C550.4,274.6,542.7,280.6,533.2,280.6ZM185,63.6c-7.4,0-13.4,4.7-13.4,10.6V267c0,5.8,6,10.6,13.4,10.6H533.3c7.4,0,13.4-4.7,13.4-10.6V74.2c0-5.8-6-10.6-13.4-10.6Z" transform="translate(-0.08)"/><path class="cls-4" d="M410.6,76h-103C294,76,283,67.3,283,56.5v-.4H435.2v.4C435.2,67.3,424.2,76,410.6,76Z" transform="translate(-0.08)"/><path class="cls-4" d="M411,293H308c-13.6,0-24.6-8.7-24.6-19.5v-.4H435.7v.4C435.7,284.3,424.6,293,411,293Z" transform="translate(-0.08)"/><path class="cls-6" d="M549.9,568a1.2,1.2,0,0,1-1.1,1.2H1.4a1.2,1.2,0,1,1,0-2.4H548.7a1.29,1.29,0,0,1,1.2,1.2Z" transform="translate(-0.08)"/><polygon class="cls-2" points="135.12 537.2 149.52 537.2 156.32 481.6 135.12 481.6 135.12 537.2"/><path class="cls-7" d="M130.3,530.1l22.8-1.4v9.8l21.7,15a6.1,6.1,0,0,1,1.7,8.4,6,6,0,0,1-5.1,2.7H144.3l-4.7-9.7-1.8,9.7H127.6Z" transform="translate(-0.08)"/><polygon class="cls-2" points="86.02 227.9 84.62 234.6 83.42 259.4 131.72 252.9 135.42 224.2 130.32 215.8 86.02 227.9"/><polygon class="cls-2" points="62.12 537.2 76.52 537.2 83.42 481.6 62.12 481.6 62.12 537.2"/><path class="cls-7" d="M54.4,438.9v-.1l5.4-25.2,3.3-12.5-9.2-73.4c-2.2-53.3,28.8-79,29-79.2l.7-.7,49.6-1.2c26.7,16,23.7,103.5,28.6,163,.3,4.2,4.7,10.5,3.7,14.5-8.5,32-6,66.7-12.6,67.7l-20-.3-10.3-46.8,9.5-35.7c-4.2-.8-7.1-21.4-7.1-21.4-1.8-2.2-8.2-20.8-8.2-20.8l-8.5-51.4L94.7,403.8,98,424.5l-2.7,7.1-11.6,59-.1.9-21.9-2.1Z" transform="translate(-0.08)"/><path class="cls-7" d="M57.3,530.1l22.8-1.4v9.8l21.7,15a6.1,6.1,0,0,1,1.7,8.4,6,6,0,0,1-5.1,2.7H71.2l-4.7-9.7-1.8,9.7H54.4Z" transform="translate(-0.08)"/><path class="cls-3" d="M125.9,130.8l12.2,13.5,14.6,27.5-7.2,34,3.1,15.9,4.6,17.5c-17.9,9.9-39.1-3.8-58.6-9.8l-19,8.6,1-23.3.5-58.8a16.43,16.43,0,0,1,16.6-16.3h1.1l12.8-9.5Z" transform="translate(-0.08)"/><circle class="cls-2" cx="122.42" cy="98.1" r="25.7"/><path class="cls-7" d="M152.7,88.8c-.5,2.5-11.3,3.7-10.9-.7-2.1,4.2-5.2,10.3-1.2,17.3a11,11,0,0,0-1.5,12.8,31,31,0,0,1,2.8,5.8,4,4,0,0,1,.3,1.5,2.84,2.84,0,0,1-2.4,3.2h-.1a2.22,2.22,0,0,1-1.6-.3c-10.9-5.3-29.9-4.4-41.8-1.2.1-2.3,0-4.6-.1-6.9a16.47,16.47,0,0,1-3.4,7.9l-6,1.8a1.75,1.75,0,0,1-2.2-1.1,1.7,1.7,0,0,1,0-1,10,10,0,0,0,.2-4.2c-.5-2.9-2-5.5-3-8.3s-1.6-5.9-.4-8.6c2-4.1,7.5-5.4,9.9-9.2,2.7-4.3.6-10,1-15.1.6-7.2,6.5-13.1,13.2-15.9,11.6-4.9,26-.9,34.7,8.2a8,8,0,0,1,8.3-.4c2.6,1.4,4.4,2.1,5.6,4.8C155.3,81.6,153.2,86.3,152.7,88.8Z" transform="translate(-0.08)"/><path class="cls-5" d="M141.7,390.5,81.3,330.1a3.65,3.65,0,0,1-.1-5.2l.1-.1h0l42.2-42.2a3.65,3.65,0,0,1,5.2-.1l.1.1L189.2,343a3.77,3.77,0,0,1,.1,5.3h-.1L147,390.5a3.68,3.68,0,0,1-5.3,0Z" transform="translate(-0.08)"/><path class="cls-4" d="M144.3,392.6a4.76,4.76,0,0,1-3.4-1.4L80.5,330.8a4.62,4.62,0,0,1-.1-6.6l.1-.1,42.2-42.2a4.62,4.62,0,0,1,6.6-.1l.1.1,60.4,60.4a4.62,4.62,0,0,1,.1,6.6l-.1.1-42.1,42.2A4.94,4.94,0,0,1,144.3,392.6Zm-18.1-110a2.73,2.73,0,0,0-1.9.8L82.1,325.6a2.69,2.69,0,0,0-.1,3.8l.1.1,60.4,60.4a2.91,2.91,0,0,0,3.9,0l42.2-42.2a2.69,2.69,0,0,0,.1-3.8l-.1-.1-60.4-60.4A3.18,3.18,0,0,0,126.2,282.6Z" transform="translate(-0.08)"/><path class="cls-2" d="M119,288.3a11.27,11.27,0,0,1,1.9-15.8,9.91,9.91,0,0,1,1.7-1.1l.9-100.8,18.8,8.6-4.1,97.5a11.29,11.29,0,0,1-5.7,14.9A11.09,11.09,0,0,1,119,288.3Z" transform="translate(-0.08)"/><path class="cls-2" d="M119.5,145.1s18.3-8.9,20.9,7.9,13,60.4,13,60.4l-31.6-2.2Z" transform="translate(-0.08)"/><path class="cls-2" d="M119,288.3a11.27,11.27,0,0,1,1.9-15.8,9.91,9.91,0,0,1,1.7-1.1l.9-100.8,18.8,8.6-4.1,97.5a11.29,11.29,0,0,1-5.7,14.9A11.09,11.09,0,0,1,119,288.3Z" transform="translate(-0.08)"/><path class="cls-3" d="M119.5,145.1s18.3-8.9,20.9,7.9,13,60.4,13,60.4l-31.6-2.2Z" transform="translate(-0.08)"/></g><path class="cls-3" d="M244.9,188.75l5.82-17H261l-5.82,17ZM251,169.49l-.84-10.26h10.26l.84,10.26ZM252.76,157l-.84-10.26h10.26L263,157Zm17.88,23.94-7.86-5.7.36-2.88h10.08l4.92,3.72,6.78-4.38.12-1H263.38l.84-5.7H295l-1.44,10.26-9,5.7,10.5,7.86h-13.5l-4.44-3.18-5,3.18h-13.5Zm11.94-17.1,1.62-11.4H277l-2.4,11.4H264.34l3.12-14.94-1.86-2.16h28.5L292.66,157h2.28l2.64-2.28-1.32,9.12Z" transform="translate(-0.08)"/><path class="cls-3" d="M316.3,148.37l1.14-1.44-1.14-1.38H330l-2.22,2.82h24.6l-.78,5.7h-28.2l-1.8,2.28h27.36l-4,28.44a4.72,4.72,0,0,1-4.68,4H329l4.68-4.86.48-3.54h-16l-1.2,8.4h-11.4l2.76-19.86h-7.92l11.46-14.82H303.7l.78-5.7Zm2.7,26.28h16l.48-3.48h-16Zm1.32-9.12h16l.48-3.48h-16Z" transform="translate(-0.08)"/><path class="cls-3" d="M354.88,186.59l4.8-26.28h4.26l-4.8,26.28ZM365,158.39h-6.12l.78-5.7h6.12l.78-5.34-1.5-1.74h11.4l-1,7.08h5.4l-.78,5.7h-5.4l-4.32,30.42h-9.66Zm7.86,24.78,2-22.86h4.26l-2,22.86Zm17.7-26.88,2.64,6.18,4.92-7.26.3-2.1H381.7l.84-5.94h25.8L407,156.83l-9.84,14.7,7.38,17H394.24l-3.36-7.74-5.22,7.8h-10.2l11.46-16.92-5.82-13.56.3-1.86Z" transform="translate(-0.08)"/><path class="cls-3" d="M423,152.57l-5.1,36h-7.86L416,146.69H433.6l-.78,5.82-2.58,9h2l-.3,5.16L428.68,182h-8.34l.66-5.1h1.8L425,166.67h-2.64l.72-5.16,2.58-8.94Zm37.56,23.76-5.1,1.5,3.36,10.92H449.8l-6.36-20.4H442.3l-2,13.8,6.12-.72-.78,5.7-15.36,1.62,5.88-42.06h27.36l-3,21.66h-8l1.38,4.5,7.44-2.22Zm-7.5-13.08.48-3.42H443.44l-.48,3.42ZM444,155.33h10.14l.48-3.42H444.52Z" transform="translate(-0.08)"/></svg>