<svg id="图层_1" data-name="图层 1" xmlns="http://www.w3.org/2000/svg" viewBox="0 0 654.23 625.4"><defs><style>.cls-1{fill:#f2f2f2;}.cls-2{fill:#fff;}.cls-3{fill:#3f3d56;}.cls-4{fill:#ccc;}.cls-5{fill:#00ab55;}.cls-6{fill:#e6e6e6;}.cls-7{fill:#a0616a;}.cls-8{fill:#2f2e41;}.cls-9{fill:#cacaca;}</style></defs><path class="cls-1" d="M130.1,480.6,10.4,425.5a17.85,17.85,0,0,1-8.8-23.7L17,368.3a17.85,17.85,0,0,1,23.7-8.8l119.7,55.1a17.85,17.85,0,0,1,8.8,23.7l-15.4,33.5a17.85,17.85,0,0,1-23.7,8.8Z" transform="translate(0.03)"/><path class="cls-2" d="M111.5,459.3,38.7,425.8a10.25,10.25,0,0,1-5-13.5l12.2-26.5a10.25,10.25,0,0,1,13.5-5l72.8,33.5a10.25,10.25,0,0,1,5,13.5L125,454.3a10.18,10.18,0,0,1-13.5,5Z" transform="translate(0.03)"/><path class="cls-3" d="M111.1,460.2,38.3,426.7a11.15,11.15,0,0,1-5.5-14.8h0L45,385.3a11.15,11.15,0,0,1,14.8-5.5h0l72.8,33.5a11.15,11.15,0,0,1,5.5,14.8h0l-12.2,26.5a11.23,11.23,0,0,1-14.7,5.7C111.2,460.2,111.2,460.2,111.1,460.2ZM59,381.7a9.22,9.22,0,0,0-12.2,4.5L34.6,412.7a9.22,9.22,0,0,0,4.5,12.2l72.8,33.5a9.22,9.22,0,0,0,12.2-4.5l12.2-26.5a9.22,9.22,0,0,0-4.5-12.2Z" transform="translate(0.03)"/><path class="cls-4" d="M90.4,418.9l-.4-.2a1.79,1.79,0,0,1-.8-2.4,1.74,1.74,0,0,1,2.2-.8h0l.4.2a1.83,1.83,0,0,1,.9,2.4A1.68,1.68,0,0,1,90.4,418.9Z" transform="translate(0.03)"/><path class="cls-4" d="M107.7,437.6,85.6,427.4a1.79,1.79,0,0,1-.8-2.4,1.74,1.74,0,0,1,2.2-.8h0l22.1,10.2a1.72,1.72,0,0,1,.9,2.3,1.66,1.66,0,0,1-2.3.9Z" transform="translate(0.03)"/><circle class="cls-5" cx="69.73" cy="412.8" r="11.9"/><path class="cls-1" d="M613.8,427.2H169.1a40.42,40.42,0,0,1-40.4-40.4V40.4A40.42,40.42,0,0,1,169.1,0H613.8a40.42,40.42,0,0,1,40.4,40.4V386.7A40.57,40.57,0,0,1,613.8,427.2Z" transform="translate(0.03)"/><path class="cls-2" d="M518,358.1H265a23,23,0,0,1-23-23h0V92.1a23,23,0,0,1,23-23H518a23,23,0,0,1,23,23h0v243a23,23,0,0,1-23,23Z" transform="translate(0.03)"/><path class="cls-3" d="M518,358.1H265a23,23,0,0,1-23-23h0V92.1a23,23,0,0,1,23-23H518a23,23,0,0,1,23,23h0v243a23,23,0,0,1-23,23ZM265,71.1a21,21,0,0,0-21,21h0v243a21,21,0,0,0,21,21H518a21,21,0,0,0,21-21h0V92.1a21,21,0,0,0-21-21H265Z" transform="translate(0.03)"/><path class="cls-5" d="M388.2,157.6H345.7a4.1,4.1,0,1,1,0-8.2h42.5a4.06,4.06,0,0,1,4.1,4.1A4.12,4.12,0,0,1,388.2,157.6Z" transform="translate(0.03)"/><path class="cls-6" d="M483.4,174.2H345.7a4.1,4.1,0,1,1,0-8.2H483.5a4.06,4.06,0,0,1,4.1,4.1A4.14,4.14,0,0,1,483.4,174.2Z" transform="translate(0.03)"/><circle class="cls-5" cx="310.73" cy="160.8" r="12.3"/><circle class="cls-1" cx="269.73" cy="98.8" r="12.3"/><path class="cls-2" d="M309,167.2a1.61,1.61,0,0,1-1.1-.5l-3.3-4.5a1.27,1.27,0,0,1,.2-1.8.1.1,0,0,0,.1-.1,1.42,1.42,0,0,1,1.9.3h0l2.2,2.9,5.6-8.4a1.37,1.37,0,1,1,2.3,1.5h0l-6.7,10a1.43,1.43,0,0,1-1.2.6Z" transform="translate(0.03)"/><path class="cls-3" d="M275.3,97.8h-9l3.4-3.5a.85.85,0,1,0-1.1-1.3l-.1.1h0L263.7,98a.91.91,0,0,0,0,1.2l4.8,4.9a.85.85,0,1,0,1.3-1.1l-.1-.1-3.4-3.5h9a.79.79,0,0,0,.8-.8h0a.79.79,0,0,0-.8-.8Z" transform="translate(0.03)"/><polygon class="cls-7" points="183.43 612.9 193.33 612.9 198.03 574.7 183.43 574.7 183.43 612.9"/><path class="cls-8" d="M183,623.3h30.4v-.4A11.86,11.86,0,0,0,201.5,611h0l-5.6-4.2L185.5,611H183Z" transform="translate(0.03)"/><polygon class="cls-7" points="138.43 612.9 148.33 612.9 153.03 574.7 138.43 574.7 138.43 612.9"/><path class="cls-8" d="M138,623.3h30.4v-.4A11.86,11.86,0,0,0,156.5,611h0l-5.6-4.2L140.5,611H138Z" transform="translate(0.03)"/><path class="cls-8" d="M207.5,367.7s16,19.8,12.9,25-8.1,3.4-3.1,8.8,7,5.5,3.5,9.4-6.5,90.7-6.5,90.7l-16,90.3-17.6,1.6s-3.3-11-3.4-15.3-.1-.6-.1-9.4,3.2-2,.1-10.4-6.9-33.3,0-45.4,1.5-1.5,1.5-1.5l-5.4-81.9-10.2,84.3s0,29-5,50l-.8,29.6-21.6-.8s-5.6-8.8-3.6-18.8-6-15-6-20,.4-52.8.4-52.8l4.7-99.6s-4.1-22.6,4.9-31.6S207.5,367.7,207.5,367.7Z" transform="translate(0.03)"/><path class="cls-5" d="M159.8,190.7l21,1c-.2,6.1,3.2,11.9,10,17.3l11.4,11.8,3,26-3,98,17,40c-22.8,8.9-49.5,12.9-87,3-4.2-4.5,1.2-30.8,3.6-50.4,0,0,5.3-8.2.5-14.1s1.9-42.6,1.9-42.6l2-41c-1.1-13.3-10.6-23.3-.1-31.5h0A56.19,56.19,0,0,0,159.8,190.7Z" transform="translate(0.03)"/><path class="cls-3" d="M190.8,209.1l14.3,4.3,12.1,30-7.4,93.4s-1.5,5.6,1.3,4.8,1.6,6.3,1.6,6.3l10.1,38.9-96.5-7.9,9.6-41.4s-7.1.2-2.1-4.8,3.3-2-1.5-7.9a10.31,10.31,0,0,1-1.4-11.6l-2.1-29.3-3.5-41.2a39.89,39.89,0,0,1,14.9-34.5h0C155.1,199.5,172.3,201.5,190.8,209.1Z" transform="translate(0.03)"/><path class="cls-7" d="M108.7,396.6a7.75,7.75,0,0,1,1.9-10.6c.4-.2.7-.4,1.1-.6l-2.6-26.9,13.2-6.1-.4,37.2a7.83,7.83,0,0,1-2.7,9,7.47,7.47,0,0,1-10.3-1.8h0A.22.22,0,0,1,108.7,396.6Z" transform="translate(0.03)"/><path class="cls-3" d="M99.3,321.7l10,51,1.2-.1,11.6-.8,1.2-.1-1-46c-2.7-2.7,1.9-12,7.8-23.2,2.2-4.1,4.6-8.5,6.9-13l1.2-2.4a135.07,135.07,0,0,0,7.5-17l-16.6-47-.4-1.2s-3.5,8.4-8.1,20.6a23.07,23.07,0,0,0-1,2.8C110.6,269,98.7,304.2,99.3,321.7Z" transform="translate(0.03)"/><path class="cls-7" d="M309.3,171.7a7.72,7.72,0,0,1-9.7,4.8,3.7,3.7,0,0,1-1.1-.5l-20,18.1-12.8-6.9,30.1-21.9a7.7,7.7,0,0,1,8.9-3.2,7.32,7.32,0,0,1,4.7,9.3h0C309.3,171.6,309.3,171.6,309.3,171.7Z" transform="translate(0.03)"/><path class="cls-3" d="M157.4,260s29.7-7.3,57.2-17.1c.7-.3,1.4-.5,2.2-.8,15.7-5.6,30.3-12,38.1-18.2l34.9-38.5-.8-.9-7.6-8.8-.8-.9-36.3,28.3c-.6,3.7-10.3,5.6-22.4,7.5-.7.1-1.4.5-2.1.3-11.4-3.5-24.3,2.3-33.9,6.6Z" transform="translate(0.03)"/><circle class="cls-7" cx="171.23" cy="162.4" r="25.1"/><path class="cls-8" d="M154.7,188.7c4.2-2,9.1-.8,13.7-.6s10.3-1.6,11.2-6.1c.7-3.4-1.5-7-.1-10.2,1.5-3.4,6-3.9,9.6-4.9a22.15,22.15,0,0,0,16-20.8c.3,1.9-3,2.5-4,.9s-.3-3.7.8-5.2,2.7-2.7,3.6-4.4.7-4.2-1-5a14.21,14.21,0,0,1-8.8,7.3c.8-2.4-.3-5-2.1-6.8a23.06,23.06,0,0,0-6.4-3.8c-5.8-2.5-12.5-5-18.2-2.1a10.72,10.72,0,0,0-5.6,7.6c-10.4.9-21,12.1-20.4,22.5.6,11.2,1.1,12.1,10.4,30.9" transform="translate(0.03)"/><path class="cls-1" d="M44.7,625.4v-.3a34.09,34.09,0,0,1,12.8-25.7,34.47,34.47,0,0,1,7.1-4.3l.2-.1v.3c.5,3.1,1.3,6.3,1.6,7.8l2.4-9.5.3-.1a6.5,6.5,0,0,1,6.9,2.2,6.67,6.67,0,0,1,.7,7.4c-.6,1.1-1.1,2.2-1.7,3.2-1.9,3.7-3.8,7.5-6.6,10.4a20.46,20.46,0,0,1-16.7,6.2Z" transform="translate(0.03)"/><path class="cls-9" d="M284.2,625l-239.8.3a1.2,1.2,0,0,1,0-2.4h0l239.8-.3a1.2,1.2,0,0,1,1.2,1.1v.1A1.16,1.16,0,0,1,284.2,625Z" transform="translate(0.03)"/><path class="cls-5" d="M287.77,290.74l3.06-21.66-2-2.28h12.6L298,290.74h6.24l4.2-29.64H289.09l.78-5.7h45.6l-.78,5.7H319.87l-1.38,9.66h13.68l-.78,5.7H317.65l-2,14.28h17.1l-.78,5.7H281.83l.78-5.7Z" transform="translate(0.03)"/><path class="cls-5" d="M365.41,260h24.18l-.78,5.7h-27.3L355,275.32,352,296.44h-11.4l2-14.82h-4.56l10.92-16h-6.9l.78-5.7h10l2.88-4.2-1.32-1.5h14.82ZM367,274.78l1-6.84h11.4l-1,6.84H387l-.78,5.7h-8.52l-1.44,10.26h9.66l-.78,5.7H354.31l.78-5.7h9.72l1.44-10.26h-8.58l.78-5.7Z" transform="translate(0.03)"/><path class="cls-5" d="M403.63,281.44l-.84,5.94-9.78,1.2.84-5.94Zm-9.06-2.82,4.68-15.36h6.24l-2.82,9.66h2.1L408.55,261h-10.8l.78-5.7h18.24L416,261l-3.66,11.88h2.22l-2.88,20.52a4.33,4.33,0,0,1-1.59,2.85,4.65,4.65,0,0,1-3,1.11H395.47l3.84-5.76h4.26l1.86-13Zm50.16-3-5.28,15.24H443l-.78,5.58H412.45l.78-5.58H432l5.28-15.24Zm-9.42-8.1-1.62-8h-2.76l-6.6,12.78h-8.76L424,256.6l-1.92-2.22h18.6L445,272.26h-8.7l-.72-3.36-.48,4.2h-9.42l1.14-5.58Zm-11.94,8.1-.12,14h-7.44l.12-14Zm9.42,0-.72,14h-7.44l.72-14Z" transform="translate(0.03)"/><path class="cls-5" d="M448.09,296.38l3.54-25h-3.48l.78-5.7h13.2L459,287.92l2.82-1-.84,5.94Zm12.72-41,1.62,8h-8.88l-1.62-8Zm3.66,35,3.18-22.62H477l-3.18,22.62h3.36l4.08-29.16H467.35l.84-5.76h32.16l-.84,5.76h-8.22l-1.44,10.26h6.6l-.78,5.58h-6.6l-1.86,13.32h8.34l-.84,6h-33.3l.84-6Z" transform="translate(0.03)"/></svg>