<svg xmlns="http://www.w3.org/2000/svg" viewBox="0 0 1269.29 1021"><defs><style>.cls-1{fill:none;stroke:#000;isolation:isolate;opacity:0.05;}.cls-1,.cls-2{stroke-miterlimit:10;}.cls-2{fill:#fff;stroke:#e6e6e6;stroke-width:2px;}</style></defs><g id="图层_1" data-name="图层 1"><g id="图层_2" data-name="图层 2"><path class="cls-1" d="M483.31,701H467.57c-4.75,0-7.06,2.85-7.06,8.14-.13,6.38-.13,12.9,0,19.28.14,6.1,2.31,8.55,7.74,8.68A92.56,92.56,0,0,0,480.6,737c3.8-.41,4.75,1.36,4.48,5.43s0,8.41,0,12.62c0,10,0,10-8.55,10s-10,1.63-10,12v296.43c0,7.06,1.9,9.64,7.2,9.64,24.43.13,49,0,73.43,0,2.44,0,5.15-.55,5.7-3.13,1.22-6.51,5.15-5,8.82-5.15h5.7c5.16-.14,7.19-2.31,7.19-8.55q.21-44.6.14-89c0-38.14-.41-76.28.13-114.42C575.07,837,593,818.68,615,820.17c19.41,1.36,34.07,20.49,34.2,44.79.14,50.76,0,101.52,0,152.29v45.19c0,2.86-.13,7.06,2,7.61,6.11,1.49,11,8,16.83,8.14,43.3.54,86.59.27,129.76.27,1.9,0,4.34,0,5.15-2.17,1.77-5,5.3-4.07,8.69-4.07h8.82c9.1,0,10.45-1.5,10.45-12.08V701.68c0-2.85-.13-5.7.55-8.28,13.43-55.24,42.62-92.84,90.26-109.81,13.3-4.75,13.16-4.47,13.7,11.68.14,4.48-1.08,6.11-4.75,7.06-20.63,4.88-38.41,16.15-53.47,33.11-23.62,26.61-35,59.32-35,97.59.14,110.89,0,221.65.14,332.54,0,3-1.9,8.28,2.44,8.28,4.07,0,2.44-5.3,2.44-8.42.14-111-.13-222.05.14-333.08.13-51.3,20.22-89.58,59-113.6,10.72-6.65,21.72-13.3,35.42-9.37,8.83,2.58,18.46.68,27.83.41,3-.14,5.56-2.71,9.23-1.63,22.8,6.38,42.07,19.82,57.41,40.45,18,24.29,26.33,52.66,26.33,84.56V1067.6c0,1.9,0,3.94,2.17,4.07s2.72-1.9,2.85-4.07V733.17a152.78,152.78,0,0,0-1.35-22.26q-12.82-80.62-79.68-106.55c-3.66-1.36-9,0-10.58-4.48-1.36-3.93.13-9.09,0-13.71-.14-5,1.36-5.83,5.56-4.75,38.55,10.05,66.92,35.56,85.92,75.33a128.79,128.79,0,0,1,13,57.82c-.54,114.83-.27,229.66-.27,344.62v5.43c.13,5,2.44,7.73,6.78,7.87h15.48c1.49,0,3.12-.68,3.93,1.63,1.63,4.75,5.16,4.48,8.69,4.48h124.19c4.21,0,8.42.68,10.45-5.16.55-1.49,1.77-1,2.72-1,8.41-.82,9.23-1.77,9.23-11.67V867a60.92,60.92,0,0,1,1.08-13.17c4.35-21.58,21.18-35.29,40.59-33.25,18,1.9,32.3,20.36,32.84,42.62.27,11,.14,22.12,0,33.11-.13,42.35-.13,84.7-.27,127.05,0,14.25.14,28.5.27,42.75.14,6.79,1.9,9,7.87,9.09h9.37c1.63,0,2.85,0,3.39,2.45,1.09,5,4.48,5.83,8.42,5.83,23.07-.13,46.15,0,69.35,0,8.42,0,9.91-1.63,9.91-11.53V773.07c-.13-4.88-2.44-7.33-6.38-7.6a71.3,71.3,0,0,0-9.36,0c-2.31.14-3-1-2.85-3.53.13-6.78.27-13.71,0-20.49-.14-3.8,1.22-4.21,3.93-4.08,4.35.28,8.69.14,12.9,0,5.43-.13,7.6-2.57,7.74-8.82s.13-12.48,0-18.73-2.31-8.55-7.74-8.68c-4.75-.14-9.37,0-14.93,0,1.36-1.63,1.9-2.31,2.44-3,8.28-9.91,10.45-21.45,6.11-34.34-4.21-12.22-13.71-19.27-25.65-19.27-5.7,0-11.4.27-17.11,0-13.3-.68-22.93,5.29-28.91,19.41,0,.13-.54,0-.81,0V647.66c-.14-6.52-2.31-9-8-8.82s-11.4.4-17.1.27c-17.1-.55-33.66-3.67-48.86-13.17-26.06-16.29-36.92-43.3-39-76.41-.27-5.16.41-7.6,5.57-7.2,6.65.55,8.28-1.76,8.41-9.36V502.84c0-7.47-1.9-9.51-8.41-9.64H1243c2.57-3.94,4.2-6.65,6-9.37,19.54-30.4,39-60.8,58.5-91.21,1.76-2.71,3.53-5.56,2-9.23-1.63-3.93-4.61-4.34-7.87-4.2h-9c2.58-3.4,4.07-5.43,5.7-7.47,2.17-2.85,4.62-5.56,2.85-10s-5-4.21-8.28-4.35c-5.83-.13-11.8.68-18.32-.54,2.85-4.75,5.29-8.82,7.74-12.89s5.29-8.42,7.73-12.76c3.26-5.7,1-10.86-4.75-11.54a25,25,0,0,0-3.12,0H1108.48a18,18,0,0,0-4.62.27c-2.57.68-5,2.45-4.61,5.57.81,6.11-2.31,5.56-5.7,5.56H814.76c-1.35,0-2-.27-2.31-2.3-1.08-8.69-1.62-9.1-9-9.1H628.68c-3.26,0-6.38.14-8,4.07-1.49,3.67.27,6.52,1.9,9.37,4.75,7.74,9.5,15.61,14.93,24.57h-21c-2.85,0-5,1.35-6.1,4.61-1.09,3-.28,5.43,1.49,7.74,2.17,2.85,4.21,5.56,7.19,9.5H610.9c-3.26,0-6.65-.27-8.55,3.93s.27,7.2,2.3,10.32Q634.38,440.33,664.1,487c1.23,1.9,2.31,3.8,3.94,6.51-5,0-9.37-.14-13.57,0-5.84.14-7.88,2.31-7.88,9.09-.13,9.1,0,18.06,0,27.15,0,11.81.55,12.62,10.59,13,2.72.14,3.8.81,3.39,4.07-.54,5-.54,10.05-1.22,14.93C654.2,597.57,637.5,622,607.23,633c-16.56,6.11-33.52,7.06-50.62,6-6.93-.41-9,1.9-9,10V665.3c-9.23-17.23-14.52-20.49-31.35-20.49-5.71,0-11.41-.14-17.11,0-11.8.27-22,9.5-25.11,22.8C470.42,680.23,474.08,691.09,483.31,701ZM954.43,313.09h326.29a33.12,33.12,0,0,0,5.16-.27,2.39,2.39,0,0,0,2-2.45c.14-1.63-.54-2.71-1.9-3a20.64,20.64,0,0,0-4.07-.27c-18.59,0-37.19-.14-55.78.13-4.35,0-5.84-.81-5.71-6.38.41-20.22.14-40.58.14-60.8,0-8.69-1.76-10.73-9.09-10.73h-76c-7.06,0-8.82,2.17-8.82,10.45,0,20.63-.14,41.4.13,62,0,4.75-1.22,5.57-4.88,5.57-39.64-.14-79.27,0-118.9-.14-4.35,0-10,2.31-12.9-1.08-2.58-3.13-.54-9.51-.68-14.53-.27-6.78-1.9-8.82-7.87-8.82-6.51-.14-13.16-.14-19.68,0-3,.14-4.61-.95-4.21-4.61.14-1.63,0-3.26,0-4.76V70.4c0-2.44,1.09-6.65-2.44-6.65-3.8,0-2.31,4.21-2.44,6.65-.14,15.89,0,31.77,0,47.65q0,79,.13,157.85c0,5.16-.67,7.73-5.83,7.19-6.38-.54-12.76-.13-19.14-.13-4.61,0-7.06,2.71-7.06,8.14,0,3.66-.27,7.19,0,10.86.41,4.48-.81,5.7-4.75,5.7q-63.31-.21-126.77,0c-3.53,0-4.61-1.09-4.61-5.29q.19-31.37,0-62.71c0-7.87-1.9-10-8.69-10H699.53c-6.92,0-8.55,2-8.55,9.91,0,20.9-.14,41.81.13,62.71,0,4.21-1,5.43-4.61,5.29-19.27-.27-38.55-.13-58,0-2.44,0-6.65-1.63-6.51,3s4.34,2.71,6.78,2.71Q791.49,313,954.43,313.09Z" transform="translate(-264.76 -62.98)"/><path class="cls-1" d="M483.31,701c-9.23-9.91-12.76-20.77-9.77-33.93s13.3-22.4,25.11-22.8c5.7-.14,11.4,0,17.1,0,16.83,0,22.13,3.39,31.36,20.49V648.47c0-8.14,2-10.45,8.95-10,17.11,1,34.07,0,50.63-6,30.27-11.13,47-35.43,52.12-71.26.68-4.89.68-10,1.22-14.93.27-3.26-.81-3.94-3.39-4.07-10-.41-10.59-1.09-10.59-13,0-9.1-.13-18,0-27.15.14-6.78,2-9,7.87-9.09,4.21-.14,8.55,0,13.58,0-1.63-2.72-2.72-4.75-3.94-6.52l-59.45-93.24c-1.9-3.12-4.21-6-2.31-10.32s5.3-3.93,8.56-3.93h8.14c-3-3.94-5.16-6.65-7.19-9.51-1.77-2.3-2.58-4.75-1.5-7.73a6.33,6.33,0,0,1,6.11-4.62h21c-5.43-8.95-10.18-16.69-14.93-24.56-1.77-2.85-3.53-5.7-1.9-9.37,1.63-3.93,4.75-4.07,8-4.07H803c7.33,0,7.88.41,9,9.09.27,2,1,2.31,2.31,2.31H1093c3.39,0,6.51.41,5.7-5.56-.41-3.13,2-4.89,4.61-5.57a17.49,17.49,0,0,1,4.62-.27h173.73a23.2,23.2,0,0,1,3.12,0c5.84.68,8,5.84,4.75,11.54-2.44,4.34-5.16,8.55-7.74,12.76l-7.73,12.89c6.51,1.22,12.48.41,18.32.54,3.39.14,6.65,0,8.28,4.35s-.68,7.19-2.85,10c-1.63,2-3.12,4.07-5.7,7.46h9c3.26-.13,6.24.28,7.87,4.21s-.14,6.52-2,9.23c-19.54,30.4-39,60.81-58.49,91.21-1.77,2.72-3.4,5.43-6,9.37H1256c6.65.13,8.41,2.17,8.41,9.63v30.13c0,7.61-1.76,9.91-8.41,9.37-5.16-.41-5.84,1.9-5.57,7.19,2,33.12,12.76,60.13,39,76.42,15.2,9.5,31.89,12.62,48.86,13.16,5.7.14,11.4-.13,17.1-.27s7.87,2.31,8,8.83c.13,5.42,0,10.85,0,16.28.4,0,.81.14.81,0,5.84-14.11,15.61-20.08,28.91-19.41,5.7.28,11.4,0,17.1,0,12,.14,21.45,7.06,25.66,19.28,4.34,12.89,2.17,24.29-6.11,34.34-.54.68-1.09,1.49-2.44,3h14.93c5.42.14,7.6,2.45,7.73,8.69s.14,12.49,0,18.73-2.31,8.69-7.73,8.82c-4.35.14-8.69.14-12.9,0-2.71-.13-4.07.41-3.93,4.07.27,6.79.13,13.71,0,20.5,0,2.58.67,3.66,2.85,3.53q4.68-.21,9.36,0c4.07.27,6.24,2.85,6.38,7.6V1071.4c0,9.91-1.36,11.54-9.91,11.54h-69.36c-3.93,0-7.32-.81-8.41-5.84-.54-2.44-1.77-2.58-3.39-2.44h-9.37c-5.84-.14-7.74-2.17-7.87-9.09-.14-14.25-.27-28.51-.27-42.76q0-63.52.27-127c0-11,.13-22.12,0-33.12-.54-22.26-14.8-40.58-32.85-42.62-19.27-2-36.1,11.68-40.58,33.26a60.83,60.83,0,0,0-1.09,13.16v193.82c0,9.91-.81,10.86-9.23,11.68-1,.13-2.17-.41-2.71,1-2,6-6.38,5.15-10.45,5.15H1114.59c-3.53,0-7.06.28-8.69-4.48-.81-2.3-2.58-1.62-3.94-1.62h-15.47c-4.34,0-6.65-2.72-6.79-7.88v-5.43c0-114.82-.27-229.78.28-344.61a128.79,128.79,0,0,0-13-57.82c-19-39.77-47.37-65.42-85.92-75.33-4.21-1.09-5.7-.27-5.57,4.75.14,4.62-1.35,9.77,0,13.71,1.5,4.48,6.93,3.12,10.59,4.48q67,25.86,79.67,106.55a134.21,134.21,0,0,1,1.36,22.25v334.44c-.13,2.17-.54,4.21-2.85,4.07s-2.17-2.17-2.17-4.07V732.62c0-31.89-8.42-60.39-26.33-84.55-15.34-20.63-34.48-33.94-57.41-40.45-3.67-1.09-6.25,1.49-9.23,1.63-9.37.27-19,2.17-27.83-.41-13.71-3.94-24.7,2.71-35.42,9.37-38.82,24.16-58.91,62.29-59.05,113.6q-.4,166.55-.13,333.08c0,3,1.63,8.41-2.44,8.41-4.35,0-2.45-5.29-2.45-8.28q-.19-166.34-.13-332.53c0-38.28,11.4-71,35-97.59,15.07-17,33-28.1,53.48-33.12,3.67-.81,4.89-2.44,4.75-7.06-.54-16.28-.41-16.42-13.71-11.67-47.64,17-76.95,54.56-90.26,109.81-.67,2.58-.54,5.56-.54,8.28v358.45c0,10.59-1.22,12.08-10.45,12.08H811.1c-3.26,0-6.79-1-8.69,4.08-.81,2-3.12,2.17-5.16,2.17-43.29,0-86.59.27-129.75-.27-5.84-.14-10.59-6.65-16.83-8.15-2.31-.54-2-4.75-2-7.6V864.42c0-24.3-14.79-43.44-34.2-44.79-22-1.5-39.91,16.83-40.18,42.62-.41,38.14,0,76.27-.13,114.41q0,44.6-.14,89c0,6.11-2,8.28-7.19,8.55-1.9.14-3.8,0-5.7,0-3.53.14-7.61-1.35-8.83,5.16-.54,2.58-3.25,3.12-5.7,3.12H473.13c-5.43,0-7.19-2.58-7.19-9.63V776.46c0-10.31,1.36-11.94,10-11.94s8.55,0,8.55-10c0-4.21-.27-8.42,0-12.63s-.67-5.83-4.47-5.42c-4.08.4-8.28.13-12.36.13-5.42-.13-7.6-2.58-7.73-8.69-.14-6.38-.14-12.89,0-19.27.13-5.29,2.44-8.14,7.06-8.14A156,156,0,0,0,483.31,701Zm347.2-80.76c1.35-2,1.9-2.71,2.44-3.53,24.3-37.59,56.19-60.94,95.82-69.35,3.26-.68,4.62-1.77,4.35-6-.41-5-3.4-3.12-5.3-3.12-28.23-.13-56.59-.13-84.83-.13-7.33,0-9.23-2.18-9.23-10.59V456.42c0-8.55,1.9-10.73,9.23-10.73h222.87c7.33,0,9,2,9,10.73v70.44c0,9.37-1.49,11.13-9.64,11.13H982.39c-3.26,0-5,.41-5,5,0,3.67,1.62,3.53,3.8,4.07,39.9,8.55,72.07,31.9,96.36,69.63.55.82.68,2.45,2.31,1.63v-62c0-8.14,1.9-10.31,8.82-10.45h30.54c1.63,0,4.07.82,3.94-2.17-.14-2.71-2.45-1.36-3.8-1.49-11-.14-22.13,0-33.12-.14-5.43,0-7.47-2.44-7.47-8.82-.13-10.18,0-20.5,0-30.68,0-7.32,2-9.63,8.42-9.63,10-.14,19.95-.14,30,0,3,0,4.2-.68,4.2-4.62.27-17,.41-17,14.93-17h91.48c7.2,0,9,1.9,9,10.18v8.82a19,19,0,0,0,1.77-1.77q32-49.87,64.06-99.89c.54-.95,1.63-1.77,1.22-3.12-.68-1.63-2-1.09-3.26-1.09h-20.22c5.16-6.51,9.37-11.94,13.57-17.37.68-.95,2.18-1.9,1.5-3.4s-2-1.08-3.26-1.08c-6,0-12.08.13-18-.14-3.12-.13-5,1.22-6.79,4.07-9.64,16.16-19.54,32-29.18,48.19-2.31,3.8-4.89,5.56-9,5.56-32.71-.13-65.56-.13-98.27,0-5,0-7.33-2.3-8.82-7.73-6.51-23.89-13.3-47.64-19.81-71.53-1.09-3.94-2.58-5.16-6.25-5.16q-140.68.81-281.63.41c-3.81,0-5.3,1.49-6.52,5.56-6.38,23.75-13.17,47.24-19.54,71-1.5,5.83-4.21,7.87-9.37,7.87q-48.85-.21-97.72,0c-4.08,0-6.66-1.49-9-5.43-9.64-16.15-19.41-32.17-29.18-48.18-1.23-2.17-2.31-4.35-5.16-4.21-6.79.14-13.44,0-20.23,0-.95,0-2.3-.14-2.85,1-.81,1.63.68,2.44,1.36,3.53,4.21,5.43,8.55,10.86,13.71,17.37H610.76c-1.49,0-3.39-.81-4.21,1.09s1.09,3.12,1.9,4.48q31.15,49.07,62.58,98.13c.54.81.81,2.31,2.44,2V484c0-11.27.95-12.49,10.59-12.49h90c11.68,0,15.75-3.25,14.8,16.56-.14,4.07,1.08,5,4.34,5,10.18-.27,20.36-.13,30.54-.13,4.62,0,7.74,2.31,7.74,8.14.13,11,.13,22.13,0,33.12,0,5.29-2.45,8-7.2,8H789.65c-1.08,0-2.71-.68-2.58,1.63.14,1.76,1.5,2,2.72,2h31.08c8,0,9.77,1.9,9.77,11.27C830.51,577.62,830.51,598.12,830.51,620.24Zm341.76,79.81c0,48.05,0,96-.13,144,0,4.61.67,9.5,4.61,9.63,3.67,0,4.34-4.75,4.34-9.23q-.19-141.5-.13-283.12v-7.2c.68-14.93,11.4-27.14,24.16-27.69,15.06-.68,26.6,12.76,26.6,31.08v286.8c0,3.66,0,6.79,3.12,9.36s4.48,7.06,3,10.73c-2.31,5.7-.54,10.72-.27,16.15.27,7.74,2.85,8.14,7.73,7.46a32.09,32.09,0,0,1,7.2,0c3,.28,3.8-1.08,3.8-4.48-.14-8.27-.14-16.42.27-24.7.13-3.26-1.36-3.66-3.26-4.07-4.88-1.36-9.77-2.58-14.66-3.94-1.9-.54-4.2-.81-3.66-3.8.68-3.39,3-2.3,5.16-1.76,2.71.81,5.42,1.36,8,2,8.69,2.3,8.69,2.3,12.9-6.93a9.79,9.79,0,0,1,1.08-2c1.9-2.31,1.23-3.94-.54-6-4.75-5.3-9.36-10.73-13.84-16.16-1.36-1.63-3.94-3.39-1.9-5.83,2.3-2.85,3.93.27,5.43,2,3.12,3.53,6.1,7.06,9.22,10.59,1.91,2.31,3.67,5.56,6,6.38,2.71,1,3.93-3.67,6.24-5,1.09-.68,1.9-1.63,3-2.31,2.58-1.49,2.85-3.26,1.63-6.24-2.72-6.79-5-13.58-7.33-20.5-.82-2.17-2.72-5.29.4-6.65s3.4,2.58,4.21,4.62c1.9,4.75,3.53,9.63,5.16,14.38,3.26,9.1,3.26,8.82,11.81,7.33,3.66-.68,4.34-2.17,4.2-6-.27-7.06-.13-14.12-.13-21,0-2.44-.27-5.56,2.44-5.7,3-.13,2.58,3.12,2.58,5.43v14.52c0,11.54,0,11.27,9.37,14.39,2.85,1,3.93.14,4.88-2.85,2.44-7.06,4.89-14.12,7.47-21,.81-2,1.35-5.43,4.07-3.8s1.08,4.07.41,6.25L1322,809c-1.22,3.53-3.66,7.19-3.39,10.59s4.61,4.2,6.78,6.65a9.07,9.07,0,0,1,1.5,1.76c1.49,2.44,2.71,2,4.34,0,4.21-5.29,8.69-10.31,13.17-15.34,1.49-1.76,3.25-4.88,5.56-2.44s-.41,4.62-1.76,6.38c-4.48,5.29-9,10.45-13.44,15.75-1,1.22-2.31,2-1.49,4.47,4.75,13.44,4.61,13.44,17,10.32.14,0,.27-.14.54-.14,3.94-.4,5.3-2.44,5.16-7.33-.27-21.44-.13-43-.13-64.47,0-7.33,2-9.77,8.28-9.9,2.44,0,4.88-.14,7.19,0,2,.13,3-.41,3.12-3.26.27-4.62-.13-6.92-5.29-6.92-40.72.27-81.44.13-122,.13H1243c-1.9-.13-3.67-.54-3.4-3.39.14-2.44,1.9-2.44,3.53-2.44h3.67c41,0,82.11,0,123.1.13,3.4,0,4.62-.68,4.75-5.16.14-5.15-2-5.29-5.29-5.29q-62.3.21-124.6,0c-2,0-5.16,1.09-5-3,.13-3.66,3-2.58,4.88-2.58,10.05-.13,20,0,30,0,23.75,0,47.64-.13,71.39.14,3.67,0,4.62-1,4.48-5.29-.4-6.38,0-12.9-.13-19.28,0-3.93,1.35-7,4.75-7.46,3-.41,3.12-2.17,3.12-4.75,0-15.88-.14-31.76,0-47.64,0-3.8-1.09-4.75-4.21-4.62-10.72.55-21.31.55-32-1.08-19.68-3.12-37.87-10.45-52.53-26.88-16.28-18.32-22.94-41.53-24.16-67.18-.68-12.22-.54-12.35,9.91-12.63,3.12-.13,4.21-1.22,4.21-4.88-.14-9.5-.14-18.87,0-28.37,0-3.26-1-4.75-3.94-4.61-5,.13-10,.27-14.93,0-3-.14-3.66,1.22-3.8,4.47-.13,6.66-2,8.56-8.14,8.56h-99.36c-5.83,0-7.73-1.9-7.87-8.83-.13-3.53-1.22-4.34-3.93-4.2-9.64.13-19.28.27-28.91,0-3.53-.14-4.89.95-4.75,5.43.27,8.95.27,18,0,27.14-.14,4.34,1.22,5.43,4.75,5.43,11.67-.27,23.48-.14,35.15,0a8.14,8.14,0,0,0,6.38-3,22.31,22.31,0,0,1,15.47-7.33c15.07-.67,26.47,12.49,26.61,30.95C1172.27,604.9,1172.27,652.54,1172.27,700.05Zm-443,.54c0,48.46,0,96.78-.13,145.23,0,4.35,1.49,8,4.61,7.87,2.72-.13,4.48-3.8,4.35-8.14-.28-20.9-.14-41.8-.14-62.71V558.08c0-13,4.34-23.21,14.52-28.91s20.09-3.67,28.64,5.29a5.8,5.8,0,0,0,4.75,1.9c12.22,0,24.43-.13,36.78,0,3.4,0,3.94-1.63,3.94-5-.14-9.23-.27-18.46,0-27.69.14-4.07-1.22-5.16-4.48-5q-14.46.19-28.91,0c-3,0-4.21.68-4.21,4.61,0,6.52-2,8.55-7.6,8.55H681.61c-5.83,0-7.6-1.9-7.87-9-.14-3.13-.81-4.35-3.53-4.21-5,.13-10,.27-14.93,0-3.12-.14-4.21,1.22-4.21,4.88q.21,13.85,0,27.69c-.13,3.94,1.09,5.16,4.48,5.3,10.18.13,10.18.27,9.64,12.35,0,.81-.14,1.63-.14,2.44-2.85,45.06-23.21,75.33-59.17,87.68-15.88,5.43-32.17,6.25-48.59,5.3-3.81-.28-5,.81-5,5.42.27,15.48.14,30.95.14,46.42,0,2.31-.41,4.62,2.85,4.89s4.89,3.39,4.89,7.33c0,6.38.4,12.89-.14,19.27-.27,4.75,1.09,5.57,4.75,5.57q49.68-.21,99.35,0c2.31,0,6.25-1.77,6.38,2.44.27,5-4.07,3.12-6.38,3.12-41,.14-82.11.14-123.1,0-3.26,0-5.3,0-5.3,5.16s2,5.16,5.3,5.16c40.85-.14,81.71,0,122.56,0h4.07c1.5,0,2.85.4,3,2.44a2.78,2.78,0,0,1-2.85,3.26c-1.49.13-3.12.13-4.62.13H540.59c-3.26,0-4.89.41-4.89,5s1.36,5.56,4.75,5a20.6,20.6,0,0,1,4.08,0c8.28,0,9.9,1.9,9.9,11.67v63.79c0,3.26.41,5.16,3.67,5.7,4.21.68,8.69,3.53,12.49,2.45,3.39-.82,2.85-7.6,5.43-10.86,1.9-2.31,1.22-3.94-.68-6-5-5.57-9.78-11.27-14.66-17-1.22-1.49-2.72-3.12-.82-5,1.63-1.77,3.13-.41,4.48,1.08,3.8,4.35,7.74,8.55,11.27,13.31,3.26,4.34,6.11,7.46,10,.95a8.32,8.32,0,0,1,3.4-2.72c2.57-1.49,2.71-3.26,1.62-6.24-2.85-7.33-5.42-14.8-8-22.13-.82-2.17-1.63-4.48,1-5.56,2.17-.95,3,1.36,3.66,3.12,1.77,5,3.67,9.91,5.43,14.93,3.8,10.59,3.8,10.32,13.57,8.28,3.12-.68,3.4-2.17,3.4-5.16-.14-7.6,0-15.2,0-22.94,0-2-.14-4.47,2.17-4.61,2.58-.14,2.71,2.58,2.71,4.75v16.29c0,10.31.14,10,8.55,12.76,3.67,1.22,4.75-.14,6-3.67,2.3-6.92,4.88-13.71,7.32-20.49.68-2,1.36-4.62,3.94-3.13,2.17,1.23,1.36,3.26.68,5.16-2,5.57-3.94,11.13-6,16.7-3.12,8.55-3.12,8.55,3.53,14.38a9.93,9.93,0,0,1,2.3,2.45c1.9,3,3.4,2.85,5.57.13,4.61-5.7,9.5-11.13,14.25-16.69,1.22-1.36,2.58-2.17,4.07-.68,1.63,1.76.55,3.26-.54,4.61-3,3.53-6.11,7.06-9.09,10.73-7.88,9.23-7.74,9.09-3.13,20.9,1.09,2.85,2.31,3.39,4.75,2.71,5-1.49,10.05-2.85,15.07-4.2,1.76-.55,3.66-.41,4.07,2.17.41,2.31-1.22,3.12-2.85,3.53-3.39.95-6.65,1.76-10,2.58-8.42,2.17-8.42,2.17-8.28,11.8,0,2.45-.14,4.89,0,7.2.27,5-1.77,11.26.81,14.52s8.15.54,12.35,1.09,6.11-.55,5-5.84a8.22,8.22,0,0,1,1.76-6.65c2-2.31,1.09-3.8-.14-6.11-2.85-5.16-3-11,1.09-14.79,3.8-3.67,3.67-7.6,3.67-12.08V557.81c0-10.59,3-19.28,10.31-25.52,8.14-7.06,17.24-8,26.33-2.72,9.5,5.57,14.25,14.8,14.25,27.15C729.25,604.63,729.25,652.54,729.25,700.59ZM1439,923.87V782.44c0-12,0-11.81-10.18-11.54-2.72,0-3.53.81-3.53,4.07.14,9,.14,18,0,27.15,0,7.06-2,9.63-7.87,9.63q-17.31.21-34.61,0c-5.84,0-7.88-2.57-8-9.63v-21c0-10,0-9.77-8.69-10-3.8-.14-5,1-5,5.56q.21,147.4,0,294.94c0,4.48,1,5.84,4.89,5.7q33.39-.4,66.64,0c4.88,0,6.38-1.09,6.38-7.06C1438.84,1021.45,1439,972.59,1439,923.87Zm-889.84.67V782.3c0-11.94,0-11.81-10.18-11.54-2.85.14-3.39,1.09-3.39,4.21q.2,13.85,0,27.69c-.14,6.24-2.31,8.82-7.6,8.82-11.67.14-23.48.14-35.16,0-5.43,0-7.6-2.58-7.6-8.68-.13-7.47,0-14.8,0-22.26,0-9.78,0-9.5-8.28-9.78-3.8-.13-5.43.55-5.43,5.7q.21,147.62,0,295.21c0,4.21.95,5.43,4.62,5.43,22.53-.13,45.2-.27,67.73,0,4.21,0,5.56-1.22,5.56-6.24C549,1022.13,549.14,973.27,549.14,924.54ZM825.35,809.18V558.62c0-4.34-.14-7.19-5-6.92a253.7,253.7,0,0,1-26.88,0c-3.66-.14-4.61,1.08-4.48,5.29.14,20.63.14,41.4.14,62V844.87c0,3-.14,5.57,2.44,7.87,4.75,4.48,5.43,10.46,1.9,16.56-1.35,2.31-1.22,3.4,0,5.57,4.89,9.09.27,19.54-9,19.81-13.84.28-27.55.14-41.39.14-3.67,0-6.52-3.94-9.23-4.07s-5.57,4.21-9.23,4.07c-5-.14-10,.41-14.93-.14-11.54-1.35-23.48,3.8-34.48-3.52a.63.63,0,0,0-.4-.14c-5.7,4.61-12.08,1.49-18.06,2.31-2.44.27-2.71,1.49-2.71,3.8,0,10.18.14,20.49,0,30.67,0,3.4,1.36,3.94,3.8,3.94s3.26-1,3.26-3.8c-.14-6.65,0-13.3,0-19.82,0-8,1.63-9.77,8.55-9.77H795.9c7.46,0,9,1.9,9,10.72,0,50.36,0,100.85-.13,151.2,0,4.48.54,6.65,4.88,6.11a43.45,43.45,0,0,1,10.32,0c4.61.68,5.7-1.36,5.7-6.65Q825.22,934.53,825.35,809.18ZM1085,808.9v239.84c0,5.7-2.17,13.16,1.08,16.69,3,3.26,9.23.41,14,1.09,5,.68,5.84-1.63,5.7-6.93q-.19-74.71-.13-149.43c0-10.18,1.22-11.68,9.64-11.68h124.59c8.15,0,9.37,1.5,9.51,11.27,0,6,.13,12.08,0,18-.14,3.12.67,4.21,3.52,4.21s3.53-1.22,3.53-4.34q-.2-15.07,0-30.14c0-2.57-.4-4.47-3.12-3.93-8.28,1.49-16.83-3.53-25,1.22a2.58,2.58,0,0,1-1.09.14c-14.11,0-28.37,1.08-42.35-.55a71.92,71.92,0,0,0-17.1,0c-14.11,1.63-28.64,1-42.89.41-8.55-.27-12.89-11-8.28-19.41,1.22-2.31,1.5-3.66,0-6.11-3.39-6-2.58-11.81,2.17-16.56,1.9-1.76,2.31-3.66,2.31-6.1V556.31c0-3.39-.81-4.48-3.66-4.48-8.42.28-16.83,0-25.38.14-8.15,0-7.33-1-7.33,8.28Q1085.14,684.44,1085,808.9ZM954.16,451.67c-36.65,0-73.43.13-110.08-.14-3.94,0-5.29,1.09-5.29,6,.27,22.53.27,44.93,0,67.46-.14,5.7,1.08,7.6,6.1,7.46,15.88-.4,31.76.55,47.51-.27s31.49,2.31,47.37-2.85c9.77-3.12,20.9-.54,31.35-.54a4.72,4.72,0,0,1,3.8,1.36c1.77,2,3.8,2.17,6.11,2.17,28,0,55.78-.14,83.74.13,4.35,0,5.16-1.76,5-6.24-.14-22.94-.14-45.74,0-68.68,0-4.88-1.36-6-5.3-6C1027.86,451.8,991.07,451.67,954.16,451.67ZM715.68,325.17H629.36c-1.5,0-3.4-.95-4.21.81s1,3.26,1.76,4.62c16.16,26.74,32.44,53.34,48.59,80.08,1.77,2.85,3.53,4.34,6.79,4.2q47.85-.19,95.69,0c3.39,0,4.89-1.35,5.84-5q10.78-39.5,22-78.86c1.36-4.88.82-6.1-3.66-6.1C773.37,325.3,744.59,325.17,715.68,325.17Zm479,0H1107.8c-2.85,0-5.16-.41-3.66,4.61q11.4,40.11,22.39,80.49c1,3.39,2.31,4.75,5.43,4.61q48-.19,96.1,0c2.85,0,4.75-1.22,6.37-3.93,16.29-26.88,32.58-53.61,48.87-80.49.81-1.36,2.71-2.71,1.76-4.61s-2.85-.82-4.21-.82C1252.22,325.17,1223.44,325.17,1194.67,325.17ZM784,700.46V557.13c0-14.39-8.68-25-20.36-25S743,542.33,743,556.86c-.13,96,0,191.92-.13,287.88,0,4.2,1.35,4.88,4.48,4.88,10.17-.13,20.35-.4,30.53.14,4.75.27,6.25-1,6.25-7.06Q783.88,771.45,784,700.46Zm342.45-.55c0,47.51.13,95.15-.14,142.65,0,6.11,1.49,7.2,6.24,7.06q14.46-.6,28.91,0c4.62.14,6-1.22,6-6.78q-.21-126.65-.14-253.54V557.4c0-8-2.17-15.07-7.74-20.09-6.51-5.84-13.84-7.06-21.31-2.85-7.87,4.34-11.8,11.94-11.8,22.12Zm-442.89-.67q0,71.65-.13,143.32c0,5.16.68,7.33,5.7,7.06a267.89,267.89,0,0,1,29.45,0c5,.27,5.84-1.9,5.7-7.06q-.19-75.93-.13-151.74V558.89c0-6.38-.82-12.35-4.35-17.51-5.43-8-14.52-11.26-22.66-7.87-8.56,3.39-13.71,11.94-13.71,23.07Q683.58,627.85,683.51,699.24Zm543.32,1.22V557.13c0-14.53-8.68-24.84-20.36-25s-20.35,10.32-20.35,24.84q0,143.75-.14,287.34c0,4.48,1.22,5.29,4.75,5.16,10.32-.27,20.63-.41,31.08,0,4.48.13,5.3-1.5,5.3-6.38C1226.83,795.6,1227,748.1,1226.83,700.46ZM1244.48,989c0-26.34-.14-52.67.13-78.86,0-4.21-.54-6-4.75-6q-62.29.19-124.59,0c-3.26,0-4.48.95-4.48,5q.2,79,0,157.85c0,4.61,1.08,5.7,4.88,5.7,41.26-.14,82.39-.14,123.65,0,4.07,0,5.29-1.22,5.16-6C1244.34,1040.86,1244.48,1014.94,1244.48,989Zm-444.92-.68V909.48c0-3.12,0-5.29-3.66-5.16q-63.12.21-126.23,0c-2.85,0-3.8.95-3.8,4.48.13,53.07.13,106,0,159.07,0,4.08,1.22,5,4.48,5q62.29-.21,124.6,0c3.66,0,4.61-1.23,4.61-5.43C799.42,1041,799.56,1014.67,799.56,988.34ZM730.75,506h48.59c3,0,4.88-.41,4.61-4.75-.27-6.65-.13-13.17,0-19.82,0-3.12-1-4.21-3.66-4.21-32.71,0-65.42.14-98.13,0-3,0-3.8,1.36-3.8,4.62.13,6.38.27,12.89,0,19.27-.14,4.07,1.08,5,4.34,5C698.85,505.82,714.73,506,730.75,506Zm448.44,0c16,0,32-.14,48,.13,3.94,0,5-1.35,4.75-5.83-.27-6.25-.27-12.49,0-18.6.14-3.53-1.08-4.48-3.93-4.48-32.58.14-65,.14-97.59,0-3.26,0-4.21,1.36-4.07,5,.13,6.24.27,12.48,0,18.59-.28,4.34,1.22,5.29,4.75,5.29C1147.16,505.82,1163.18,506,1179.19,506Zm221,144.14c-3.67,0-7.19-.13-10.86,0-12.08.27-21.44,10.86-21.85,24.43-.27,14,8.55,25.52,20.9,26.2a229.45,229.45,0,0,0,23.75,0c12.36-.68,21.18-12.22,20.77-26.2-.41-13.71-9.64-24-21.85-24.29C1407.35,650.1,1403.69,650.1,1400.16,650.1Zm-889.84.14c-3.8,0-7.6-.14-11.4,0-12.08.4-21.17,11-21.44,24.84-.14,13.7,8.68,25,20.76,25.65a229.64,229.64,0,0,0,23.76,0c12.21-.68,21.31-12.22,21-26.06-.27-13.57-9.77-24.16-21.85-24.57C517.52,650.1,513.85,650.1,510.32,650.24ZM830.51,672.5c.27,0,.54.13.81.13.54-1.35.95-2.71,1.49-4.21,17.51-46.14,46.56-77.09,88.36-91.07,4.21-1.36,10.32-.27,12.22-4.21s0-10.18.27-15.33-1.9-5.43-5.29-4.62q-61.29,14.25-96.1,74.65c-.81,1.5-1.9,2.85-1.9,4.75C830.51,645.89,830.51,659.2,830.51,672.5Zm249.33-.14v-39.9c0-1.9-1.09-3.26-2-4.75-21.44-37.19-50.62-61.49-88.08-72.35-12.9-3.66-12.63-3.66-13.44,11.4-.41,6,1.22,8,6.11,9.1,34.2,8.41,61.07,30,81.16,63.11C1069.93,649.42,1074.82,660.69,1079.84,672.36ZM490.1,770.9c0,10,.14,20.09,0,30,0,3.66.95,4.88,4.07,4.88,10.72-.13,21.31-.27,32,0,3.4,0,4.48-1.22,4.48-5.16-.13-19.68-.13-39.22,0-58.9,0-4.21-1.22-4.89-4.48-4.89-10.45.14-21,.41-31.49,0-4.2-.13-4.75,1.63-4.61,5.84C490.24,752.17,490.1,761.53,490.1,770.9Zm930.28.68c0-9.77-.13-19.68,0-29.45.14-3.67-.54-5.3-4.07-5.16-10.86.27-21.72.13-32.57,0-2.72,0-3.94.68-3.8,4.21.13,20.08.13,40,0,60.12,0,3.4,1,4.48,3.93,4.48q16.29-.19,32.58,0c3.25,0,4.2-1.22,4.07-4.88C1420.25,791.12,1420.38,781.35,1420.38,771.58ZM938.14,568.53h2c0,10.18.13,20.49,0,30.67,0,3.8,1.22,4.75,4.34,4.62q10.59-.21,21.17,0c3.12.13,4.62-.82,4.75-5,.68-19.68,1.5-39.37,2.45-58.91.13-3.66-.28-5.56-3.94-5.43-9,.27-17.92.14-26.87,0-2.85,0-3.8.95-3.8,4.48C938.28,548.85,938.14,558.62,938.14,568.53ZM510.32,706.84h0c-13.57,0-27.14,0-40.72-.14-3.12,0-4.34.95-4.2,4.75.27,5,.13,10,0,15.07-.14,3.25.68,4.75,3.66,4.61,27.42-.13,54.7-.13,82.12,0,2.71,0,3.66-1.08,3.66-4.21-.13-5-.27-10,0-15.06.27-4.48-1.36-5.3-4.75-5.3C536.79,707,523.62,706.84,510.32,706.84Zm890,24.29c13.43,0,26.87-.13,40.31.14,3.39,0,4.61-1.09,4.48-5-.28-5-.14-10,0-15.07.13-3-.68-4.34-3.53-4.34q-41.34.2-82.53,0c-2.85,0-3.53,1.49-3.39,4.34.14,4.75.27,9.64,0,14.39s1.36,5.7,5,5.56C1373.69,731,1387,731.13,1400.3,731.13ZM1147.16,875.55H1126c-3.67,0-6,2.3-5.84,6.65s2.31,6.65,6,6.65c13.71.13,27.56.13,41.27,0,3.66,0,6.51-2.31,6.51-6.79s-2.58-6.65-6.51-6.65C1160.46,875.68,1153.81,875.55,1147.16,875.55ZM763.73,869h18.59c4.08,0,7.74-.54,8-6.65.14-4.48-2.71-7.06-7.87-7.06H744.32c-4.07,0-7.47,1.63-7.6,6.79s3.39,6.92,7.46,6.92C750.7,868.9,757.21,869,763.73,869Zm383,0h20.64c3.8,0,6.51-2.17,6.37-6.78,0-4.21-2.57-6.66-6.1-6.66-13.71-.13-27.56-.13-41.26,0-3.53,0-6.38,2.18-6.38,6.93s2.71,6.51,6.51,6.51C1133.32,868.9,1140,869,1146.75,869Zm-383,6.52c-6.65,0-13.44.13-20.09,0-4.07-.14-6.92,1.76-6.92,6.65,0,4.48,2.85,6.65,6.51,6.78q20.37.21,40.72,0c3.8,0,6.38-2.17,6.38-6.78s-2.71-6.52-6.51-6.52C777,875.55,770.38,875.55,763.73,875.55Zm443.15,0h-21.17c-3.67,0-6,2.3-6.11,6.51s2.17,6.79,5.84,6.79c14,.13,27.82.13,41.8,0,3.67,0,6.24-2.58,6-7.33-.27-4.34-2.71-6.11-6.38-6.11C1220.18,875.55,1213.53,875.55,1206.88,875.55Zm-503,0c-6.65,0-13.44.13-20.09,0-3.93-.14-6.51,1.76-6.65,6.38C677,886.81,680,889,683.92,889c13.44.14,26.87,0,40.18,0,4.07,0,6.78-2.3,6.65-7.19-.14-4.61-3-6.38-6.79-6.38C717.31,875.55,710.52,875.55,703.87,875.55ZM1205.93,869h0c7.06,0,14.12,0,21.18-.13,3.52,0,6.1-2,6.1-6.38,0-4.62-2.44-7.06-6.24-7.06q-20.35-.21-40.72,0c-3.93,0-6.92,2.31-6.65,7.19.14,4.48,2.85,6.38,6.79,6.38C1192.9,868.9,1199.42,869,1205.93,869Zm-502.06,0c6.52,0,13-.13,19.55,0,3.93.14,7.05-1.49,7.19-6.51s-3.12-7.2-7.33-7.2c-13,0-26.06-.13-39.22,0-4.62,0-7.61,3-7.2,7.2.41,5,3.4,6.38,7.33,6.38C690.84,868.9,697.36,869,703.87,869Zm637,177.81v9c.4,15.48-2.85,12.76,11.94,13.17,3.26.14,3.66-1.49,3.53-4.61-.14-8.15,0-16.43,0-24.57,0-14.52,0-14.39-12.22-13.57-2.44.13-3.25,1-3.25,3.8C1341,1035.57,1340.85,1041.27,1340.85,1046.84Zm-786.69.67v9c0,13.3,0,13.3,11.68,12.63,3-.14,3.93-1.36,3.8-4.62-.14-8.14,0-16.42,0-24.57,0-14.38,0-14.38-12.35-13.57-2.58.14-3.26,1.09-3.13,3.8C554.3,1035.84,554.16,1041.68,554.16,1047.51Zm786.69-47.09v16.15c0,2.31.13,4.21,2.71,3.66,4.21-1,9,2.45,12.76-2a3.82,3.82,0,0,0,0-1.22V985.22c0-1.36.41-3.26-1.36-3.4-4.34-.13-8.55-.13-12.89,0-1.63.14-1.22,2-1.22,3.4C1340.71,990.51,1340.85,995.4,1340.85,1000.42Zm-771.21,1v-6c0-14.12,0-14-11.95-13.58-2.71.14-3.53.95-3.53,4.07.14,7.06,0,14.12,0,21,0,14,0,14,12,13.44,2.58-.14,3.66-.82,3.53-4.07C569.5,1011.41,569.64,1006.39,569.64,1001.37Zm0-88.63V897.67c0-1.49.54-3.8-1.36-3.94a102.66,102.66,0,0,0-12.89,0c-1.63.14-1.23,2-1.23,3.4v31.22c0,1.35-.27,3.39,1.23,3.52a99,99,0,0,0,12.89,0c1.9-.13,1.36-2.44,1.36-3.93Zm771.21-.14v15.07c0,1.49-.55,3.8,1.22,4.07a100.57,100.57,0,0,0,12.89.13c1.63-.13,1.22-2,1.36-3.39V897.26c0-1.49.41-3.53-1.63-3.53q-5.91-.19-11.81,0c-2,0-1.9,1.9-1.9,3.53C1340.85,902.29,1340.85,907.44,1340.85,912.6Zm0,43.84c0,5.16.13,10.45,0,15.61,0,2.71.54,4.48,3.12,3.94,4.07-1,8.68,2.3,12.35-2a3.81,3.81,0,0,0,0-1.22V941c0-1.63,0-3.4-1.9-3.4-4.21.14-9.09-1.76-12.62.82-2.45,1.9-.55,7.06-.82,10.86A64.45,64.45,0,0,0,1340.85,956.44Zm-786.69.41v6c0,14.12,0,14,12.08,13.3,2.85-.13,3.4-1.36,3.4-4.34-.14-10,0-19.95,0-30,0-2.44-.14-4.75-2.85-4.21-4.21.95-8.83-2.44-12.49,1.9-.54.68-.14,2.31-.14,3.53Zm0-88.23v15.61c0,2,.27,3.13,2.45,3.53,12.08,1.9,13,1.09,13-12.89v-6c0-14.12,0-14.12-11.95-16.7-.13,0-.27-.13-.54-.13-2.17-.82-3.12.13-3,2.85Zm802,1.09V854.64c0-1.22.41-3.39-1.49-3-4.34,1-8.69,2.31-13,3.53-1.09.27-1.09,1.35-1.09,2.3.14,9,.28,18.06.14,27,0,3,1.36,3.53,3.26,3,4.07-1.08,8.68,2.72,12.08-2.31.41-.68.13-1.9.13-3Zm-695.33,177c0-5.84-.14-11.67,0-17.37.13-3-1.23-3.26-3.26-3.12-1.77.13-3.94-.82-3.94,3,.14,11.27.14,22.4,0,33.66,0,3.67,2,3.4,4.21,3.53,2.85.27,3-1.49,3-4.07Zm595.71-.68c0-5.43-.14-10.86,0-16.15.13-3.8-1.77-3.39-3.94-3.66-2.58-.14-3.25,1-3.12,3.8.14,10.85.14,21.58,0,32.43,0,2.45,0,4.21,2.85,4.08,2.58-.14,4.21-.55,4.21-4.21C1256.42,1056.88,1256.56,1051.45,1256.56,1046Zm0-44.79c0-5.16-.14-10.45,0-15.61.13-3.53-1.49-3.66-3.8-3.8s-3.26.68-3.26,3.67c.14,10.45.14,20.76,0,31.21,0,2.85.68,3.94,3.12,3.67,2.17-.14,4.07.13,3.94-3.67C1256.29,1011.68,1256.56,1006.39,1256.56,1001.23ZM653.92,1001c0,5,.14,10,0,15.07-.13,3.39.68,4.47,3.67,4.47,2.71,0,3.39-1.08,3.39-4.2-.13-10.18-.13-20.5,0-30.68,0-3.39-1.08-3.8-3.66-3.93s-3.67,1.08-3.53,4.2C654.06,990.92,653.92,995.94,653.92,1001Zm595.58-44.25c0,5.16.14,10.45,0,15.61-.13,3,.82,3.8,3.26,3.67s3.93-.28,3.8-3.8q-.21-15.69,0-31.36c0-3.26-1.49-3.39-3.67-3.53s-3.52.41-3.39,3.53C1249.64,946.26,1249.5,951.55,1249.5,956.71Zm-588.65.95c0-5.43-.14-10.72,0-16.15,0-2.58-.28-4.21-3-3.94-2,.14-4.07-.27-4.07,3.53q.19,15.89,0,31.76c0,3.4,1.63,3.26,3.66,3.26s3.53-.27,3.4-3.39C660.71,967.71,660.85,962.68,660.85,957.66ZM537.6,700.46c10.46,1.35,10.73.95,8.83-14.25A40.21,40.21,0,0,1,537.6,700.46Zm835.55.27a41.09,41.09,0,0,1-9.37-15.07C1362.56,701.14,1362.56,701.14,1373.15,700.73Z" transform="translate(-264.76 -62.98)"/><path class="cls-1" d="M954.43,313.09q-162.88,0-325.75-.14c-2.44,0-6.65,1.9-6.79-2.71s4.07-3,6.52-3c19.27-.13,38.68-.13,58,0,3.67,0,4.62-1.08,4.62-5.29-.14-20.9-.14-41.81-.14-62.71,0-8,1.77-9.91,8.55-9.91h76.55c6.79,0,8.69,2.17,8.69,10,0,20.9.14,41.8,0,62.7,0,4.21,1,5.3,4.62,5.3q63.32-.21,126.77,0c3.93,0,5.15-1.36,4.75-5.7-.28-3.53,0-7.2,0-10.86,0-5.43,2.3-8.15,7.05-8.15,6.38,0,12.76-.4,19.14.14,5.16.41,5.84-2.17,5.84-7.19-.14-52.67-.14-105.19-.14-157.86V70.13c0-2.44-1.35-6.65,2.45-6.65,3.52,0,2.44,4.21,2.44,6.65V273.18c0,1.63.13,3.26,0,4.75-.41,3.8,1.08,4.75,4.21,4.62,6.51-.27,13.16-.14,19.68,0,6,0,7.73,2,7.87,8.82.13,5-1.9,11.4.68,14.52,2.85,3.4,8.55,1.09,12.89,1.09,39.63.14,79.27,0,118.9.14,3.66,0,5-.82,4.89-5.57-.28-20.63-.14-41.4-.14-62,0-8.28,1.77-10.45,8.82-10.45h76c7.33,0,9.09,2.17,9.09,10.72,0,20.23.28,40.59-.13,60.81-.14,5.57,1.49,6.52,5.7,6.38,18.59-.27,37.19-.14,55.78-.14a20,20,0,0,1,4.08.28c1.35.27,2,1.35,1.9,3a2.5,2.5,0,0,1-2,2.44,31.83,31.83,0,0,1-5.16.28Q1117.71,313.22,954.43,313.09Zm-216.63-6c12.63,0,25.11-.14,37.74.13,3,0,4.2-.68,4.2-4.61q-.19-31.36,0-62.71c0-4.07-1.35-5-4.61-5q-37.46.19-75.06,0c-3.53,0-4.34,1.36-4.34,5.29.13,20.63.13,41.4,0,62,0,3.94.95,5,4.34,5C712.69,307,725.18,307.12,737.8,307.12Zm435.56,0c12.76,0,25.51-.14,38.27,0,2.85,0,3.8-.82,3.8-4.35q-.2-31.56,0-63.11c0-3.8-1.08-4.75-4.2-4.75-25.11.13-50.22.13-75.47,0-3.53,0-4.34,1.36-4.34,5.29.13,20.63.13,41.26,0,62,0,4.48,1.35,5.16,4.75,5C1148.52,307,1161,307.12,1173.36,307.12Zm-218.66,0h18c11.67,0,11.54,0,11.54-13.44,0-4.21-1.09-5.57-4.75-5.57-14,.14-28,.14-41.94.14-12.63,0-12.49,0-12.22,14.79.14,3.53,1.09,4.35,3.94,4.21C937.73,307,946.28,307.12,954.7,307.12Z" transform="translate(-264.76 -62.98)"/><path class="cls-1" d="M830.51,620.24v-63c0-9.23-1.63-11.26-9.78-11.26H789.65c-1.22,0-2.58-.27-2.71-2-.14-2.31,1.63-1.63,2.58-1.63,6-.13,12.08,0,18.05,0h16.56c4.61,0,7.19-2.71,7.19-8,.14-11,.14-22.13,0-33.12,0-5.84-3.12-8.15-7.74-8.15-10.18,0-20.35-.13-30.53.14-3.26.14-4.62-.95-4.35-5,.95-19.82-3.12-16.56-14.79-16.56-30-.14-60,0-90,0-9.64,0-10.59,1.22-10.59,12.49v6.51c-1.63.41-1.9-1.09-2.44-2q-31.35-49.06-62.57-98.13c-.82-1.35-2.72-2.58-1.9-4.48s2.71-1.08,4.21-1.08c6-.14,11.94,0,19.13,0-5.15-6.52-9.36-11.95-13.7-17.38-.68-.95-2.18-1.76-1.36-3.52.54-1.09,1.76-.95,2.85-.95,6.79,0,13.44.13,20.22,0,2.85-.14,3.8,2.17,5.16,4.2,9.77,16,19.68,32,29.18,48.19,2.31,3.93,4.89,5.43,9,5.43q48.85-.21,97.72,0c5.16,0,7.74-2,9.37-7.88,6.38-23.75,13.17-47.23,19.54-71,1.09-4.07,2.58-5.57,6.52-5.57h281.91c3.53,0,5.16,1.36,6.24,5.16,6.52,23.89,13.3,47.64,19.82,71.53,1.49,5.43,3.8,7.74,8.82,7.74,32.71-.14,65.56-.14,98.27,0,4.07,0,6.65-1.77,9-5.57,9.63-16.15,19.54-32,29.18-48.18,1.76-3,3.66-4.21,6.78-4.07,6,.27,12.08,0,18.06.13,1.22,0,2.57-.41,3.25,1.09s-.81,2.44-1.49,3.39c-4.21,5.43-8.42,10.86-13.57,17.37h20.22c1.09,0,2.58-.4,3.26,1.09s-.54,2.17-1.22,3.12q-32,49.88-64.07,99.9a20.22,20.22,0,0,1-1.76,1.76v-8.82c0-8.28-1.77-10.18-9-10.18h-91.48c-14.52,0-14.66,0-14.93,17,0,3.93-1.22,4.61-4.21,4.61-10-.13-20-.13-30,0-6.38,0-8.42,2.31-8.42,9.64,0,10.18-.14,20.49,0,30.67,0,6.25,2.17,8.69,7.47,8.82,11,.14,22.12,0,33.11.14,1.36,0,3.67-1.22,3.8,1.49.14,3-2.44,2.18-3.93,2.18H1088.8c-6.92,0-8.82,2.3-8.82,10.45v62c-1.63.68-1.77-.81-2.31-1.62-24.43-37.74-56.46-61-96.37-69.63-2-.41-3.8-.41-3.8-4.08,0-4.61,1.77-5,5-5,27.56.14,55.11.14,82.8,0,8.14,0,9.63-1.76,9.63-11.13V457c0-8.69-1.62-10.72-9-10.72H843.13c-7.33,0-9.23,2.17-9.23,10.72v71.12c0,8.42,1.9,10.59,9.23,10.59,28.23,0,56.6,0,84.83.13,1.9,0,4.89-1.9,5.29,3.13.27,4.2-1.08,5.29-4.34,6q-59.65,12.83-95.82,69.36C832.41,617.53,831.86,618.21,830.51,620.24Zm124.32-183h118.9c14.53,0,28.91.13,43.44-.14,3.39,0,4.47,1.09,4.34,5-.27,4.75-.14,9.63,0,14.38.13,6.79,2,9.23,7.74,9.23H1229c5.7,0,7.87-2.44,7.87-9,.13-7.46.13-14.79,0-22.26,0-6.65-2-9.22-7.74-9.22h-100.3c-2.17,0-4.62.13-5.57,2.3-1.76,4.35-4.75,3.67-7.87,3.67H794.27c-2.85,0-5.7.54-7.33-3.67-.82-2.17-3.4-2.44-5.57-2.44H680.53c-5,0-7.2,2.58-7.33,8.55-.14,7.6-.14,15.2,0,22.94,0,6.65,2.17,9.09,7.73,9.09,8.42.14,16.83,0,25.39,0h74c6.38,0,8.28-2.31,8.41-9.77,0-3.8.27-7.74,0-11.4-.54-5.84.82-7.74,6.25-7.6C848.29,437.28,901.63,437.28,954.83,437.28Z" transform="translate(-264.76 -62.98)"/><path class="cls-1" d="M1172.27,700.05V557.26c0-18.46-11.4-31.62-26.6-30.94a22.21,22.21,0,0,0-15.47,7.33,8.16,8.16,0,0,1-6.38,3c-11.68-.13-23.48-.13-35.16,0-3.53,0-4.88-1.08-4.75-5.43.27-9,.27-18.05,0-27.14-.13-4.35,1.22-5.43,4.75-5.43,9.64.27,19.28.13,28.91,0,2.72,0,3.94.68,3.94,4.21.13,6.92,2,8.82,7.87,8.82h99.35c6,0,8-1.9,8.15-8.55.13-3.26.81-4.62,3.8-4.48a137.69,137.69,0,0,0,14.93,0c3-.14,3.93,1.36,3.93,4.61-.13,9.5-.13,18.87,0,28.37,0,3.67-1.08,4.75-4.2,4.89-10.45.27-10.45.4-9.91,12.62,1.36,25.65,8,48.86,24.16,67.19,14.52,16.42,32.85,23.75,52.53,26.87a149.07,149.07,0,0,0,32,1.09c3.12-.14,4.21.67,4.21,4.61q-.21,23.82,0,47.64c0,2.58,0,4.34-3.13,4.75s-4.75,3.67-4.75,7.47c0,6.38-.27,12.89.14,19.27.27,4.34-.82,5.29-4.48,5.29-23.75-.13-47.64-.13-71.39-.13h-30c-1.9,0-4.75-1.09-4.89,2.58-.13,4.07,3.13,3,5,3,41.53,0,83.06.14,124.59,0,3.26,0,5.43,0,5.3,5.3-.14,4.47-1.36,5.15-4.75,5.15-41-.13-82.12-.13-123.11-.13h-3.66c-1.63,0-3.4,0-3.53,2.44-.27,2.72,1.63,3.26,3.39,3.39a39.47,39.47,0,0,0,4.07,0c40.72,0,81.44.14,122-.13,5.16,0,5.57,2.31,5.3,6.92-.14,2.85-1.09,3.39-3.12,3.26-2.45-.14-4.89,0-7.2,0-6.24.13-8.28,2.44-8.28,9.91,0,21.44-.13,43,.14,64.47,0,4.88-1.22,6.92-5.16,7.33a.82.82,0,0,0-.54.13c-12.22,3.12-12.22,3.12-17-10.31-.81-2.45.54-3.26,1.49-4.48,4.48-5.3,9.1-10.45,13.44-15.75,1.49-1.76,4.21-3.66,1.77-6.38-2.31-2.44-3.94.68-5.57,2.45-4.48,5-8.82,10.18-13.16,15.33-1.63,2-2.85,2.58-4.35,0a19.11,19.11,0,0,0-1.49-1.76c-2.17-2.44-6.52-3.39-6.79-6.65s2.17-7.06,3.4-10.59q2.43-6.92,4.88-13.84c.82-2.17,2.31-4.89-.41-6.25-2.85-1.62-3.39,1.77-4.07,3.8-2.58,6.93-5.15,14-7.46,21-1,2.85-2,3.8-4.89,2.85-9.36-3.12-9.36-2.85-9.36-14.38V787.32c0-2.3.4-5.56-2.58-5.43-2.72.14-2.45,3.26-2.45,5.7,0,7.06-.13,14.12.14,21,.14,3.94-.68,5.43-4.21,6-8.55,1.5-8.55,1.9-11.81-7.32-1.76-4.76-3.39-9.64-5.15-14.39-.82-2.17-1.23-6-4.21-4.62s-1.22,4.48-.41,6.65c2.31,6.93,4.75,13.85,7.33,20.5,1.22,3,.82,4.75-1.63,6.24-1.08.68-1.9,1.63-3,2.31-2.45,1.36-3.53,6.11-6.25,5-2.3-.81-4.07-4.21-6-6.38-3.12-3.53-6.11-7.19-9.23-10.58-1.49-1.63-3.12-4.89-5.43-2-2.17,2.58.55,4.34,1.9,5.84,4.62,5.43,9.23,10.85,13.85,16.15,1.76,2,2.58,3.66.54,6a9.9,9.9,0,0,0-1.09,2c-4.2,9.36-4.2,9.36-12.89,6.92-2.71-.68-5.43-1.36-8-2-2-.54-4.48-1.63-5.16,1.77-.54,3,1.9,3.25,3.67,3.8,4.88,1.22,9.77,2.58,14.66,3.93,1.9.55,3.39,1,3.25,4.07-.4,8.28-.4,16.43-.27,24.71,0,3.39-.81,4.75-3.8,4.48a30.87,30.87,0,0,0-7.19,0c-4.89.54-7.47.27-7.74-7.47-.13-5.43-1.9-10.45.27-16.15,1.5-3.67,0-8.28-3-10.72s-3.12-5.7-3.12-9.37V557.13c0-18.33-11.54-31.63-26.61-31.08-12.75.54-23.61,12.89-24.16,27.68-.13,2.45,0,4.75,0,7.2q0,141.5.14,283.13c0,4.48-.68,9.36-4.34,9.23-3.94,0-4.62-4.89-4.62-9.64Z" transform="translate(-264.76 -62.98)"/><path class="cls-1" d="M729.25,700.59v-144c0-12.35-4.75-21.71-14.25-27.14-9.09-5.29-18-4.21-26.33,2.71-7.33,6.25-10.31,15.07-10.31,25.52V842c0,4.62.13,8.55-3.67,12.08-3.94,3.8-3.8,9.64-1.09,14.8,1.23,2.17,2,3.8.14,6.1a8.37,8.37,0,0,0-1.76,6.65c.95,5.3-1,6.52-5,5.84s-9.77,2.17-12.35-1.09-.54-9.63-.81-14.52c-.14-2.44,0-4.88,0-7.19,0-9.64,0-9.64,8.28-11.81,3.39-.81,6.78-1.63,10-2.58,1.63-.41,3.12-1.36,2.85-3.53-.41-2.58-2.31-2.58-4.07-2.17-5,1.36-10,2.72-15.07,4.21-2.44.68-3.66.13-4.75-2.72-4.61-11.8-4.75-11.67,3.13-20.9,3-3.53,6.1-7.06,9.09-10.72,1.09-1.36,2.17-3,.54-4.62s-2.85-.81-4.07.68c-4.75,5.57-9.64,10.86-14.25,16.7-2.17,2.85-3.67,2.85-5.57-.14a12.86,12.86,0,0,0-2.3-2.44c-6.52-5.84-6.52-5.84-3.53-14.39,2-5.56,3.93-11.13,6-16.69.68-1.9,1.49-4.08-.68-5.16-2.58-1.36-3.26,1.22-3.94,3.12-2.44,6.79-5,13.57-7.32,20.5-1.09,3.52-2.18,4.88-6,3.66-8.41-2.85-8.55-2.44-8.55-12.76V786.64c0-2.3-.13-4.88-2.71-4.75-2.31.14-2.17,2.58-2.17,4.62,0,7.6-.14,15.2,0,22.94,0,3-.28,4.48-3.4,5.15-9.77,2-9.77,2.31-13.57-8.27-1.76-5-3.53-9.91-5.43-14.94-.68-1.9-1.36-4.2-3.66-3.12s-1.63,3.53-.95,5.57c2.71,7.33,5.29,14.79,8,22.12,1.09,2.85.95,4.75-1.62,6.25a9.32,9.32,0,0,0-3.4,2.71c-3.93,6.65-6.78,3.53-10-.95-3.53-4.61-7.47-8.82-11.27-13.3-1.22-1.49-2.71-2.85-4.48-1.09-1.9,2-.4,3.67.82,5,4.88,5.71,9.64,11.41,14.66,17,1.76,2,2.44,3.67.68,6-2.58,3.26-2,10.05-5.43,10.86-3.8,1-8.28-1.76-12.49-2.44-3.12-.55-3.67-2.45-3.67-5.7.14-21.31,0-42.62,0-63.8,0-9.77-1.62-11.67-9.9-11.67-1.36,0-2.72-.13-4.08,0-3.39.55-4.75-.54-4.75-5s1.63-5,4.89-5c40.85.13,81.71,0,122.56,0,1.5,0,3.13,0,4.62-.14s3.12-1,2.85-3.25c-.14-2-1.63-2.45-3-2.45H540.05c-3.26,0-5.3.14-5.3-5.16s2.18-5.15,5.3-5.15c41,.13,82.11.13,123.1,0,2.31,0,6.65,2,6.38-3.13-.13-4.2-4.07-2.44-6.38-2.44q-49.67-.19-99.35,0c-3.66,0-5.16-.81-4.75-5.56.41-6.38.14-12.9.14-19.28,0-3.93-1.63-6.92-4.89-7.33s-2.85-2.57-2.85-4.88c0-15.48.13-31-.14-46.42-.13-4.62,1.22-5.7,5-5.43,16.42,1,32.71.14,48.59-5.29,36-12.36,56.32-42.62,59.17-87.68,0-.82.14-1.63.14-2.45.54-12.08.54-12.21-9.64-12.35-3.39,0-4.48-1.36-4.48-5.29q.21-13.85,0-27.69c0-3.67,1.09-5,4.21-4.89,5,.27,10,.14,14.93,0,2.72-.13,3.39,1.09,3.53,4.21.14,7.06,2,9,7.87,9h99.76c5.57,0,7.6-2,7.6-8.55,0-3.94,1.23-4.62,4.21-4.62q14.46.21,28.91,0c3.26,0,4.62.95,4.48,5-.27,9.23-.14,18.46,0,27.69,0,3.4-.54,5.16-3.94,5-12.21-.14-24.43-.14-36.78,0a6.15,6.15,0,0,1-4.75-1.9c-8.55-9-18.32-11.13-28.64-5.3S737,544.91,737,557.94V782.71c0,20.9-.14,41.8.14,62.7,0,4.35-1.63,8-4.35,8.15-3,.13-4.61-3.53-4.61-7.87C729.39,797.37,729.25,748.91,729.25,700.59Z" transform="translate(-264.76 -62.98)"/><path class="cls-1" d="M1439,923.87c0,48.72-.14,97.58.13,146.31,0,6-1.49,7.2-6.38,7.06q-33.39-.4-66.64,0c-3.93,0-4.88-1.22-4.88-5.7q.19-147.4,0-294.94c0-4.61,1.22-5.7,5-5.56,8.68.27,8.68,0,8.68,10v21c0,7.06,2.18,9.63,8,9.63q17.31.21,34.61,0c5.84,0,7.88-2.57,7.88-9.63,0-9.1.13-18,0-27.15,0-3.26.81-3.93,3.52-4.07,10.18-.27,10.18-.41,10.18,11.54C1439,829.53,1439,876.77,1439,923.87Zm-68.41-94.74v5.29c-.13,3.26,1,5.7,3.8,5.84s4.21-2.31,4.21-5.57a42.92,42.92,0,0,1,.13-7.19c1-6-1.9-6.92-5.83-6.11C1368,822.48,1371.93,827.09,1370.57,829.13Zm42.35.13h0v-5.43c0-3.39-2.17-2.57-3.67-2.44s-4.2-1.63-4.48,2c-.27,4.2-.13,8.41,0,12.48.14,2.45,1.63,4.08,3.8,4.08s3.94-1.63,4.21-4.35A49.21,49.21,0,0,0,1412.92,829.26Zm-17.1-.13c-2.45-1.63,3.12-7.33-3.4-7.87s-4.75,4.47-4.61,8.14c.13,3.94-1.9,10.31,3.8,10.59S1394.87,833.61,1395.82,829.13Zm34.34.27c-1.5-2.44,2.71-8.42-4.35-8.14-6.65.27-3.39,5.7-3.53,8.55-.27,3.8-2,10.18,3.94,10C1431.65,839.85,1429.48,833.74,1430.16,829.4Z" transform="translate(-264.76 -62.98)"/><path class="cls-1" d="M549.14,924.54c0,48.87,0,97.59.14,146.46,0,5.15-1.22,6.38-5.57,6.24-22.53-.27-45.2-.14-67.73,0-3.66,0-4.61-1.22-4.61-5.43q.19-147.6,0-295.21c0-5.16,1.63-5.84,5.43-5.7,8.28.27,8.28,0,8.28,9.77v22.26c.13,6.11,2.17,8.69,7.6,8.69,11.67.13,23.48.13,35.15,0,5.3,0,7.47-2.72,7.6-8.82q.21-13.84,0-27.69c0-3,.55-4.07,3.4-4.21,10.31-.27,10.18-.41,10.18,11.54Q549.2,853.49,549.14,924.54Zm-60.94-95h0c.14-1.76,0-3.66.14-5.42.27-2.58-1.09-3.26-2.86-2.72s-4.75-1.63-5.15,1.9a85.18,85.18,0,0,0,.13,13.17,3.74,3.74,0,0,0,3.94,3.8,4,4,0,0,0,3.8-4.07C488.34,833.88,488.2,831.71,488.2,829.53Zm51.71-.13c-.95-2.17,1.9-6.24-1.63-7.87-4.34-2-6.51.13-6.51,5.7v6c-.14,3.53.41,6.79,4.07,6.92s4.34-3.12,4.07-6.65Zm-42.35.13a52.52,52.52,0,0,0,0,6.52c.68,3.94,4.21,5.29,6.66,2.71,1.22-1.35,2.17-15.33.95-16.83a3.1,3.1,0,0,0-1.77-.81C498.11,820.31,497.43,821,497.56,829.53Zm25,.14h.13c0-1.63-.13-3.26,0-4.75.41-3.66-1.62-3.66-3.93-3.53-1.9.14-4.34-.81-4.07,3.26.27,3.8,0,7.6.13,11.4.14,2.71,1.63,4.07,3.67,4.07s3.66-1.22,3.93-3.8A54.08,54.08,0,0,0,522.54,829.67Z" transform="translate(-264.76 -62.98)"/><path class="cls-1" d="M825.35,809.18q0,125.21.13,250.55c0,5.29-1.08,7.19-5.7,6.65a43.36,43.36,0,0,0-10.31,0c-4.34.54-5-1.63-4.89-6.11.14-50.35.14-100.84.14-151.2,0-8.82-1.49-10.72-9-10.72H669.53c-7.06,0-8.55,1.76-8.55,9.77,0,6.65-.13,13.3,0,19.82,0,2.85-.68,3.93-3.26,3.8s-3.8-.54-3.8-3.94c.14-10.18.14-20.49,0-30.67,0-2.31.41-3.53,2.72-3.8,6-.68,12.35,2.3,18.05-2.31.14-.14.27,0,.41.14,11,7.32,22.94,2.3,34.47,3.52,4.89.55,10,0,14.93.14,3.67,0,6.52-4.21,9.23-4.07s5.57,4.07,9.23,4.07c13.85,0,27.55.27,41.4-.14,9.23-.27,13.84-10.72,9-19.81-1.22-2.17-1.36-3.4,0-5.57,3.53-6.1,3-12.08-1.9-16.56-2.58-2.3-2.45-4.88-2.45-7.87V619c0-20.63.14-41.4-.13-62,0-4.21.81-5.43,4.48-5.29,9,.27,17.91.41,26.87,0,4.89-.27,5,2.58,5,6.92q-.19,121.76,0,243.36C825.35,804.29,825.35,806.73,825.35,809.18Z" transform="translate(-264.76 -62.98)"/><path class="cls-1" d="M1085,808.9V560.11c0-9.23-1-8.14,7.33-8.28s17,.14,25.38-.13c3-.14,3.66.95,3.66,4.48q-.19,145.16,0,290.32c0,2.58-.4,4.34-2.3,6.11-4.89,4.75-5.7,10.59-2.18,16.56,1.36,2.44,1.23,3.8,0,6.11-4.61,8.41-.27,19.13,8.28,19.4,14.26.55,28.78,1.23,42.89-.4a72,72,0,0,1,17.11,0c14,1.63,28.23.54,42.34.54.41,0,.68.14,1.09-.14,8.14-4.75,16.69.28,25-1.22,2.58-.54,3.12,1.36,3.12,3.94q-.2,15.06,0,30.13c0,3.12-.81,4.21-3.52,4.34s-3.53-1.08-3.53-4.2c.13-6,0-12.08,0-18.06,0-9.77-1.22-11.26-9.5-11.26h-124.6c-8.42,0-9.64,1.49-9.64,11.67q0,74.72.14,149.44c0,5.29-.82,7.6-5.7,6.92s-11,2.17-14-1.08c-3.26-3.67-1.09-11-1.09-16.7Q1084.87,928.69,1085,808.9Z" transform="translate(-264.76 -62.98)"/><path class="cls-1" d="M954.16,451.67c36.91,0,73.7.13,110.61-.14,3.94,0,5.3,1.09,5.3,6-.27,22.94-.14,45.74,0,68.68,0,4.48-.82,6.24-5,6.24-28-.27-55.79-.13-83.75-.13-2.31,0-4.34-.14-6.11-2.17-1-1.22-2.44-1.36-3.8-1.36-10.45,0-21.58-2.58-31.35.54-15.88,5-31.63,2-47.37,2.85s-31.76-.13-47.5.27c-5.16.14-6.25-1.76-6.11-7.46.27-22.53.27-44.93,0-67.46,0-4.88,1.22-6,5.29-6C880.73,451.8,917.51,451.67,954.16,451.67Zm-6.79,27.69c.13.27.41.54.54.81-1.08,4.21-2.85,8-5.83,10.72-2.31,2-1.5,3.53.13,5.16.95.95,2.85.14,3.12,2.44-2.17,2-4.75,2.17-7.19,3-1.22.41-3.12.41-2.85,2.58.13,1.49,1.63,2.44,3,3,2,.82,3.66-.67,5.42-1.35,2.85-1.23,5.43-3.4,8.69-2a3.7,3.7,0,0,1-2.58,2.17c-1.49.55-3.8-.13-3.66,3s2.17,3.66,4.07,3.26c3.66-.68,4.34,1.62,4.48,5.15,0,1.63-.14,3.94,1.9,4.35s3.12-1.5,3.26-3.67c.13-5.56,2-8.68,7.19-8.55a3,3,0,0,0,3-2.71c0-2.18-1.63-2.85-3.13-3.26-1.9-.54-4.07.41-5.83-1.9,4.61-1.63,9,.13,13.43-.27,2.18-.14,5.16.27,4.89-3.4-.27-3.25-2.58-5-5.7-4.34-2.31.41-4.75,1.36-7.06.41-.13-2.58,1.22-3.8,3.12-3.94,2.85-.27,3.13-2.85,3.53-5,.41-2.58-1.9-2.44-3.12-3-2-.95-2.85-2.3-2.85-4.88s1.22-3,2.85-3.26c2-.41,3-2.31,1.77-3.8a19.89,19.89,0,0,0-6.79-5.84c-1.76-.81-5.29-2.58-5.43,2.85a4,4,0,0,1-2.85,3.94c-1.63.41-2.71-.81-3.53-2.85-1.36-3.12-3.94-1.9-6-1.36-3,.82-.41,2.72-.27,4.07,0,.95.4,2-.55,2.58C941.26,476.5,944.79,477.86,947.37,479.36Zm-80.9-10.86h-.67c-2.58-2.17-4.21-1.9-4.89,2.17-.95,7.06-2.17,14.25-2.31,21.44-.13,6.11,0,12.08,2,17.78,1.08,3,1.9,6,6.51,5.43,3.94-.4,8-1,12.08-1.22,2.72-.13,5.16.14,6,4.07.67,3.53,2.44,3.67,5,2.45a11,11,0,0,0,5.7-7.2,48.79,48.79,0,0,0,1.49-16c-.41-8-.95-16,0-24,.54-4.48-4.07-11-7.46-11.13s-6.93-.4-10.32.27C875,463.47,869.73,463.07,866.47,468.5Zm172,7.33c1-2.45,5.16-3.4,2.58-6.25-2.31-2.58-5.7-4.2-9-5.43-1.35-.54-3.66.55-3.8,3.67-.27,5.83-1.9,6.92-6,3.8q-6.51-5.08-8.14,4.07c-2.58,14.25-2,28.5,0,42.75a4.6,4.6,0,0,0,3.26,4.08c1.49.4,2.57-1.09,3.25-2.45,1.63-3.39.14-12.48-2.44-15.61-1.63-2-1.09-4.47-.68-6.78.41-2.58,2.17-1.09,3.39-1.36a26,26,0,0,0,3.53-.68c2.58-1.22,3.26-.54,3,2.85-.54,5.7-.41,11.68-.82,17.38-.13,2.85.55,5,2.85,5.43,2.72.4,1.77-2.72,2.18-4.35a27.17,27.17,0,0,0,.4-3.53c.41-3.39,3-1.9,4.48-2.58.82-.4,1.9,0,1.63,1.36-.41,2.44-2.31,1.77-3.66,2.31-.14,0-.27.27-.41.41a17.68,17.68,0,0,1,1.63,3.66c.68,2.44,1.08,4.75,3.93,4.34s4.48-3.66,4.21-5.83c-1.08-9.1,1.63-18.46-2.58-27.15,2.58-1.49,4.89-.41,7.2,0,1.76.27,3.12-.13,3.53-2.44s.27-3.8-2-4.62a5.24,5.24,0,0,0-4.89.41c-2.3,1.22-4.61,2.31-7.73,1.22C1039.26,481.39,1045.77,479.36,1038.44,475.83Z" transform="translate(-264.76 -62.98)"/><path class="cls-1" d="M715.68,325.17c28.77,0,57.55.13,86.32-.14,4.48,0,5.16,1.22,3.67,6.11q-11.2,39.3-22,78.86c-.95,3.66-2.44,5-5.84,5q-47.83-.21-95.68,0c-3.13,0-5-1.36-6.79-4.21-16.15-26.74-32.44-53.34-48.59-80.08-.82-1.36-2.72-2.71-1.77-4.61s2.85-.82,4.21-.82Q672.59,325.11,715.68,325.17Z" transform="translate(-264.76 -62.98)"/><path class="cls-1" d="M1194.67,325.17H1281c1.49,0,3.39-.95,4.21.81s-1,3.26-1.77,4.62c-16.28,26.87-32.71,53.61-48.86,80.48-1.63,2.72-3.39,3.94-6.38,3.94q-48-.21-96.09,0c-3.13,0-4.62-1.22-5.43-4.62q-11-40.31-22.4-80.48c-1.49-5.16.82-4.75,3.67-4.62Q1151.3,325.11,1194.67,325.17Z" transform="translate(-264.76 -62.98)"/><path class="cls-1" d="M784,700.46c0,47.37-.13,94.74.14,142.1,0,6.11-1.5,7.2-6.25,7.06-10.18-.4-20.36-.27-30.53-.13-3.13,0-4.48-.68-4.48-4.89.13-96,0-191.92.13-287.88,0-14.39,9-24.7,20.63-24.7S784,542.6,784,557C784.09,604.9,784,652.68,784,700.46Z" transform="translate(-264.76 -62.98)"/><path class="cls-1" d="M1126.4,699.91V556.58c0-10.18,3.93-17.78,11.8-22.12,7.47-4.21,14.8-3,21.31,2.85,5.57,5,7.88,12,7.74,20.09v31.9q0,126.83.14,253.54c0,5.7-1.36,7-6,6.78q-14.45-.6-28.91,0c-4.75.27-6.38-1-6.24-7.06C1126.53,795.06,1126.4,747.42,1126.4,699.91Z" transform="translate(-264.76 -62.98)"/><path class="cls-1" d="M683.51,699.24V556.45c0-11.13,5.3-19.55,13.71-23.07s17.24-.14,22.67,7.87c3.53,5.15,4.34,11.13,4.34,17.51V690.68q0,75.95.14,151.75c0,5.16-.68,7.33-5.7,7.06a263.2,263.2,0,0,0-29.46,0c-5,.27-5.83-1.9-5.7-7.06Z" transform="translate(-264.76 -62.98)"/><path class="cls-1" d="M1226.83,700.46c0,47.64,0,95.14.14,142.78,0,4.89-.81,6.52-5.29,6.38-10.32-.4-20.63-.27-31.09,0-3.39.14-4.75-.81-4.75-5.16.14-95.82,0-191.51.14-287.33,0-14.53,8.69-24.84,20.36-24.84s20.36,10.45,20.36,25C1227,604.9,1226.83,652.68,1226.83,700.46Z" transform="translate(-264.76 -62.98)"/><path class="cls-1" d="M1244.48,989c0,25.92-.14,51.84.13,77.63,0,4.75-1.08,6-5.15,6-41.26-.13-82.39-.13-123.65,0-3.8,0-5-1.08-4.89-5.7q.21-79,0-157.85c0-4.07,1.09-5,4.48-5q62.3.21,124.6,0c4.07,0,4.75,1.76,4.75,6C1244.34,936.35,1244.48,962.68,1244.48,989Zm-117.41-.82v52.94c0,8.41,1.77,10.45,8.69,10.45h83.74c6.93,0,8.83-2.17,8.83-10.45v-106c0-8.14-1.9-10.18-9.1-10.18H1136c-7.33,0-9,1.9-9,10.72Z" transform="translate(-264.76 -62.98)"/><path class="cls-1" d="M799.56,988.34c0,26.33-.14,52.66.14,78.86,0,4.2-1,5.42-4.62,5.42q-62.3-.19-124.6,0c-3.25,0-4.48-.81-4.48-5,.14-53.07,0-106,0-159.07,0-3.39,1-4.48,3.8-4.48q63.12.21,126.23,0c3.67,0,3.67,2,3.67,5.16C799.56,935.67,799.56,962,799.56,988.34Zm-16.15.4V934.59c0-7.06-2-9.37-8.14-9.37H690.43c-6.24,0-8.41,2.45-8.41,9.78v107.22c0,7.33,2,9.64,8.41,9.64h84.29c6.79,0,8.55-2,8.55-10C783.41,1024,783.41,1006.39,783.41,988.74Z" transform="translate(-264.76 -62.98)"/><path class="cls-1" d="M730.75,506c-16,0-32-.14-48,.13-3.39,0-4.48-.95-4.34-5,.27-6.38.13-12.89,0-19.27-.14-3.26.67-4.62,3.8-4.62q49.07.21,98.13,0c2.58,0,3.66,1.09,3.66,4.21-.13,6.65-.27,13.3,0,19.82.27,4.34-1.63,4.75-4.61,4.75Z" transform="translate(-264.76 -62.98)"/><path class="cls-1" d="M1179.19,506c-16,0-32-.14-48,.13-3.53,0-4.89-.95-4.75-5.29.27-6.24.27-12.49,0-18.59-.14-3.53.81-5,4.07-5,32.57.14,65,.14,97.59,0,2.85,0,3.93.95,3.93,4.48-.13,6.25-.27,12.49,0,18.6.27,4.48-.81,5.83-4.75,5.83C1211.23,505.82,1195.21,506,1179.19,506Z" transform="translate(-264.76 -62.98)"/><path class="cls-1" d="M1400.16,650.1c3.66,0,7.19-.13,10.86,0,12.21.27,21.44,10.59,21.85,24.3.41,14.11-8.42,25.51-20.77,26.19a229.45,229.45,0,0,1-23.75,0c-12.21-.68-21.17-12.21-20.9-26.19.27-13.58,9.77-24.16,21.85-24.43C1393,650.1,1396.49,650.1,1400.16,650.1Z" transform="translate(-264.76 -62.98)"/><path class="cls-1" d="M510.32,650.24c3.67,0,7.2-.14,10.86,0,12.08.4,21.45,11,21.85,24.56.41,13.85-8.68,25.39-21,26.06a229.64,229.64,0,0,1-23.76,0c-12.08-.67-20.9-11.94-20.76-25.65s9.23-24.43,21.44-24.84C502.72,650.1,506.52,650.24,510.32,650.24Z" transform="translate(-264.76 -62.98)"/><path class="cls-1" d="M830.51,672.5V632.59c0-1.9,1.08-3.25,1.9-4.75q34.82-60.47,96.09-74.65c3.53-.81,5.57-.54,5.3,4.62s1.62,11.4-.28,15.33-8,2.85-12.21,4.21c-41.81,14.12-71,44.93-88.36,91.07-.54,1.36-1,2.72-1.49,4.21A2.77,2.77,0,0,0,830.51,672.5Z" transform="translate(-264.76 -62.98)"/><path class="cls-1" d="M1079.84,672.36c-5-11.54-9.91-22.94-16.15-33.39-20.09-33.12-47-54.7-81.17-63.11-4.88-1.22-6.51-3.12-6.11-9.1.82-15.06.55-15.2,13.44-11.4,37.33,10.86,66.64,35.16,88.09,72.35.81,1.49,2,2.85,2,4.75C1079.84,645.62,1079.84,658.92,1079.84,672.36Z" transform="translate(-264.76 -62.98)"/><path class="cls-1" d="M490.1,770.9c0-9.37.14-18.87-.14-28.23-.13-4.21.55-6,4.62-5.84,10.45.41,21,.27,31.49,0,3.12,0,4.48.68,4.48,4.89-.14,19.68-.14,39.22,0,58.9,0,3.94-1.09,5.16-4.48,5.16-10.72-.27-21.31-.13-32,0-3.26,0-4.21-1.22-4.08-4.88C490.24,791,490.1,780.94,490.1,770.9Z" transform="translate(-264.76 -62.98)"/><path class="cls-1" d="M1420.38,771.58c0,9.77-.13,19.68,0,29.45,0,3.67-.81,4.89-4.07,4.89q-16.29-.21-32.57,0c-2.85,0-3.94-1.09-3.94-4.48.14-20.09.14-40,0-60.13,0-3.53,1.09-4.34,3.8-4.21,10.86.14,21.72.28,32.58,0,3.66-.13,4.2,1.5,4.07,5.16C1420.25,751.9,1420.38,761.67,1420.38,771.58Z" transform="translate(-264.76 -62.98)"/><path class="cls-1" d="M938.14,568.53c0-9.77.14-19.68,0-29.45,0-3.4,1-4.48,3.8-4.48,9,.13,17.92.27,26.87,0,3.67-.14,4.21,1.76,3.94,5.43-1,19.68-1.76,39.22-2.44,58.9-.14,4.07-1.5,5-4.75,5q-10.59-.19-21.18,0c-3,.14-4.34-.81-4.34-4.61.14-10.18,0-20.5,0-30.68A8.68,8.68,0,0,0,938.14,568.53Z" transform="translate(-264.76 -62.98)"/><path class="cls-1" d="M510.32,706.84c13.3,0,26.47.13,39.77-.14,3.53,0,5,.81,4.75,5.29-.27,5-.13,10,0,15.07.14,3.12-1,4.21-3.66,4.21-27.42-.14-54.7-.14-82.12,0-3.12,0-3.8-1.5-3.66-4.62.13-5,.27-10,0-15.06-.14-3.8,1.08-4.75,4.2-4.75Z" transform="translate(-264.76 -62.98)"/><path class="cls-1" d="M1400.3,731.13c-13.31,0-26.47-.13-39.77.14-3.67,0-5.43-.95-5-5.57s.14-9.63,0-14.38c0-2.86.55-4.48,3.4-4.35q41.32.21,82.52,0c2.72,0,3.53,1.36,3.53,4.35-.14,5-.27,10,0,15.06.14,4.07-1.09,5.16-4.48,5C1427,731,1413.73,731.13,1400.3,731.13Z" transform="translate(-264.76 -62.98)"/><path class="cls-1" d="M1147.16,875.55h20.09c3.94,0,6.51,2.17,6.51,6.65s-2.71,6.78-6.51,6.78c-13.71.14-27.55.14-41.26,0-3.53,0-5.84-2.44-6-6.65s2.3-6.51,5.83-6.65c7.2-.13,14.25-.13,21.31-.13Z" transform="translate(-264.76 -62.98)"/><path class="cls-1" d="M763.73,869H744.18c-4.07,0-7.46-1.49-7.46-6.92.13-5.16,3.39-6.79,7.6-6.79h38.14c5.29,0,8.14,2.58,7.87,7.06-.27,6.11-3.93,6.65-8,6.65C776.08,868.9,769.84,869,763.73,869Z" transform="translate(-264.76 -62.98)"/><path class="cls-1" d="M1146.75,869h-20.08c-3.8,0-6.38-1.76-6.52-6.51s2.72-6.93,6.38-6.93c13.71-.13,27.55-.13,41.26,0,3.53,0,6,2.58,6.11,6.66,0,4.61-2.58,6.78-6.38,6.78-7.06,0-14-.13-20.77,0Z" transform="translate(-264.76 -62.98)"/><path class="cls-1" d="M763.73,875.55h20.09c3.8,0,6.51,1.9,6.51,6.51s-2.58,6.79-6.38,6.79c-13.57,0-27.14.13-40.72,0-3.66,0-6.51-2.17-6.51-6.79,0-4.88,2.85-6.78,6.92-6.65C750.29,875.68,756.94,875.55,763.73,875.55Z" transform="translate(-264.76 -62.98)"/><path class="cls-1" d="M1206.88,875.55H1227c3.66,0,6.11,1.76,6.38,6.1.27,4.62-2.31,7.2-6,7.33-14,.28-27.83.14-41.81,0-3.66,0-6-2.71-5.83-6.78s2.3-6.52,6.1-6.52c6.93-.13,14-.13,21-.13Z" transform="translate(-264.76 -62.98)"/><path class="cls-1" d="M703.87,875.55H724c3.8,0,6.65,1.76,6.79,6.38s-2.58,7.19-6.65,7.19H683.92c-3.94,0-6.79-2.17-6.79-7.06.14-4.61,2.72-6.38,6.65-6.38C690.43,875.68,697.09,875.55,703.87,875.55Z" transform="translate(-264.76 -62.98)"/><path class="cls-1" d="M1205.93,869h-19.54c-3.8,0-6.65-1.76-6.79-6.38-.14-4.88,2.85-7.19,6.65-7.19q20.36-.21,40.72,0c3.8,0,6.24,2.44,6.24,7.06,0,4.34-2.58,6.38-6.1,6.38-7.06.13-14.12,0-21.18.13Z" transform="translate(-264.76 -62.98)"/><path class="cls-1" d="M703.87,869H684.33c-3.8,0-6.93-1.36-7.33-6.38-.27-4.21,2.58-7.19,7.19-7.19,13-.14,26.06,0,39.23,0,4.07,0,7.33,2,7.33,7.19s-3.26,6.52-7.2,6.52C717,868.9,710.52,869,703.87,869Z" transform="translate(-264.76 -62.98)"/><path class="cls-1" d="M1340.85,1046.84c0-5.57.13-11.27,0-16.83-.14-2.85.81-3.67,3.25-3.8,12.22-.82,12.22-.82,12.22,13.57,0,8.14-.14,16.42,0,24.57,0,3.12-.41,4.75-3.53,4.61-14.79-.41-11.54,2.31-11.94-13.17C1340.71,1052.81,1340.85,1049.82,1340.85,1046.84Z" transform="translate(-264.76 -62.98)"/><path class="cls-1" d="M554.16,1047.51c0-5.83.14-11.67,0-17.37,0-2.71.68-3.66,3.13-3.8,12.35-.81,12.35-.81,12.35,13.57,0,8.15-.14,16.43,0,24.57,0,3.26-.95,4.48-3.8,4.62-11.68.67-11.68.81-11.68-12.63Z" transform="translate(-264.76 -62.98)"/><path class="cls-1" d="M1340.85,1000.42V985.49c0-1.36-.41-3.26,1.22-3.4a102.66,102.66,0,0,1,12.89,0c1.63.14,1.36,2,1.36,3.4v31.76a3.82,3.82,0,0,1,0,1.22c-3.8,4.48-8.55,1.08-12.76,2-2.44.55-2.71-1.49-2.71-3.66Z" transform="translate(-264.76 -62.98)"/><path class="cls-1" d="M569.64,1001.37c0,5-.14,10,0,15.06.13,3.26-.95,3.94-3.53,4.07-12,.41-12,.55-12-13.43,0-7.06.14-14.12,0-21-.13-3.12.82-4.07,3.53-4.07,11.95-.41,11.95-.55,11.95,13.57Z" transform="translate(-264.76 -62.98)"/><path class="cls-1" d="M569.64,912.74V927.8c0,1.5.54,3.8-1.36,3.94a102.66,102.66,0,0,1-12.89,0c-1.5-.14-1.23-2.17-1.23-3.53V897c0-1.22-.4-3.26,1.23-3.39a102.66,102.66,0,0,1,12.89,0c1.9.13,1.22,2.44,1.36,3.93Z" transform="translate(-264.76 -62.98)"/><path class="cls-1" d="M1340.85,912.6V897c0-1.63-.14-3.39,1.9-3.53q5.89-.19,11.8,0c2.18,0,1.63,2,1.63,3.53v31.22c0,1.36.28,3.26-1.35,3.39a82.93,82.93,0,0,1-12.9-.13c-1.76-.14-1.22-2.58-1.22-4.07C1340.71,922.64,1340.85,917.62,1340.85,912.6Z" transform="translate(-264.76 -62.98)"/><path class="cls-1" d="M1340.85,956.44c0-2.44-.14-4.75,0-7.19.27-3.67-1.63-9,.81-10.86,3.53-2.58,8.28-.68,12.62-.82,2-.13,1.9,1.77,1.9,3.4v31.76c0,.41.14.95,0,1.22-3.66,4.34-8.28,1.09-12.35,2-2.58.54-3.12-1.23-3.12-3.94C1340.85,966.89,1340.85,961.73,1340.85,956.44Z" transform="translate(-264.76 -62.98)"/><path class="cls-1" d="M554.16,956.85V943c0-1.22-.4-2.85.14-3.53,3.66-4.34,8.28-1.08,12.49-1.9,2.71-.54,2.85,1.77,2.85,4.21,0,10.05-.14,20,0,30,0,3-.55,4.21-3.4,4.34-12.08.68-12.08.82-12.08-13.3Z" transform="translate(-264.76 -62.98)"/><path class="cls-1" d="M554.16,868.62c0-4.61.14-9.22,0-13.84-.13-2.71.82-3.66,3-2.85.14,0,.27.14.54.14,11.95,2.71,11.95,2.71,11.95,16.69v6c0,14-.95,14.8-13,12.9-2.18-.27-2.45-1.5-2.45-3.53Z" transform="translate(-264.76 -62.98)"/><path class="cls-1" d="M1356.18,869.71v12.62c0,.95.41,2.31-.13,3-3.4,5-8.15,1.22-12.08,2.31-1.9.54-3.26-.14-3.26-3,0-9-.14-18-.14-27,0-1,0-2,1.09-2.31,4.34-1.22,8.69-2.58,13-3.53,1.9-.4,1.49,1.77,1.49,3C1356.32,859.8,1356.18,864.69,1356.18,869.71Z" transform="translate(-264.76 -62.98)"/><path class="cls-1" d="M660.85,1046.7v15.61c0,2.44-.14,4.34-3,4.07-2.17-.13-4.21.14-4.21-3.53.14-11.26.14-22.39,0-33.66,0-3.66,2.17-2.71,3.94-3s3.26,0,3.26,3.12C660.71,1035.16,660.85,1041,660.85,1046.7Z" transform="translate(-264.76 -62.98)"/><path class="cls-1" d="M1256.56,1046c0,5.43-.14,10.86,0,16.15.13,3.67-1.49,4.08-4.21,4.21s-2.85-1.63-2.85-4.07c0-10.86.14-21.58,0-32.44,0-2.85.68-3.94,3.12-3.8,2.17.14,4.07-.14,3.94,3.66C1256.29,1035.16,1256.56,1040.59,1256.56,1046Z" transform="translate(-264.76 -62.98)"/><path class="cls-1" d="M1256.56,1001.23c0,5.16-.14,10.45,0,15.61.13,3.8-1.77,3.53-3.94,3.66-2.44.14-3.25-.81-3.12-3.66.14-10.45.14-20.77,0-31.22,0-3,.82-3.8,3.26-3.66s3.93.27,3.8,3.8C1256.29,990.78,1256.56,995.94,1256.56,1001.23Z" transform="translate(-264.76 -62.98)"/><path class="cls-1" d="M653.92,1001c0-5,.14-10,0-15.07-.13-3.12.82-4.2,3.53-4.2,2.45,0,3.67.54,3.67,3.93-.14,10.18-.14,20.5,0,30.68,0,3.12-.68,4.07-3.4,4.2-3,0-3.8-1.08-3.66-4.47C654.06,1011,653.92,1006,653.92,1001Z" transform="translate(-264.76 -62.98)"/><path class="cls-1" d="M1249.5,956.71c0-5.16.14-10.45,0-15.61-.13-3.12,1.22-3.66,3.39-3.53s3.67.14,3.67,3.53q-.21,15.67,0,31.36c0,3.53-1.49,3.66-3.8,3.8s-3.39-.68-3.26-3.67C1249.64,967.16,1249.5,962,1249.5,956.71Z" transform="translate(-264.76 -62.98)"/><path class="cls-1" d="M660.85,957.66c0,5-.14,10.05,0,14.93.13,3.26-1.23,3.53-3.4,3.4s-3.66.13-3.66-3.26q.19-15.88,0-31.76c0-3.8,2-3.26,4.07-3.53,2.71-.27,3.12,1.36,3,3.94Z" transform="translate(-264.76 -62.98)"/><path class="cls-1" d="M537.6,700.46a40.21,40.21,0,0,0,8.83-14.25C548.19,701.41,548.06,701.81,537.6,700.46Z" transform="translate(-264.76 -62.98)"/><path class="cls-1" d="M1373.15,700.73c-10.59.41-10.59.41-9.37-15.07A40,40,0,0,0,1373.15,700.73Z" transform="translate(-264.76 -62.98)"/><path class="cls-1" d="M737.8,307.12c-12.62,0-25.11-.14-37.73.13-3.39,0-4.34-1.08-4.34-5,.13-20.63.13-41.4,0-62,0-3.8.95-5.29,4.34-5.29,25,.13,49.95.13,75.06,0,3.26,0,4.61,1,4.61,5q-.19,31.35,0,62.71c0,3.93-1.22,4.61-4.2,4.61C762.91,307,750.43,307.12,737.8,307.12Z" transform="translate(-264.76 -62.98)"/><path class="cls-1" d="M1173.36,307.12c-12.35,0-24.84-.14-37.19.13-3.4,0-4.75-.54-4.75-5,.27-20.63.13-41.26,0-62,0-3.8.81-5.29,4.34-5.29,25.11.13,50.22.13,75.47,0,3.12,0,4.2,1.08,4.2,4.75q-.2,31.56,0,63.11c0,3.53-1,4.35-3.8,4.35C1198.87,307,1186.12,307.12,1173.36,307.12Z" transform="translate(-264.76 -62.98)"/><path class="cls-1" d="M954.7,307.12c-8.42,0-16.83-.14-25.38,0-2.72,0-3.8-.68-3.94-4.21-.27-14.8-.41-14.8,12.22-14.8,14,0,28,.14,41.94-.13,3.66,0,4.75,1.36,4.75,5.56.13,13.44.27,13.44-11.54,13.44C966.78,307.12,960.67,307.12,954.7,307.12Z" transform="translate(-264.76 -62.98)"/><path class="cls-1" d="M954.83,437.28c-53.2,0-106.54.13-159.75-.14-5.43,0-6.78,1.9-6.24,7.6a80.46,80.46,0,0,1,0,11.41c-.14,7.46-2,9.63-8.42,9.77H681.07c-5.7,0-7.74-2.45-7.74-9.1,0-7.6-.13-15.2,0-22.93.14-5.84,2.17-8.55,7.33-8.55,33.66-.14,67.19,0,100.85,0,2.17,0,4.61.27,5.56,2.44,1.63,4.21,4.48,3.66,7.33,3.66h321.14c3,0,6.1.55,7.87-3.66.95-2.17,3.39-2.31,5.56-2.31h100.31c5.56,0,7.6,2.58,7.73,9.23,0,7.47.14,14.79,0,22.26-.13,6.51-2.17,9-7.87,9h-99.76c-5.7,0-7.6-2.45-7.74-9.23,0-4.75-.27-9.64,0-14.39.28-3.93-1-5-4.34-5-14.52.27-28.91.13-43.43.13C1034.24,437.28,994.47,437.28,954.83,437.28Zm224.63-6.11c-16.15,0-32.3.14-48.59-.13-3.25,0-4.75.81-4.47,5,.27,6.38.13,12.89,0,19.27,0,3.12.54,4.75,3.66,4.75q49.07-.19,98.13,0c3.12,0,3.8-1.49,3.67-4.61-.14-6.38-.28-12.9,0-19.28.13-4.07-1.09-5-4.48-5C1211.5,431.31,1195.48,431.17,1179.46,431.17ZM731.15,460h39.23c13.44,0,13.44,0,13.44-15.48,0-13.3,0-13.3-11.68-13.3H683.38c-3.12,0-5.3.14-5,5a172.24,172.24,0,0,1,0,18.6c-.28,4.34,1.08,5.43,4.75,5.29C699.12,459.81,715.14,460,731.15,460Z" transform="translate(-264.76 -62.98)"/><path class="cls-1" d="M1370.57,829.13c1.36-2-2.44-6.65,2.31-7.6,3.93-.82,6.78.13,5.83,6.1-.4,2.31,0,4.76-.13,7.2-.14,3.12-1.36,5.7-4.21,5.56s-3.93-2.58-3.8-5.83Z" transform="translate(-264.76 -62.98)"/><path class="cls-1" d="M1412.92,829.26c0,2.17.13,4.35,0,6.52-.27,2.71-1.77,4.34-4.21,4.34a4,4,0,0,1-3.8-4.07,96.39,96.39,0,0,1,0-12.49c.14-3.66,2.85-1.9,4.48-2s3.66-.95,3.66,2.44c-.13,1.76-.13,3.53-.13,5.29Z" transform="translate(-264.76 -62.98)"/><path class="cls-1" d="M1395.82,829.13c-1,4.48,1.63,11-4.35,10.86-5.56-.28-3.66-6.52-3.8-10.59-.13-3.67-1.9-8.69,4.62-8.14S1393.37,827.5,1395.82,829.13Z" transform="translate(-264.76 -62.98)"/><path class="cls-1" d="M1430.16,829.4c-.68,4.34,1.49,10.45-3.94,10.59-6,.13-4.21-6.25-3.94-10,.14-3-3.12-8.28,3.53-8.55C1432.87,821,1428.66,827,1430.16,829.4Z" transform="translate(-264.76 -62.98)"/><path class="cls-1" d="M488.2,829.53c0,2.18.14,4.35,0,6.52a4,4,0,0,1-3.8,4.07,3.73,3.73,0,0,1-3.94-3.8,85,85,0,0,1-.13-13.16c.4-3.53,3.39-1.36,5.15-1.9s3,.13,2.86,2.71c-.14,1.9,0,3.8-.14,5.56Z" transform="translate(-264.76 -62.98)"/><path class="cls-1" d="M539.91,829.4v4.07c.14,3.53-.54,6.79-4.07,6.65s-4.07-3.53-4.07-6.92v-6c0-5.57,2.17-7.6,6.51-5.7C541.81,823.16,539,827.09,539.91,829.4Z" transform="translate(-264.76 -62.98)"/><path class="cls-1" d="M497.56,829.53c-.13-8.55.41-9.36,5.84-8.14a2.7,2.7,0,0,1,1.77.82c1.22,1.49.27,15.33-.95,16.83-2.31,2.57-6,1.08-6.66-2.72A57,57,0,0,1,497.56,829.53Z" transform="translate(-264.76 -62.98)"/><path class="cls-1" d="M522.54,829.67c0,2.17.13,4.48,0,6.65-.27,2.58-1.9,3.94-3.94,3.8a3.75,3.75,0,0,1-3.66-4.07c-.14-3.8.13-7.6-.14-11.4-.27-4.07,2.17-3.12,4.07-3.26,2.18-.13,4.21-.13,3.94,3.53-.14,1.63,0,3.26,0,4.75Z" transform="translate(-264.76 -62.98)"/><path class="cls-1" d="M866.47,468.5c3.26-5.43,8.56-5,13.31-6,3.39-.67,6.78-.4,10.31-.27s8.15,6.65,7.47,11.13c-1.09,8-.41,16,0,24a48.88,48.88,0,0,1-1.5,16,11,11,0,0,1-5.7,7.2c-2.58,1.35-4.34,1.08-5-2.45-.68-3.8-3.12-4.2-6-4.07-4.07.14-8.14.82-12.08,1.22-4.62.55-5.43-2.3-6.52-5.43-2-5.56-2.17-11.67-2-17.78.27-7.19,1.36-14.25,2.31-21.44.54-4.07,2.3-4.34,4.88-2.17.82,3.39.41,6.65.27,10-.13,1.36-1,3.39.82,4.21,1.36.54,3,.27,4.07-2-5.43-3.26-3-5.7,1.09-8.14C868.65,473.25,867.7,470.4,866.47,468.5Zm16.29,25.92c1.5,0,1.9-1.9,3.53-1.9,4.21.14,1.77-3.94,2.17-6.11.55-2.71-.68-3.12-2.85-3-5.56.13-10.58,2.58-16.69,5,3.39.68,2.17,5.56,5.56,5.43.55-2.17-3.25-4.07-.13-5.7,2.85-1.63,6.1-3.94,9.23-1.5C887.24,489.4,881.27,491.16,882.76,494.42Zm-3.53-15.06c4.21-.68,7.6-.14,9.64-2.72,1.22-1.63,0-4.75-1.76-6.24-2.45-2.17-5.16-2.85-8-.27C884.66,473,884.93,474.2,879.23,479.36Zm-11.81,7.19c-4.34,4.88-2.57,9.64-2.3,14,.13,1.36-.27,4.48,1.9,3.8a4,4,0,0,0,2.31-5.57C867.7,495.37,868,491.57,867.42,486.55Zm-.27,24.29c2.18.41,4.48.82,5.84-1.49.27-.54-.14-2.58-.41-2.58C870,506.5,868.78,508.81,867.15,510.84Z" transform="translate(-264.76 -62.98)"/><path class="cls-1" d="M1038.44,475.83c7.33,3.53.82,5.56-1.22,8.41,3.12,1.09,5.43,0,7.74-1.22a5.2,5.2,0,0,1,4.88-.41c2.31.82,2.45,2.58,2,4.62-.41,2.3-1.76,2.71-3.53,2.44-2.31-.41-4.61-1.49-7.19,0,4.21,8.69,1.49,18.05,2.58,27.15.27,2.17-1.09,5.43-4.21,5.83-2.85.41-3.26-1.9-3.94-4.34a17.47,17.47,0,0,0-1.63-3.67c.14-.13.28-.4.41-.4,1.36-.55,3.39.27,3.67-2.31.13-1.36-.82-1.76-1.63-1.36-1.5.82-4.07-.81-4.48,2.58a29.22,29.22,0,0,1-.41,3.53c-.41,1.63.54,4.75-2.17,4.34-2.31-.27-3.12-2.58-2.85-5.43.41-5.83.27-11.67.81-17.37.27-3.39-.27-3.93-3-2.85a10.4,10.4,0,0,1-3.53.68c-1.22.27-2.85-1.22-3.39,1.36-.41,2.3-.95,4.75.67,6.78,2.58,3.13,4.08,12.22,2.45,15.61-.68,1.5-1.77,2.85-3.26,2.45s-2.85-1.5-3.26-4.08c-2-14.25-2.58-28.5,0-42.75,1.09-6,3.8-7.47,8.15-4.07,3.93,3,5.7,2,6-3.8.13-3.13,2.44-4.08,3.8-3.67,3.12,1.22,6.51,2.85,9,5.43C1043.6,472.57,1039.39,473.52,1038.44,475.83Zm-23.75,4.34c2.72,10.86,6,13,11.54,8.14-6.38-4.61-.41-5.7,2.3-7.87-1.76-1.49-3.66-3.39-4.88-1.76C1021.07,482.34,1018.36,481.66,1014.69,480.17Z" transform="translate(-264.76 -62.98)"/><path class="cls-1" d="M947.37,479.36c-2.58-1.5-6.24-2.72-1-6,1-.68.68-1.63.54-2.58-.13-1.35-2.71-3.25.27-4.07,2-.54,4.75-1.76,6,1.36.81,2,1.9,3.26,3.52,2.85a4,4,0,0,0,2.85-3.94c0-5.43,3.53-3.66,5.43-2.85A19.89,19.89,0,0,1,971.8,470c1.22,1.49.14,3.39-1.76,3.8-1.63.27-2.85.68-2.85,3.26s.81,4.07,2.85,4.88c1.22.55,3.52.41,3.12,3-.41,2.17-.55,4.89-3.53,5-1.77.14-3.26,1.36-3.12,3.94,2.44,1.08,4.75.13,7-.41,3.13-.68,5.43,1.22,5.71,4.34.27,3.67-2.85,3.26-4.89,3.4-4.34.4-8.82-1.36-13.44.27,1.77,2.31,3.94,1.36,5.84,1.9,1.49.41,3.26,1.08,3.12,3.26a2.75,2.75,0,0,1-3,2.71c-5.15-.13-7,3-7.19,8.55-.14,2.17-1.09,4.07-3.26,3.67s-1.9-2.58-1.9-4.35c-.13-3.53-.68-5.83-4.48-5.15-1.9.27-3.93-.28-4.07-3.26s2.17-2.58,3.67-3a3.37,3.37,0,0,0,2.58-2.17c-3.26-1.36-6,.81-8.69,2-1.77.81-3.39,2.3-5.43,1.35-1.36-.54-2.85-1.49-3-3-.27-2.17,1.63-2.17,2.85-2.58,2.45-1,5-1.09,7.2-3-.27-2.3-2.17-1.49-3.12-2.44-1.63-1.76-2.45-3.12-.14-5.16,3-2.71,4.75-6.51,5.84-10.72.54-.54,1.9-1.09,1.08-2S947.78,478.54,947.37,479.36ZM958,473.79c-.14-1.22-.82-2.58-1.77-2.58s-1.63,1.22-1.63,2.58.68,2.17,1.9,1.9A1.51,1.51,0,0,0,958,473.79Z" transform="translate(-264.76 -62.98)"/><path class="cls-1" d="M866.47,468.5c1.36,2,2.18,4.75,5.43,4.2-4.07,2.45-6.51,4.89-1.08,8.15-1.09,2.17-2.58,2.58-4.07,2-1.77-.67-.82-2.71-.82-4.2.14-3.4.54-6.79-.27-10.05A1.77,1.77,0,0,1,866.47,468.5Z" transform="translate(-264.76 -62.98)"/><path class="cls-1" d="M1127.07,988.2V935.81c0-8.82,1.63-10.72,9-10.72h83.2c7.2,0,9.1,2,9.1,10.18v106c0,8.28-1.9,10.45-8.83,10.45h-83.74c-7.06,0-8.69-2-8.69-10.45Zm96.37.14c0-17.1-.13-34.07.14-51.17,0-4.48-.68-6.38-5-6.38-27.28.27-54.42.27-81.7,0-3.8,0-5,1.22-5,5.7.14,34.47.14,69.08,0,103.56,0,4.61,1.36,5.7,5,5.7,27.28-.14,54.42-.14,81.7,0,3.81,0,5-1.22,5-5.7C1223.31,1023,1223.44,1005.71,1223.44,988.34Z" transform="translate(-264.76 -62.98)"/><path class="cls-1" d="M783.41,988.74v53.07c0,7.88-1.77,10-8.55,10H690.57c-6.38,0-8.41-2.31-8.41-9.64V935c0-7.33,2.17-9.78,8.41-9.78H775.4c6.11,0,8.14,2.31,8.14,9.37C783.41,952.5,783.41,970.69,783.41,988.74Zm-96.5-1c0,17.51.13,34.89-.14,52.4,0,4.61,1.22,5.83,5,5.7,27.28-.14,54.43-.14,81.71,0,3.8,0,5-1.09,5-5.7-.13-34.48-.13-69.09,0-103.57,0-4.47-1.22-5.83-5-5.7-27.28.14-54.43.14-81.71,0-3.8,0-5.16,1.09-5,5.7C687,953.73,686.91,970.69,686.91,987.79Z" transform="translate(-264.76 -62.98)"/><path class="cls-1" d="M1179.46,431.17c16,0,32,.14,48-.13,3.26,0,4.62.95,4.48,5-.27,6.38-.13,12.89,0,19.27.14,3.26-.54,4.62-3.66,4.62q-49.07-.21-98.13,0c-3.13,0-3.8-1.5-3.67-4.75.14-6.38.27-12.9,0-19.28-.13-4.21,1.36-5,4.48-5C1147.16,431.31,1163.31,431.17,1179.46,431.17Z" transform="translate(-264.76 -62.98)"/><path class="cls-1" d="M731.15,460c-16,0-32-.14-48,.13-3.53,0-4.89-.95-4.75-5.29.27-6.25.27-12.49,0-18.6-.28-4.75,1.76-5,5-5,29.59.14,59.17,0,88.76,0,11.68,0,11.68,0,11.68,13.3,0,15.48,0,15.48-13.44,15.48Z" transform="translate(-264.76 -62.98)"/><path class="cls-1" d="M882.76,494.42c-1.49-3.26,4.35-5,.82-7.87-3.13-2.44-6.38,0-9.23,1.49s.68,3.53.13,5.7c-3.25.14-2.17-4.61-5.56-5.43,6.11-2.44,11.13-4.88,16.69-5,2.31-.13,3.53.27,2.85,3-.4,2.17,2,6.24-2.17,6.11C884.66,492.52,884.39,494.42,882.76,494.42Z" transform="translate(-264.76 -62.98)"/><path class="cls-1" d="M879.23,479.36c5.57-5.16,5.43-6.38-.13-9.23,2.85-2.58,5.56-1.9,8,.27,1.76,1.49,3,4.75,1.76,6.24C887,479.36,883.44,478.68,879.23,479.36Z" transform="translate(-264.76 -62.98)"/><path class="cls-1" d="M867.42,486.55c.41,5,.14,8.69,1.91,12.21a4,4,0,0,1-2.31,5.57c-2.31.68-1.77-2.44-1.9-3.8C864.85,496.19,863.22,491.43,867.42,486.55Z" transform="translate(-264.76 -62.98)"/><path class="cls-1" d="M867.15,510.84c1.63-2,3-4.34,5.43-4.2.27,0,.68,2,.41,2.58C871.63,511.66,869.33,511.25,867.15,510.84Z" transform="translate(-264.76 -62.98)"/><path class="cls-1" d="M1014.69,480.17c3.67,1.49,6.52,2.17,9-1.49,1.08-1.63,3,.27,4.88,1.76-2.71,2-8.68,3.12-2.3,7.87C1020.66,493.34,1017.41,491.16,1014.69,480.17Z" transform="translate(-264.76 -62.98)"/><path class="cls-1" d="M958,473.79c.13,1.22-.41,1.76-1.36,1.9-1.22.27-1.9-.54-1.9-1.9s.68-2.58,1.63-2.58S957.82,472.57,958,473.79Z" transform="translate(-264.76 -62.98)"/><path class="cls-1" d="M947.37,479.36c.41-.82.81-2.18,1.63-1.23s-.41,1.5-1.09,2A2.72,2.72,0,0,0,947.37,479.36Z" transform="translate(-264.76 -62.98)"/><path class="cls-1" d="M1223.44,988.34c0,17.23-.13,34.47.14,51.85,0,4.47-1.22,5.83-5,5.7-27.28-.14-54.42-.14-81.7,0-3.8,0-5-1.09-5-5.7.14-34.48.14-69.09,0-103.57,0-4.47,1.09-5.83,5-5.7,27.28.14,54.42.28,81.7,0,4.35,0,5.16,1.9,5,6.38C1223.31,954.27,1223.44,971.37,1223.44,988.34Zm-80.49,0v34.34c0,6.78,1.63,8.82,7.2,8.82H1205c5.7,0,7.33-1.9,7.33-8.69V954.13c0-6.78-1.49-8.82-7.19-8.82h-54.84c-5.7,0-7.33,2-7.33,8.69Z" transform="translate(-264.76 -62.98)"/><path class="cls-1" d="M686.91,987.79c0-17.1.13-34.06-.14-51.17,0-4.61,1.22-5.7,5-5.7,27.28.14,54.43.14,81.71,0,3.8,0,5,1.23,5,5.7-.13,34.48-.13,69.09,0,103.57,0,4.61-1.22,5.7-5,5.7-27.28-.14-54.43-.14-81.71,0-3.8,0-5-1.23-5-5.7C687,1022.68,686.91,1005.3,686.91,987.79Zm80.48,1V955.08c0-7.87-1.49-9.63-8.14-9.63H706c-6.51,0-8,1.63-8,9.09v68c0,7.33,1.49,9.09,7.46,9.09h54.29c6,0,7.47-1.9,7.6-9.09C767.53,1011.14,767.39,999.87,767.39,988.74Z" transform="translate(-264.76 -62.98)"/><path class="cls-1" d="M1143,988.34V954c0-6.65,1.63-8.69,7.33-8.69h54.84c5.7,0,7.19,1.9,7.19,8.82v68.68c0,6.79-1.63,8.69-7.33,8.69h-54.83c-5.7,0-7.2-2-7.2-8.82Zm64.34.4c0-11-.14-22.12,0-33.11,0-3.67-1-4.89-4.07-4.75-17.1.13-34.07.13-51.17,0-3.12,0-4.21,1-4.21,4.75.14,21.85.14,43.7,0,65.69,0,3.66,1,4.89,4.07,4.75,17.1-.14,34.07-.14,51.17,0,3.12,0,4.21-1.09,4.21-4.75C1207.15,1010.46,1207.29,999.6,1207.29,988.74Z" transform="translate(-264.76 -62.98)"/><path class="cls-1" d="M767.39,988.74v33.66c0,7.2-1.63,9.1-7.6,9.1H705.5c-6.11,0-7.46-1.77-7.46-9.1v-68c0-7.47,1.35-9.1,8-9.1h53.21c6.65,0,8.14,1.77,8.14,9.64Zm-5-.4c0-10.86-.13-21.72,0-32.58,0-3.53-.68-5-3.94-5q-25.84.21-51.71,0c-3,0-3.8,1.36-3.8,4.62.14,21.85.14,43.7,0,65.69,0,4.21,1.36,5,4.62,5,16.83-.14,33.79-.14,50.62,0,3.53,0,4.35-1.36,4.21-5.29C762.24,1009.92,762.37,999.2,762.37,988.34Z" transform="translate(-264.76 -62.98)"/><path class="cls-1" d="M1207.29,988.74c0,10.86-.14,21.72,0,32.58,0,3.8-1.09,4.75-4.21,4.75-17.1-.14-34.07-.14-51.17,0-3.12,0-4.07-1.09-4.07-4.75q.21-32.77,0-65.69c0-3.8,1.09-4.75,4.21-4.75,17.1.13,34.07.13,51.17,0,3.12,0,4.2,1.08,4.07,4.75C1207.15,966.62,1207.29,977.75,1207.29,988.74Z" transform="translate(-264.76 -62.98)"/><path class="cls-1" d="M762.37,988.34c0,10.86-.13,21.71.14,32.57.13,3.8-.82,5.3-4.21,5.3-16.83-.14-33.8-.14-50.63,0-3.12,0-4.61-.68-4.61-5,.13-21.85.13-43.7,0-65.69,0-3.26.81-4.61,3.8-4.61q25.86.2,51.71,0c3.39,0,4.07,1.49,3.94,5C762.24,966.62,762.37,977.48,762.37,988.34Z" transform="translate(-264.76 -62.98)"/></g></g><g id="图层_2-2" data-name="图层 2"><path class="cls-2" d="M447.28,461h13.36l40.66,7.18a3.82,3.82,0,0,0,1.42.19,7.23,7.23,0,0,0,6.12-3.22A7.31,7.31,0,0,0,510.4,461h29.82a7.77,7.77,0,0,0,7.66-7.66V417.75h12.21v-.45h.28v-.8a43,43,0,0,0-26.72-39.73,54.1,54.1,0,0,0-94,36.53v40.06A7.67,7.67,0,0,0,447.28,461Z" transform="translate(-264.76 -62.98)"/><path class="cls-2" d="M1353.79,408.51a40.31,40.31,0,0,0,79.31,14.13,5.38,5.38,0,0,1,.81.31l.09.05h.11c.69,0,4.26-6.81,6-13,2.49-8.75,3-20.66-8.29-27.91l2-3.93-10-4.95c-1-1.5-11.93-17.44-30.55-12.68-19.13,4.9-28.12,7.78-28.27,7.83l-10.3,5.23,4.73,4.73-9,3.12,6.06,2.95-6.29,3.63Z" transform="translate(-264.76 -62.98)"/><path class="cls-2" d="M746.93,1074H637.16a25.16,25.16,0,0,0-25-22.6H599.52l2.75-22.45,8.86-.21L629,854v-.08L591.77,715.07a17.16,17.16,0,0,0,2.09,1.32,18.33,18.33,0,0,0,8.09,1.88,18,18,0,0,0,13.6-6.15h0a17.68,17.68,0,0,0-1.67-25,25.29,25.29,0,0,0-2.28-1.69L593.15,597l4.19-.35-.12-.51c-.15-.59-14.83-59.86-22.59-96.13-2.64-12.34-7.5-20-14.45-22.77s-13.93.09-17.2,1.83a26.41,26.41,0,0,0-9.35-1.37l-70.51,2.42c-3.59-1.7-9.89-3.75-16.1-1.27-6.94,2.76-11.8,10.42-14.44,22.76-7.76,36.27-22.45,95.54-22.59,96.13l-.13.52,4,.33L395.44,687a24.23,24.23,0,0,0-2.3,1.7,17.68,17.68,0,0,0-1.65,25h0a18,18,0,0,0,13.6,6.15,18.37,18.37,0,0,0,8.1-1.88,18,18,0,0,0,7.65-23.84l26.76-92.76,12,1,8.27-40.4,2.46,40.68-21.72,95.25.76.15c-2,8.77-12.51,62.23,14.56,126l19.74,203.82,1.4.1v23.38h-5V1074H329.5c3.44-6,7-12.14,10.79-18.06a106.58,106.58,0,0,1,15.13-18.73,29.29,29.29,0,0,0,19.8,7.74l.93,0c13.26-.67,24.1-10.22,32.8-17.9l28.87-25.4-19.53-1c-13.25-.64-27-1.3-39.74,2.91-17.29,5.69-25.32,17.9-27.06,27.42l.44.08h0l-.64.64-.37.25c.42.64.87,1.26,1.34,1.86a114.08,114.08,0,0,0-15.14,18.57c0-.15,0-.31,0-.47l-.13-.95c-1.66-12.12-3.22-23.57-3.94-35.44-.32-5-.45-9.82-.42-14.46a39.92,39.92,0,0,0,22-8.75c13-11,17.35-28.86,20.66-46.25l10.15-50.76-21.58,14.89c-14.09,9.7-30.06,20.69-40.65,35.85-11.63,16.63-14.22,36.94-6.61,51.74l.4-.21h0l-.16,1-.14.43a39.75,39.75,0,0,0,10.79,2.15c0,16.81,2.22,33.65,4.43,50l.27,2h0a2.35,2.35,0,0,0,1.12,1.59,2.6,2.6,0,0,0,1.31.37,2.34,2.34,0,0,0,.74-.12l.15-.07c-4,6.21-7.5,12.43-10.65,18.06a2.1,2.1,0,0,0-.34,1.06H267.81a2,2,0,0,0,0,4.1H746.93a2.06,2.06,0,0,0,2.05-2A2,2,0,0,0,746.93,1074ZM586.21,692.55c-.11.22-.19.44-.29.66l-1.3-4.85.3-.26Zm-67,358.85H506.58l2.64-21.54,11.07.84L531,795l48.36,77.18-8.65,157.06,0,.48,7.39-.18v21.86h-5V1074H544.22A25.16,25.16,0,0,0,519.22,1051.4Z" transform="translate(-264.76 -62.98)"/><path class="cls-2" d="M1531.09,1076.27h-94.74v-21.14h-4.8v-12l7.78.43,14.53-309.27c.37,0,.75,0,1.12,0a17.79,17.79,0,0,0,7.65-1.74,17.58,17.58,0,0,0,8.3-23.4,16.28,16.28,0,0,0-1.35-2.37l9.32-14.94,7,3.11L1531.64,607l.08-.15,0-.16c-.2-.78-19.55-78.28-36.91-116.41-17.2-37.79-38.43-31.57-39.35-31.28l-122.78,26.66-.1,0h0c-1.81,0-8.64,6.83-19.26,19.24-16.93,19.77-50.5,50.74-53.43,53.44l-60.17-22.56-3.49,12.87-19.81-7.42a17.36,17.36,0,0,0-12.86-4.06,17.11,17.11,0,0,0-11.84,6.25,17.48,17.48,0,0,0,23.55,25.53c.68-.54,1.38-1.1,2.08-1.77l12.52,4.89-1.32,4.87,70,32.69.23.11,76.43-51.11c16.25,47.31-16,136.08-18.44,142.56l-.18.06,0,.38-.09.23.1.09,16,338.73,0,.42,11.24.32,1.72,13.78h-11.79a23.57,23.57,0,0,0-23.41,21.14H1187.8a2,2,0,0,0,0,3.9h343.29a2,2,0,0,0,2-2A1.86,1.86,0,0,0,1531.09,1076.27Zm-165.5-21.14V1042l4.77.13,18.33-230.46,4,229v.42l17.18,1,1.64,13.16h-11.79a23.57,23.57,0,0,0-23.41,21.14h-6v-21.14Zm95-398.62-2.38-40.72,8.22-36.44,18.69,26.85Z" transform="translate(-264.76 -62.98)"/></g></svg>