<svg id="图层_1" data-name="图层 1" xmlns="http://www.w3.org/2000/svg" viewBox="0 0 882.97 802"><defs><style>.cls-1{fill:#f2f2f2;}.cls-2{fill:#e4e4e4;}.cls-3{fill:#fff;}.cls-4{fill:#3f3d56;}.cls-5{fill:#e6e6e6;}.cls-6{fill:#cacaca;}.cls-7{fill:#9e616a;}.cls-8{fill:#2f2e41;}.cls-9{fill:#00ab55;}.cls-10{fill:#ffb6b6;}.cls-11,.cls-12{isolation:isolate;}.cls-11{opacity:0.2;}.cls-12{opacity:0.17;}.cls-13{fill:#ccc;}</style></defs><g id="图层_1-2" data-name="图层 1"><path class="cls-1" d="M883,401a397.48,397.48,0,0,1-34.2,162.2c-.7,1.6-1.5,3.3-2.2,4.9a18.89,18.89,0,0,0-1.1,2.5,17.91,17.91,0,0,1-1.2,2.4c-.5,1-1,2.1-1.5,3.1-.6,1.3-1.3,2.6-1.9,3.9a2.19,2.19,0,0,1-.3.5c-.5,1.1-1.1,2.2-1.7,3.3a2.51,2.51,0,0,1-.4.7c-.7,1.3-1.3,2.6-2,3.8h0l-2.2,4c-1.8,3.3-3.7,6.6-5.5,9.9-.6,1-1.1,1.9-1.7,2.9s-1.1,1.8-1.6,2.7c-.4.6-.7,1.2-1.1,1.8l-1.8,3h0l-4.2,6.6h0c-.7,1-1.3,2-2,3h0c-2,3-4,6-6.1,8.9h0c-1.6,2.3-3.3,4.7-5,7h0c-1.1,1.5-2.2,3-3.3,4.4-.9,1.2-1.8,2.4-2.8,3.6-.2.3-.4.5-.6.8h0a7,7,0,0,1-.8,1h0c-3.9,5-8,10-12.2,14.8h0c-.2.3-.5.5-.7.8l-.7.8h0l-1.1,1.2a12,12,0,0,1-1.1,1.2h0a401.44,401.44,0,0,1-73.8,65.1c-3.6,2.5-7.3,4.9-11,7.3l-2.8,1.8a9.22,9.22,0,0,1-.8.5l-1.5.9-1.5.9-6,3.6-1.5.9-1.5.9h-.1c-2.5,1.5-5,2.9-7.6,4.3-4.6,2.5-9.2,4.9-13.9,7.2l-3.5,1.7-2.9,1.4-.8.4-2.5,1.3-2.7,1.2-3,1.3c-3.7,1.7-7.5,3.3-11.2,4.8a401.29,401.29,0,0,1-41.2,14.3l-2,.6c-6,1.7-12,3.2-18.1,4.6q-15.9,3.6-32.1,6h0l-3.9.5h-.3l-4.3.6h-.3l-4,.5-4.4.5-3.3.3h-.3l-3,.3H516l-2.6.2c-10.3.9-20.8,1.4-31.4,1.4-11.4,0-22.8-.5-34-1.4h-.1c-2.4-.2-4.8-.4-7.2-.7l-1.9-.2h-.4l-.6-.1h-.3l-2.5-.3-2.8-.3a27,27,0,0,1-2.8-.4,1.27,1.27,0,0,1-.6-.1l-2-.3-1-.1-1.9-.3h-.1a389.45,389.45,0,0,1-60.3-13.6h0l-3.2-1-1-.3c-2.8-.9-5.5-1.8-8.3-2.8-3.8-1.3-7.6-2.7-11.3-4.1l-3-1.2c-2-.8-4-1.6-6.1-2.4-3.4-1.4-6.8-2.8-10.2-4.3h0c-3.2-1.4-6.3-2.8-9.4-4.3-.1,0-.2-.1-.3-.1h0l-2.1-1h0a390.57,390.57,0,0,1-49.5-28.3q-7.65-5.1-15-10.5-5.85-4.35-11.7-9a400.22,400.22,0,0,1-52.8-50.5h0c-1.1-1.3-2.2-2.6-3.4-3.9h0l-.5-.5c-.7-.8-1.4-1.7-2.1-2.5h0c-.9-1.1-1.9-2.2-2.8-3.3l-.6-.7h0c-.7-.9-1.5-1.8-2.2-2.7l-1.1-1.4h0c-2.2-2.7-4.3-5.5-6.4-8.3h0c-.6-.8-1.1-1.5-1.7-2.3h0c-2.7-3.6-5.3-7.3-7.8-11h0c-1-1.4-1.9-2.8-2.9-4.2s-1.9-2.8-2.8-4.2h0c-1-1.5-1.9-2.9-2.8-4.4l-.1-.2c-.9-1.5-1.8-2.9-2.7-4.4-.7-1.2-1.4-2.3-2.1-3.5-.5-.8-.9-1.6-1.4-2.4-.2-.3-.3-.5-.5-.8-1.1-1.8-2.1-3.6-3.1-5.4-1.2-2.1-2.4-4.3-3.6-6.5-.5-.9-1-1.8-1.4-2.7-.2-.3-.3-.6-.5-.9-.6-1.1-1.1-2.1-1.7-3.2s-1.1-2.1-1.6-3.2-1.1-2.1-1.6-3.2l-1.2-2.4c0-.1-.1-.1-.1-.2a9.74,9.74,0,0,1-.5-1.1c0-.1-.1-.1-.1-.2-.4-.8-.8-1.7-1.2-2.5l-1.5-3.3a22.88,22.88,0,0,1-1-2.3l-1.5-3.3c-.5-1.1-1-2.3-1.5-3.4a3.55,3.55,0,0,0-.4-.9c-.2-.5-.4-1-.7-1.6-.6-1.4-1.2-2.8-1.7-4.2-.7-1.6-1.3-3.1-1.9-4.7s-1.2-2.9-1.7-4.4l-.2-.5h0a389.92,389.92,0,0,1-19.6-70.5h0a385.84,385.84,0,0,1-5.3-41.5c-.1-.8-.1-1.5-.2-2.3-.7-9.5-1-19-1-28.5,0-4.2.1-8.4.2-12.6a399.47,399.47,0,0,1,88.5-239c2.4-3,4.9-5.9,7.4-8.9A401,401,0,0,1,482,0C624.7,0,750,74.6,821.1,186.9c3.7,5.8,7.2,11.7,10.6,17.8A399.14,399.14,0,0,1,883,401Z" transform="translate(-0.03)"/><path class="cls-2" d="M676.2,715.8c-1.4,4-2.9,8-4.3,11.9-.3.8-.5,1.5-.8,2.3-3.7,10.1-7.3,20.3-11,30.4l-3.5,1.7-2.9,1.4-.8.4-2.4,1.1-2.7,1.2-3,1.3a15,15,0,0,1-.9-4.2,25.09,25.09,0,0,1,.8-6.7c.9-3.6,2.2-7.1,3.2-10.7,0-.2.1-.3.1-.5a39.27,39.27,0,0,0-2.7-25.7c-2.3-4.8-5.5-9.1-6.9-14.2a20.25,20.25,0,0,1,1.6-14.3,24.57,24.57,0,0,1,3.1-4.8c.3-.4.6-.7.9-1.1a20.25,20.25,0,0,1,11.1-6.2c8.2-1.5,16.8,2.9,21.4,9.8a19.32,19.32,0,0,1,3.3,9.3C680.3,704.2,678.3,710.1,676.2,715.8Z" transform="translate(-0.03)"/><path class="cls-2" d="M653.5,756.4c-1.9-3.5-5-6.5-5.6-10.4-2-12.5-6.7-21.5-14.4-26.6-2.3-1.5-2.6-4.7-4-7.1-.6-1-1.2-2.1-1.9-3.1-1-1.7-2.2-3.4-3.3-5a78.08,78.08,0,0,0-7.1-9c-1.1-1.2-2.2-2.3-3.4-3.4h0c-.7-.7-1.5-1.4-2.2-2l-.9-.8h0q-2.1-1.8-4.2-3.3c-3.4-2.3-7.2-3.9-11.2-2.6a24.82,24.82,0,0,0-4.4,2,23.92,23.92,0,0,0-2.1,1.3l-1.4.9-1.2.7c-3,1.7-6.1,3.4-9.1,5.1l-1.3.7h0a9.29,9.29,0,0,1-1,.5l-1.8,1c-1.8,1-3.7,2-5.5,2.9-.9.5-1.9,1-2.8,1.5a8.26,8.26,0,0,0-1.3.7h0l-.5.2c-1.3.7-2.6,1.4-3.8,2.1a32.08,32.08,0,0,0-9.2,8.4c-.5.7-.9,1.3-1.4,2a15.09,15.09,0,0,0-1.5,2.8c-.3.7-.6,1.3-.9,2h0a31.24,31.24,0,0,0-1,19.8h0a5,5,0,0,0,.4,1.3,19.45,19.45,0,0,0,.8,2.2,16.27,16.27,0,0,0,1.1,2.3h0a44.82,44.82,0,0,0,8.2,10.2l.1.1,1.2,1.2c.2.2.5.4.7.6,3.5,3,9,5.2,12.2,8.3,1.7,1.6,2.7,3.5,2.3,5.8-1,6.1-.8,10.1.2,12.7,2.9,7,11.9,3.4,18.1,4.8l2-.6a371.44,371.44,0,0,0,41.2-14.3c3.8-1.5,7.5-3.1,11.2-4.8l3-1.3,2.7-1.2,2.4-1.1.8-.4,2.9-1.4C655.6,760.2,654.6,758.3,653.5,756.4Z" transform="translate(-0.03)"/><path class="cls-2" d="M580.4,659.3c2.1-6.3-.8-10.5-8.2-12.8a2.05,2.05,0,0,0-2.9.1h0a2,2,0,0,0-.4.8l-6.5,19.2c-6.8-1.7-11.8-.5-12.8,6.2,2.7-6.8.2-11.1-7.4-13a2.05,2.05,0,0,0-2.9,0h0a2.18,2.18,0,0,0-.5.8L534.5,678a44,44,0,1,0,61-12.3,45.57,45.57,0,0,0-15.1-6.4Z" transform="translate(-0.03)"/><path class="cls-3" d="M576.2,714.1a3.78,3.78,0,0,1-5.1-1.5.78.78,0,0,1,.2-.8c.2-.2.6,0,.8.2a2.66,2.66,0,1,0,4.7-2.5.57.57,0,0,1,.2-.7h0a.57.57,0,0,1,.7.2,3.57,3.57,0,0,1-1.5,5.1Z" transform="translate(-0.03)"/><ellipse class="cls-3" cx="571.53" cy="704.76" rx="4.3" ry="1.7" transform="translate(-265.37 354.07) rotate(-28.22)"/><path class="cls-3" d="M550.1,707.6a9.5,9.5,0,0,1,11.3-7.4,7.49,7.49,0,0,1,1.6.5,10.63,10.63,0,1,0-13.4,6.8h0Z" transform="translate(-0.03)"/><circle class="cls-4" cx="553.27" cy="700.1" r="3.7"/><path class="cls-3" d="M575.4,694.5a9.54,9.54,0,0,1,11.2-7.5h0a7.49,7.49,0,0,1,1.6.5,10.63,10.63,0,1,0-13.4,6.8h0Z" transform="translate(-0.03)"/><circle class="cls-4" cx="579.87" cy="686.7" r="3.7"/><rect class="cls-3" x="583.71" y="692.61" width="17.8" height="1.8" transform="translate(-317.48 630.72) rotate(-45.54)"/><rect class="cls-3" x="586.21" y="697.32" width="17.8" height="1.8" transform="translate(-280.51 424.33) rotate(-32.19)"/><rect class="cls-3" x="541.63" y="715.22" width="17.8" height="1.8" transform="translate(-125.51 117.02) rotate(-10.9)"/><rect class="cls-3" x="544" y="719.86" width="17.8" height="1.8" transform="translate(-247.22 290.59) rotate(-24.24)"/><path class="cls-5" d="M46,445.1C11.8,414.3-8.9,365.4,3.8,321.2a211.77,211.77,0,0,0,119.3,83.2c18.7,4.9,39.9,8.3,51.3,23.9,7.1,9.7,8.7,22.5,7,34.4s-6.4,23.1-11,34.2l.2,3C125.6,491.1,80.1,475.9,46,445.1Z" transform="translate(-0.03)"/><path class="cls-3" d="M4.7,321.3c8.7,36.7,29.1,70.8,57.8,95.3,6.2,5.3,13,10.1,20.5,13.2a44.52,44.52,0,0,0,23.4,2.7c7.4-1,14.8-2.8,22.3-1.9,7.9.9,14.5,5.3,19.1,11.7,5.6,7.8,8.1,17.2,10.3,26.4,2.4,10.2,4.6,21,11.4,29.3.8,1-.8,2.2-1.6,1.2-11.8-14.6-10.2-34.8-18.7-50.9-4-7.5-10.3-13.9-18.9-15.5-7.6-1.4-15.2.5-22.7,1.5a48.59,48.59,0,0,1-23-1.8c-7.7-2.7-14.7-7.3-21-12.4A178.89,178.89,0,0,1,27.1,379,187.86,187.86,0,0,1,2.7,321.5C2.4,320.3,4.4,320.1,4.7,321.3Z" transform="translate(-0.03)"/><path class="cls-3" d="M52.8,409.1a27.24,27.24,0,0,1-35.2.7c-1-.8.2-2.4,1.2-1.6a25,25,0,0,0,32.7-.7,1,1,0,1,1,1.3,1.6Z" transform="translate(-0.03)"/><path class="cls-3" d="M102.8,433.5a52.08,52.08,0,0,0-11.4-36.4c-.8-1,.8-2.2,1.6-1.2a54.76,54.76,0,0,1,11.7,38C104.7,435.1,102.7,434.9,102.8,433.5Z" transform="translate(-0.03)"/><path class="cls-3" d="M18.5,361a15.3,15.3,0,0,0,7.7-12.4c.1-1.3,2.1-1,2,.3a17.34,17.34,0,0,1-8.5,13.7,1,1,0,0,1-1.4-.2h0a1.09,1.09,0,0,1,.2-1.4Z" transform="translate(-0.03)"/><path class="cls-5" d="M146.6,259a21.75,21.75,0,0,1-.1,2.5,199.86,199.86,0,0,0,1.8,32.8c.1.8.2,1.7.3,2.5a213.51,213.51,0,0,0,25.5,74.4,209.23,209.23,0,0,0,17.6,26.1c9,11.4,19.7,23,24.3,36.4a33.11,33.11,0,0,1,1.2,4.2l-42.9,61.5-.5.3-1.6,2.5c-.4-.4-.7-.8-1.1-1.2l-.6-.7-.4-.5-.1-.1c-.1-.1-.2-.3-.4-.4-2.1-2.4-4.1-4.8-6.2-7.2h0c-15.6-18.4-29.8-38.2-40.6-59.6-.3-.6-.7-1.3-1-2a193.07,193.07,0,0,1-11.9-30c-1.7-5.7-3.1-11.4-4.3-17.2a144.7,144.7,0,0,1-1.5-45.5c3.7-30.2,17.1-58.8,40.7-77.5A20.28,20.28,0,0,0,146.6,259Z" transform="translate(-0.03)"/><path class="cls-3" d="M147.2,259.7A181.94,181.94,0,0,0,136,370.6c1.8,8,4.3,15.9,8.4,22.9a45.1,45.1,0,0,0,17,16.3c6.5,3.7,13.5,6.7,19,11.9,5.8,5.5,8.4,13,8.2,20.9-.2,9.6-3.8,18.6-7.7,27.2-4.3,9.6-8.9,19.5-8.5,30.3a1,1,0,0,1-2,0c-.6-18.7,12.8-33.9,15.7-51.9,1.3-8.4.2-17.3-5.8-23.7-5.2-5.6-12.5-8.8-19.1-12.4-6.9-3.9-12.8-8.6-17.2-15.3s-7.3-14.6-9.3-22.5a177.15,177.15,0,0,1-4.4-54.8,185.28,185.28,0,0,1,15-60.8,1.07,1.07,0,0,1,1.9,1Z" transform="translate(-0.03)"/><path class="cls-3" d="M132.8,358.7a27.21,27.21,0,0,1-28.5-20.6,1,1,0,0,1,2-.5,25,25,0,0,0,26.6,19.1C134.1,356.6,134.1,358.6,132.8,358.7Z" transform="translate(-0.03)"/><path class="cls-3" d="M158,408.4a52.1,52.1,0,0,0,12.9-35.9,1,1,0,0,1,2,0,54.12,54.12,0,0,1-13.5,37.4c-.8.9-2.3-.6-1.4-1.5Z" transform="translate(-0.03)"/><path class="cls-3" d="M134.4,299.7a15.23,15.23,0,0,0,13.6-5.2c.9-1,2.3.5,1.4,1.4a17.21,17.21,0,0,1-15.1,5.8.94.94,0,0,1-1-1,1,1,0,0,1,1.1-1Z" transform="translate(-0.03)"/><path class="cls-5" d="M538.5,263.1c6-33-3.9-70.4-31-90.1A153.92,153.92,0,0,1,476,274.1c-8.6,11.1-19.3,22.6-18.9,36.7.3,8.7,5,16.9,11.3,22.9s14,10.5,21.6,14.8l1.2,1.8C513.2,325.1,532.6,296.1,538.5,263.1Z" transform="translate(-0.03)"/><path class="cls-3" d="M507,173.5a131.45,131.45,0,0,1,9.2,80.6,59,59,0,0,1-5.9,16.8,32.67,32.67,0,0,1-12.2,12c-4.7,2.7-9.8,5-13.7,8.8a20.17,20.17,0,0,0-5.8,15.3c.2,7,3,13.5,5.9,19.8,3.2,7,6.7,14.1,6.5,22,0,1,1.5.9,1.5,0,.3-13.6-9.6-24.5-11.9-37.6-1.1-6.1-.3-12.6,4-17.3,3.7-4.2,9-6.5,13.8-9.2a34.53,34.53,0,0,0,12.4-11.3,52.17,52.17,0,0,0,6.5-16.5A127.4,127.4,0,0,0,520,217a134.34,134.34,0,0,0-11.5-44.1.81.81,0,0,0-1.5.6Z" transform="translate(-0.03)"/><path class="cls-3" d="M518.5,245.5a19.9,19.9,0,0,0,20.6-15.3c.2-.9-1.2-1.3-1.4-.4A18.25,18.25,0,0,1,518.5,244C517.5,243.9,517.6,245.4,518.5,245.5Z" transform="translate(-0.03)"/><path class="cls-3" d="M500.6,281.8a37.7,37.7,0,0,1-9.7-26c0-1-1.5-.9-1.5,0a39.76,39.76,0,0,0,10.2,27.1c.6.7,1.7-.4,1-1.1Z" transform="translate(-0.03)"/><path class="cls-3" d="M516.8,202.5a11.45,11.45,0,0,1-10-3.7c-.6-.7-1.6.4-1,1.1a12.72,12.72,0,0,0,11,4.1.71.71,0,0,0,.7-.8.68.68,0,0,0-.7-.7Z" transform="translate(-0.03)"/><path class="cls-5" d="M397.6,200.8l1.1,1.4a146.85,146.85,0,0,1,13.6,19.7c.3.5.6,1.1.9,1.6a156.37,156.37,0,0,1,18.5,54.2,146,146,0,0,1,1.5,22.9c-.1,10.6-1,22,2.2,31.8a18.77,18.77,0,0,0,1.2,3l52.1,16.3.4-.1,2,.8c0-.4.1-.8.1-1.2v-1.7c.1-2.3.3-4.6.4-6.9h0c.8-17.5.1-35.3-3.2-52.4-.1-.5-.2-1-.3-1.6a135.8,135.8,0,0,0-6.5-22.6,124.17,124.17,0,0,0-5.2-11.8A107.2,107.2,0,0,0,457,227.3c-15.6-15.7-36.1-26.2-58-26.5Z" transform="translate(-0.03)"/><path class="cls-3" d="M397.5,201.5a132.12,132.12,0,0,1,55.9,58.9,56.26,56.26,0,0,1,5.4,17,32.94,32.94,0,0,1-2.5,17c-2.1,5-4.8,9.9-5.6,15.3a20,20,0,0,0,4.6,15.7c4.4,5.5,10.5,9,16.6,12.3,6.8,3.6,13.8,7.3,18.4,13.6.6.8,1.7-.1,1.2-.9-8-11.1-22.5-13.8-32.2-22.9-4.5-4.2-7.8-9.9-7.3-16.2.5-5.6,3.3-10.6,5.4-15.7a34.73,34.73,0,0,0,3.1-16.5,53.73,53.73,0,0,0-4.7-17.1,130,130,0,0,0-21.9-33.5,132.89,132.89,0,0,0-35.8-28.3c-.9-.4-1.4,1-.6,1.3Z" transform="translate(-0.03)"/><path class="cls-3" d="M450,252.1a19.71,19.71,0,0,0,7.2-24.6.76.76,0,0,0-1.4.6,18.29,18.29,0,0,1-6.7,22.9c-.8.5.1,1.7.9,1.1Z" transform="translate(-0.03)"/><path class="cls-3" d="M457.6,291.9A38.3,38.3,0,0,1,434.2,277c-.6-.8-1.7.1-1.2.9a39.4,39.4,0,0,0,24.4,15.5c1,.2,1.1-1.3.2-1.5Z" transform="translate(-0.03)"/><path class="cls-3" d="M422.8,218.8a11.35,11.35,0,0,1-10.2,3.1c-.9-.2-1.1,1.3-.2,1.5a12.48,12.48,0,0,0,11.3-3.4.68.68,0,0,0,.1-1,.78.78,0,0,0-1-.2Z" transform="translate(-0.03)"/><path class="cls-4" d="M131.3,378a27.23,27.23,0,0,1,27.2,27.2h0a27.2,27.2,0,0,1-22,26.7v44.5H119.1V378Z" transform="translate(-0.03)"/><path class="cls-6" d="M797.9,638.8v9.3c-3.9,5-8,10-12.2,14.8-.5.5-.9,1-1.4,1.6-.7.8-1.4,1.7-2.2,2.5V638.8Z" transform="translate(-0.03)"/><path class="cls-4" d="M751.7,619.3a13.08,13.08,0,0,0-13.1,13.1v18.9a13.08,13.08,0,0,0,13.1,13.1h32.6c.5-.5.9-1,1.4-1.6,4.2-4.8,8.3-9.8,12.2-14.8l.8-1c2.3-2.9,4.5-5.8,6.7-8.8,1.7-2.3,3.4-4.7,5-7h0c2.8-3.9,5.5-7.9,8.1-11.9Z" transform="translate(-0.03)"/><path class="cls-4" d="M835.7,457.5a18.73,18.73,0,0,0-6.2-1h-5.4a19.33,19.33,0,0,0-19.4,19.3V633.6a9.15,9.15,0,0,0,.1,1.7c.1,1,.3,2,.5,3,1.7-2.3,3.4-4.7,5-7h0c2.8-3.9,5.5-7.9,8.1-11.9l4.2-6.6a384.81,384.81,0,0,0,26.2-49.6V475.8A19.25,19.25,0,0,0,835.7,457.5Z" transform="translate(-0.03)"/><path class="cls-6" d="M173.9,638.8v18.8c-4.5-5.4-8.9-10.9-13.1-16.5-.6-.8-1.1-1.5-1.7-2.3Z" transform="translate(-0.03)"/><path class="cls-4" d="M204.3,619.3H145.6c1.8,2.8,3.7,5.7,5.6,8.5,2.5,3.7,5.1,7.4,7.8,11,.6.8,1.1,1.6,1.7,2.3,4.2,5.6,8.6,11.1,13.1,16.5.8,1,1.7,2,2.6,3,1.1,1.3,2.2,2.6,3.4,3.9h24.6a13.08,13.08,0,0,0,13.1-13.1V632.5A13.19,13.19,0,0,0,204.3,619.3Z" transform="translate(-0.03)"/><path class="cls-4" d="M140.8,458.6a20.26,20.26,0,0,0-9-2.2h-5.4a18.83,18.83,0,0,0-7.4,1.5,19.36,19.36,0,0,0-12,17.9v67.8a399.37,399.37,0,0,0,38.5,75.7c1.8,2.8,3.7,5.7,5.6,8.5v-152A19.21,19.21,0,0,0,140.8,458.6Z" transform="translate(-0.03)"/><polygon class="cls-7" points="359.27 751.5 376.87 747.5 369.67 677.6 343.67 683.5 359.27 751.5"/><path class="cls-8" d="M375.3,690.9a16,16,0,0,1-.7-3.8,17,17,0,0,0-2.7-8.2,17.38,17.38,0,0,1-1-1.9c-.3-.6-.6-1.3-.9-2-10.3-30.5-24.7-71.8-34.7-96-5.9-14.2-42-19-76-20.2-4.1-.2-8.3-.2-12.3-.3H231.4c-2.4,0-4.7,0-6.9.1-15.4.3-26.8,1-28.8,1.1l-18-11.3-3.5-2.2-.4,2.2L171,565.3l-4.8,28.8,12.1,3.4,7.9,2.2,46.6,13.1,9.9,2.8h16.8l45.6-.1,2.2,5.8a10.23,10.23,0,0,0,3.1,14.2h0a6,6,0,0,0,1.1.6l1.7.8L334,692a24.74,24.74,0,0,0,4.5,13.9c.4.5.7,1,1.1,1.5l.5.5,8,15.7,4.8-1.1,20.3-4.7.1-.2a12.61,12.61,0,0,0,.6-1.5h0C375.2,712,378.8,701.2,375.3,690.9Z" transform="translate(-0.03)"/><path class="cls-8" d="M424.8,756.1a26.08,26.08,0,0,0-31.2-19.7h-.2l-14.1-6.3-3.9,2.8-16.3,11.5-1.4.3-4.4,1,6.1,26.4,65.6-15Z" transform="translate(-0.03)"/><path class="cls-7" d="M337.8,715.5l-6,48.2-.2,1.6-.9,7.2c-3.4-1.4-6.9-2.8-10.2-4.3s-6.3-2.8-9.4-4.3V715.5Z" transform="translate(-0.03)"/><circle class="cls-7" cx="208.57" cy="347.8" r="36.1"/><path class="cls-8" d="M341.6,733.9c-1-1.4-2-2.8-2.1-4.2-.2-4.8-.5-9.6-.7-14.3-.2-3.3-.4-6.5-.5-9.7a4.87,4.87,0,0,0-.1-1.2c-.3-5.2,1.2-10.8,2.7-16.1.5-1.8,1-3.5,1.4-5.3a37.87,37.87,0,0,0,1.4-12.1c-2.6-32.4-14-62.8-19.1-68-7.8-7.8-43.1-25.8-65.3-36.8-4-2-7.5-3.7-10.4-5.1l-6-2.9-2-1-.1-.1-8,.9-1.3.2-7.1.8-46.3,5.2-7.1.8-10.1,1.1-9.1,1h-.3l-.1.3v.2a93.1,93.1,0,0,0,0,29.8c1.2,6.7,3.4,13.5,7.4,19.3a18.39,18.39,0,0,0,1.7,2.2l.1.1.4.5h0a32.58,32.58,0,0,0,17.4,10.6,28.17,28.17,0,0,0,3.1.7c11.2,2,23.8,3.8,36.2,5.4,5.1.7,10.2,1.3,15.1,1.9,9.9,1.2,19,2.1,26.6,2.9,10.6,1.1,18.1,1.8,19.7,1.9l18.5,86.5a12.72,12.72,0,0,0,2.1,15.6l1.5,1.5,1.8,8.3,5.8,7.8.7,1h25.6l.1-.2c.1-.1,9.1-11.7,8.5-25.5C343.6,736.7,342.6,735.3,341.6,733.9Z" transform="translate(-0.03)"/><path class="cls-7" d="M340.9,443.9a13.77,13.77,0,0,0-16.9,9.6,10,10,0,0,0-.4,2.4l-30,9.4,1.2,19.6L337,471a13.78,13.78,0,0,0,3.9-27.1Z" transform="translate(-0.03)"/><path class="cls-9" d="M321.3,476.3l-22.4,8.5-.6,1.1a11.41,11.41,0,0,1-15.2,4.9h0l-50.3,19s-22.5-22.5-38.5-42.6l5.5-33.6a64.31,64.31,0,0,1,7.9-22.1c32.8,7.2,51.7,53.1,51.7,53.1l59.2-11.3Z" transform="translate(-0.03)"/><path class="cls-8" d="M203.5,381.9c-9,2.4-19-.8-26-7s-11.4-14.9-14-23.9c-1.9-6.6-2.8-13.9.2-20.1s10.8-10.4,16.9-7.2c-3.8-4.4-1.9-11.6,2.5-15.4s10.4-4.8,16.2-5.4c8.3-.9,16.9-1,24.9,1.8s15.1,8.6,17.6,16.6a12.77,12.77,0,0,0,15.1-3.4,11.41,11.41,0,0,1-6.3,12.4l12.1-3.9c2.1,4.4-1.6,9.9-6.2,11.3s-9.7-.1-14.2-2.2-8.8-4.6-13.6-5.4-10.5.8-12.7,5.1c-1.2,2.3-1.2,5-1.9,7.4s-2.4,5-4.9,5.2c-1.6.1-3.2-.7-4.8-.6a5.4,5.4,0,0,0-4.1,4,15.15,15.15,0,0,0,0,6l3.1,23.6Z" transform="translate(-0.03)"/><path class="cls-9" d="M248.9,561.2l-1.9-2.9-14-20.8-.3-.4,4.3-22.4,1.3-7,2.9-15.2-.9-34.8-.6-24.6-.1-3.9-3.1-9.4a34,34,0,0,0-18-20.1l-20.8-9.5a10.1,10.1,0,0,0-13.4,5l-.3.6c-2.9.4-15.2,2.5-25.7,10.6a38.64,38.64,0,0,0-14.4,22.7v.2c-1.4,6.2-2.4,16-3.1,29.3-.5,8.8-.7,19.1-.9,30.9a443.93,443.93,0,0,0,3.3,58.8c.2,1.9.5,3.7.7,5.6.2,1.6,1.7,3,3.2,4.5s2.7,2.7,2.9,3.9-.5,2.2-1.3,3.4l-.3.5c-1,1.5-2.1,3-1.8,4.5.6,3.6,1,7.2,1.4,10.7a116.19,116.19,0,0,0,2.1,14.4c.4,1.5.8,2.9,1.2,4.4q1.65,5.25,3.6,10.2c1.1,2.9,2.2,5.9,3.1,8.9a9.83,9.83,0,0,1,.5,1.6l.1.3h.3a14.29,14.29,0,0,1,1.4-2l.1-.1a1.21,1.21,0,0,1,.5-.5c2.2-2.4,6.9-6.7,17.4-13.9,2.3-1.6,4.9-3.4,7.9-5.3,10.7-7,25.7-16.1,46.6-27.9,5.2-3,10.9-6.1,16.9-9.4Z" transform="translate(-0.03)"/><path class="cls-8" d="M361,781.2a26.28,26.28,0,0,0-18.5-7.7l-10.9-8.2-1.4-1.1-9.7,3.9c3.4,1.5,6.8,2.9,10.2,4.3,10.7,4.4,21.7,8.3,32.9,11.7Z" transform="translate(-0.03)"/><polygon class="cls-10" points="602.47 750.8 588.77 744.3 607.47 687.4 627.57 697 602.47 750.8"/><path class="cls-10" d="M693.7,741.6q-6,3.75-12,7.2h-.1l-1.5.4-2.2-5.8L672.8,730l-13.9-36.7,21.6-5.3,1.2,5,9.1,37,2.6,10.6Z" transform="translate(-0.03)"/><path class="cls-10" d="M638.6,503.5a14.1,14.1,0,0,0,19.2,4.8,11.8,11.8,0,0,0,1.8-1.3l43,24.7-1.9-25.4-40.6-19.6a14.06,14.06,0,0,0-17.2-2.2,13.75,13.75,0,0,0-4.7,18.7Z" transform="translate(-0.03)"/><path class="cls-9" d="M684.2,522.4l7.6,4.6L726,547.8a20.23,20.23,0,0,0,27.8-6.4h0a19.9,19.9,0,0,0,2.5-13.9l-15.2-75.9a21,21,0,0,0-24.5-16.8h-.1c-1,.2-2.1.5-3.1.8a20.05,20.05,0,0,0-12.7,24.3l15.9,53.8-24.3-11.4Z" transform="translate(-0.03)"/><path class="cls-8" d="M824.3,597.2a.77.77,0,0,0-.1-.3v-.1l-.2-1.2a281.14,281.14,0,0,0-7.8-30,91.42,91.42,0,0,0-7.5-17.3,2.19,2.19,0,0,0-.3-.5l-.4-.6-3.1,1.1h-.1l-47.3,17.3-13.7,5-.4.2-2.4,9.6-32.7-4.2-26.6-3.5-7.7-1a25.33,25.33,0,0,0-18.8,5.1,26,26,0,0,0-10,17.6,17.85,17.85,0,0,0-.2,2.3l-2.3,86.2v.1l1.1,2.1L666.2,730h32.1l-15.5-39.1.3-.5a17.41,17.41,0,0,0,1.8-15.2l1.7-5c3.6-10.4,1.9-15.4-.3-21.7a54.42,54.42,0,0,1-3.4-16l-.4-7.1c9.1,1.6,17.5,3.4,25.7,5.1l8.1,1.8c7.6,1.7,14.9,3.3,22.1,4.7,14.5,2.8,28.5,4.5,42.8,3.4l.8-.1a94.41,94.41,0,0,0,10.5-1.4l6-1.2,1.7-.4a17.65,17.65,0,0,0,4.5-1.8,27.69,27.69,0,0,0,5.5-4h0c2.8-3.9,5.5-7.9,8.1-11.9l4.2-6.6C824.6,607.3,825.4,601.7,824.3,597.2Z" transform="translate(-0.03)"/><path class="cls-8" d="M824.6,581c-.2-.6-.3-1.3-.5-1.9a140.15,140.15,0,0,0-5.5-14c-2.4-5.2-5.2-10.8-8.6-16.8-1.6-2.9-3.4-6-5.3-9.1-.9-1.6-1.9-3.2-2.9-4.8a.35.35,0,0,0-.1-.2l-.3-.5L754.6,540l-17.4,2.3-1,8.7-.2,2.2h0l-.7,5.9h0l-.9,7.7h-.1l-25.8-3.3L681.9,560l-14.4-1.9a25.33,25.33,0,0,0-18.8,5.1,26,26,0,0,0-10,17.6,14.92,14.92,0,0,0-.2,2.1l-13.5,32a207,207,0,0,0-15.3,60l-9.9,31.7,1.4.1,21,2,5.5.5,12.2-17.8a66.52,66.52,0,0,0,3.9-6.3,108.76,108.76,0,0,0,5.4-10.8l26.4-62.8c2,.4,4.1.7,6.1,1,9.3,1.5,18.1,2.7,26.6,3.7,27.7,3.1,51.6,3.3,73,.7,6-.7,11.8-1.7,17.4-2.9,2-.4,4.1-.9,6.1-1.4l1.4-.3A25.35,25.35,0,0,0,824,595.6,25.93,25.93,0,0,0,824.6,581Z" transform="translate(-0.03)"/><ellipse class="cls-10" cx="725.17" cy="359" rx="32.4" ry="33.1"/><path class="cls-9" d="M802,535.4a4.25,4.25,0,0,0-.2-1.1c-.8-4.1-2.8-8-4.7-11.9-1.8-3.7-3.6-7.2-4.3-10.6s-.3-6.8.1-10.1c.4-3.6.9-7.3-.1-10.9a266.47,266.47,0,0,0-21.4-52.9A40.21,40.21,0,0,0,738,409.8a9.59,9.59,0,0,0,1.1-5.5,9.24,9.24,0,0,0-3.4-6.3,8.65,8.65,0,0,0-6.6-1.9l-15,1.7a9.2,9.2,0,0,0-8,10.2,8.73,8.73,0,0,0,.5,2.2c-14,17.8-21.1,34-21.8,49.3h0a46.85,46.85,0,0,0,0,5.3,53.86,53.86,0,0,0,3.7,16.7,71.61,71.61,0,0,0,10,17.1,38.76,38.76,0,0,0,2.6,3.1c.9,1,1.8,2.1,2.8,3.1l2.6,4.1,2.5,3.8,13,30.2,6.7-.2.9,6.7.2,1.5,4.3,15.5.3,1.2,5.9-2.8,35.3-16.7L802,535.6v-.2Z" transform="translate(-0.03)"/><path class="cls-11" d="M688.9,481.4a68.54,68.54,0,0,0,12.5,20.1c.9,1.1,1.8,2.1,2.8,3.2l5.1,8c18.9-14.1,34.2-69.8,34.2-69.8l-21.3-4.1Z" transform="translate(-0.03)"/><path class="cls-10" d="M676,395.2a14.17,14.17,0,0,1-4.8,19.2,12.44,12.44,0,0,1-2,1l1.5,49.6-21.5-13.5,1.9-45a14.11,14.11,0,0,1,6.1-16.2,13.51,13.51,0,0,1,18.6,4.6h0Z" transform="translate(-0.03)"/><path class="cls-9" d="M672.5,446.3l-23.6,3.4,1,48.9a20.3,20.3,0,0,0,10,17.2h0a19.63,19.63,0,0,0,23.4-2.7l55.8-53.6a21.22,21.22,0,0,0,1.6-29h0a20.1,20.1,0,0,0-28.3-2.4h0l-.5.4c-.5.5-1.1,1-1.6,1.6l-36.8,42.4Z" transform="translate(-0.03)"/><path class="cls-8" d="M694.3,740.4l-.9.2-11.8,2.2-3.8.7-6,1.1,2.1,8.6c2.6-1.4,5.1-2.8,7.6-4.3h.1q6.15-3.45,12-7.2a5.58,5.58,0,0,0,.8-.5Z" transform="translate(-0.03)"/><path class="cls-8" d="M606.8,741.5l-14.7-7.1-2.3-1.1-3.7,9.1-25.8,5.7a6.16,6.16,0,0,0-4.7,7.3,6.1,6.1,0,0,0,3.7,4.4l25.2,10.3,8-7.2-2,9.7,9.5,3.9,10.4-33.1Z" transform="translate(-0.03)"/><path class="cls-8" d="M811.7,344.7c-5.5-6.4-8.1-14.9-12.5-22.2s-12-13.8-20.1-12.1c-5.6,1.2-9.9,6.1-12.1,11.6s-2.6,11.5-3,17.5c.1-12.2-7.9-24-18.9-27.9s-24.3.5-31.2,10.2a16.93,16.93,0,0,0-22.4-.5c-6.2,5.5-7.6,16.1-3,23.2s14.5,9.7,21.7,5.8l2.6,2.4c-1.4,5,1.4,11,6.1,12.9,3.8,1.5,9.2,1.3,10.6,5.3,1,2.8-.9,5.8-2.9,7.9s-4.3,4.4-4.6,7.3c-.4,4.5,4.3,7.6,8.5,8.6a26.34,26.34,0,0,0,27.3-11.4l.4-.5a39.38,39.38,0,0,0,7.9-30c-.3-2.1,0-3.6,1.4-4.1,6.2-2.1,23.5,2.3,28.7,6.4s9.4,9.4,14.5,13.6,11.5,7.6,17.9,6.4c5.1-.9,9.5-4.7,12.4-9.2s4.6-9.7,6.1-15C835.9,357.5,820.4,354.8,811.7,344.7Z" transform="translate(-0.03)"/><path class="cls-2" d="M708.3,541.9V732.1c-3.6,2.5-7.3,4.9-11,7.3V554.5c0-5.4-1.8-9.7-4-9.7H526.8c-2.2,0-4,4.4-4,9.7V800l-6.7.6-2.8.2c-.5-1-1-2-1.6-3V541.9c0-1.5.1-3,.2-4.4.9-12.5,5.4-21.6,10.6-21.6h175a3.66,3.66,0,0,1,1.8.4c4.4,1.9,7.8,10,8.7,20.6A27.43,27.43,0,0,1,708.3,541.9Z" transform="translate(-0.03)"/><path class="cls-2" d="M441.2,541.9V799.2l-.5.7c-3.8-.4-7.5-.8-11.2-1.3V554.5c0-5.4-1.9-9.7-4.3-9.7H248.6c-2.4,0-4.3,4.4-4.3,9.7V724q-5.85-4.35-11.7-9V541.9c0-1.5.1-3,.2-4.4.9-12.5,5.7-21.6,11.3-21.6H429.8a4.48,4.48,0,0,1,2,.4c4.6,1.9,8.3,10,9.3,20.6C441.1,538.5,441.2,540.2,441.2,541.9Z" transform="translate(-0.03)"/><polygon class="cls-4" points="381.97 456.4 393.57 507.3 400.97 515.4 406.27 515.4 384.27 422.8 383.17 438.5 383.17 438.5 381.97 456.4"/><path class="cls-4" d="M420.5,518a.35.35,0,0,0-.1-.2,1.47,1.47,0,0,0-.5-.6l-1.4-1.3-7.1-7.1a2.79,2.79,0,0,0-2-.8H394.1l-41,.3-27,.2a2.71,2.71,0,0,0-2.7,2.8,2,2,0,0,0,.3,1.1l.5,1.1,1.1,2.3,1.4,3,.7,1.5a3,3,0,0,0,2.5,1.8h88a2.82,2.82,0,0,0,2.8-2.9,1.72,1.72,0,0,0-.2-1.2Z" transform="translate(-0.03)"/><path class="cls-12" d="M326.8,518.9l.7,1.5A2.74,2.74,0,0,0,330,522h88a2.82,2.82,0,0,0,2.8-2.9h0a4.25,4.25,0,0,0-.2-1.1.35.35,0,0,0-.1-.2Z" transform="translate(-0.03)"/><polygon class="cls-12" points="383.17 438.5 383.17 438.5 401.97 515.4 406.27 515.4 384.27 422.8 383.17 438.5"/><path class="cls-4" d="M412.8,223.3,410,223a2.63,2.63,0,0,0-2.1.6l-1.6,1.3-18.4,23a3.11,3.11,0,0,0-1.1,1.9l-1,7.8-25.7,195a2.75,2.75,0,0,0,.5,2l12.1,33.3.4.5.8,1.1a2.45,2.45,0,0,0,1.7,1.1l1.8.4a3,3,0,0,0,2.3-.4,2.84,2.84,0,0,0,1.2-2l3.1-23.8h0l2-15.3,1.7-12.9h0l27.6-210.2a3,3,0,0,0-2.5-3.1Z" transform="translate(-0.03)"/><path class="cls-12" d="M406.2,224.8,372.7,488l.4.5.8,1.1a2.45,2.45,0,0,0,1.7,1.1l1.8.4a2.89,2.89,0,0,0,3.5-2.1h0a.37.37,0,0,1,.1-.3l34.5-262.2a2.84,2.84,0,0,0-2.5-3.2l-3-.3a2.63,2.63,0,0,0-2.1.6Z" transform="translate(-0.03)"/><polygon class="cls-9" points="405.17 232.3 387.37 257.7 366.27 418.8 377.67 441.5 405.17 232.3"/><polygon class="cls-4" points="578.57 456.4 567.07 507.3 559.67 515.4 554.27 515.4 576.27 422.8 577.37 438.5 577.37 438.5 578.57 456.4"/><path class="cls-4" d="M634.4,508.5l-67.9-.5H551.2a2.73,2.73,0,0,0-1.9.8l-8.5,8.5c-.2.2-.3.4-.5.6s-.1.1-.1.2a2.79,2.79,0,0,0,1.5,3.7h0a3.59,3.59,0,0,0,1.1.2h88a2.64,2.64,0,0,0,2.5-1.6l.7-1.5,1.4-3,1.6-3.4a2.91,2.91,0,0,0-1.3-3.7,2.61,2.61,0,0,0-1.1-.3Z" transform="translate(-0.03)"/><path class="cls-12" d="M633.8,518.9l-.7,1.5a2.74,2.74,0,0,1-2.5,1.6h-88a2.82,2.82,0,0,1-2.8-2.9h0a4.25,4.25,0,0,1,.2-1.1.35.35,0,0,1,.1-.2Z" transform="translate(-0.03)"/><polygon class="cls-12" points="577.37 438.5 577.37 438.5 558.57 515.4 554.27 515.4 576.27 422.8 577.37 438.5"/><path class="cls-4" d="M600.5,452.6,573.8,249.7a2.65,2.65,0,0,0-1.1-1.9l-18.4-23-1.7-1.3a2.74,2.74,0,0,0-2.1-.6l-2.8.4a2.84,2.84,0,0,0-2.5,3.2h0L573,436.8h0l1.7,12.9,2,15.3h0l3.1,23.8a3.22,3.22,0,0,0,1.2,2,2.7,2.7,0,0,0,2.3.4l1.8-.4a3.37,3.37,0,0,0,1.7-1.1l.8-1.1.4-.4,12-33.3A4,4,0,0,0,600.5,452.6Z" transform="translate(-0.03)"/><path class="cls-12" d="M554.4,224.8,588,488l-.4.5-.8,1.1a2.45,2.45,0,0,1-1.7,1.1l-1.8.4a2.89,2.89,0,0,1-3.5-2.1h0a.37.37,0,0,0-.1-.3L545.2,226.5a2.84,2.84,0,0,1,2.5-3.2l2.8-.4a2.63,2.63,0,0,1,2.1.6Z" transform="translate(-0.03)"/><polygon class="cls-9" points="555.37 232.3 573.17 257.7 594.37 418.8 582.87 441.5 555.37 232.3"/><path class="cls-4" d="M224.5,556.9a7.57,7.57,0,0,1-.1,1.5c0,.2-.1.5-.1.7a8.76,8.76,0,0,1-8.4,6.5H178.3v89.8a8.22,8.22,0,0,1-1.8,5.2c-.9-1-1.7-2-2.6-3-4.5-5.4-8.8-10.9-13.1-16.5V565.6H144a8.77,8.77,0,0,1-8.6-8.8,8.66,8.66,0,0,1,7.9-8.5h72.5a8.62,8.62,0,0,1,8.7,8.6Z" transform="translate(-0.03)"/><path class="cls-4" d="M824.1,556.9a8.64,8.64,0,0,1-5.6,8.1,6.87,6.87,0,0,1-2.4.5H798.6V647l-.8,1c-3.9,5-8,10-12.2,14.8a8.62,8.62,0,0,1-4.4-7.5V565.6H743.6a8.55,8.55,0,0,1-8.4-6.7h0a8.59,8.59,0,0,1,.7-5.9h0a10.71,10.71,0,0,1,1.5-2.2,8.54,8.54,0,0,1,6.2-2.6h71.8a8.84,8.84,0,0,1,8.7,8.7Z" transform="translate(-0.03)"/><path class="cls-4" d="M823.5,389.6a27.23,27.23,0,0,0-27.2,27.2h0a27.2,27.2,0,0,0,22,26.7V488h17.4V389.6Z" transform="translate(-0.03)"/><path class="cls-7" d="M348.4,489a13.72,13.72,0,0,0-18.8,4.9h0a14.72,14.72,0,0,0-1,2.2l-31.4,1.2L293,511.9l44.6,2.3A13.84,13.84,0,0,0,348.4,489Z" transform="translate(-0.03)"/><path class="cls-9" d="M322.6,515.8l-32.2-.4h-4.1l-65.6-.8s-17.8-17-33.3-34.5l2.2-15.7a64.52,64.52,0,0,1,21.5-39.8c22.2,14.8,35.1,44.2,35.1,44.2l21.6,9.7h0A95.31,95.31,0,0,1,311,491.1l7.1,4.1Z" transform="translate(-0.03)"/><path class="cls-13" d="M423.9,797.8H540.2c-7.9,1.2-15.9,2.1-24,2.8H448C439.8,799.9,431.8,799,423.9,797.8Z" transform="translate(-0.03)"/><path class="cls-13" d="M447.3,739.3c2.2-20.3,14.5-40.5,33.8-47.3a94.37,94.37,0,0,0,.9,64.6c3.1,8,7.3,16.6,4.6,24.7-1.7,5.1-5.9,9-10.6,11.5s-10,3.7-15.2,4.9l-1,.9C451.3,780,445,759.6,447.3,739.3Z" transform="translate(-0.03)"/><path class="cls-3" d="M481.3,692.4a80.37,80.37,0,0,0-19.4,45.5,35.52,35.52,0,0,0,.5,10.8,20,20,0,0,0,5.1,9.2c2.3,2.4,4.9,4.6,6.5,7.5a12.25,12.25,0,0,1,.7,9.9c-1.4,4-4.1,7.4-6.9,10.5-3.1,3.5-6.4,7.1-7.6,11.7a.49.49,0,0,1-.6.3.42.42,0,0,1-.3-.6h0c2.2-8,9.9-12.7,13.5-19.9,1.7-3.4,2.4-7.3.7-10.8-1.5-3.1-4.1-5.4-6.4-7.8a20.44,20.44,0,0,1-5.3-8.8,35.71,35.71,0,0,1-1-10.8,74.9,74.9,0,0,1,5.4-23.8,82.78,82.78,0,0,1,14.4-23.8c.4-.2,1.1.4.7.9Z" transform="translate(-0.03)"/><path class="cls-3" d="M462,732.5a12.1,12.1,0,0,1-9.4-12.5.45.45,0,1,1,.9.1,11.25,11.25,0,0,0,8.7,11.6c.6,0,.4.9-.2.8Z" transform="translate(-0.03)"/><path class="cls-3" d="M466.2,756.8a23.41,23.41,0,0,0,10.2-13.5c.1-.6,1-.3.9.3a24.71,24.71,0,0,1-10.6,14.1C466.1,757.9,465.7,757.1,466.2,756.8Z" transform="translate(-0.03)"/><path class="cls-3" d="M470.5,707.6a6.83,6.83,0,0,0,6.5-.4c.5-.3.9.5.4.8a8,8,0,0,1-7.2.5.49.49,0,0,1-.3-.6.71.71,0,0,1,.6-.3Z" transform="translate(-0.03)"/><path class="cls-13" d="M540.5,727.4l-.9.6a98.85,98.85,0,0,0-11.4,9.1l-.8.8a95.38,95.38,0,0,0-20.2,28.5,85.86,85.86,0,0,0-4.9,13.1c-1.8,6.2-3.2,13.1-6.8,18.2-.4.5-.8,1.1-1.2,1.5l-33.3.4-.2-.1-1.3.1.1-.7c0-.1.1-.3.1-.4v-.6c.3-1.4.6-2.7,1-4.1h0a141.05,141.05,0,0,1,11-30.1,4.05,4.05,0,0,1,.5-.9,85.29,85.29,0,0,1,7.7-12.1,73.37,73.37,0,0,1,5.1-6,65.69,65.69,0,0,1,16-12.3c11.9-6.5,25.7-9.1,38.5-5.4Z" transform="translate(-0.03)"/><path class="cls-3" d="M540.4,727.8a79.9,79.9,0,0,0-42.9,24.7,34.06,34.06,0,0,0-6.1,9,19.22,19.22,0,0,0-1.4,10.3c.4,3.3,1.1,6.6.6,9.9a12.28,12.28,0,0,1-5.4,8.4c-3.5,2.4-7.7,3.4-11.8,4.3-4.6.9-9.4,1.8-13.1,4.8a.43.43,0,1,1-.5-.7c6.6-5.1,15.5-4.2,22.8-7.8,3.4-1.7,6.3-4.4,7.1-8.2.7-3.3-.1-6.8-.5-10.1a20.89,20.89,0,0,1,1-10.2,32.26,32.26,0,0,1,5.7-9.2,78.37,78.37,0,0,1,18.6-15.8,81.14,81.14,0,0,1,25.8-10.3c.6-.1.7.8.1.9Z" transform="translate(-0.03)"/><path class="cls-3" d="M500.9,748.3a12,12,0,0,1,.1-15.6c.4-.4,1.1.1.7.6a11.08,11.08,0,0,0,0,14.5C502,748.2,501.3,748.7,500.9,748.3Z" transform="translate(-0.03)"/><path class="cls-3" d="M489.5,770.2a22.91,22.91,0,0,0,16.3-4.7.43.43,0,1,1,.5.7,24.14,24.14,0,0,1-17,4.8c-.5,0-.4-.9.2-.8Z" transform="translate(-0.03)"/><path class="cls-3" d="M522.6,733.5a6.9,6.9,0,0,0,5.4,3.6c.6,0,.4.9-.2.9a7.6,7.6,0,0,1-6-3.9c-.1-.2-.1-.5.1-.6s.6-.2.7,0Z" transform="translate(-0.03)"/><circle class="cls-13" cx="557.77" cy="745.1" r="10.6"/><path class="cls-13" d="M592.3,786.6l-2,.6c-6,1.7-12,3.2-18.1,4.6a10.6,10.6,0,0,1,19-9.4,9.07,9.07,0,0,1,1.1,4.2Z" transform="translate(-0.03)"/><path class="cls-13" d="M652.9,763.9l-2.4,1.1-2.7,1.2-3,1.3c-3.7,1.7-7.5,3.3-11.2,4.8l-.2-.3a10.65,10.65,0,0,1,4.4-14.3A10.52,10.52,0,0,1,652,762C652.4,762.7,652.6,763.3,652.9,763.9Z" transform="translate(-0.03)"/><circle class="cls-13" cx="595.07" cy="719.1" r="10.6"/><path class="cls-3" d="M498,138.7c-62.3,16.4-131.4,26.4-201.5,29.1a245.08,245.08,0,0,1-30.9-.2c-22.6-1.9-41.9-9-63.5-12.9-10.4-1.9-21.9-3.2-32.3-5.2,2.4-3,4.9-5.9,7.4-8.9,22.5,1.9,45.3,8.1,68.1,11,38.7,4.9,82-.6,111.4-14.1,14.2-6.6,25.1-14.8,39.3-21.4a18.65,18.65,0,0,1,6.2-1.9c4.5-.4,8.4,1.4,11.6,3,23.8,12,58.3,21.8,90.4,16.4C506.4,135.5,501.9,137.7,498,138.7Z" transform="translate(-0.03)"/><path class="cls-3" d="M639.8,181a2.77,2.77,0,0,1,.9-.1,28.82,28.82,0,0,1-3.5-2.6Z" transform="translate(-0.03)"/><path class="cls-3" d="M831.8,204.7c-13.4,1.1-26.9,1.9-40.4,2.4a245.08,245.08,0,0,1-30.9-.2c-22.6-1.9-41.9-9-63.5-12.9-19.8-3.6-43.8-5.3-56.3-13.1,32.4-5.6,66,5.8,99.4,10.1a237.27,237.27,0,0,0,81-4C824.8,192.7,828.4,198.6,831.8,204.7Z" transform="translate(-0.03)"/><path class="cls-3" d="M530.3,354.7C499,247,480.5,136,480.5,23.8V15.7H470.1v8.1c0,112.1-18.5,223.2-49.8,330.8a57.84,57.84,0,0,0-2.3,16h0a15.62,15.62,0,0,0,15.6,15.6h20.9a20.85,20.85,0,0,0,41.7,0h16.2v44.9a9.11,9.11,0,1,0,2,.2V386.2h2.7a15.62,15.62,0,0,0,15.6-15.6h0A61.86,61.86,0,0,0,530.3,354.7Z" transform="translate(-0.03)"/></g><path class="cls-9" d="M361.59,141.7l-1,7.6h-6.08L352.15,166h7.6l-1.12,7.6H351l-3.36,24.16h-15.2l3.36-24.16h-22l-7.2,24.16h-15.2l7.2-24.16h-6.88l1.12-7.6h8l5-16.72h-9.12l1-7.6ZM316.07,166H337l2.32-16.72H321Z" transform="translate(-0.03)"/><path class="cls-9" d="M413.43,140.18l-7,12.16h28.88l-1,7.6H402l-1.76,3H430l-1.92,13.68-11.6,8.48,15.44,12.64h-16.4l-7.84-6.32L399,197.78h-16.4l17.36-12.56-8.48-6.88-11.2,19.44H365l21.76-37.84H371.91l1-7.6,3.92-7L375,143.22h16.72l-5.12,9.12h4.56L397,142.26l-1.84-2.08Zm-16.72,28.88-1.28,2.32H403l-.32,2.4,6,5,6.88-5,.64-4.72Zm37.36-19H420.39l-1.84-8.32h13.68Z" transform="translate(-0.03)"/><path class="cls-9" d="M464.31,187.3l5.12-36.48H445.11l1-7.6H510l-1,7.6H484.63l-5.12,36.48h25.84l-1,7.6H437.43l1-7.6Z" transform="translate(-0.03)"/><path class="cls-9" d="M511.11,194.9l5.12-28.16H523l-5.12,28.16ZM543,148.26l-5.84.56-1,7.52H543l-1,7.36h-7.76l-4.8,34.08H518.87l4.8-34.08h-8.16l1-7.36h7.28l1-6.4-6.88.64,1-7.36,25.12-2.32ZM531.35,194.9l2.88-28.16H541l-2.88,28.16Zm22.32-17.68.64-4.88h-12l1-7h38.08l-1,7H568.23l-.64,4.88h10.64l-1,7.28H566.55l-.88,6h12.72l-1,7h-39l1-7h12.4l.88-6H542.07l1-7.28Zm-5.52-35.52h35.36l-2.88,20.56H545.27Zm21.44,13.6.88-6.64H559.11l-.88,6.64Z" transform="translate(-0.03)"/><path class="cls-9" d="M590.87,144.66h10.48l-5.52,39.44H585.35Zm19.6,32.16-8.32,20.88H590.79l9-20.88,4.72-33.44-1.68-3.12h12.8Zm46-35.12-1,7.44h-13.6l-.8,5.6h13.52l-4.48,31.68a6.19,6.19,0,0,1-2.12,3.84,6,6,0,0,1-4,1.6h-7.76l3.2-4.24,3.6-25.2h-3l-5,35.28h-12.4l5-35.28h-2.88l-4.16,29.44H609.91l5.2-37.12h13.52l.8-5.6H615.75l1-7.44Z" transform="translate(-0.03)"/><path class="cls-4" d="M145.18,263l2.08-4,1.88-13.52h-1.52l.52-3.8h8.36l-2.2,15.84,5.48,1.64h18.6l-.52,3.8H156.58l-4-1.16L152,263Zm9.92-27.36,1.64,4.56h-6.08L149,235.61Zm21.88-.72-1.64,3.72h4.08l-.52,3.68h-5.2l-1.48,3.36h7.2l-.56,3.8H175.7l2.2,8h-7.2L168.62,250,164,257.49h-7.24l5-8h-5.16l.56-3.8h7.48l1.48-3.36h-2.44l-.88,2.24h-5.32l3.08-7.6-1.12-1.32h6.84l-1.16,3h2.64l1.12-2.56-1-1.16Z" transform="translate(-0.03)"/><path class="cls-4" d="M193,239.41l-3.44,24.24h-7.24l3.24-22.76-2.36.44.64-4.56,9.8-1.92Zm22.28,6.08-8,.84,1.24,12.08h4.16l1.72-1.52-.84,6.08H201.46l-1.68-15.88-6.84.68.56-3.8,5.92-.6-.72-7-1.28-1.52h8.76l.76,7.76,8.92-.92Zm-.8-4.92h-6.08l-.2-4.2h6.08Z" transform="translate(-0.03)"/><path class="cls-4" d="M223.86,249l-1.44,10.36,1.24-.16,1.72-12.32h-4.6l1.56-11.28h12.84l-1.56,11.28H231.1l-.4,2.92h2.08l-.52,3.88h-2.12l-.64,4.76,2.52-.32-.52,3.72-13.8,1.72.52-3.64.68-.08L220.42,249Zm3.2-10-.64,4.6h2.44l.64-4.6Zm25.2,16.08-3.56,1.2,2.32,7.32h-5.88l-4.24-13.56h-.6l-1.32,9.2,3.68-.48-.52,3.8-9.68,1.08,3.92-28H254.1l-2,14.44h-5.32l.8,2.6,5.28-1.76Zm-5-8.56.28-2.16H241l-.28,2.16Zm-5.84-5.16H248l.32-2.16h-6.56Z" transform="translate(-0.03)"/><path class="cls-4" d="M260.1,248.45l-1.56,11,1.08-.12,1.76-12.48h-4.12l1.6-11.28H271l-1.6,11.28H267l-.44,3.12h2.6l-.48,3.48h-2.6l-.72,5.2,3-.36-.52,3.72-13.56,1.52.52-3.64.36,0,1.64-11.44Zm3.12-9.84-.72,5.28h2.56l.72-5.28Zm12.24,15.16L273,262.85H268.5l2.48-9.08Zm-2.68,9.84,2.72-3,1.16-8.32H270.1l.48-3.44h19.08l-.48,3.44h-6.52l-1.24,8.88a2.59,2.59,0,0,1-1,1.72,3.22,3.22,0,0,1-2,.68Zm13-22.64h-9.6l-.32,2.2h-5l.8-5.68h6.72l.16-1.08-1.16-1.52h7.4l-.4,2.6h6.8l-.8,5.68h-5Zm3,3-.48,3.36H272.42l.48-3.36Zm-1.08,9.8-.12,9.12h-4.48l.12-9.12Z" transform="translate(-0.03)"/><path class="cls-4" d="M682.55,263l2.68-2.84L686,255h-2.28l-1,7.24h-5.32l1-7.24h-1.52l-1,7.24h-5.32l1-7.24h-2.28l-1.12,8h-6.84l1.48-10.64h10.6l.32-.76h-10.8l.36-2.68h30.4l-.36,2.68h-12l-.36.76h12.2L692,260.25a3.11,3.11,0,0,1-1,1.94,3,3,0,0,1-2,.78Zm7.16-21.28h-7.24l-.88,6.48h-6.08l.88-6.48h-7.24l-.76,5.32h-5.64l1.12-8h12.92l.08-.72H664.75l.36-2.68h30.4l-.36,2.68H683l-.08.72h12.92l-1.12,8H689Zm-14.6,3.8-.32,2.28h-5.72l.32-2.28Zm.44-3-.32,2.28h-5.72l.32-2.28Zm12.84,3-.32,2.28h-5.68l.32-2.28Zm.44-3-.32,2.28h-5.68l.32-2.28Z" transform="translate(-0.03)"/><path class="cls-4" d="M697.35,262.21l5.32-11h7.6l-5.32,11Zm9.64,1.44,3.6-3.72,2.4-17.48H700.87l.52-3.8h12.16l.32-2.32-1.28-1.48h9.12l-.56,3.8h12.16l-.52,3.8H720.63L718,261a3.13,3.13,0,0,1-1.08,1.9,3.05,3.05,0,0,1-2,.74Zm-4.16-13.6-1.36-6.48h7.6l1.36,6.48ZM724,262.21l-3-11h7.6l3,11Zm-2.88-12.16,3.2-6.44h7.6l-3.2,6.44Zm3.24-12.16-1.08-3h7.6l1.08,3Z" transform="translate(-0.03)"/><path class="cls-4" d="M744,242.45h7.6l-4.2,4.56h1.88l3.6,3.28,4.56-3.28H759l-2.88-4.56h7.6l4.36,6.84H764l-6.8,4.92,10.4,9.44h-9.88l-6-5.48L744,263.65h-9.88l13.2-9.44L742,249.29h-4.28Zm6.84-5.32.12-.76-1.28-1.52h9.12l-.32,2.28h11.76l-.56,3.8H738.47l.56-3.8Z" transform="translate(-0.03)"/><path class="cls-4" d="M782.67,239.77l-3.36,23.84H772l3.16-22.52-2,.36.68-4.84,9.52-1.68Zm6.4,23.84,3.6-3.68,2.2-15.8H783.35l.52-3.8h11.56L796,236l-1-1.08h8.68l-.76,5.44h2.92l-.52,3.8h-3L800,261a3,3,0,0,1-1.1,1.88,3.16,3.16,0,0,1-2,.72Zm1.48-7.64h-5.32l-.16-9.6h5.32Z" transform="translate(-0.03)"/></svg>