<svg id="图层_1" data-name="图层 1" xmlns="http://www.w3.org/2000/svg" viewBox="0 0 647.64 632.17"><defs><style>.cls-1{fill:#f2f2f2;}.cls-2{fill:#3f3d56;}.cls-3{fill:#00ab55;}.cls-4{fill:#fff;}.cls-5{fill:#e6e6e6;}</style></defs><g id="图层_1-2" data-name="图层 1"><path class="cls-1" d="M411.15,142.17H236.64a15,15,0,0,0-15,15V545l-2,.61-42.81,13.11a8,8,0,0,1-10-5.3h0L39.5,137.48a8,8,0,0,1,5.3-10h0l66-20.2L302,48.75l66-20.2a8,8,0,0,1,10,5.29h0l32.55,106.32Z" transform="translate(0 0)"/><path class="cls-2" d="M449.23,140.17,410,12A17,17,0,0,0,388.78.75h0L296,29.14,104.78,87.69,12,116.09A17,17,0,0,0,.75,137.32L134.83,575.25a17,17,0,0,0,21.26,11.25L219.67,567l2-.62v-2.09l-2,.61L155.5,584.59a15,15,0,0,1-18.72-10v0L2.67,136.73A15,15,0,0,1,12.58,118h0l92.75-28.4L296.61,31.06l92.75-28.4A15.7,15.7,0,0,1,393.77,2a15,15,0,0,1,14.32,10.61l39.05,127.56.62,2h2.08Z" transform="translate(0 0)"/><path class="cls-3" d="M122.68,127.82a9,9,0,0,1-8.61-6.37L101.19,79.38a9,9,0,0,1,6-11.23h0L283.1,14.28a9,9,0,0,1,11.23,6v0l12.88,42.07a9,9,0,0,1-6,11.23h0L125.31,127.43A9,9,0,0,1,122.68,127.82Z" transform="translate(0 0)"/><circle class="cls-3" cx="190.15" cy="24.95" r="20"/><circle class="cls-4" cx="190.15" cy="24.95" r="12.66"/><path class="cls-5" d="M602.64,582.17h-338a8.49,8.49,0,0,1-8.5-8.48v-405a8.52,8.52,0,0,1,8.5-8.5h338a8.52,8.52,0,0,1,8.5,8.5v405A8.52,8.52,0,0,1,602.64,582.17Z" transform="translate(0 0)"/><path class="cls-2" d="M447.14,140.17H236.64a17,17,0,0,0-17,17V565l2-.61V157.17a15,15,0,0,1,15-15H447.76Zm183.5,0h-394a17,17,0,0,0-17,17v458a17,17,0,0,0,17,17h394a17,17,0,0,0,17-17v-458A17,17,0,0,0,630.64,140.17Zm15,475a15,15,0,0,1-15,15h-394a15,15,0,0,1-15-15v-458a15,15,0,0,1,15-15h394a15,15,0,0,1,15,15Z" transform="translate(0 0)"/><path class="cls-3" d="M525.64,184.17h-184a9,9,0,0,1-9-9v-44a9,9,0,0,1,9-9h184a9,9,0,0,1,9,9v44A9,9,0,0,1,525.64,184.17Z" transform="translate(0 0)"/><circle class="cls-3" cx="433.63" cy="105.17" r="20"/><circle class="cls-4" cx="433.63" cy="105.17" r="12.18"/></g><path class="cls-3" d="M373.89,351.16l7.76-22.64h13.68l-7.76,22.64Zm8.16-25.68-1.12-13.68h13.68l1.12,13.68Zm2.32-16.72-1.12-13.68h13.68l1.12,13.68Zm23.84,31.92-10.48-7.6.48-3.84h13.44l6.56,5,9-5.84.16-1.36H398.53l1.12-7.6h41l-1.92,13.68-12,7.6,14,10.48h-18l-5.92-4.24-6.72,4.24h-18Zm15.92-22.8,2.16-15.2h-9.6l-3.2,15.2H399.81L404,298l-2.48-2.88h38l-1.92,13.68h3l3.52-3-1.76,12.16Z" transform="translate(0 0)"/><path class="cls-3" d="M469.09,297.32l1.52-1.92-1.52-1.84h18.24l-3,3.76h32.8l-1,7.6h-37.6l-2.4,3h36.48l-5.28,37.92a6.21,6.21,0,0,1-2.16,3.8,6.12,6.12,0,0,1-4.08,1.48h-15l6.24-6.48.64-4.72H471.65l-1.6,11.2h-15.2l3.68-26.48H448l15.28-19.76h-11l1-7.6Zm3.6,35H494l.64-4.64H473.33Zm1.76-12.16h21.28l.64-4.64H475.09Z" transform="translate(0 0)"/><path class="cls-3" d="M424.05,438.2l-6.16,9H392.05l-2-1.84-2.56,1.84h-15.2l11-8-6-5.52,1-7.6h-3l1-7.6h3l.4-2.56h10.64l-.4,2.56h7.6l.4-2.56h10.64l-.4,2.56h3.12l-1,7.6h-3.12l-1,7.6-7.6,5.52,7.76,7.2L418.93,428l-7-14.08h12.16l1.92,3.84,2.64-3.84v-.08l1.44-10.56h-2.88l-2.72,7.6H412.37l6.88-19.44-1.52-1.84h14.4L430,395.64h15.68l-1,7.6h-2.32l-1.44,10.56L431.09,428l9.6,19.2H428.53Zm-41.44-31.92h-4.56l1.12-7.6h12.16l.88-6.16-1.36-3h12.4L402,398.68h12.16l-1.12,7.6h-5l3.68,9.12h-9.12l-2.24-5.52-.8,5.52H388.93l.88-6.08-3.92,6.08h-9.12Zm7.36-9.12h-9.12l-.64-6.08h9.12Zm6.08,32.72.48-3.84h-7.6l-.48,3.84,3.36,3.12Zm10-38.8h9.12l-2.4,6.08h-9.12Z" transform="translate(0 0)"/><path class="cls-3" d="M457.89,399.32l1-7.28-2-2.32h14.8l-1.36,9.6H474l-1,7h-3.52L468.05,416l3.44-1-1.2,8.32-3.44,1-2.4,17.44a5.84,5.84,0,0,1-2.08,3.8,6.12,6.12,0,0,1-4.08,1.48H446.05l6.16-7.2,1.6-11.52-4.88,1.44,1.2-8.4L455,420l1.92-13.6h-4.8l1-7Zm27.68,10.48-7,37.2H467l10.48-55.92h41.6l-2.64,18.72Zm10,3.84.4-2.48h11l-.4,2.48h9.68l-1,7h-9.68l-.64,4.4h8.88l-2.88,20.56H481l2.88-20.56H494l.64-4.4h-9.76l1-7Zm11.84-15.44h-19l-.8,5.28h19Zm-5.52,40.88,1-6.88h-9.6l-1,6.88Z" transform="translate(0 0)"/></svg>