<svg id="图层_1" data-name="图层 1" xmlns="http://www.w3.org/2000/svg" viewBox="0 0 430.9 559.75"><defs><style>.cls-1{fill:#e5e5e5;}.cls-2{fill:#2f2e41;}.cls-3{fill:#00ab55;}.cls-4{fill:#fff;}.cls-5{fill:#3f3d56;}.cls-6{fill:#cbcbcb;}</style></defs><path class="cls-1" d="M304.8,154.54c0,3.2-.1,6.4-.3,9.5a143.41,143.41,0,0,1-13.5,52.2c-.1.1-.1.3-.2.4-.4.8-.7,1.5-1.1,2.3-2.3,4.6-4.9,9.1-7.6,13.5a144.55,144.55,0,0,1-118.6,66.7l1.4,82.2,18.6-9.8,3.3,6.3L165,389.44l2.7,152.7v2l-14.4,1.2h0l4.5-246.2a144.09,144.09,0,0,1-102-44.4c-.9-.9-1.8-1.9-2.7-2.9l-.1-.1a144.12,144.12,0,0,1-26.3-40.8c.1.2.3.3.4.5A144.6,144.6,0,0,1,95.8,25.14c.5-.2,1-.5,1.5-.7a144.71,144.71,0,0,1,187.5,56.9c.9,1.5,1.7,3,2.6,4.5A144.56,144.56,0,0,1,304.8,154.54Z" transform="translate(0 0)"/><circle class="cls-2" cx="198.3" cy="502.64" r="43.1"/><rect class="cls-2" x="210.6" y="532.24" width="38.6" height="13.1"/><ellipse class="cls-2" cx="249.5" cy="534.44" rx="4.1" ry="10.9"/><rect class="cls-2" x="201.6" y="531.24" width="38.6" height="13.1"/><ellipse class="cls-2" cx="240.5" cy="533.44" rx="4.1" ry="10.9"/><path class="cls-3" d="M156.5,462.64c-3.5-15.6,7.6-31.3,24.8-35.1s33.9,5.7,37.4,21.2-7.9,21.3-25.1,25.2S160,478.14,156.5,462.64Z" transform="translate(0 0)"/><path class="cls-4" d="M214.8,500.24a10.69,10.69,0,0,1-10.3-7.1,1,1,0,1,1,1.9-.7h0c1.5,4.5,6.7,6.9,11.6,5.3a10,10,0,0,0,5.6-4.7,8.13,8.13,0,0,0,.5-6.3,1,1,0,1,1,1.9-.7h0a9.9,9.9,0,0,1-.6,7.9,12,12,0,0,1-6.7,5.8A17.74,17.74,0,0,1,214.8,500.24Z" transform="translate(0 0)"/><path class="cls-4" d="M234,506a9.57,9.57,0,0,1-17,8.8h0c-2.4-4.7.9-7.6,5.6-10S231.6,501.34,234,506Z" transform="translate(0 0)"/><path class="cls-5" d="M387.7,546.14H6.7a1,1,0,0,1,0-2h381a1,1,0,0,1,0,2Z" transform="translate(0 0)"/><ellipse class="cls-2" cx="182.69" cy="536.52" rx="7.5" ry="23.9" transform="translate(-128.19 62.62) rotate(-14.46)"/><path class="cls-6" d="M261,451.34H244.6a.79.79,0,0,1-.8-.78v0a.83.83,0,0,1,.3-.6l14.9-13.5H245.2a.8.8,0,1,1,0-1.6H261a.79.79,0,0,1,.8.78v0a.83.83,0,0,1-.3.6l-14.9,13.5H261a.79.79,0,0,1,.8.78v0c-.1.4-.4.8-.8.8Z" transform="translate(0 0)"/><path class="cls-6" d="M281.8,427.34H265.45a.79.79,0,0,1-.8-.78v0a.83.83,0,0,1,.3-.6l14.9-13.5h-13.8a.8.8,0,1,1,0-1.6h15.8a.79.79,0,0,1,.8.78v0a.83.83,0,0,1-.3.6l-14.9,13.5h14.4a.79.79,0,0,1,.8.78v0a.74.74,0,0,1-.67.8h-.18Z" transform="translate(0 0)"/><path class="cls-6" d="M272.6,401.14H256.2a.79.79,0,0,1-.8-.78v0a.83.83,0,0,1,.3-.6l14.9-13.5H256.8a.8.8,0,0,1,0-1.6h15.8a.79.79,0,0,1,.8.78v0a.83.83,0,0,1-.3.6l-14.9,13.5h14.4a.79.79,0,0,1,.8.78v0A1.09,1.09,0,0,1,272.6,401.14Z" transform="translate(0 0)"/><path class="cls-5" d="M357.26,191.51l25.64-24.07c-19.83-2.6-28,10.14-31.45,20.29-15.62-7.55-32.45,2.36-32.45,2.36l51.28,22A44.43,44.43,0,0,0,357.26,191.51Z" transform="translate(0 0)"/><path class="cls-5" d="M19.1,10.44,31.9.14C22-1,17.9,4.54,16.2,8.84,8.5,5.54,0,9.84,0,9.84l25.6,9.3A18.74,18.74,0,0,0,19.1,10.44Z" transform="translate(0 0)"/><path class="cls-5" d="M418.1,45.44l12.8-10.2c-9.9-1.1-14,4.3-15.7,8.6-7.8-3.2-16.2,1-16.2,1l25.6,9.3A18.74,18.74,0,0,0,418.1,45.44Z" transform="translate(0 0)"/><path class="cls-5" d="M44.07,326l24.68-20.58c-19.08-2.22-27,8.67-30.27,17.35-15-6.46-31.23,2-31.23,2l49.36,18.77A37.74,37.74,0,0,0,44.07,326Z" transform="translate(0 0)"/><path class="cls-3" d="M58.82,164.26l3.06-21.66-2-2.28h12.6l-3.36,23.94h6.24l4.2-29.64H60.14l.78-5.7h45.6l-.78,5.7H90.92l-1.38,9.66h13.68l-.78,5.7H88.7l-2,14.28h17.1L103,170H52.88l.78-5.7Z" transform="translate(0 0)"/><path class="cls-3" d="M136.46,133.48h24.18l-.78,5.7h-27.3L126,148.84,123.08,170h-11.4l2-14.82h-4.56l10.92-16h-6.9l.78-5.7h10l2.88-4.2-1.32-1.5h14.82Zm1.62,14.82,1-6.84h11.4l-1,6.84H158l-.78,5.7H148.7l-1.44,10.26h9.66l-.78,5.7H125.36l.78-5.7h9.72L137.3,154h-8.58l.78-5.7Z" transform="translate(0 0)"/><path class="cls-3" d="M171.5,139.24h-4.14l.84-5.82h5l.84-2.88-1.8-2.1h12.24l-1.44,5h11.16l-4.68,33.48a4.73,4.73,0,0,1-1.62,2.82,4.54,4.54,0,0,1-3.06,1.14H175l5.28-5.52,3.66-26.1H181.4l-9.12,31.62h-10Zm46.44-8-5.4,38.52h-21.6l5.4-38.52Zm-13.62,31.92,3.54-25.38h-3.24l-3.54,25.38Z" transform="translate(0 0)"/><path class="cls-3" d="M234,130.54l.18-1-1.44-1.68h11.64l-.42,2.7h8.4l-.72,5.1h-8.4l-.24,1.8h10.5l-.36-7.62-1.68-2h9.9l.54,9.6h10l-.78,5.4h-8.88l.48,8.76,8-6.24-1.08,8L263,158.5l.36,6.24H267l2.52-2.28-1.2,8.46H255.26l-.36-6.12-6.3,4.92,1.2-8.22,4.74-3.66-.78-15H237.5l-1.38,2.7h14.82l-.72,5.16H233.36l-1.86,3.6h2.28l.36-2.34h7.68l-.36,2.34h7.62l-.78,5.4h-7.56l-.3,2,7.92-.84-.72,5.34-7.92.84-.54,3.84h-8.94l.42-2.88-12.06,1.2.72-5.34,12.06-1.26.42-2.88H221.42l.6-4.5,2.46-4.5h-2.64l.72-5.16h4.8l1.5-2.7h-6.6l.78-5.4h10l.24-1.8h-8.4l.72-5.1Zm38,4.92h-8.52l-.72-6.18h8.64Z" transform="translate(0 0)"/></svg>