<svg id="图层_1" data-name="图层 1" xmlns="http://www.w3.org/2000/svg" viewBox="0 0 869.98 520.12"><defs><style>.cls-1{fill:#f2f2f2;}.cls-2{fill:#fff;}.cls-3{fill:#ccc;}.cls-4{fill:#00ab55;}.cls-5{fill:#ffb8b8;}.cls-6{fill:#2f2e41;}.cls-7{fill:#3f3d56;}</style></defs><path class="cls-1" d="M666.1,514.3C655,504.9,648.2,490,650,475.5s12.8-27.8,27-30.9,30.5,5.4,34.8,19.4c2.4-26.8,5.1-54.8,19.4-77.7,12.9-20.7,35.3-35.5,59.6-38.2s49.8,7.4,64.9,26.5,18.8,47,8.2,69c-7.8,16.2-22.2,28.2-37.3,38.1a240.73,240.73,0,0,1-164.5,36Z" transform="translate(0.03)"/><path class="cls-2" d="M831.7,356.1A397,397,0,0,0,715.1,513.7c-1.1,2.7,3.3,3.9,4.4,1.2A392.4,392.4,0,0,1,834.9,359.3C837.2,357.5,834,354.2,831.7,356.1Z" transform="translate(0.03)"/><path class="cls-1" d="M280.1,511.7c15.3-12.9,24.6-33.3,22.2-53.2s-17.5-38.2-37.1-42.4-41.9,7.5-47.8,26.6c-3.3-36.9-7-75.3-26.6-106.7-17.8-28.4-48.5-48.8-81.8-52.4S40.4,293.7,19.6,320-6.3,384.5,8.3,414.7C19,437,38.8,453.5,59.5,467c66,43,147.9,60.9,225.9,49.4" transform="translate(0.03)"/><path class="cls-2" d="M52.6,294.4a537.7,537.7,0,0,1,75.3,74.8,544.5,544.5,0,0,1,59.4,87.9,538.47,538.47,0,0,1,25.4,53.8c1.5,3.7-4.5,5.4-6.1,1.7a540.21,540.21,0,0,0-49-92.7,539.07,539.07,0,0,0-65.7-81.2,515.44,515.44,0,0,0-43.8-39.8c-3.1-2.6,1.4-7,4.5-4.5Z" transform="translate(0.03)"/><path class="cls-1" d="M624.5,519h-365V144.5C259.5,64.8,324.3,0,404,0h76c79.7,0,144.5,64.8,144.5,144.5Z" transform="translate(0.03)"/><path class="cls-3" d="M548.5,519h-289V144.5a143.12,143.12,0,0,1,27.6-84.9c.7-.9,1.3-1.8,2-2.7A145.58,145.58,0,0,1,319.9,27a24.26,24.26,0,0,1,2-1.4A143.3,143.3,0,0,1,353.4,9.1a15.87,15.87,0,0,1,2-.7,139.26,139.26,0,0,1,31.1-7.3,13.55,13.55,0,0,1,2-.2,147,147,0,0,1,31.1,0c.7.1,1.3.1,2,.2a145,145,0,0,1,31.1,7.3c.7.2,1.3.5,2,.7a146,146,0,0,1,31.1,16.2c.7.5,1.3.9,2,1.4a151.77,151.77,0,0,1,18.4,15.6,135.56,135.56,0,0,1,12.7,14.6c.7.9,1.3,1.8,2,2.7a143.34,143.34,0,0,1,27.6,84.9Z" transform="translate(0.03)"/><circle class="cls-4" cx="525.03" cy="335.5" r="16"/><polygon class="cls-5" points="594.63 507.8 582.33 507.8 576.53 460.5 594.63 460.5 594.63 507.8"/><path class="cls-6" d="M573.6,504.3h23.6v14.9H558.7a14.87,14.87,0,0,1,14.9-14.9Z" transform="translate(0.03)"/><polygon class="cls-5" points="655.63 507.8 643.33 507.8 637.53 460.5 655.63 460.5 655.63 507.8"/><path class="cls-6" d="M634.6,504.3h23.6v14.9H619.7a14.87,14.87,0,0,1,14.9-14.9Z" transform="translate(0.03)"/><path class="cls-5" d="M533.1,338.7a10.67,10.67,0,0,1,2.9-14.9,5.56,5.56,0,0,1,1.7-.9L579.3,208l20.5,11.2L552.2,329a10.81,10.81,0,0,1-6.4,13.9A11.05,11.05,0,0,1,533.1,338.7Z" transform="translate(0.03)"/><path class="cls-5" d="M649.3,360.3a10.88,10.88,0,0,1-4-14.7,15.26,15.26,0,0,1,1.1-1.6L633.5,222.5l23.3,1.1,5.4,119.5a10.83,10.83,0,0,1-12.9,17.2Z" transform="translate(0.03)"/><circle class="cls-5" cx="612.13" cy="162.1" r="24.6"/><path class="cls-4" d="M649.2,332.6h-74l.1-.6c.1-.9,13.2-86.4,3.6-114.4A11.81,11.81,0,0,1,585,203h0c13.8-6.5,40.2-14.5,62.5,4.9a28.12,28.12,0,0,1,9.5,23.4Z" transform="translate(0.03)"/><path class="cls-4" d="M589.4,258.3l-33.3-6.8,15.6-37a14,14,0,0,1,27.1,7Z" transform="translate(0.03)"/><path class="cls-4" d="M632.1,270.8l-2-45.9c-1.5-8.6,3.4-16.8,11-18.1s15,4.7,16.6,13.4l7.5,42.9Z" transform="translate(0.03)"/><path class="cls-6" d="M646.7,327.1c11.9,45.4,13.2,103.1,10,166l-16-2-29-120-16,122-18-1c-5.4-66-10.6-122.7-2-160Z" transform="translate(0.03)"/><path class="cls-6" d="M628.3,181.1c-4.6,4.9-13.1,2.3-13.7-4.4v-1.6c.3-3,2-5.6,1.6-8.8a4.85,4.85,0,0,0-.8-2.1c-3.7-4.9-12.2,2.2-15.7-2.2-2.1-2.7.4-7-1.3-10-2.1-4-8.5-2-12.5-4.2-4.4-2.4-4.2-9.2-1.2-13.4,3.6-5,9.8-7.7,15.9-8.1s12.3,1.3,18,3.5c6.5,2.5,13,6.1,17,11.8,4.9,7,5.3,16.3,2.9,24.5C637.1,171.1,632,177.1,628.3,181.1Z" transform="translate(0.03)"/><path class="cls-7" d="M840,519.6H101.7a1.2,1.2,0,1,1,0-2.4H840a1.16,1.16,0,0,1,1.2,1.2A1.22,1.22,0,0,1,840,519.6Z" transform="translate(0.03)"/><path class="cls-2" d="M469,410.5H339a6.47,6.47,0,0,1-6.5-6.4V113.9a6.4,6.4,0,0,1,6.5-6.4H469a6.47,6.47,0,0,1,6.5,6.4V404.1A6.47,6.47,0,0,1,469,410.5Z" transform="translate(0.03)"/><rect class="cls-3" x="332.53" y="201.4" width="143" height="2"/><rect class="cls-3" x="333.03" y="315.5" width="143" height="2"/><rect class="cls-3" x="377.53" y="107.5" width="2" height="304"/><rect class="cls-3" x="427.53" y="107.5" width="2" height="304"/><path class="cls-4" d="M302.3,123.27,300.44,119h11.94l1.86,4.32H324.5l2.64-4.32h11.94l-2.64,4.32H343l-.72,5.34H294.68l.72-5.34Zm5.4-26.22,4.86-5.58H299.84l.66-4.74h23.34l-8.4,10.32h16l-7-10.2H334.7l1.5,2.22,9.24-3.48-.72,5.4-5.64,2.1.9,1.26,7.68-2.82-.72,4.8L342.5,98l4.26,6H336.2L334.82,102l-.06.6H311.48l.06-.72-1.62,2H297l.66-4.56h4.56l-2.82-5.58H306Zm35.58,8.34-1.74,12.3H298.22l1.74-12.3Zm-12.48,7.92.48-3.48H310.76l-.48,3.48Z" transform="translate(0.03)"/><path class="cls-4" d="M350.3,126.93l6.42-10.38h11.4l-6.42,10.38Zm37.26-32.64.36-2.52h-28.5l.66-4.92h39.6l-2,14.7h4.8l-.72,5H383.6L381,124.77a4.38,4.38,0,0,1-1.56,2.85,4.61,4.61,0,0,1-3.06,1.11H364.22l5.34-5.58,2.34-16.62H354.2l.72-5h31.62L386.9,99H358.4l.66-4.68Zm-30.72,20.94-2.46-7h11.4l2.46,7Zm30.9,11.7-3.36-10.38h11.4l3.36,10.38Zm-3.12-11.7,4.38-7h11.4l-4.38,7Z" transform="translate(0.03)"/><path class="cls-4" d="M423.14,94.41,420,117.21l5.94,11.4h-8.46l-1.62-4.08-2.64,4.08h-8.7l9.06-11.16,3.24-23Zm8.58-7.74-4.56,32.46h-4.44l-1.32-3.24,3.3-23.52h-8.88l-3.3,23.52-2.34,3.24H405.8l4.56-32.46Zm1.44,19.8h-2.52l.78-5.7h2.52l1.86-12.9-1.92-2.28H445l-2.16,15.18h1.26l6.24-13.56h8.34l-6.24,13.56h4.86l-.78,5.7H442l-2.16,15.18,4.26-.84-.78,5.7L430,128.67Zm18.36,1.5,2.88,20.7h-8.34L443.18,108Z" transform="translate(0.03)"/><path class="cls-4" d="M491.78,123.15l2.4-4H464.54l4.8-9.06h-8l.78-5.7h50.16l-.78,5.7H480.8l-1.8,3.42h27.42l-.84,5.64-5.88,9.6h-29l5.34-5.58Zm20-36.48-2.16,15.42h-44.4L467.12,89l-2-2.28Zm-12.18,5.7H478l-.54,4H499.1Z" transform="translate(0.03)"/></svg>