<svg id="图层_1" data-name="图层 1" xmlns="http://www.w3.org/2000/svg" viewBox="0 0 905.58 600"><defs><style>.cls-1{fill:#f2f2f2;}.cls-2{fill:#2f2e41;}.cls-3{fill:#fff;}.cls-4{fill:#e6e6e6;}.cls-5{fill:#00ab55;}.cls-6{fill:#3f3d56;}.cls-7{fill:#ccc;}.cls-8{fill:#ffb6b6;}.cls-9{fill:#cacaca;}</style></defs><path class="cls-1" d="M869.21,320.86A286.87,286.87,0,0,1,789.15,520q-4.65,4.88-9.56,9.51-7.47,7.11-15.44,13.66a286.73,286.73,0,0,1-176.22,65.36c-2.15,0-4.3.07-6.47.07-51.37,0-116-27.44-174.62-65.43q-7.27-4.71-14.42-9.64c-2.23-1.52-4.45-3.07-6.65-4.63a590.84,590.84,0,0,1-64.24-52.49,415.66,415.66,0,0,1-37.06-39.62c-45.05-55.57-55-105.65,9.24-115.94q11.42-1.83,22.15-3.9,15.54-3,29.76-6.45,19.14-4.65,36-10.09,5.65-1.83,11.06-3.72c53.24-18.7,88.88-43.09,113.14-69.55q6.17-6.72,11.37-13.6a189.75,189.75,0,0,0,14.44-22,206.47,206.47,0,0,0,14.92-33.25l.21-.63C566,102,560.17,50.4,581.46,33.12c91-73.89,204.33,31.33,257.52,155.42q4,9.38,7.57,18.87c1.06,2.82,2.08,5.66,3.07,8.49q3.89,11.1,7,22.24,1.22,4.26,2.32,8.5c.78,3.05,1.53,6.1,2.23,9.14C866.4,278.08,869.21,300.07,869.21,320.86Z" transform="translate(-31.39 -8.61)"/><path class="cls-2" d="M587.93,608.54c-2.15,0-4.3.07-6.47.07-51.37,0-116-27.44-174.62-65.43q-7.27-4.71-14.42-9.64l4.18-25.43,126.51-16.8,63.5,48.55Z" transform="translate(-31.39 -8.61)"/><path class="cls-3" d="M594,154.43H576a2.11,2.11,0,0,0-2.11,2.11v18a2.11,2.11,0,0,0,2.11,2.1h18a2.1,2.1,0,0,0,2.1-2.1v-18A2.1,2.1,0,0,0,594,154.43Z" transform="translate(-31.39 -8.61)"/><path class="cls-4" d="M594,185.17H576a2.11,2.11,0,0,0-2.11,2.1v18a2.11,2.11,0,0,0,2.11,2.1h18a2.1,2.1,0,0,0,2.1-2.1v-18A2.1,2.1,0,0,0,594,185.17Z" transform="translate(-31.39 -8.61)"/><path class="cls-4" d="M594,215.9H576a2.12,2.12,0,0,0-2.11,2.11v18a2.1,2.1,0,0,0,2.1,2.1h18a2.1,2.1,0,0,0,2.1-2.1V218A2.11,2.11,0,0,0,594,215.9Z" transform="translate(-31.39 -8.61)"/><path class="cls-4" d="M596.09,248.37a2.1,2.1,0,0,0-2.07-1.73H576a2.11,2.11,0,0,0-2.11,2.1v18a2.11,2.11,0,0,0,2.1,2.11h18a2.1,2.1,0,0,0,2.1-2.11v-18A1.54,1.54,0,0,0,596.09,248.37Z" transform="translate(-31.39 -8.61)"/><path class="cls-4" d="M594.84,277.54a2.11,2.11,0,0,0-.82-.17H576a2.11,2.11,0,0,0-2.11,2.1h0v18a2.09,2.09,0,0,0,2.09,2.1h18a2.1,2.1,0,0,0,2.1-2.1v-18A2.1,2.1,0,0,0,594.84,277.54Z" transform="translate(-31.39 -8.61)"/><path class="cls-4" d="M631.89,154.43h-18a2.12,2.12,0,0,0-2.11,2.11v18a2.11,2.11,0,0,0,2.11,2.1h18a2.1,2.1,0,0,0,2.1-2.1v-18A2.1,2.1,0,0,0,631.89,154.43Z" transform="translate(-31.39 -8.61)"/><path class="cls-5" d="M631.89,185.17h-18a2.11,2.11,0,0,0-2.11,2.1v18a2.11,2.11,0,0,0,2.11,2.1h18a2.1,2.1,0,0,0,2.1-2.1v-18A2.1,2.1,0,0,0,631.89,185.17Z" transform="translate(-31.39 -8.61)"/><path class="cls-5" d="M631.89,215.9h-18a2.12,2.12,0,0,0-2.11,2.11v18a2.1,2.1,0,0,0,2.1,2.1h18A2.1,2.1,0,0,0,634,236V218A2.11,2.11,0,0,0,631.89,215.9Z" transform="translate(-31.39 -8.61)"/><path class="cls-5" d="M631.89,246.64h-18a2.09,2.09,0,0,0-2,1.44,1.88,1.88,0,0,0-.12.66v18a2.11,2.11,0,0,0,2.1,2.11h18a2.1,2.1,0,0,0,2.1-2.11v-18A2.1,2.1,0,0,0,631.89,246.64Z" transform="translate(-31.39 -8.61)"/><path class="cls-4" d="M631.89,277.37h-18a2.11,2.11,0,0,0-2.11,2.1h0v18a2.1,2.1,0,0,0,2.1,2.1h18a2.1,2.1,0,0,0,2.1-2.1v-18A2.11,2.11,0,0,0,631.89,277.37Z" transform="translate(-31.39 -8.61)"/><path class="cls-5" d="M669.76,154.43h-18a2.1,2.1,0,0,0-2.1,2.11v18a2.1,2.1,0,0,0,2.1,2.1h18a2.11,2.11,0,0,0,2.11-2.1v-18A2.12,2.12,0,0,0,669.76,154.43Z" transform="translate(-31.39 -8.61)"/><path class="cls-5" d="M669.76,185.17h-18a2.1,2.1,0,0,0-2.1,2.1v18a2.1,2.1,0,0,0,2.1,2.1h18a2.11,2.11,0,0,0,2.11-2.1v-18A2.11,2.11,0,0,0,669.76,185.17Z" transform="translate(-31.39 -8.61)"/><path class="cls-4" d="M669.76,215.9h-18a2.11,2.11,0,0,0-2.1,2.11v18a2.08,2.08,0,0,0,2.09,2.1h18a2.11,2.11,0,0,0,2.11-2.1V218A2.13,2.13,0,0,0,669.76,215.9Z" transform="translate(-31.39 -8.61)"/><path class="cls-5" d="M669.76,246.64h-18a2.1,2.1,0,0,0-2.1,2.1v18a2.09,2.09,0,0,0,2.09,2.11h18a2.11,2.11,0,0,0,2.11-2.11v-18A2.11,2.11,0,0,0,669.76,246.64Z" transform="translate(-31.39 -8.61)"/><path class="cls-5" d="M669.76,277.37h-18a2.1,2.1,0,0,0-2.1,2.1h0v18a2.08,2.08,0,0,0,2.09,2.1h18a2.11,2.11,0,0,0,2.11-2.1v-18A2.12,2.12,0,0,0,669.76,277.37Z" transform="translate(-31.39 -8.61)"/><path class="cls-5" d="M707.63,154.43h-18a2.1,2.1,0,0,0-2.1,2.11v18a2.1,2.1,0,0,0,2.1,2.1h18a2.11,2.11,0,0,0,2.11-2.1v-18A2.12,2.12,0,0,0,707.63,154.43Z" transform="translate(-31.39 -8.61)"/><path class="cls-3" d="M707.63,185.17h-18a2.1,2.1,0,0,0-2.1,2.1v18a2.1,2.1,0,0,0,2.1,2.1h18a2.11,2.11,0,0,0,2.11-2.1v-18A2.11,2.11,0,0,0,707.63,185.17Z" transform="translate(-31.39 -8.61)"/><path class="cls-3" d="M707.63,215.9h-18a2.11,2.11,0,0,0-2.1,2.11v18a2.08,2.08,0,0,0,2.09,2.1h18a2.11,2.11,0,0,0,2.11-2.1V218A2.13,2.13,0,0,0,707.63,215.9Z" transform="translate(-31.39 -8.61)"/><path class="cls-4" d="M707.63,246.64h-18a2.1,2.1,0,0,0-2.1,2.1v18a2.09,2.09,0,0,0,2.09,2.11h18a2.11,2.11,0,0,0,2.11-2.11v-18A2.11,2.11,0,0,0,707.63,246.64Z" transform="translate(-31.39 -8.61)"/><path class="cls-5" d="M707.63,277.37h-18a2.1,2.1,0,0,0-2.1,2.1h0v18a2.08,2.08,0,0,0,2.09,2.1h18a2.11,2.11,0,0,0,2.11-2.1v-18A2.12,2.12,0,0,0,707.63,277.37Z" transform="translate(-31.39 -8.61)"/><path class="cls-3" d="M745.5,154.43h-18a2.11,2.11,0,0,0-2.1,2.11v18a2.1,2.1,0,0,0,2.1,2.1h18a2.11,2.11,0,0,0,2.11-2.1v-18A2.12,2.12,0,0,0,745.5,154.43Z" transform="translate(-31.39 -8.61)"/><path class="cls-3" d="M745.5,185.17h-18a2.1,2.1,0,0,0-2.1,2.1v18a2.1,2.1,0,0,0,2.1,2.1h18a2.11,2.11,0,0,0,2.11-2.1v-18A2.11,2.11,0,0,0,745.5,185.17Z" transform="translate(-31.39 -8.61)"/><path class="cls-3" d="M745.5,215.9h-18a2.11,2.11,0,0,0-2.1,2.11v18a2.08,2.08,0,0,0,2.09,2.1h18a2.11,2.11,0,0,0,2.11-2.1V218A2.13,2.13,0,0,0,745.5,215.9Z" transform="translate(-31.39 -8.61)"/><path class="cls-5" d="M745.5,246.64h-18a2.1,2.1,0,0,0-2.1,2.1v18a2.1,2.1,0,0,0,2.09,2.11h18a2.11,2.11,0,0,0,2.11-2.11v-18A2.11,2.11,0,0,0,745.5,246.64Z" transform="translate(-31.39 -8.61)"/><path class="cls-4" d="M745.5,277.37h-18a2.11,2.11,0,0,0-2.1,2.11h0v18a2.08,2.08,0,0,0,2.09,2.1h18a2.11,2.11,0,0,0,2.11-2.1v-18A2.12,2.12,0,0,0,745.5,277.37Z" transform="translate(-31.39 -8.61)"/><path class="cls-3" d="M783.37,154.43h-18a2.11,2.11,0,0,0-2.1,2.11v18a2.1,2.1,0,0,0,2.1,2.1h18a2.11,2.11,0,0,0,2.11-2.1v-18A2.11,2.11,0,0,0,783.37,154.43Z" transform="translate(-31.39 -8.61)"/><path class="cls-3" d="M783.37,185.17h-18a2.1,2.1,0,0,0-2.1,2.1v18a2.1,2.1,0,0,0,2.1,2.1h18a2.11,2.11,0,0,0,2.11-2.1v-18A2.11,2.11,0,0,0,783.37,185.17Z" transform="translate(-31.39 -8.61)"/><path class="cls-5" d="M783.37,215.9h-18a2.11,2.11,0,0,0-2.1,2.11v18a2.09,2.09,0,0,0,2.09,2.1h18a2.1,2.1,0,0,0,2.11-2.1V218A2.12,2.12,0,0,0,783.37,215.9Z" transform="translate(-31.39 -8.61)"/><path class="cls-4" d="M783.37,246.64h-18a2.1,2.1,0,0,0-2.1,2.1v18a2.11,2.11,0,0,0,2.09,2.11h18a2.1,2.1,0,0,0,2.11-2.11v-18A2.11,2.11,0,0,0,783.37,246.64Z" transform="translate(-31.39 -8.61)"/><path class="cls-3" d="M783.37,277.37h-18a2.11,2.11,0,0,0-2.1,2.11h0v18a2.09,2.09,0,0,0,2.09,2.1h18a2.1,2.1,0,0,0,2.11-2.1v-18A2.11,2.11,0,0,0,783.37,277.37Z" transform="translate(-31.39 -8.61)"/><path class="cls-5" d="M821.24,154.43h-18a2.11,2.11,0,0,0-2.1,2.11v18a2.1,2.1,0,0,0,2.1,2.1h18a2.11,2.11,0,0,0,2.11-2.1v-18A2.1,2.1,0,0,0,821.24,154.43Z" transform="translate(-31.39 -8.61)"/><path class="cls-5" d="M821.24,185.17h-18a2.1,2.1,0,0,0-2.1,2.1v18a2.1,2.1,0,0,0,2.1,2.1h18a2.11,2.11,0,0,0,2.11-2.1v-18A2.1,2.1,0,0,0,821.24,185.17Z" transform="translate(-31.39 -8.61)"/><path class="cls-4" d="M821.24,215.9h-18a2.11,2.11,0,0,0-2.1,2.11v18a2.09,2.09,0,0,0,2.09,2.1h18a2.1,2.1,0,0,0,2.11-2.1V218A2.12,2.12,0,0,0,821.24,215.9Z" transform="translate(-31.39 -8.61)"/><path class="cls-3" d="M821.24,246.64h-18a2.1,2.1,0,0,0-2.1,2.1v18a2.11,2.11,0,0,0,2.09,2.11h18a2.1,2.1,0,0,0,2.11-2.11v-18A2.1,2.1,0,0,0,821.24,246.64Z" transform="translate(-31.39 -8.61)"/><path class="cls-5" d="M821.24,277.37h-18a2.11,2.11,0,0,0-2.1,2.11h0v18a2.09,2.09,0,0,0,2.09,2.1h18a2.1,2.1,0,0,0,2.11-2.1v-18A2.11,2.11,0,0,0,821.24,277.37Z" transform="translate(-31.39 -8.61)"/><path class="cls-5" d="M859.12,154.43h-18a2.11,2.11,0,0,0-2.1,2.11v18a2.1,2.1,0,0,0,2.1,2.1h18a2.1,2.1,0,0,0,2.1-2.1v-18A2.1,2.1,0,0,0,859.12,154.43Z" transform="translate(-31.39 -8.61)"/><path class="cls-5" d="M859.12,185.17h-18a2.1,2.1,0,0,0-2.1,2.1v18a2.1,2.1,0,0,0,2.1,2.1h18a2.1,2.1,0,0,0,2.1-2.1v-18A2.1,2.1,0,0,0,859.12,185.17Z" transform="translate(-31.39 -8.61)"/><path class="cls-4" d="M859.12,215.9h-18A2.11,2.11,0,0,0,839,218v18a2.1,2.1,0,0,0,2.09,2.1h18a2.1,2.1,0,0,0,2.1-2.1V218A2.11,2.11,0,0,0,859.12,215.9Z" transform="translate(-31.39 -8.61)"/><path class="cls-5" d="M859.12,246.64h-18a2.1,2.1,0,0,0-2.1,2.1v18a2.11,2.11,0,0,0,2.09,2.11h18a2.1,2.1,0,0,0,2.1-2.11v-18A2.1,2.1,0,0,0,859.12,246.64Z" transform="translate(-31.39 -8.61)"/><path class="cls-5" d="M859.12,277.37h-18a2.11,2.11,0,0,0-2.1,2.11h0v18a2.1,2.1,0,0,0,2.09,2.1h18a2.1,2.1,0,0,0,2.1-2.1v-18A2.11,2.11,0,0,0,859.12,277.37Z" transform="translate(-31.39 -8.61)"/><path class="cls-4" d="M897,154.43H879a2.11,2.11,0,0,0-2.1,2.11v18a2.1,2.1,0,0,0,2.1,2.1h18a2.1,2.1,0,0,0,2.1-2.1v-18A2.1,2.1,0,0,0,897,154.43Z" transform="translate(-31.39 -8.61)"/><path class="cls-5" d="M897,185.17H879a2.1,2.1,0,0,0-2.1,2.1v18a2.1,2.1,0,0,0,2.1,2.1h18a2.1,2.1,0,0,0,2.1-2.1v-18A2.1,2.1,0,0,0,897,185.17Z" transform="translate(-31.39 -8.61)"/><path class="cls-5" d="M897,215.9H879a2.11,2.11,0,0,0-2.1,2.11v18a2.1,2.1,0,0,0,2.1,2.1h18a2.1,2.1,0,0,0,2.1-2.1V218A2.11,2.11,0,0,0,897,215.9Z" transform="translate(-31.39 -8.61)"/><path class="cls-5" d="M897,246.64H879a2.1,2.1,0,0,0-2.1,2.1v18a2.11,2.11,0,0,0,2.1,2.11h18a2.1,2.1,0,0,0,2.1-2.11v-18A2.1,2.1,0,0,0,897,246.64Z" transform="translate(-31.39 -8.61)"/><path class="cls-4" d="M897,277.37H879a2.11,2.11,0,0,0-2.1,2.11h0v18a2.1,2.1,0,0,0,2.1,2.1h18a2.1,2.1,0,0,0,2.1-2.1v-18A2.11,2.11,0,0,0,897,277.37Z" transform="translate(-31.39 -8.61)"/><path class="cls-4" d="M934.86,154.43h-18a2.11,2.11,0,0,0-2.1,2.11v18a2.1,2.1,0,0,0,2.1,2.1h18a2.1,2.1,0,0,0,2.1-2.1v-18A2.1,2.1,0,0,0,934.86,154.43Z" transform="translate(-31.39 -8.61)"/><path class="cls-4" d="M934.86,185.17h-18a2.1,2.1,0,0,0-2.1,2.1v18a2.1,2.1,0,0,0,2.1,2.1h18a2.1,2.1,0,0,0,2.1-2.1v-18A2.1,2.1,0,0,0,934.86,185.17Z" transform="translate(-31.39 -8.61)"/><path class="cls-5" d="M934.86,215.9h-18a2.11,2.11,0,0,0-2.1,2.11v18a2.1,2.1,0,0,0,2.1,2.1h18A2.1,2.1,0,0,0,937,236V218A2.11,2.11,0,0,0,934.86,215.9Z" transform="translate(-31.39 -8.61)"/><path class="cls-4" d="M934.86,246.64h-18a2.1,2.1,0,0,0-2.1,2.1v18a2.11,2.11,0,0,0,2.1,2.11h18a2.1,2.1,0,0,0,2.1-2.11v-18A2.1,2.1,0,0,0,934.86,246.64Z" transform="translate(-31.39 -8.61)"/><path class="cls-4" d="M934.86,277.37h-18a2.11,2.11,0,0,0-2.1,2.11h0v18a2.1,2.1,0,0,0,2.1,2.1h18a2.1,2.1,0,0,0,2.1-2.1v-18A2.11,2.11,0,0,0,934.86,277.37Z" transform="translate(-31.39 -8.61)"/><path class="cls-6" d="M405.17,467.64H224.8a3.61,3.61,0,0,1-3.6-3.61V430h1.44v34a2.16,2.16,0,0,0,2.16,2.16H405.17a2.17,2.17,0,0,0,2.17-2.16V429.79h1.44V464A3.61,3.61,0,0,1,405.17,467.64Z" transform="translate(-31.39 -8.61)"/><rect class="cls-6" x="15.33" y="420.7" width="423.85" height="1.44"/><circle id="a67a4451-c7cc-402c-b29d-5a705f3c9418" class="cls-5" cx="15.36" cy="421.31" r="12.42"/><circle id="abdb3fbf-f68e-433e-a33f-153626b38c76" class="cls-5" cx="141.53" cy="421.31" r="12.42"/><circle id="ac293633-0933-4e21-a8aa-bc27ca4fbccc" class="cls-6" cx="227.16" cy="457.8" r="12.42"/><circle id="a0cd768d-b738-4d4b-9ab3-78ab535c7573" class="cls-7" cx="292.25" cy="457.8" r="12.42"/><circle id="b9eb3d2e-31e0-4fe2-be5c-79abb86bc227" class="cls-5" cx="260.71" cy="421.31" r="12.42"/><circle id="aa04baac-fce0-420a-b86a-4a97f3079928" class="cls-5" cx="437.47" cy="421.31" r="12.42"/><circle id="e92cf92c-058e-415c-ba96-766a57ee18d9" class="cls-5" cx="376.68" cy="421.31" r="12.42"/><path class="cls-6" d="M85.24,430.75a.72.72,0,0,1-.72-.72V394.4a3.61,3.61,0,0,1,3.61-3.61h35.13a.73.73,0,1,1,0,1.45H88.13A2.16,2.16,0,0,0,86,394.4V430A.73.73,0,0,1,85.24,430.75Z" transform="translate(-31.39 -8.61)"/><circle id="b0a7c1c1-8f27-441f-a84a-e44462cc473e" class="cls-4" cx="93.53" cy="382.64" r="12.42"/><path class="cls-6" d="M363.13,430h-1.44V394.4a3.61,3.61,0,0,1,3.61-3.61h35.13v1.45H365.3a2.17,2.17,0,0,0-2.17,2.16Z" transform="translate(-31.39 -8.61)"/><circle id="b3140cf1-cdb8-48ff-81af-ce41ed4f5739" class="cls-4" cx="370.7" cy="382.64" r="12.42"/><polygon class="cls-2" points="488.93 534.58 488.43 534.58 488.86 534.52 488.93 534.58"/><circle id="b6132315-04e2-4cdb-a713-107c9cd58b0b" class="cls-8" cx="445.78" cy="143.14" r="55.33"/><path id="f4304bdd-ba2d-4fff-b404-410205410c5d-157" class="cls-2" d="M525.62,111.17S540.09,83.51,508.25,81c0,0-27.14-24.62-54.81-4.5,0,0-15.09,0-23.34,17.08,0,0-11.87-4.5-14.48,7.54,0,0-8.68,25.16,0,47.79s11.57,25.15,11.57,25.15-14.27-47.45,20.47-50,73.61-24.22,76.5,3.44S531.41,162,531.41,162,558.91,122.49,525.62,111.17Z" transform="translate(-31.39 -8.61)"/><path class="cls-9" d="M620.3,288.11l-.18.94-2,10.56L604.3,372.67l-.82,4.3-1.72,9.09-2.35,12.41L594.2,426l-1.49,7.88-.56,2.95-.19,1L590.41,446l-.47,2.46-3.77,28-3.3,24.37,11,11-6.57,6.58L583,543.13v0H406.84q-10.69-6.91-21.07-14.27l1.45-10.86s5-19.38,2.89-21.69-6.68-6.46-6.68-6.46l5.78-13.48.8-1.87-1.34-27.88,0-.67-.44-9.2-.06-1.18-.09-1.77-1.71-35.38,0-.58-.52-10.73L385.3,377l-.21-4.3-2.08-43-1.41-29.22L380.37,275l4.94-1.68,52.93-18,21.93-28.5,45.63.34,22.33.17,37.27,34.57,8.48,4.05.07,0,6.08,2.91,15.42,7.36,16.3,7.79,8.37,4Z" transform="translate(-31.39 -8.61)"/><path class="cls-8" d="M466.06,460.17a24.53,24.53,0,0,1-31.73-14,25,25,0,0,1-1.2-4.16l-86.3-12.24,30-33.94,77.35,16.83a24.66,24.66,0,0,1,11.88,47.52Z" transform="translate(-31.39 -8.61)"/><path class="cls-9" d="M427.58,398.47a10.93,10.93,0,0,0-6.39-3.94l-35.41-7.37-3.63-.75A15.31,15.31,0,0,1,372,379.07a15.6,15.6,0,0,1-2-6.4,15.37,15.37,0,0,1,.73-6.06l12.27-37,8-24a34.2,34.2,0,0,0,1.69-8.95,35.08,35.08,0,0,0-7.35-23.4,34.58,34.58,0,0,0-39.69-11.05l-.62.24a34.45,34.45,0,0,0-20.49,23L315.86,317,298,381.83a46.77,46.77,0,0,0,39.66,58.86l51,6,23.6,2.77a10.93,10.93,0,0,0,12-8.69l.09-.45.56-3.5,4.81-29.46,0-.3A10.88,10.88,0,0,0,427.58,398.47Z" transform="translate(-31.39 -8.61)"/><path class="cls-8" d="M521,461.11a24.52,24.52,0,0,0,29.44-18.34,24.8,24.8,0,0,0,.61-4.28l83.71-24.3L600.3,384.83,526.09,412.4A24.66,24.66,0,0,0,521,461.11Z" transform="translate(-31.39 -8.61)"/><path class="cls-9" d="M676.35,359.85l-39.81-91.63A34.56,34.56,0,0,0,613,248.34c-.38-.1-.76-.19-1.14-.26a34.07,34.07,0,0,0-15.78.29A34.64,34.64,0,0,0,574,266l-.07.11a34.92,34.92,0,0,0-.3,31.47l.5,1L602.21,355a15.31,15.31,0,0,1-6.89,20.53,13.38,13.38,0,0,1-1.61.68l-2,.72L556.2,389.8a10.93,10.93,0,0,0-6.75,13.6l.09.29,10,31.87.15.44a5.6,5.6,0,0,0,.33.8,10.91,10.91,0,0,0,12.8,6.1L592,437.84l3.91-1,49.53-13.08a46.8,46.8,0,0,0,31-63.87Z" transform="translate(-31.39 -8.61)"/><path class="cls-6" d="M284.47,436.8a415.66,415.66,0,0,0,37.06,39.62H687.58a13.33,13.33,0,0,1,13.3,13.31l.52,92.76a288.08,288.08,0,0,0,62.75-39.31q8-6.54,15.44-13.66,4.89-4.63,9.56-9.51a288.21,288.21,0,0,0,55.74-83.21Z" transform="translate(-31.39 -8.61)"/><path class="cls-3" d="M789.15,520q-4.65,4.88-9.56,9.51H701.67V520Z" transform="translate(-31.39 -8.61)"/><path class="cls-6" d="M619.57,215.9a4.48,4.48,0,0,0-3.94-2.35H350.11a4.5,4.5,0,0,0-4.49,4.5V377h274.5V218.05A4.28,4.28,0,0,0,619.57,215.9Z" transform="translate(-31.39 -8.61)"/><path class="cls-6" d="M345.38,372.67v19.61a6.19,6.19,0,0,0,6.19,6.19H452.89v38.7h-1.35a.8.8,0,0,0-.8.8h0v2.7a.8.8,0,0,0,.8.8h62.9a.8.8,0,0,0,.8-.8h0V438a.8.8,0,0,0-.8-.8h-1.35v-38.7H614.41a6.19,6.19,0,0,0,6.19-6.19h0V372.67Z" transform="translate(-31.39 -8.61)"/><circle class="cls-5" cx="448.28" cy="282.42" r="25.36"/><path class="cls-5" d="M544.27,148.72h-4c0-30.61-30.3-50.67-60.87-50.69a66.92,66.92,0,0,0-13.24,1.29c-4.91,1-10,2.15-15,3.68-19.74,6-38,17.75-38,45.72a63.87,63.87,0,0,0,2.06,16.1l-3.92,1A67.72,67.72,0,0,1,409,148.72c0-24.44,10-41.23,27.37-51.24,9.11-5.27,20.23-8.66,33-10.31a78.44,78.44,0,0,1,16-.49C520.49,89.21,544.27,116.16,544.27,148.72Z" transform="translate(-31.39 -8.61)"/><path class="cls-5" d="M551,151l-1.59-11.79a12.89,12.89,0,0,0-14.78-11l-2.54.35a5.24,5.24,0,0,0-3.52,2.05,5.3,5.3,0,0,0-1.05,3.94l3.69,27.17a5.33,5.33,0,0,0,4.29,4.51,5.81,5.81,0,0,0,1.7,0l2.84-.39a12.74,12.74,0,0,0,8.69-5.2c.22-.31.43-.63.63-.95A13.52,13.52,0,0,0,551,151Z" transform="translate(-31.39 -8.61)"/><path class="cls-3" d="M530.46,129a5.17,5.17,0,0,0-1.88,1.56,5.3,5.3,0,0,0-1.05,3.94l3.69,27.17a5.33,5.33,0,0,0,4.29,4.51Z" transform="translate(-31.39 -8.61)"/><path class="cls-6" d="M551,151l-1.59-11.79a12.75,12.75,0,0,0-4-7.74l3.67,27a4.69,4.69,0,0,0,.33,1.26A13.52,13.52,0,0,0,551,151Z" transform="translate(-31.39 -8.61)"/><ellipse class="cls-6" cx="537.64" cy="153.84" rx="2.02" ry="5.67" transform="translate(-47.19 65.06) rotate(-7.73)"/><ellipse class="cls-6" cx="535.21" cy="139.26" rx="2.02" ry="5.67" transform="translate(-45.25 64.6) rotate(-7.73)"/><ellipse class="cls-6" cx="550.6" cy="144.93" rx="2.02" ry="5.67" transform="translate(-45.87 66.72) rotate(-7.73)"/><path class="cls-6" d="M479.35,98a66.92,66.92,0,0,0-13.24,1.29c-4.91,1-10,2.15-15,3.68-7.81-.38-13.56-2.4-14.72-5.52,9.11-5.27,20.23-8.66,33-10.31a78.44,78.44,0,0,1,16-.49,4.64,4.64,0,0,1,2.21,3.1C487.93,92.59,484.71,95.59,479.35,98Z" transform="translate(-31.39 -8.61)"/><path class="cls-5" d="M427.65,176.82l-6.24-25.92a4.88,4.88,0,0,0-4-3.69,5.52,5.52,0,0,0-.81-.06,4.79,4.79,0,0,0-1.13.14l-2.42.58a12.08,12.08,0,0,0-8.9,14.55L407,174.05a12.86,12.86,0,0,0,4.33,7,12.14,12.14,0,0,0,1.1.78,12,12,0,0,0,9.21,1.49l2.41-.58a4.77,4.77,0,0,0,1.75-.82A4.85,4.85,0,0,0,427.65,176.82Z" transform="translate(-31.39 -8.61)"/><ellipse class="cls-6" cx="413.25" cy="166.49" rx="2.02" ry="5.67" transform="translate(-58.87 92.7) rotate(-13.53)"/><ellipse class="cls-6" cx="405.15" cy="168.92" rx="2.02" ry="5.67" transform="translate(-59.66 90.87) rotate(-13.53)"/><path class="cls-3" d="M428,176.73l-6.23-25.93a5.29,5.29,0,0,0-4.29-4L426,182.23A5.27,5.27,0,0,0,428,176.73Z" transform="translate(-31.39 -8.61)"/><path class="cls-6" d="M405.61,157.28a5.05,5.05,0,0,0-.95-2,12,12,0,0,0-.46,7.12L407,174.05a12.86,12.86,0,0,0,4.33,7Z" transform="translate(-31.39 -8.61)"/><path d="M43.71,211.27l-3.2,22.56,2.56-.32,3.44-24.72h-9l3.2-22.56H65.79l-3.2,22.56H57.71l-1,7.28h3.76l-1,7H55.71l-1.28,9,5.52-.72-1,7.44-27.52,3.44,1-7.28,1.2-.16L37,211.27Zm6.48-19L48.67,203H53l1.52-10.8Zm40-7.44-3.36,5H104l-1,7.36h-4.4l4.08,13.12-10.16.08-1.76-5-.72,5H75.47l.64-4.48-3,4.56H62l9.12-13.36h-5l1-7.36h9L78,187.11l-1.92-2.32Zm5.12,57.44H64.59l6.8-6H83.63l1-6.48H62.51l4.8-9.36H62.59l1-7.12H100l-1,7.12H78.35l-1.52,3H98.11Zm-17.84-38.4H90.11l-2.24-6.64H82Z" transform="translate(-31.39 -8.61)"/><path d="M175.63,186.23l-1,7.6H151.71L149,213.59h25.84l-1,7.6H148l-3,21.12h-15.2l3-21.12H106.91l1-7.6h25.84l2.72-19.76H113.79l1-7.6Zm-44.4,24.32H117.55l-1.12-13.68h13.68Zm26.24-13.68h13.68l-5,13.68H152.51Z" transform="translate(-31.39 -8.61)"/><path d="M245.63,213.59l-3.84,27.12H183l3.85-27.12Zm-4.48-25.76,5.68,22.72h-13l-.32-1.2H187.23l.79-5.76,11.52-17-1.91-1.84h19.75l-12,17.2h26.33l-3.52-14.16Zm-13.36,45.28,1.67-12H200.67l-1.69,12Z" transform="translate(-31.39 -8.61)"/><path class="cls-5" d="M54.81,289.09l-5.16,36.36H38.79l4.86-34.14-3.54.66,1-6.84,14.7-2.88ZM86.73,309l-2.16,15.42H52.65L54.81,309Zm1-7.38-.78,5.7H55.05l.78-5.7ZM68.13,286.81l.36-2.28-1.92-2.28H80.25l-.66,4.56H91l-.78,5.7H56l.78-5.7Zm19.56,7.44-.84,5.64H57.21l.84-5.64Zm-13.2,24.48.6-4H64.89l-.6,4Z" transform="translate(-31.39 -8.61)"/><path class="cls-5" d="M103.11,324.37H94.17l4.08-12.84h8.94Zm10.62-39.18,1.14-1.74-.84-1.08H128l-1.86,2.82H146l-3.42,24H100.29l3.06-21.66-1.5-2.34Zm-7,39.18,1.86-13.32h10.14l-1.08,7.56h13.8l2.64-2.4-1.14,8.16Zm25.92-22.14H112.41l-.24,2h20.22ZM113,298h20.22l.24-1.8H113.25Zm.84-6h20.22l.3-1.92H114.15Zm7.44,18.42h8.94l.36,6.9h-9Zm13.5,1.08h9.12l.42,12.84h-9.12Z" transform="translate(-31.39 -8.61)"/><path class="cls-5" d="M165.15,313.63l-.9,6.24h3.42l1.08-8H150.57l.66-4.56h47.88l-.66,4.56h-18.3l-.24,1.74h13.74l-.54,4H179.37l-.3,2.28h19.38l-.6,4.56H147.69l.6-4.56H154l.9-6.24Zm-2.88-24.54.18-1.14h-9.66l.54-4H163l.12-.6-.9-1.08h9l-.24,1.68h9.72l-.54,4h-9.78l-.12,1.14h8.58l-1.2,8.52h-3.3l3.24,8.58H171L168.69,300l-.84,6.18h-8l.84-6.12-4,6.12h-6.54l5.52-8.58h-3.18l1.2-8.52Zm-.72,5.16.24-1.74h-2.28l-.24,1.74Zm8.22-1.74-.24,1.74h2.34l.24-1.74Zm22-10.26-.9,2.28h12l-.66,4.56h-1.08l-.6,4.56-6.24,5.82,6,6.72h-8l-2.4-2.64-2.82,2.64h-8.94l7.56-7.26-5.76-6.42H188l2,2.28,2.64-2.52.42-3.18H189l-.84,2.28h-8l3.06-7.74-1.2-1.38Z" transform="translate(-31.39 -8.61)"/><path class="cls-5" d="M255,306.19l-2.58,18.24H204.51l2.58-18.24Zm-11.64-2.28-1-4H221.43l-2.1,4H206.25l10-18.9-1.38-1.62h36.48l5.1,20.52Zm-1.56,14.82,1-6.84H217.65l-1,6.84Zm-17.28-24.48h16.38l-1.26-5.16H227.25Z" transform="translate(-31.39 -8.61)"/></svg>