<svg xmlns="http://www.w3.org/2000/svg" viewBox="0 0 876.27 661.47"><defs><style>.cls-1{fill:#2f2e41;}.cls-2{fill:#ffb8b8;}.cls-3{fill:#f2f2f2;}.cls-4{fill:#fff;}.cls-5{fill:#00ab55;}.cls-6{fill:#ccc;}.cls-7{isolation:isolate;opacity:0.1;}.cls-8{fill:#3f3d56;}.cls-9{fill:#ff6584;}.cls-10{fill:#a0616a;}</style></defs><g id="图层_1" data-name="图层 1"><path class="cls-1" d="M477.77,32.19c-7.52,16,8.41,20.53,26.65,29.1s31.9,17.95,39.42,2,13.61-47.74-12.2-59.87C504.94-9.18,485.28,16.2,477.77,32.19Z" transform="translate(0 0)"/><circle class="cls-2" cx="514.99" cy="39.09" r="24.56"/><path class="cls-1" d="M393.31,148c.85-1.11,1.7-2.2,2.56-3.26,1.11-1.38,2.23-2.71,3.35-4,12.73-14.69,26.27-23.94,41.18-24.93h0l.22,0,29.71,29,10.1,9.84-.22.54-5.45,13.57H379.29A234.78,234.78,0,0,1,393.31,148Z" transform="translate(0 0)"/><path class="cls-1" d="M541.7,49h0l-8.79-4.13,1.22-12.69-5.88,10.5-4.2-2,.72-7.39-3.43,6.12L490.11,24.74h0A26,26,0,0,1,524.7,12.26l4.53,2.13A26,26,0,0,1,541.7,49Z" transform="translate(0 0)"/><path class="cls-3" d="M231.75,494.8H744.58a16.52,16.52,0,0,0,16.5-16.5V170.15A12.09,12.09,0,0,0,749,158.06H227.54a12.3,12.3,0,0,0-12.29,12.3V478.3A16.52,16.52,0,0,0,231.75,494.8Z" transform="translate(0 0)"/><path class="cls-4" d="M728.58,478.3H247.75a16,16,0,0,1-16-16V200.75a16,16,0,0,1,16-16H728.58a16,16,0,0,1,16,16V462.3A16,16,0,0,1,728.58,478.3Z" transform="translate(0 0)"/><path class="cls-5" d="M215.48,169.2H761.32v-8.4a16.58,16.58,0,0,0-16.56-16.55H232a16.57,16.57,0,0,0-16.56,16.55Z" transform="translate(0 0)"/><circle class="cls-4" cx="731.22" cy="156.75" r="4.28"/><circle class="cls-4" cx="714.96" cy="156.75" r="4.28"/><circle class="cls-4" cx="698.7" cy="156.75" r="4.28"/><path class="cls-6" d="M473.16,421.58h43a9.51,9.51,0,0,0,9.5-9.5v-43a9.5,9.5,0,0,0-9.5-9.5h-43a9.52,9.52,0,0,0-9.5,9.5v43A9.52,9.52,0,0,0,473.16,421.58Zm43-60a7.5,7.5,0,0,1,7.5,7.5v43a7.51,7.51,0,0,1-7.5,7.5h-43a7.52,7.52,0,0,1-7.5-7.5v-43a7.51,7.51,0,0,1,7.5-7.5Z" transform="translate(0 0)"/><path class="cls-6" d="M481.66,409.58h26a3,3,0,0,0,3-3v-32a3,3,0,0,0-3-3H488.82a3,3,0,0,0-1.88.66L479.78,378a3,3,0,0,0-1.12,2.34v26.25A3,3,0,0,0,481.66,409.58Zm26-36a1,1,0,0,1,1,1v32a1,1,0,0,1-1,1h-26a1,1,0,0,1-1-1V380.33a1,1,0,0,1,.37-.78l7.17-5.75a1,1,0,0,1,.62-.22Z" transform="translate(0 0)"/><path class="cls-6" d="M486.66,385.58h16a1,1,0,0,0,0-2h-16a1,1,0,0,0,0,2Z" transform="translate(0 0)"/><path class="cls-6" d="M486.66,391.58h16a1,1,0,0,0,0-2h-16a1,1,0,0,0,0,2Z" transform="translate(0 0)"/><path class="cls-6" d="M486.66,397.58h16a1,1,0,0,0,0-2h-16a1,1,0,0,0,0,2Z" transform="translate(0 0)"/><path class="cls-6" d="M371.16,421.58h43a9.51,9.51,0,0,0,9.5-9.5v-43a9.5,9.5,0,0,0-9.5-9.5h-43a9.52,9.52,0,0,0-9.5,9.5v43A9.52,9.52,0,0,0,371.16,421.58Zm43-60a7.5,7.5,0,0,1,7.5,7.5v43a7.51,7.51,0,0,1-7.5,7.5h-43a7.52,7.52,0,0,1-7.5-7.5v-43a7.51,7.51,0,0,1,7.5-7.5Z" transform="translate(0 0)"/><path class="cls-6" d="M378.66,401.58h28a3,3,0,0,0,3-3v-16a3,3,0,0,0-3-3h-28a3,3,0,0,0-3,3v16A3,3,0,0,0,378.66,401.58Zm28-20a1,1,0,0,1,1,1v16a1,1,0,0,1-1,1h-28a1,1,0,0,1-1-1v-16a1,1,0,0,1,1-1Z" transform="translate(0 0)"/><path class="cls-6" d="M392.66,393.22a3,3,0,0,0,1.59-.46l14.94-9.33a1,1,0,1,0-1.06-1.7l-14.94,9.34a1,1,0,0,1-1.06,0l-14.94-9.34a1,1,0,0,0-1.06,1.7l14.94,9.33A3,3,0,0,0,392.66,393.22Z" transform="translate(0 0)"/><path class="cls-6" d="M575.16,421.58h43a9.51,9.51,0,0,0,9.5-9.5v-43a9.5,9.5,0,0,0-9.5-9.5h-43a9.52,9.52,0,0,0-9.5,9.5v43A9.52,9.52,0,0,0,575.16,421.58Zm43-60a7.5,7.5,0,0,1,7.5,7.5v43a7.51,7.51,0,0,1-7.5,7.5h-43a7.52,7.52,0,0,1-7.5-7.5v-43a7.51,7.51,0,0,1,7.5-7.5Z" transform="translate(0 0)"/><path class="cls-6" d="M582.66,401.58h28a3,3,0,0,0,3-3v-16a3,3,0,0,0-3-3h-28a3,3,0,0,0-3,3v16A3,3,0,0,0,582.66,401.58Zm28-20a1,1,0,0,1,1,1v16a1,1,0,0,1-1,1h-28a1,1,0,0,1-1-1v-16a1,1,0,0,1,1-1Z" transform="translate(0 0)"/><path class="cls-6" d="M587.1,401.58h20.12a2,2,0,0,0,2-2,2,2,0,0,0-.26-1l-6.07-10.5a2,2,0,0,0-2.73-.73,2,2,0,0,0-.73.73l-3.92,6.78-2.26-3.93a2,2,0,0,0-2.74-.73,2.13,2.13,0,0,0-.73.73l-4.41,7.65a2,2,0,0,0,.73,2.73,2,2,0,0,0,1,.27Zm0-2h0l4.41-7.65,3.14,5.43a1,1,0,0,0,.86.5h0a1,1,0,0,0,.87-.5l4.78-8.28,6.06,10.5Z" transform="translate(0 0)"/><circle class="cls-6" cx="585.66" cy="385.58" r="2"/><polygon class="cls-2" points="107.45 648.15 119.71 648.15 125.54 600.86 107.44 600.86 107.45 648.15"/><path class="cls-1" d="M104.32,660h39.53v-.5a15.38,15.38,0,0,0-15.39-15.38H104.32Z" transform="translate(0 0)"/><polygon class="cls-2" points="57.45 648.15 69.71 648.15 75.54 600.86 57.45 600.86 57.45 648.15"/><path class="cls-1" d="M54.32,660H93.85v-.5a15.38,15.38,0,0,0-15.39-15.38H54.32Z" transform="translate(0 0)"/><path class="cls-1" d="M61.12,627.65l11.36-3.45a4.5,4.5,0,0,0,3.16-3.84L86.23,520a.48.48,0,0,1,.48-.45.48.48,0,0,1,.51.41L105,617.2a4.5,4.5,0,0,0,5.23,3.62l.1,0,14.51-3a4.53,4.53,0,0,0,3.59-4.71L117.59,453.78l-73.14-7.89L55.32,623.62a4.48,4.48,0,0,0,5.8,4Z" transform="translate(0 0)"/><circle class="cls-2" cx="61.19" cy="290.49" r="24.56"/><path class="cls-5" d="M117.7,454.72l-15.85-99.85a37.87,37.87,0,0,0-48-30.4h0a37.75,37.75,0,0,0-26.6,43.26L43.83,456.9Z" transform="translate(0 0)"/><path class="cls-2" d="M54.41,472.59a10.07,10.07,0,0,1-2.85-13.94,10.57,10.57,0,0,1,1.1-1.38L36.27,425.51l18.46,2,12.74,29.85a10.11,10.11,0,0,1-13.06,15.26Z" transform="translate(0 0)"/><path class="cls-5" d="M50.9,451.67a4.49,4.49,0,0,0,2.43-1.16l6.27-5.79a4.52,4.52,0,0,0,1.09-5.06L48.15,410l1.78-58.72a14.5,14.5,0,1,0-28.73,3.88v0l-3.05,36.92a46.41,46.41,0,0,0,8.94,31.39l19.55,26.44a4.56,4.56,0,0,0,3.2,1.8A5.27,5.27,0,0,0,50.9,451.67Z" transform="translate(0 0)"/><path class="cls-2" d="M202.63,277.11a10.05,10.05,0,0,1-11.72,8.05,10.32,10.32,0,0,1-1.71-.47l-22.84,27.48L161,294.39,183.49,271a10.11,10.11,0,0,1,19.14,6.09Z" transform="translate(0 0)"/><path class="cls-5" d="M184.73,288.5a4.5,4.5,0,0,0-2-1.79L175,283.19a4.52,4.52,0,0,0-5.08,1l-22.48,23.13L92.62,328.55a14.5,14.5,0,1,0,14.78,24.94l0,0,35.18-11.59A46.38,46.38,0,0,0,168,321.41l16.72-28.31a4.53,4.53,0,0,0,.42-3.65A4.3,4.3,0,0,0,184.73,288.5Z" transform="translate(0 0)"/><polygon class="cls-7" points="41.27 375.65 42.27 407.65 60.69 439.66 45.31 403.99 41.27 375.65"/><path class="cls-1" d="M64,295.1a6.42,6.42,0,0,0,7-4.7A9.74,9.74,0,0,1,78,283.13c4.5-1,10,1.09,13.31-2.33A6.66,6.66,0,0,0,92.88,275c-.61-3.31-3-5.82-5.57-7.83a34.15,34.15,0,0,0-18.86-7.05,68.53,68.53,0,0,0-10.62.53,47.23,47.23,0,0,0-10.87,2,25.57,25.57,0,0,0-16,18.68A29.52,29.52,0,0,0,37,305.41a31.66,31.66,0,0,0,12.16,9.26,4.73,4.73,0,0,0,3.6.18c3-1.18,2.48-4.84,1.13-7.28-1.44-2.62-3.66-5.15-2.5-8.33a6.28,6.28,0,0,1,3.12-3.37c2.94-1.5,6.23-1.14,9.39-.78Z" transform="translate(0 0)"/><path class="cls-4" d="M210.84,309h304a16.52,16.52,0,0,0,16.5-16.5v-65a16.52,16.52,0,0,0-16.5-16.5h-304a16.52,16.52,0,0,0-16.5,16.5v65A16.52,16.52,0,0,0,210.84,309Z" transform="translate(0 0)"/><path class="cls-8" d="M210.84,309.47h304a17,17,0,0,0,17-17v-65a17,17,0,0,0-17-17h-304a17,17,0,0,0-17,17v65A17,17,0,0,0,210.84,309.47Zm304-97a15,15,0,0,1,15,15v65a15,15,0,0,1-15,15h-304a15,15,0,0,1-15-15v-65a15,15,0,0,1,15-15Z" transform="translate(0 0)"/><path class="cls-3" d="M247.84,293h230a16.52,16.52,0,0,0,16.5-16.5v-34a16.52,16.52,0,0,0-16.5-16.5h-230a16.52,16.52,0,0,0-16.5,16.5v34A16.52,16.52,0,0,0,247.84,293Z" transform="translate(0 0)"/><circle class="cls-9" cx="428.34" cy="254.91" r="19.73"/><path class="cls-8" d="M262.13,291,290,267.62l27.38-23a4,4,0,0,1,5.15,0l27.28,23.06,6.67,5.63,10-8.43L397,239.33a4,4,0,0,1,5.15,0l30.44,25.73,30.92,26.13a1,1,0,0,1,.12,1.41,1,1,0,0,1-.77.36l-63.39-.12-20.06,0,.2.16-59.81-.11-57.07-.11a1,1,0,0,1-1-1A1,1,0,0,1,262.13,291Z" transform="translate(0 0)"/><path class="cls-6" d="M1,661.47H193a1,1,0,0,0,0-2H1a1,1,0,0,0,0,2Z" transform="translate(0 0)"/><path class="cls-2" d="M378.68,131.91a11.28,11.28,0,0,1,7.25-5.1,11.59,11.59,0,0,1,1.66-.21l76.19-68.12a9,9,0,0,1,5.63-2.69,7.71,7.71,0,0,1,1.27,0,9.05,9.05,0,0,1,6,15.48L447.47,96.66l-47.9,41.75a11.41,11.41,0,0,1-.35,2.33,11.25,11.25,0,0,1-9.67,8.37,11.06,11.06,0,0,1-6.05-1,11.5,11.5,0,0,1-3.88-3c-.11-.13-.21-.25-.31-.39a11.31,11.31,0,0,1-.63-12.84Z" transform="translate(0 0)"/><path class="cls-2" d="M509,197.56l.71-28.86.6-23.95.41-16.76.81-32.67a9,9,0,0,1,15.71-5.25,6.89,6.89,0,0,1,.75,1,8.92,8.92,0,0,1,1.56,6l-1.78,47.67-.89,23.95-1.14,30.55a11.52,11.52,0,0,1,.89,1.41,11.31,11.31,0,0,1-13.61,16,11.9,11.9,0,0,1-1.24-.5A11.32,11.32,0,0,1,509,197.56Z" transform="translate(0 0)"/><path class="cls-6" d="M440.4,115.81l7.07-19.15,11.44-31A16,16,0,0,1,468.86,56l.55-.17a16,16,0,0,1,13.24,1.82l38.53,24.44a16.09,16.09,0,0,1,5.27,21.75A276.6,276.6,0,0,1,510.72,128c-4.49,6.11-12.85,6.76-14.3,16.76H468l-28.76-25.82Z" transform="translate(0 0)"/><circle class="cls-10" cx="775.11" cy="326.68" r="23.17"/><path class="cls-10" d="M718.22,310.73c-.23.18-.45.38-.66.58a10.37,10.37,0,0,0-.44,14.67,9.26,9.26,0,0,0,.85.81,9.79,9.79,0,0,0,.82.62l-1.57,52.94a8.07,8.07,0,0,0,5.54,7.87l.1,0,43,4.58a8.9,8.9,0,0,0,1.88-17.7l-.16,0-30.64-2.69-5.3-45.86a9.09,9.09,0,0,0,1-1,10.38,10.38,0,0,0-14.38-14.83Z" transform="translate(0 0)"/><polygon class="cls-10" points="736.94 649.17 725.38 649.17 719.88 604.56 736.95 604.56 736.94 649.17"/><path class="cls-1" d="M739.89,645.4H717.11a14.51,14.51,0,0,0-14.51,14.51h0v.47h37.29Z" transform="translate(0 0)"/><polygon class="cls-10" points="851.91 633.18 841.97 639.1 814.41 603.58 829.08 594.85 851.91 633.18"/><path class="cls-1" d="M852.51,628.43l-19.57,11.65h0a14.52,14.52,0,0,0-5.05,19.9h0l.24.41,32-19.08Z" transform="translate(0 0)"/><path class="cls-1" d="M722.65,633.42h13a4.25,4.25,0,0,0,4.22-3.8l13.06-122.74a1.42,1.42,0,0,1,2.7-.43l23.55,52.16,41.7,68a4.28,4.28,0,0,0,5.33,1.67L842.82,621a4.25,4.25,0,0,0,2.18-5.6,4.16,4.16,0,0,0-.24-.47l-38.34-64.19-11.76-54.08c3.7-23.46-12.15-58.33-12.31-58.68l-.08-.17L738.6,420.69l-.22.27c-17.22,56.51-27.71,117.33-20,208.57A4.28,4.28,0,0,0,722.65,633.42Z" transform="translate(0 0)"/><path class="cls-8" d="M784,443.47l.2-.42c.1-.21,9.81-20.69,17.29-42.58a32.29,32.29,0,0,0-2.23-25.87,32.66,32.66,0,0,0-20.82-16h0a32.68,32.68,0,0,0-37.93,19.57c-5.93,14.84-4,30.69-2.26,43.15l0,.25.22.11Z" transform="translate(0 0)"/><path class="cls-1" d="M747,313.59h36.8v-16c-8.08-3.2-16-5.93-20.76,0a16,16,0,0,0-16,16Z" transform="translate(0 0)"/><path class="cls-1" d="M785.84,294.72c22,0,28.16,27.58,28.16,43.13,0,8.67-3.93,11.78-10.09,12.83l-2.18-11.61-5.1,12.11c-1.73,0-3.55,0-5.43-.06l-1.73-3.56-3.86,3.49c-15.44,0-27.92,2.28-27.92-13.2S763.09,294.72,785.84,294.72Z" transform="translate(0 0)"/><path class="cls-6" d="M683.27,661.47h192a1,1,0,0,0,0-2h-192a1,1,0,0,0,0,2Z" transform="translate(0 0)"/><path class="cls-4" d="M679.66,332.47h43a9.5,9.5,0,0,0,9.5-9.5V280a9.51,9.51,0,0,0-9.5-9.5h-43a9.52,9.52,0,0,0-9.5,9.5v43A9.51,9.51,0,0,0,679.66,332.47Z" transform="translate(0 0)"/><path class="cls-8" d="M679.66,332.47h43a9.5,9.5,0,0,0,9.5-9.5V280a9.51,9.51,0,0,0-9.5-9.5h-43a9.52,9.52,0,0,0-9.5,9.5v43A9.51,9.51,0,0,0,679.66,332.47Zm43-60a7.51,7.51,0,0,1,7.5,7.5v43a7.5,7.5,0,0,1-7.5,7.5h-43a7.51,7.51,0,0,1-7.5-7.5V280a7.52,7.52,0,0,1,7.5-7.5Z" transform="translate(0 0)"/><path class="cls-5" d="M687.16,315h28a3,3,0,0,0,3-3V291a3,3,0,0,0-3-3h-7.88a3,3,0,0,0-2.56,1.43L702.53,293H687.16a3,3,0,0,0-3,3v16A3,3,0,0,0,687.16,315Z" transform="translate(0 0)"/><path class="cls-10" d="M688.07,325.58c-.14.26-.27.52-.39.79a10.39,10.39,0,0,0,5.29,13.7c.36.15.73.29,1.11.41s.65.18,1,.25l19.09,49.41a8.07,8.07,0,0,0,8.17,5.09h.09l41.4-12.47a8.9,8.9,0,1,0-5.13-17l-.16.05-29.29,9.4L706.57,335a9.61,9.61,0,0,0,.51-1.29,10.38,10.38,0,0,0-19-8.09Z" transform="translate(0 0)"/></g><g id="图层_2" data-name="图层 2"><path d="M257.69,572l1.28,6.08h7.36l6.32-9.12h-33l-.8,1.52h-15.2l5.2-9.92-1.92-2.24h18.24l-1.6,3h45.2L287.29,572l-9.52,13.68H221.53l1-7.6h21.2L242.49,572Zm-10.16-39.52h45.28l-1.52,10.64-9.52,13.68H227.05l1.12-7.6h18.88l-1.36-6.08h15.2l1.36,6.08h8.16l6.32-9.12H243.61l-.72,1.52h-15.2l5.12-9.92-1.92-2.24h18.24Z" transform="translate(0 0)"/><path d="M347.61,544.62l2.72-4.56H317l-1.12,2.32h-15.2l5.28-10.72L304,529.42h18.24l-1.52,3h45.12l-1,7.6-.24,1.52-1.76,3h4.4L362,581.74a6.3,6.3,0,0,1-6.24,5.28H341.45l7.2-7.44.48-3.84H337L335.37,587h-15.2l1.6-11.28H310.41L308,587H294.33l9-42.4ZM312,568.14h10.8l.64-4.56H313ZM314.65,556h9.92l.48-3.76h-9.6ZM338,568.14h12.24l.64-4.56H338.65Zm2.24-15.92-.48,3.76h12.16l.56-3.76Z" transform="translate(0 0)"/><path d="M399.37,532.46h34.08l-1.52,10.64-3.2,3.76H436l-3.36,23.6H390.09l-.8,6.08h41.76l4.32-3.12-1.76,12.24h-60.8l5.44-38.8h33.52l5.36-6.32.08-.48H393l-3.76,4.56H374l11.2-13.44-1.52-1.76h18.24Zm-8.16,30.4h8.32l1.12-8.4h-8.32Zm21.68-8.4-1.12,8.4h8.32l1.12-8.4Z" transform="translate(0 0)"/><path class="cls-5" d="M452.62,553.66l1.08-7.5-2-2.28h12.61l-1.38,9.78h2l-.78,5.76h-2.11l-3.77,27.3H448l3.83-27.3h-2l.79-5.76Zm17.94,5.52-4.93,15.12h-5.39l4.92-15.12Zm13.32-8.64h11.7l-4.68,33.12a3.39,3.39,0,0,1-1.23,2.19,3.72,3.72,0,0,1-2.43.87h-9.61l4.2-4.38,3.73-26.4h-3.31l-9.17,30.84h-10.2l9.29-30.84h-5.58l.79-5.4h6.41l1.63-5.34-1.26-1.44h11.76Zm15.48,8.64-1,15h-4.67l1-15Z" transform="translate(0 0)"/><path class="cls-5" d="M555.16,544.72l-5.4,38.58a3.9,3.9,0,0,1-1.53,2.49,4.41,4.41,0,0,1-2.73,1H535.36l5.4-5.46,4.32-30.9H516.94l-5.11,36.24h-9.29L508.12,547l-1.74-2.28ZM540.4,561.88l-2.34,16.92H515.32l2.34-16.92Zm1.08-8.46-.78,5.46H518.14l.78-5.46Zm-11.1,20.28,1-6.66h-6.05l-1,6.66Z" transform="translate(0 0)"/><path class="cls-5" d="M610.35,544.78l-.78,5.7H605L603.27,563H609l-.84,5.7h-5.7l-2.51,18.12H588.51L591,568.72h-16.5l-5.4,18.12h-11.4l5.4-18.12H558l.84-5.7h6l3.72-12.54h-6.84l.78-5.7ZM576.21,563h15.67l1.73-12.54H579.93Z" transform="translate(0 0)"/><path class="cls-5" d="M649.23,543.64,644,552.76h21.66l-.79,5.7H640.66l-1.33,2.28h22.33L660.21,571l-8.7,6.36,11.58,9.48h-12.3l-5.87-4.74-6.54,4.74h-12.3l13-9.42-6.36-5.16-8.4,14.58h-11.4l16.32-28.38H618.09l.79-5.7,2.93-5.22-1.38-1.62H633l-3.84,6.84h3.42l4.38-7.56-1.38-1.56ZM636.69,565.3l-1,1.74h5.7l-.24,1.8,4.5,3.72,5.16-3.72.48-3.54Zm28-14.28H654.46l-1.38-6.24h10.25Z" transform="translate(0 0)"/></g></svg>