<svg id="图层_1" data-name="图层 1" xmlns="http://www.w3.org/2000/svg" viewBox="0 0 880.16 576.27"><defs><style>.cls-1{fill:#fd6584;}.cls-2{fill:#e6e6e6;}.cls-3{fill:#f2f2f2;}.cls-4{fill:#3f3d56;}.cls-5{fill:#2f2e41;}.cls-6{fill:#00ab55;}.cls-7{isolation:isolate;opacity:0.2;}.cls-8{fill:#ffb6b6;}.cls-9{fill:#a0616a;}</style></defs><circle class="cls-1" cx="435.55" cy="71.27" r="26.7"/><path class="cls-2" d="M495.31,58.62a13.24,13.24,0,0,0-11.17-9.29H484l-.22,0c-8.94-1.16-18.88,1.66-25.57,7.8a24.15,24.15,0,0,0-5.83,8,12.92,12.92,0,0,0-10.83-5.28,13.2,13.2,0,0,0-11.8,9.51A1.52,1.52,0,0,0,430.4,71a6.62,6.62,0,0,0,2.79,1.42c2.21.47,4.44.9,6.67,1.29Q446.4,74.89,453,75.6q4.37.47,8.75.74c6,.38,12.11.47,18.16.28,3-.1,5.88-.2,8.62-1.52a12.65,12.65,0,0,0,4.95-4.31A14.51,14.51,0,0,0,495.31,58.62Z"/><path class="cls-2" d="M440.38,97.52a13.74,13.74,0,0,0-.56-3.3,13.26,13.26,0,0,0-11.18-9.29h-.17l-.23-.05a33.29,33.29,0,0,0-14.69,1.51c-7.26,2.43-13.63,7.33-16.7,14.33A12.93,12.93,0,0,0,386,95.44a13.2,13.2,0,0,0-11.8,9.51,1.55,1.55,0,0,0,.69,1.69,6.62,6.62,0,0,0,2.79,1.42c2.22.47,4.44.9,6.68,1.29q6.54,1.14,13.14,1.85a195.22,195.22,0,0,0,26.92,1c3-.1,5.88-.2,8.62-1.52a12.62,12.62,0,0,0,4.94-4.31A14.17,14.17,0,0,0,440.38,97.52Z"/><path class="cls-3" d="M788.13,421.51a171.72,171.72,0,0,1-7.44,53.77c-.19.64-.41,1.27-.63,1.9H670.5a98.25,98.25,0,0,1,7.41-22.33c9.11-19.35,24-35.91,38.7-52.35,20.24-22.67,40-45.14,43.13-74.62a169.41,169.41,0,0,1,19,39.34,46.12,46.12,0,0,0-15.29,9.38c-1.23,1.15-2.53,2.82-1.9,4.42.59,1.34,2.23,1.79,3.68,2.09,3.5.67,7,1.34,10.5,2,2.75.56,5.54,1.08,8.33,1.6A182.23,182.23,0,0,1,788.13,421.51Z"/><path class="cls-3" d="M880.16,409.45c-17.56,10.68-28.73,27.21-37.85,45.7a46.73,46.73,0,0,0-21.24,11.17c-1.27,1.15-2.57,2.82-1.9,4.42.56,1.34,2.23,1.79,3.68,2.09,3.46.67,7,1.34,10.46,2-.34.78-.67,1.6-1,2.38H716.2a163.83,163.83,0,0,1,17.45-19.94c1.38-1.38,2.79-2.68,4.24-4a173.87,173.87,0,0,1,50.24-31.71A176.83,176.83,0,0,1,880.16,409.45Z"/><path class="cls-3" d="M735.55,477.18H632.17a169.1,169.1,0,0,1,.15-24.86c4.13-51.09,31.93-99.76,73.87-129.24-5.36,19.09-2.61,38.07,3,57.13-.78.26-1.57.48-2.27.78a46.14,46.14,0,0,0-15.3,9.37c-1.23,1.16-2.53,2.83-1.9,4.43.56,1.34,2.24,1.79,3.69,2.09,3.5.67,7,1.34,10.45,2,2.8.56,5.59,1.08,8.38,1.64,1.3.22,2.6.48,3.91.74.18.45.29.86.48,1.27,6.55,18,13.69,36.24,17,54.74a127,127,0,0,1,1.71,14C735.48,473.24,735.55,475.21,735.55,477.18Z"/><path class="cls-3" d="M172.13,421.51a171.72,171.72,0,0,1-7.44,53.77c-.19.64-.41,1.27-.63,1.9H54.5a98.25,98.25,0,0,1,7.41-22.33c9.11-19.35,24-35.91,38.7-52.35,20.24-22.67,40-45.14,43.13-74.62a169.41,169.41,0,0,1,19,39.34,46.12,46.12,0,0,0-15.29,9.38c-1.23,1.15-2.53,2.82-1.9,4.42.59,1.34,2.23,1.79,3.68,2.09,3.5.67,7,1.34,10.5,2,2.75.56,5.54,1.08,8.33,1.6A182.23,182.23,0,0,1,172.13,421.51Z"/><path class="cls-3" d="M264.16,409.45c-17.56,10.68-28.73,27.21-37.85,45.7a46.73,46.73,0,0,0-21.24,11.17c-1.27,1.15-2.57,2.82-1.9,4.42.56,1.34,2.23,1.79,3.68,2.09,3.46.67,7,1.34,10.46,2-.34.78-.67,1.6-1,2.38H100.2a163.83,163.83,0,0,1,17.45-19.94c1.38-1.38,2.79-2.68,4.24-4a173.87,173.87,0,0,1,50.24-31.71A176.83,176.83,0,0,1,264.16,409.45Z"/><path class="cls-3" d="M119.55,477.18H16.17a169.1,169.1,0,0,1,.15-24.86c4.13-51.09,31.93-99.76,73.87-129.24-5.36,19.09-2.61,38.07,3,57.13-.78.26-1.57.48-2.27.78a46.14,46.14,0,0,0-15.3,9.37c-1.23,1.16-2.53,2.83-1.9,4.43.56,1.34,2.24,1.79,3.69,2.09,3.5.67,7,1.34,10.45,2,2.8.56,5.59,1.08,8.38,1.64,1.3.22,2.6.48,3.91.74.18.45.29.86.48,1.27,6.55,18,13.69,36.24,17,54.74a127,127,0,0,1,1.71,14C119.48,473.24,119.55,475.21,119.55,477.18Z"/><path class="cls-2" d="M504.41,433.78l92.37,8.2,1,.09V47.93l-1-.69a288.09,288.09,0,0,0-62-32.94l-4.72,65.1-.43,6L525,149.92l-1.44,19.86-18.93,261.7Z"/><path class="cls-2" d="M276,40.59c-.66.42-1.32.84-2,1.28v400.2l2-.18,91.37-8.11-.17-2.3-18.93-261.7-1.44-19.86-4.67-64.56-.43-6-4.95-68.27A287.69,287.69,0,0,0,276,40.59Z"/><path class="cls-2" d="M274,41.87c-1.33.86-2.66,1.74-4,2.63v403c0,10.07,6,18.51,14,20.66a15.42,15.42,0,0,0,4,.53h296.8a15.34,15.34,0,0,0,4-.53,17,17,0,0,0,7.78-4.66,22.93,22.93,0,0,0,6.18-16v-396c-1.64-1.21-3.29-2.41-5-3.58l-1-.69V447.53a16.09,16.09,0,0,1-.46,3.85c-1.41,5.95-6.06,10.31-11.54,10.31H288c-6.62,0-12-6.35-12-14.16V40.59C275.32,41,274.66,41.43,274,41.87Z"/><rect class="cls-2" x="273" y="79.4" width="326.75" height="5.96"/><path class="cls-2" d="M499.68,3.39c-2-.49-4-1-6-1.38V163.82h6Z"/><path class="cls-2" d="M379,0c-2,.37-4,.75-6,1.16V163.82h6Z"/><path class="cls-2" d="M208.94,458.29a26.65,26.65,0,0,0,1.93,10,26.1,26.1,0,0,0,1.75,3.56,26.45,26.45,0,0,0,3,4.18,26.76,26.76,0,0,0,20.12,9.11H627.07a26.82,26.82,0,0,0,0-53.64H235.76A26.85,26.85,0,0,0,208.94,458.29Z"/><rect class="cls-2" x="273" y="149.92" width="324.77" height="19.86"/><path class="cls-2" d="M449.29,154.88H421.48A10.92,10.92,0,0,1,432.41,144h5.95a10.92,10.92,0,0,1,10.93,10.92Z"/><path class="cls-4" d="M0,473.61a289,289,0,0,0,28.12,28.95H834.7a289,289,0,0,0,28.12-28.95Z"/><path class="cls-5" d="M396.69,376.8V479.36h71.85V376.8a3.45,3.45,0,0,0-2.43-3.3,3.26,3.26,0,0,0-1-.16H400.16a3.46,3.46,0,0,0-3.47,3.46Zm28,35.24a7.67,7.67,0,0,1,15.34,0v11.9a7.67,7.67,0,0,1-15.34,0Z"/><path class="cls-4" d="M396.47,476.08V486a1.94,1.94,0,0,0,1.93,1.94h68.43a1.94,1.94,0,0,0,1.93-1.94v-9.89Z"/><path class="cls-4" d="M283.66,222.28V409.54a9,9,0,0,0,9,9h277.5a9,9,0,0,0,9-9V222.28a9,9,0,0,0-9-9H292.66A9,9,0,0,0,283.66,222.28Z"/><path class="cls-6" d="M290.17,224.61V407.23A4.82,4.82,0,0,0,295,412H567.85a4.82,4.82,0,0,0,4.81-4.81V224.61a4.82,4.82,0,0,0-4.81-4.82H295A4.82,4.82,0,0,0,290.17,224.61Z"/><path class="cls-5" d="M345.81,490.24a3,3,0,0,0,2.32,1.11H510.47a3,3,0,0,0,3-3,3.08,3.08,0,0,0-.06-.61l-2.52-12a3,3,0,0,0-2.92-2.37H350.64a3,3,0,0,0-2.92,2.37l-2.52,12A3,3,0,0,0,345.81,490.24Z"/><rect class="cls-4" x="501.8" y="475.57" width="5" height="3" rx="0.49"/><rect class="cls-4" x="491.8" y="475.57" width="5" height="3" rx="0.49"/><rect class="cls-4" x="481.8" y="475.57" width="5" height="3" rx="0.49"/><rect class="cls-4" x="471.8" y="475.57" width="5" height="3" rx="0.49"/><rect class="cls-4" x="461.8" y="475.57" width="5" height="3" rx="0.49"/><rect class="cls-4" x="451.8" y="475.57" width="5" height="3" rx="0.49"/><rect class="cls-4" x="441.8" y="475.57" width="5" height="3" rx="0.49"/><rect class="cls-4" x="431.8" y="475.57" width="5" height="3" rx="0.49"/><rect class="cls-4" x="421.8" y="475.57" width="5" height="3" rx="0.49"/><rect class="cls-4" x="411.8" y="475.57" width="5" height="3" rx="0.49"/><rect class="cls-4" x="401.8" y="475.57" width="5" height="3" rx="0.49"/><rect class="cls-4" x="391.8" y="475.57" width="5" height="3" rx="0.49"/><rect class="cls-4" x="381.8" y="475.57" width="5" height="3" rx="0.49"/><rect class="cls-4" x="371.8" y="475.57" width="5" height="3" rx="0.49"/><rect class="cls-4" x="361.8" y="475.57" width="5" height="3" rx="0.49"/><rect class="cls-4" x="351.8" y="475.57" width="5" height="3" rx="0.49"/><rect class="cls-4" x="501.92" y="480.57" width="5" height="3" rx="0.49"/><rect class="cls-4" x="491.92" y="480.57" width="5" height="3" rx="0.49"/><rect class="cls-4" x="481.92" y="480.57" width="5" height="3" rx="0.49"/><rect class="cls-4" x="471.92" y="480.57" width="5" height="3" rx="0.49"/><rect class="cls-4" x="461.92" y="480.57" width="5" height="3" rx="0.49"/><rect class="cls-4" x="451.92" y="480.57" width="5" height="3" rx="0.49"/><rect class="cls-4" x="441.92" y="480.57" width="5" height="3" rx="0.49"/><rect class="cls-4" x="431.92" y="480.57" width="5" height="3" rx="0.49"/><rect class="cls-4" x="421.92" y="480.57" width="5" height="3" rx="0.49"/><rect class="cls-4" x="411.92" y="480.57" width="5" height="3" rx="0.49"/><rect class="cls-4" x="401.92" y="480.57" width="5" height="3" rx="0.49"/><rect class="cls-4" x="391.92" y="480.57" width="5" height="3" rx="0.49"/><rect class="cls-4" x="381.92" y="480.57" width="5" height="3" rx="0.49"/><rect class="cls-4" x="371.92" y="480.57" width="5" height="3" rx="0.49"/><rect class="cls-4" x="361.92" y="480.57" width="5" height="3" rx="0.49"/><rect class="cls-4" x="351.92" y="480.57" width="5" height="3" rx="0.49"/><rect class="cls-4" x="418.92" y="486.57" width="40" height="3" rx="0.49"/><path class="cls-4" d="M308.69,245H564a1,1,0,0,0,1-1,1,1,0,0,0-1-1H308.69a1,1,0,0,0-1,1A1,1,0,0,0,308.69,245Z"/><ellipse class="cls-4" cx="546.64" cy="231.65" rx="5.95" ry="6.08"/><ellipse class="cls-4" cx="526.08" cy="231.65" rx="5.95" ry="6.08"/><ellipse class="cls-4" cx="505.52" cy="231.65" rx="5.95" ry="6.08"/><path class="cls-4" d="M320,228.18a1.09,1.09,0,0,0,1.09,1.1h14.6a1.11,1.11,0,0,0,0-2.21h-14.6A1.1,1.1,0,0,0,320,228.18Z"/><path class="cls-4" d="M320,232.33a1.09,1.09,0,0,0,1.09,1.1h14.6a1.11,1.11,0,0,0,0-2.21h-14.6A1.1,1.1,0,0,0,320,232.33Z"/><path class="cls-4" d="M320,236.47a1.1,1.1,0,0,0,1.09,1.11h14.6a1.11,1.11,0,0,0,0-2.21h-14.6a1.09,1.09,0,0,0-1.09,1.1Z"/><path class="cls-2" d="M319.25,268.54h5.24a2.88,2.88,0,0,1,2.88,2.88h0a2.88,2.88,0,0,1-2.88,2.88h-5.24a2.88,2.88,0,0,1-2.88-2.88h0A2.88,2.88,0,0,1,319.25,268.54Z"/><path class="cls-2" d="M379.25,268.54h5.24a2.88,2.88,0,0,1,2.88,2.88h0a2.88,2.88,0,0,1-2.88,2.88h-5.24a2.88,2.88,0,0,1-2.88-2.88h0A2.88,2.88,0,0,1,379.25,268.54Z"/><path class="cls-2" d="M396.25,268.54h5.24a2.88,2.88,0,0,1,2.88,2.88h0a2.88,2.88,0,0,1-2.88,2.88h-5.24a2.88,2.88,0,0,1-2.88-2.88h0A2.88,2.88,0,0,1,396.25,268.54Z"/><path class="cls-2" d="M335.57,268.06h32.6a2.88,2.88,0,0,1,2.88,2.88h0a2.88,2.88,0,0,1-2.88,2.88h-32.6a2.88,2.88,0,0,1-2.88-2.88h0A2.88,2.88,0,0,1,335.57,268.06Z"/><path class="cls-2" d="M415.57,268.06h32.6a2.88,2.88,0,0,1,2.88,2.88h0a2.88,2.88,0,0,1-2.88,2.88h-32.6a2.88,2.88,0,0,1-2.88-2.88h0A2.88,2.88,0,0,1,415.57,268.06Z"/><path class="cls-2" d="M335.25,281.54h5.24a2.88,2.88,0,0,1,2.88,2.88h0a2.88,2.88,0,0,1-2.88,2.88h-5.24a2.88,2.88,0,0,1-2.88-2.88h0A2.88,2.88,0,0,1,335.25,281.54Z"/><path class="cls-2" d="M395.25,281.54h5.24a2.88,2.88,0,0,1,2.88,2.88h0a2.88,2.88,0,0,1-2.88,2.88h-5.24a2.88,2.88,0,0,1-2.88-2.88h0A2.88,2.88,0,0,1,395.25,281.54Z"/><path class="cls-2" d="M412.25,281.54h5.24a2.88,2.88,0,0,1,2.88,2.88h0a2.88,2.88,0,0,1-2.88,2.88h-5.24a2.88,2.88,0,0,1-2.88-2.88h0A2.88,2.88,0,0,1,412.25,281.54Z"/><path class="cls-2" d="M351.57,281.06h32.6a2.88,2.88,0,0,1,2.88,2.88h0a2.88,2.88,0,0,1-2.88,2.88h-32.6a2.88,2.88,0,0,1-2.88-2.88h0A2.88,2.88,0,0,1,351.57,281.06Z"/><path class="cls-2" d="M431.57,281.06h32.6a2.88,2.88,0,0,1,2.88,2.88h0a2.88,2.88,0,0,1-2.88,2.88h-32.6a2.88,2.88,0,0,1-2.88-2.88h0A2.88,2.88,0,0,1,431.57,281.06Z"/><path class="cls-2" d="M351.25,294.54h5.24a2.88,2.88,0,0,1,2.88,2.88h0a2.88,2.88,0,0,1-2.88,2.88h-5.24a2.88,2.88,0,0,1-2.88-2.88h0A2.88,2.88,0,0,1,351.25,294.54Z"/><path class="cls-2" d="M411.25,294.54h5.24a2.88,2.88,0,0,1,2.88,2.88h0a2.88,2.88,0,0,1-2.88,2.88h-5.24a2.88,2.88,0,0,1-2.88-2.88h0A2.88,2.88,0,0,1,411.25,294.54Z"/><path class="cls-2" d="M428.25,294.54h5.24a2.88,2.88,0,0,1,2.88,2.88h0a2.88,2.88,0,0,1-2.88,2.88h-5.24a2.88,2.88,0,0,1-2.88-2.88h0A2.88,2.88,0,0,1,428.25,294.54Z"/><path class="cls-2" d="M367.57,294.06h32.6a2.88,2.88,0,0,1,2.88,2.88h0a2.88,2.88,0,0,1-2.88,2.88h-32.6a2.88,2.88,0,0,1-2.88-2.88h0A2.88,2.88,0,0,1,367.57,294.06Z"/><path class="cls-2" d="M447.57,294.06h32.6a2.88,2.88,0,0,1,2.88,2.88h0a2.88,2.88,0,0,1-2.88,2.88h-32.6a2.88,2.88,0,0,1-2.88-2.88h0A2.88,2.88,0,0,1,447.57,294.06Z"/><path class="cls-2" d="M367.25,307.54h5.24a2.88,2.88,0,0,1,2.88,2.88h0a2.88,2.88,0,0,1-2.88,2.88h-5.24a2.88,2.88,0,0,1-2.88-2.88h0A2.88,2.88,0,0,1,367.25,307.54Z"/><path class="cls-2" d="M427.25,307.54h5.24a2.88,2.88,0,0,1,2.88,2.88h0a2.88,2.88,0,0,1-2.88,2.88h-5.24a2.88,2.88,0,0,1-2.88-2.88h0A2.88,2.88,0,0,1,427.25,307.54Z"/><path class="cls-2" d="M444.25,307.54h5.24a2.88,2.88,0,0,1,2.88,2.88h0a2.88,2.88,0,0,1-2.88,2.88h-5.24a2.88,2.88,0,0,1-2.88-2.88h0A2.88,2.88,0,0,1,444.25,307.54Z"/><path class="cls-2" d="M383.57,307.06h32.6a2.88,2.88,0,0,1,2.88,2.88h0a2.88,2.88,0,0,1-2.88,2.88h-32.6a2.88,2.88,0,0,1-2.88-2.88h0A2.88,2.88,0,0,1,383.57,307.06Z"/><path class="cls-2" d="M379.25,359.24h5.24a2.88,2.88,0,0,1,2.88,2.88h0a2.88,2.88,0,0,1-2.88,2.88h-5.24a2.88,2.88,0,0,1-2.88-2.88h0A2.88,2.88,0,0,1,379.25,359.24Z"/><path class="cls-2" d="M396.25,359.24h5.24a2.88,2.88,0,0,1,2.88,2.88h0a2.88,2.88,0,0,1-2.88,2.88h-5.24a2.88,2.88,0,0,1-2.88-2.88h0A2.88,2.88,0,0,1,396.25,359.24Z"/><path class="cls-2" d="M415.57,359.72h32.6a2.88,2.88,0,0,1,2.88,2.88h0a2.88,2.88,0,0,1-2.88,2.88h-32.6a2.88,2.88,0,0,1-2.88-2.88h0A2.88,2.88,0,0,1,415.57,359.72Z"/><path class="cls-2" d="M319.25,359.24h5.24a2.88,2.88,0,0,1,2.88,2.88h0a2.88,2.88,0,0,1-2.88,2.88h-5.24a2.88,2.88,0,0,1-2.88-2.88h0A2.88,2.88,0,0,1,319.25,359.24Z"/><path class="cls-2" d="M335.57,359.72h32.6a2.88,2.88,0,0,1,2.88,2.88h0a2.88,2.88,0,0,1-2.88,2.88h-32.6a2.88,2.88,0,0,1-2.88-2.88h0A2.88,2.88,0,0,1,335.57,359.72Z"/><path class="cls-2" d="M335.25,346.24h5.24a2.88,2.88,0,0,1,2.88,2.88h0a2.88,2.88,0,0,1-2.88,2.88h-5.24a2.88,2.88,0,0,1-2.88-2.88h0A2.88,2.88,0,0,1,335.25,346.24Z"/><path class="cls-2" d="M395.25,346.24h5.24a2.88,2.88,0,0,1,2.88,2.88h0a2.88,2.88,0,0,1-2.88,2.88h-5.24a2.88,2.88,0,0,1-2.88-2.88h0A2.88,2.88,0,0,1,395.25,346.24Z"/><path class="cls-2" d="M412.25,346.24h5.24a2.88,2.88,0,0,1,2.88,2.88h0a2.88,2.88,0,0,1-2.88,2.88h-5.24a2.88,2.88,0,0,1-2.88-2.88h0A2.88,2.88,0,0,1,412.25,346.24Z"/><path class="cls-2" d="M351.57,346.72h32.6a2.88,2.88,0,0,1,2.88,2.88h0a2.88,2.88,0,0,1-2.88,2.88h-32.6a2.88,2.88,0,0,1-2.88-2.88h0A2.88,2.88,0,0,1,351.57,346.72Z"/><path class="cls-2" d="M351.25,333.24h5.24a2.88,2.88,0,0,1,2.88,2.88h0a2.88,2.88,0,0,1-2.88,2.88h-5.24a2.88,2.88,0,0,1-2.88-2.88h0A2.88,2.88,0,0,1,351.25,333.24Z"/><path class="cls-2" d="M411.25,333.24h5.24a2.88,2.88,0,0,1,2.88,2.88h0a2.88,2.88,0,0,1-2.88,2.88h-5.24a2.88,2.88,0,0,1-2.88-2.88h0A2.88,2.88,0,0,1,411.25,333.24Z"/><path class="cls-2" d="M428.25,333.24h5.24a2.88,2.88,0,0,1,2.88,2.88h0a2.88,2.88,0,0,1-2.88,2.88h-5.24a2.88,2.88,0,0,1-2.88-2.88h0A2.88,2.88,0,0,1,428.25,333.24Z"/><path class="cls-2" d="M367.57,333.72h32.6a2.88,2.88,0,0,1,2.88,2.88h0a2.88,2.88,0,0,1-2.88,2.88h-32.6a2.88,2.88,0,0,1-2.88-2.88h0A2.88,2.88,0,0,1,367.57,333.72Z"/><path class="cls-2" d="M367.25,320.24h5.24a2.88,2.88,0,0,1,2.88,2.88h0a2.88,2.88,0,0,1-2.88,2.88h-5.24a2.88,2.88,0,0,1-2.88-2.88h0A2.88,2.88,0,0,1,367.25,320.24Z"/><path class="cls-2" d="M427.25,320.24h5.24a2.88,2.88,0,0,1,2.88,2.88h0a2.88,2.88,0,0,1-2.88,2.88h-5.24a2.88,2.88,0,0,1-2.88-2.88h0A2.88,2.88,0,0,1,427.25,320.24Z"/><path class="cls-2" d="M444.25,320.24h5.24a2.88,2.88,0,0,1,2.88,2.88h0a2.88,2.88,0,0,1-2.88,2.88h-5.24a2.88,2.88,0,0,1-2.88-2.88h0A2.88,2.88,0,0,1,444.25,320.24Z"/><path class="cls-2" d="M383.57,320.72h32.6a2.88,2.88,0,0,1,2.88,2.88h0a2.88,2.88,0,0,1-2.88,2.88h-32.6a2.88,2.88,0,0,1-2.88-2.88h0A2.88,2.88,0,0,1,383.57,320.72Z"/><path class="cls-4" d="M349.91,546l-.66.32q-2.08,1-4.2,2-6.33,3-12.82,5.73a285.17,285.17,0,0,1-35,12c-2-12.47-3.94-41.88-5.8-63.51-.35-4.07-.7-7.86-1-11.21a96.07,96.07,0,0,0-1.89-13.08,4.28,4.28,0,0,0-.39-1c.19,1.73.39,6.89.58,14.05.1,3.35.19,7.14.29,11.21.47,20.82,1,49.15,1.45,65.28-1.39.34-2.79.68-4.19,1-.88.21-1.77.41-2.66.6-1.08.24-2.16.48-3.24.7l-3.39.69a289.78,289.78,0,0,1-56.06,5.44l-3.74,0-1.15,0-3.4-.07a288.36,288.36,0,0,1-65.84-9.49l.87-64.11.15-11.21.06-4.25a15.47,15.47,0,0,0-.88,4.25c-.35,2.73-.71,6.6-1.07,11.21-1.37,17.76-2.78,46.41-4.24,62.71-17.29-4.92-29.93-9.41-45.73-17.31L94.1,547c.11-.77.23-1.54.34-2.33,1.79-12.44-.32-28.63,1.66-42.15,1.51-10.43,3.07-20.45,4.64-28.95,1.9-10.23,3.83-18.27,5.74-22.18,2.2-4.51,4.4-8.95,6.53-13.2.92-1.83,1.83-3.62,2.71-5.39l1.43-2.81c2.14-4.19,4.16-8.06,6-11.49,1.3-2.41,2.5-4.59,3.6-6.5,1.29-2.25,2.43-4.11,3.37-5.52a55.34,55.34,0,0,1,29.28-22.21l.3-.08.29.12.33.15,19.06-7L187.9,357l43.71-2.69,7.06,5.37,3.61,2.75,3.85,2.93,7.08,5.39,2,.62,3,.92,20.45,6.28.21-.09.3.08a55.2,55.2,0,0,1,27.36,19.5c.68.88,1.31,1.79,1.92,2.71,1.66,2.46,3.9,6.35,6.54,11.23,1.09,2,2.24,4.19,3.45,6.5.73,1.39,7,21,13.16,41.13,5.73,18.8,11.31,38,12,42.89.13.91.27,1.83.4,2.74.83,5.69,1.65,11.42,2.44,17,1.17,8.29,2.31,16.29,3.4,23.44Z"/><polygon class="cls-7" points="303.59 473.57 295.09 440.77 287.59 469.07 303.59 473.57"/><path class="cls-5" d="M15.83,473.19A6.41,6.41,0,0,0,22,477.52l26.49-.69a6.34,6.34,0,0,0,6-4.65l3.74-40.09a9.83,9.83,0,0,0,4.24.87A9.66,9.66,0,1,0,62,413.64h0a7.8,7.8,0,0,0-1.74.19,6.52,6.52,0,0,0-4.87-2.11l-40.75,1a6.8,6.8,0,0,0-1,.13,6.37,6.37,0,0,0-5.09,7.42,5.75,5.75,0,0,0,.22.84ZM59,429.37l2.67-9.55a6.57,6.57,0,0,0,0-3.38c.13,0,.24-.06.37-.06a6.91,6.91,0,0,1,.33,13.82,6.56,6.56,0,0,1-3.39-.83Z"/><path class="cls-4" d="M13.62,412.9c.87,5,10.63,8.45,22.37,7.85,10.79-.5,19.61-4.29,21.23-8.78a6.05,6.05,0,0,0-1.84-.25l-40.75,1A6.8,6.8,0,0,0,13.62,412.9Z"/><path class="cls-6" d="M38.14,451.16l.15-.07L44,447.33a.51.51,0,0,0,.15-.7.67.67,0,0,0-.15-.14l-6-3.92a.5.5,0,0,0-.55.84h0l5.35,3.5-5.12,3.34a.51.51,0,0,0-.14.7.49.49,0,0,0,.54.21Z"/><path class="cls-6" d="M29.05,451.58a.5.5,0,0,0,.36-.61.52.52,0,0,0-.23-.31l-5.31-3L29,443.81a.5.5,0,0,0,.1-.7.48.48,0,0,0-.69-.1h0l-5.73,4.26a.51.51,0,0,0,0,.84l6,3.42A.53.53,0,0,0,29.05,451.58Z"/><path class="cls-6" d="M37.57,454.46a.38.38,0,0,0,.13-.06.5.5,0,0,0,.17-.69h0L29.71,440.3a.5.5,0,0,0-.68-.16.49.49,0,0,0-.17.68L37,454.23A.5.5,0,0,0,37.57,454.46Z"/><path class="cls-4" d="M785.15,547l-1.84.92c-15.8,7.9-28.44,12.39-45.73,17.31-1.46-16.3-2.87-44.95-4.24-62.71-.36-4.61-.72-8.48-1.07-11.21a15.47,15.47,0,0,0-.88-4.25l.06,4.25.15,11.21.87,64.11a288.92,288.92,0,0,1-65.84,9.49l-3.4.07-1.15,0-3.74,0a288.92,288.92,0,0,1-69.54-8.43c.49-16.13,1-44.46,1.45-65.28.1-4.07.19-7.86.29-11.21.19-7.16.39-12.32.58-14.05a4.28,4.28,0,0,0-.39,1,96.07,96.07,0,0,0-1.89,13.08c-.35,3.35-.7,7.14-1.05,11.21-1.86,21.63-3.8,51-5.8,63.51a285.17,285.17,0,0,1-35-12q-9-3.75-17.68-8.09c1.1-7.2,2.25-15.27,3.43-23.64.92-6.49,1.87-13.16,2.84-19.75,1.5-10.18,52.46-120.11,64.47-124l.3-.08.21.09L621,372.33l3-.92,2-.62,7.08-5.39,3.85-2.93,3.61-2.75,7.06-5.37L691.35,357l8.51,20.49,19.06,7,.33-.15.29-.12.3.08a55.31,55.31,0,0,1,29.28,22.21c.94,1.41,2.08,3.27,3.37,5.52,1.1,1.91,2.3,4.09,3.6,6.5,1.85,3.43,3.87,7.3,6,11.49l1.43,2.81q1.34,2.64,2.71,5.39c2.13,4.25,4.33,8.69,6.53,13.2,1.91,3.91,3.84,11.95,5.74,22.18,1.57,8.5,3.13,18.52,4.64,28.95,2,13.52-.13,29.71,1.66,42.15C784.92,545.5,785,546.27,785.15,547Z"/><circle class="cls-8" cx="656.95" cy="296.16" r="50.84"/><polygon class="cls-7" points="575.66 473.57 584.16 440.77 591.66 469.07 575.66 473.57"/><path class="cls-5" d="M801.77,452.2c-3,41.88.11,60.32-16.67,94.85a286.48,286.48,0,0,1-47.52,18.22q-2.55.72-5.11,1.4a288.36,288.36,0,0,1-65.84,9.49l-3.4.07-1.15,0-3.74,0a288.92,288.92,0,0,1-69.54-8.43q-3.42-.84-6.81-1.77a285.17,285.17,0,0,1-35-12q-9-3.75-17.68-8.09c-1.31-.66-2.62-1.32-3.91-2C518.8,532.29,515,518.11,515,501.07,519.54,471.71,791.63,426.88,801.77,452.2Z"/><path class="cls-7" d="M801.76,459.37c.16-2.59.33-5.27.53-8.06C792.15,426,520.06,470.82,515.47,500.18q0,4,.32,7.86C526.91,479.06,785.4,436.45,801.76,459.37Z"/><path class="cls-8" d="M508.18,454.18,530.52,443,511.9,392.76,507,367.42a19.15,19.15,0,0,0-31.28-10.91h0A19.15,19.15,0,0,0,473.23,383l18.2,22.76Z"/><path class="cls-4" d="M530.52,433.7l-29.78,14.89,22.6,70.81a31,31,0,0,0,22.33,20.72h0a31,31,0,0,0,33.74-14.2l59.92-102.71a31.62,31.62,0,0,0-10.19-43h0a31.63,31.63,0,0,0-43.63,9.8,30.91,30.91,0,0,0-1.67,3l-36.57,77.94Z"/><circle class="cls-9" cx="209.51" cy="287.55" r="55.94"/><path class="cls-5" d="M154.24,249c4.55-6.13,11.09-10.49,16.09-16.26,2.74-3.16,5-6.75,8.1-9.58,5.74-5.26,13.75-7.42,21.52-7.69a54.33,54.33,0,0,1,44.34,21l12.19-7.15,4.82,12.68a7.39,7.39,0,0,1,11.26,9.25c1-3,5.4-3.63,7.84-1.65s3.1,5.49,2.7,8.6A17.3,17.3,0,0,1,270,272.58c-5.31,1.18-11.48-.06-15.73,3.33-3.4,2.72-4.43,7.67-7.9,10.3-4.28,3.24-10.33,1.74-15.65,2.46-9.31,1.25-16.68,10.77-15.56,20.1-.84-2.94-1.73-6-3.64-8.36s-5.13-4-8.06-3.13c-4.85,1.45-5.64,8.06-4.46,13C202.15,323.31,214,344.4,214,344.4c-15.33,6.05-33.59.33-45.42-11.14s-18-27.72-20.67-44C145.6,275.5,145.92,260.23,154.24,249Z"/><path class="cls-5" d="M720.66,324.18c10.64-24.4,4.61-46.85-8.36-58.76h0c-5.1-11.43-11.88-20.25-19.64-22.32-3.75-2.41-7.39-5.24-11.43-6.68a14.91,14.91,0,0,0-11.68.53l-2.06-.55c-1.75-4.47-3.8-4.56-6.08-1.62-8.78-4.09-16.69-5.92-23.73-5.92-23,0-36.54,19.44-40.14,42.94l19.19,5.11,6.67-10.63-3.08,11.59,10.59,2.81c16.12,21-3.17,69.41-27.62,96.35q8.73-2.41,17.39-4.08l21-30.76-13,28c6.75-1,15.36,0,24.77,1.87,3.17-4.14,4.84-9.66,3.2-14.58A55.84,55.84,0,0,1,662.11,374c19.86,4.85,46.95,7.34,61.55,9.18C735.46,379.33,735.49,335.84,720.66,324.18Z"/><path class="cls-5" d="M727.59,241.19c7.79,17.45-7.94,25-22.35,24.75-13-.19-24.08-9.34-24.74-22.34a23.56,23.56,0,0,1,22.34-24.75h0C715.84,218.18,722.28,229.3,727.59,241.19Z"/><path class="cls-9" d="M366,525.31l-12.84-21.42,42.69-32.38,17.75-18.75a19.17,19.17,0,0,1,32.25,7.61h0a19.16,19.16,0,0,1-12.14,23.7l-27.59,9.42Z"/><path class="cls-4" d="M375.26,524.6l-20,16.66-5.39,4.49-.63.52q-2.08,1-4.2,2-6.33,3-12.82,5.73a285.17,285.17,0,0,1-35,12q-3.39.93-6.81,1.77c-1.39.34-2.79.68-4.19,1-.88.21-1.77.41-2.66.6-1.08.24-2.16.48-3.24.7l-3.39.69a31,31,0,0,1-9.62-22.44c0-.27,0-.55,0-.83l3.21-82.33L272,428.74A31.62,31.62,0,0,1,303.68,398c1,0,1.91.05,2.85.14.68.88,1.31,1.79,1.92,2.71,1.66,2.46,3.9,6.35,6.54,11.23,1.09,2,2.24,4.19,3.45,6.5.73,1.39,7,21,13.16,41.13l-2.7,21L324,518.44l20-13.14,14.1-9.26,1.67,2.79,4.35,7.26,8.4,14Z"/><path class="cls-5" d="M364.3,501.07c0,1.7-.05,3.37-.14,5a96.62,96.62,0,0,1-1.58,13.56,79,79,0,0,1-7.31,21.61c-.46.91-.95,1.81-1.45,2.69-1.29.68-2.6,1.34-3.91,2l-.66.32q-8.36,4.15-17,7.77a285.17,285.17,0,0,1-35,12q-3.39.93-6.81,1.77-6.68,1.65-13.48,3a289.78,289.78,0,0,1-56.06,5.44l-3.74,0-1.15,0-3.4-.07a288.36,288.36,0,0,1-65.84-9.49c-1.71-.45-3.41-.91-5.11-1.4a286.48,286.48,0,0,1-47.52-18.22c-16.78-34.53-13.63-53-16.67-94.85,6.24-15.59,111.81-4.58,193.09,13,22.06,4.78,42.32,10,58.33,15.41,16.54,5.53,28.53,11.15,33.23,16.43A8,8,0,0,1,364.3,501.07Z"/><path class="cls-7" d="M77.49,459.37c-.16-2.59-.33-5.27-.53-8.06C87.1,426,359.19,470.82,363.78,500.18q0,4-.32,7.86C352.34,479.06,93.85,436.45,77.49,459.37Z"/><path class="cls-4" d="M219.45,74.16l-1.12,8.16h-65l1.12-8.16Z"/><path class="cls-4" d="M249.13,97.6l4.32-.48-1,7.6-29,3.2,1-7.6,4.32-.48.8-29.68h9.28l-.72,28.64,1.44-.16,7-28.48H256ZM238.49,59.44l.64-4.24-2.4-3.12h15.68l-1,7.36h7.28l-1,7.6H229.05l1-7.6Zm28.72,17.92,3.2-23.12-1.84-2h16l-1.2,8.64h13.2l-1,7.44h-13.2l-1.28,9h12.88L289.61,108H253.13l4.32-30.64Zm11.6,23.36L281,85.2h-13.2l-2.16,15.52Z"/><path class="cls-4" d="M332.09,106.56l-33.92,2.88,1.12-7.44,9.12-.8,3-20.48h-9.12l1-7.6h31.92l-1,7.6h-7.6l-2.72,19.12,9.28-.88Zm10.16,2.88L336,67.84H302.57l1-7.6h31.28L334,53.92l-1.84-2.08h16.72l1.2,8.4H369l-1,7.6H351.21l4.88,32.64h5.68l3.52-3-1.76,12Zm10.32-51.52-.64-6.08h15.2l.64,6.08Z"/><path class="cls-6" d="M495.4,169.84l4-4.26,1.08-7.74h-3.42l-1.5,10.86h-8l1.5-10.86h-2.28l-1.5,10.86h-8l1.5-10.86h-3.42l-1.68,12H463.48l2.22-16h15.9l.48-1.14h-16.2l.54-4H512l-.54,4H493.54l-.54,1.14h18.3l-1.68,11.88a4.62,4.62,0,0,1-1.56,2.91,4.47,4.47,0,0,1-3.06,1.17Zm10.74-31.92H495.28L494,147.64h-9.12l1.32-9.72H475.3l-1.14,8H465.7l1.68-12h19.38l.12-1.08H468.7l.54-4h45.6l-.54,4H496l-.12,1.08h19.38l-1.68,12H505Zm-21.9,5.7-.48,3.42h-8.58l.48-3.42Zm.66-4.56-.48,3.42h-8.58l.48-3.42Zm19.26,4.56-.48,3.42h-8.52l.48-3.42Zm.66-4.56-.48,3.42h-8.52l.48-3.42Z"/><path class="cls-6" d="M517.6,168.7l8-16.56H537l-8,16.56Zm14.46,2.16,5.4-5.58,3.6-26.22H522.88l.78-5.7H541.9l.48-3.48-1.92-2.22h13.68l-.84,5.7h18.24l-.78,5.7H552.52l-3.9,27.84a4.72,4.72,0,0,1-4.68,4Zm-6.24-20.4-2-9.72h11.4l2,9.72ZM557.5,168.7l-4.56-16.56h11.4l4.56,16.56Zm-4.32-18.24,4.8-9.66h11.4l-4.8,9.66ZM558,132.22l-1.62-4.56h11.4l1.62,4.56Z"/><path class="cls-6" d="M617.8,149.32l-1.26,9.12H588l-.24,1.68h29.7l-1.56,10.74h-41l3.06-21.54h-4.56l1.26-9.12h18.48l-.24-1.62H606.1l.24,1.62h18.42l-1.26,9.12Zm-28-19.38h11.28l-.6,4.56h-4.68l1.92,3.42h-9.12l-1.68-3-1.74,3H575l5-8.7-1.32-1.56h12.54ZM585,147.58h27.36l.24-1.68H585.22Zm2.1,17.1-.24,1.74h18.3l.24-1.74Zm1.8-12.54-.24,1.74h17.1l.24-1.74Zm25-22.2H626.2l-.6,4.56h-5.76l1.86,3.42h-9.12l-1.68-3-1.74,3H598.9l5-8.7-1.32-1.56h12.54Z"/><path class="cls-6" d="M634.72,144.28l1.44-10.2h-2.88l.72-5.34h15.84l-.72,5.34h-3.48l-1.44,10.2h3.66l-.9,6.06h-3.6l-1.56,11.34,3.48-.66-.78,5.82-16.56,2.94.78-5.7,3.3-.6,1.86-13.14h-3.12l.9-6.06ZM658.18,155l.48-3.48h-10l3.18-22.74H682l-3.18,22.74h-11L667.3,155h10.92l-.84,5.7H666.52l-.48,3.42h12.18l-.78,5.7H644.86l.78-5.7h11.28l.48-3.42H647.26l.84-5.7Zm1.26-8.94.48-3.24h-3.36l-.42,3.24Zm-2.16-8.64h3.42l.42-3.24h-3.36ZM672,146l.42-3.24H669l-.48,3.24Zm-1.74-11.88-.42,3.24h3.3l.48-3.24Z"/></svg>