<svg xmlns="http://www.w3.org/2000/svg" viewBox="0 0 942.55 631.44"><defs><style>.cls-1{fill:#2f2e41;}.cls-2{fill:#ffb8b8;}.cls-3{fill:#3f3d56;}.cls-4{fill:#00ab55;}.cls-5{fill:#e6e6e6;}.cls-6{fill:#ccc;}.cls-7{fill:#fff;}.cls-8{fill:#f2f2f2;}.cls-9{fill:none;stroke:#3f3d56;stroke-miterlimit:10;stroke-width:2px;}</style></defs><g id="图层_1" data-name="图层 1"><path class="cls-1" d="M750.86,279.44l2.8-22.43a30.28,30.28,0,1,1,60.1,7.5L811,286.94a4.06,4.06,0,0,1-4.54,3.53l-52-6.49A4.08,4.08,0,0,1,750.86,279.44Z"/><circle class="cls-2" cx="775.79" cy="263.93" r="22.2"/><path class="cls-1" d="M746.33,257.92a24,24,0,0,1,26.74-20.81l4.48.56a24,24,0,0,1,20.81,26.74l-.06.45-9.48-1.18-2.1-9.46-1.78,9-4.9-.61L779,257.81l-.89,4.53-31.82-4Z"/><path class="cls-2" d="M667.19,343.13A10.23,10.23,0,0,0,681,347.6a10.44,10.44,0,0,0,1.52-1l20.17,11.81L712.81,348,684.1,331.67a10.29,10.29,0,0,0-16.91,11.46Z"/><path class="cls-3" d="M733.29,364.36c-14.88,0-41.06-6.66-42.51-7l-.45-.12,4.12-20.86,40,7.9,21.72-30.59,24.94-2.53-.7.91c-.32.43-32.47,42.75-37.47,49.84C741.66,363.68,738.05,364.36,733.29,364.36Z"/><path class="cls-3" d="M737.27,442.65l-.59-.29c-.13-.06-12.77-6.21-19.31-18.21s24-62.61,26.11-66.12l0-16.09,11-29.63,14-7.9-12,28Z"/><polygon class="cls-2" points="723.26 615.59 709.88 615.59 703.52 564.01 723.26 564.01 723.26 615.59"/><path class="cls-1" d="M726.67,628.55H683.55V628a16.79,16.79,0,0,1,16.78-16.79h26.34Z"/><polygon class="cls-2" points="866.89 603.87 854.18 608.03 832.08 561 850.83 554.86 866.89 603.87"/><path class="cls-1" d="M874.17,615.13l-41,13.42L833,628a16.79,16.79,0,0,1,10.73-21.17h0l25-8.2Z"/><path class="cls-1" d="M841,595.44,802.88,531.8l-32.18-68-29,60.06-11.5,77.78-40.35.56.16-.63,61.74-245.31,48.35,7.23-2.2,31.91,1.31,1.87c10.93,15.51,22.22,31.56,15.74,48.85l18.36,54.52L874,591.44Z"/><path class="cls-4" d="M754,409.44c-7,0-15-8-10.85-21.66l-.27-.19,10-44c-8.69-12.43,2.77-22.69,3.84-23.61l5.47-9.85,24.14-15.3L798.5,396.29l-.18.17C789.5,404.9,759.88,409.44,754,409.44Z"/><path class="cls-3" d="M803.43,432.34a11.91,11.91,0,0,1-2.85-.31c-.94-.23-2.46-1.43-4.81-9.07-9.33-30.4-20.35-121.86-12.35-130.81l.19-.21,13.15,2.19c1.09-.8,6.82-4.81,12.12-4.11a8,8,0,0,1,5.49,3.25l.09.12L818.65,353,834,423.11l-.37.17C832.74,423.69,813.58,432.34,803.43,432.34Z"/><path class="cls-2" d="M794.59,409a10.21,10.21,0,0,0,9.88-10.56,9.84,9.84,0,0,0-.22-1.79l19.25-13.26-5.2-13.66-26.92,19.11A10.28,10.28,0,0,0,794.59,409Z"/><path class="cls-3" d="M817.15,394.06,800,381.48l24.1-32.86L805.61,316l8.27-23.66.54,1c.25.47,25,47.53,29.26,55.07,4.48,7.84-25,43.76-26.23,45.28Z"/><path class="cls-5" d="M431.48,542l-14.59-6.14-10-73.15H273.57l-10.85,72.85-13.05,6.53a3.1,3.1,0,0,0,1.38,5.87H430.28a3.1,3.1,0,0,0,1.2-6Z"/><path class="cls-6" d="M668.37,472.41H13.54a13,13,0,0,1-12.94-13V367.1H681.32v92.34A13,13,0,0,1,668.37,472.41Z"/><path class="cls-3" d="M682,410.74H0V15.64A15.66,15.66,0,0,1,15.64,0H666.36A15.66,15.66,0,0,1,682,15.64Z"/><path class="cls-7" d="M641.27,382.06H40.73a12.06,12.06,0,0,1-12-12.05V40.73a12.06,12.06,0,0,1,12-12H641.27a12.06,12.06,0,0,1,12.05,12V370A12.06,12.06,0,0,1,641.27,382.06Z"/><path class="cls-6" d="M509.42,548.69H172a1.57,1.57,0,0,1-1.54-1.13,1.53,1.53,0,0,1,1.09-1.87,1.74,1.74,0,0,1,.39-.05H509.29a1.61,1.61,0,0,1,1.62,1.2,1.53,1.53,0,0,1-1.16,1.82Z"/><rect class="cls-8" x="489.86" y="81.91" width="145" height="110.77"/><rect class="cls-7" x="497.06" y="87.41" width="130.59" height="99.76"/><path class="cls-3" d="M564.65,161.41h.05a34.82,34.82,0,0,0,.78-69.49.82.82,0,0,0-.6.21.84.84,0,0,0-.26.58l-.76,67.9a.79.79,0,0,0,.79.8Z"/><path class="cls-5" d="M537.35,103.15a1.08,1.08,0,0,1,.72.31l23.37,23.91a1,1,0,0,1,.29.72l-.36,32.49a1,1,0,0,1-.33.74,1,1,0,0,1-.77.27,35,35,0,0,1-23.7-58.09,1,1,0,0,1,.74-.35Z"/><path class="cls-4" d="M561.12,91.65a1,1,0,0,1,.7.28,1.06,1.06,0,0,1,.31.75L561.8,122a1,1,0,0,1-1,1,1.08,1.08,0,0,1-.72-.31l-20.4-20.86a1,1,0,0,1,0-1.45l0,0a35.07,35.07,0,0,1,21.34-8.71Z"/><path class="cls-4" d="M550.61,175.49a6.26,6.26,0,1,1-6.19-6.32h0A6.26,6.26,0,0,1,550.61,175.49Z"/><path class="cls-3" d="M568.47,175.7a6.25,6.25,0,1,1-6.18-6.33h0A6.25,6.25,0,0,1,568.47,175.7Z"/><path class="cls-5" d="M586.34,175.9a6.26,6.26,0,1,1-6.18-6.33h0A6.26,6.26,0,0,1,586.34,175.9Z"/><rect class="cls-8" x="488.33" y="210.12" width="145" height="110.77"/><rect class="cls-7" x="495.54" y="215.62" width="130.59" height="99.76"/><circle class="cls-3" cx="517.69" cy="242.99" r="5.42"/><path class="cls-3" d="M604.81,238.77a3.68,3.68,0,1,1,0,7.35h-57a3.68,3.68,0,1,1,0-7.35h57m0-.9h-57a4.58,4.58,0,1,0,0,9.15h57a4.58,4.58,0,0,0,0-9.15Z"/><path class="cls-4" d="M582.31,247H539.38a4.58,4.58,0,0,1,0-9.15h42.94a4.58,4.58,0,0,1,0,9.15Z"/><circle class="cls-3" cx="517.69" cy="265.5" r="5.42"/><path class="cls-3" d="M604.81,261.28a3.68,3.68,0,0,1,0,7.36h-57a3.68,3.68,0,1,1,0-7.36h57m0-.9h-57a4.58,4.58,0,1,0,0,9.16h57a4.58,4.58,0,1,0,0-9.16Z"/><path class="cls-4" d="M598.52,269.54H539.38a4.58,4.58,0,0,1,0-9.16h59.15a4.58,4.58,0,0,1,0,9.16Z"/><circle class="cls-3" cx="517.69" cy="288.02" r="5.42"/><path class="cls-3" d="M604.81,283.8a3.68,3.68,0,1,1,0,7.35h-57a3.68,3.68,0,1,1,0-7.35h57m0-.9h-57a4.58,4.58,0,1,0,0,9.15h57a4.58,4.58,0,1,0,0-9.15Z"/><path class="cls-4" d="M563.4,292.05h-24a4.58,4.58,0,0,1,0-9.15h24a4.58,4.58,0,0,1,0,9.15Z"/><rect class="cls-8" x="51.19" y="101.51" width="405.09" height="207.61"/><rect class="cls-7" x="64.69" y="111.82" width="378.09" height="186.98"/><path class="cls-3" d="M395.89,270.28H120.27a.86.86,0,0,1-.86-.87V137.31a.86.86,0,1,1,1.72,0h0V268.55H395.89a.87.87,0,0,1,0,1.73Z"/><path class="cls-4" d="M179.16,260.79H154.09a2.56,2.56,0,0,1-2.56-2.56V223.67a2.56,2.56,0,0,1,2.56-2.56h25.07a2.56,2.56,0,0,1,2.56,2.56v34.56A2.56,2.56,0,0,1,179.16,260.79Z"/><path class="cls-4" d="M224.87,261.57H199.8c-1.41,0-2.55-.72-2.56-1.61V217.58c0-.89,1.15-1.61,2.56-1.61h25.07c1.42,0,2.56.72,2.56,1.61V260C227.43,260.85,226.29,261.57,224.87,261.57Z"/><path class="cls-4" d="M316.3,260.2H291.24c-1.42,0-2.56-.54-2.56-1.21V242.8c0-.67,1.14-1.2,2.56-1.2H316.3c1.42,0,2.56.53,2.56,1.2V259C318.86,259.66,317.72,260.19,316.3,260.2Z"/><path class="cls-4" d="M362,259.42H337c-1.38,0-2.52-.3-2.56-.7V235.53c0-.4,1.18-.72,2.56-.71H362c1.38,0,2.53.31,2.56.71v23.19C364.55,259.12,363.4,259.43,362,259.42Z"/><path class="cls-4" d="M270.59,261.41H245.52a2.73,2.73,0,0,1-2.56-2.87V142.28a2.73,2.73,0,0,1,2.56-2.87h25.07a2.73,2.73,0,0,1,2.56,2.87V258.54A2.73,2.73,0,0,1,270.59,261.41Z"/><circle class="cls-3" cx="166.62" cy="205.58" r="5.18"/><circle class="cls-3" cx="212.34" cy="198.54" r="5.18"/><circle class="cls-3" cx="258.08" cy="126.67" r="5.18"/><circle class="cls-3" cx="303.77" cy="226.29" r="5.18"/><circle class="cls-3" cx="349.49" cy="210.76" r="5.18"/><line class="cls-9" x1="166.62" y1="205.58" x2="213.18" y2="198.43"/><line class="cls-9" x1="258.05" y1="126.67" x2="213.18" y2="198.43"/><line class="cls-9" x1="303.77" y1="226.29" x2="258.05" y2="126.67"/><line class="cls-9" x1="349.49" y1="210.76" x2="303.77" y2="226.29"/><path class="cls-6" d="M941.55,631.44h-381a1,1,0,0,1,0-2h381a1,1,0,0,1,0,2Z"/></g><g id="图层_2" data-name="图层 2"><path d="M755.92,72.61l15,23.6H760.16l-.32,2.24h-15.2l-1,6.8H760.4l-1,7.6H742.64l-1.2,8.4h24.32l-1,7.6H700.88l1-7.6h24.32l1.2-8.4H710.72l1-7.6h16.72l1-6.8h-15.2l.32-2.24H704l19.52-21.36-1.84-2.24ZM724.08,90.85h28.24L745.6,80.21H733.84Z"/><path d="M796.48,127.09l-23,1.52,1.12-7.6,23-1.52ZM778.8,90.61l10.32-15.84-1.76-2h16.72l-11.6,17.84h9.12l-11.68,18.24H799l-1.12,7.76h-22.8l1.12-7.76,7.12-10.64h-5.6Zm39.92-14.24h.08l-.56,3.84h7.6l.64-4.72-2.72-2.8h15.12l-1,7.52h7.68l-1,7.6h-7.76l-.8,6.08h6.16l-1,7.6H834.8l-.8,5.84h6.32L839.2,115H833l-.88,5.92h7.84l-1.12,7.84H811.44l-.16,1.28H799l6.24-44.56-3,.8,1.28-9.12,15.84-4.4Zm-6.16,44.56h7.52l.8-5.92h-7.52Zm1.92-13.6H822l.8-5.84h-7.52Zm1.84-13.44h7.6l.8-6.08H817.2Z"/><path d="M883,77.17l.24-1.52-2.57-3h18.25l-.64,4.56h21.28l-1.12,7.6h-49l-9,45.44H846.63l10-50.16-2.47-2.88Zm-4.4,44-11.28-7.52.16-1.52,1-6.8H914l-1.12,8.32-13.52,7.52,14.16,9H892.24l-4.16-2.72-5,2.72H861.83ZM915.2,86.29l-.32,2.24h3L917,94.61h-3l-1.21,8.4H870.24l1.2-8.4h-3l.88-6.08h3l.31-2.24h15.2l-.31,2.24h12.15l.33-2.24Zm-30,25.84,4.63,3,5.45-3Zm13.28-15.2.31-2.32H886.63l-.31,2.32Z"/><path class="cls-4" d="M745.22,157.75,739.28,167l16.92,34H744.8l-11.88-24.12L717.44,201H706l26.76-41.7-1.26-1.5Z"/><path class="cls-4" d="M793.16,184l-.66,4.62,16,12.36H792.32l-7.08-5.4-8.52,5.4H760.58L780,188.59l.66-4.62Zm17.64-8-2.34,16.56h-6.54l-4.38-3.42,1.08-7.44h-22.8l-1.08,7.44-5.34,3.42h-6.54L765.2,176Zm-42.36-14.88-1.92-2.22h45.54l-2,14.82H766.7Zm31,6.9.48-3.42H779.36l-.48,3.42Z"/><path class="cls-4" d="M815.66,200.83l3.66-26h-2.88l.78-5.7h13l-3.36,23.94,4.2-.84L830.3,198Zm13.44-41.94,1.62,8h-8.88l-1.62-8Zm38.22,0-.78,5.7H856l-2.22,15.54h12L865,186H853l-2.1,14.88H840l2.1-14.88H830.48l.78-5.82h11.58l2.22-15.54H834.92l.78-5.7ZM842,177.43h-7.56l-.3-10.08h7.62Zm16.08-10.08h7.8l-2.46,10.08h-7.74Z"/><path class="cls-4" d="M887.24,165.13l-5,35.76h-11L876,167.11l-3.06.54,1-7.26,14.34-2.52Zm-2.4,35.7,7.32-25.92h10.26l-7.32,25.92Zm26.88-28L907,162.61h-1.26l-7.2,10.2h-10.8l10.44-14-1-1h17l7.92,15Zm5.58,2-3.66,26H903.5l3.66-26Z"/></g></svg>