<?xml version="1.0" encoding="utf-8"?>
<!-- Generator: Adobe Illustrator 25.3.1, SVG Export Plug-In . SVG Version: 6.00 Build 0)  -->
<svg version="1.1" id="图层_1" xmlns="http://www.w3.org/2000/svg" xmlns:xlink="http://www.w3.org/1999/xlink" x="0px" y="0px"
	 viewBox="0 0 823.6 550.7" style="enable-background:new 0 0 823.6 550.7;" xml:space="preserve">
<style type="text/css">
	.st0{fill:#F2F2F2;}
	.st1{fill:#E6E6E6;}
	.st2{fill:#CCCCCC;}
	.st3{fill:#3F3D56;}
	.st4{fill:#FFFFFF;}
	.st5{fill:#CACACA;}
	.st6{fill:#A0616A;}
	.st7{fill:#2F2E41;}
	.st8{fill:#00AB55;}
	.st9{fill:none;stroke:#00AB55;stroke-width:2;stroke-miterlimit:10;}
</style>
<path class="st0" d="M706.8,507.3l0.8-17.6c8.2-4.3,17.3-6.6,26.5-6.7c-12.7,10.4-11.1,30.4-19.7,44.4c-5.5,8.8-14.7,14.6-25,15.8
	l-10.6,6.5c-3-16.5,1.4-33.5,12.1-46.4c3-3.6,6.4-6.7,10.2-9.4C702.7,498.5,704.6,503,706.8,507.3z"/>
<path class="st0" d="M168.8,488.1l-25.7-7.8c-3.4-13.7-3.3-27.9,0.1-41.6c10.6,22.7,40.8,27.9,58.2,45.9
	c10.9,11.5,16,27.2,13.9,42.9l5.6,18.2c-25.5-1.8-48.9-14.7-64-35.3c-4.1-5.8-7.5-12-10.1-18.6C157.7,490.6,168.8,488.1,168.8,488.1
	z"/>
<path class="st1" d="M617.8,546.9c0,1.1-0.9,2-2,2h-8c-1.1,0-2-0.9-2-2V303.7c0-5.4-1.8-9.7-4-9.7H101.3c-2.2,0-4,4.4-4,9.7v241.7
	c0,1-0.8,1.9-1.8,2c-1.6,0.2-3.2,0.3-4.8,0.4h-0.1L88,548l0,0c-0.5-0.8-0.9-1.7-1.3-2.5c-0.1-0.3-0.2-0.6-0.2-0.9V291.1
	c0-1.5,0.1-3,0.2-4.4c0.1-2,0.4-4,0.8-6c1.7-9.3,5.5-15.6,9.8-15.6h509c0.6,0,1.2,0.1,1.8,0.4c0.9,0.4,1.6,0.9,2.3,1.6
	c0.9,0.9,1.6,1.9,2.2,3c2.1,3.8,3.7,9.4,4.2,15.9v0.2c0.1,1.6,0.2,3.3,0.2,4.9l0.1,21.4l0.1,12.8l0.3,40.1l0.1,14.2L617.8,546.9z"/>
<path class="st2" d="M432,190.9h-51c-1.5,0-2.7,1.2-2.7,2.7c0,0,0,0,0,0l0,0v80.6h56.5v-80.6C434.7,192.1,433.5,191,432,190.9z
	 M406.7,236.7c-3.3,0-6-2.7-6-6v-9.3c0-3.3,2.7-6,6-6s6,2.7,6,6v9.3C412.7,234,410,236.7,406.7,236.7z"/>
<path class="st3" d="M378.1,271.7v7.8c0,0.8,0.7,1.5,1.5,1.5h53.8c0.8,0,1.5-0.7,1.5-1.5v-7.8H378.1z"/>
<path class="st1" d="M516.5,65.2h-218c-3.9,0-7.1,3.2-7.1,7.1v147.1c0,3.9,3.2,7.1,7.1,7.1h218c3.9,0,7-3.1,7.1-7l0,0V72.3
	C523.6,68.4,520.4,65.2,516.5,65.2z"/>
<path class="st4" d="M514.7,70.3H300.3c-2.1,0-3.8,1.7-3.8,3.8v143.5c0,2.1,1.7,3.8,3.8,3.8h214.4c2.1,0,3.8-1.7,3.8-3.8l0,0V74.1
	C518.5,72,516.8,70.3,514.7,70.3z"/>
<path class="st2" d="M472.9,283.7H345.4c-1.3,0-2.4-1.1-2.4-2.4l0,0v-0.5l2-9.4c0.2-1.1,1.2-1.9,2.3-1.9h123.6
	c1.1,0,2.1,0.8,2.3,1.9l2,9.4c0.3,1.2-0.5,2.5-1.7,2.8c0,0-0.1,0-0.1,0C473.3,283.7,473.1,283.7,472.9,283.7z"/>
<path class="st1" d="M348.7,271.3h3c0.3,0,0.5,0.2,0.5,0.4c0,0,0,0,0,0.1v1.4c0,0.3-0.2,0.5-0.4,0.5c0,0,0,0-0.1,0h-3
	c-0.3,0-0.5-0.2-0.5-0.4c0,0,0,0,0-0.1v-1.4C348.3,271.5,348.5,271.3,348.7,271.3z"/>
<path class="st1" d="M356.6,271.3h3c0.3,0,0.5,0.2,0.5,0.4c0,0,0,0,0,0.1v1.4c0,0.3-0.2,0.5-0.4,0.5c0,0,0,0-0.1,0h-3
	c-0.3,0-0.5-0.2-0.5-0.4c0,0,0,0,0-0.1v-1.4C356.1,271.6,356.3,271.3,356.6,271.3C356.6,271.3,356.6,271.3,356.6,271.3z"/>
<path class="st1" d="M364.5,271.3h3c0.3,0,0.5,0.2,0.5,0.4c0,0,0,0,0,0.1v1.4c0,0.3-0.2,0.5-0.4,0.5c0,0,0,0-0.1,0h-3
	c-0.3,0-0.5-0.2-0.5-0.4c0,0,0,0,0-0.1v-1.4C364,271.6,364.2,271.3,364.5,271.3C364.5,271.3,364.5,271.3,364.5,271.3z"/>
<path class="st1" d="M372.3,271.3h3c0.3,0,0.5,0.2,0.5,0.4c0,0,0,0,0,0.1v1.4c0,0.3-0.2,0.5-0.4,0.5c0,0,0,0-0.1,0h-3
	c-0.3,0-0.5-0.2-0.5-0.4c0,0,0,0,0-0.1v-1.4C371.8,271.6,372,271.3,372.3,271.3C372.3,271.3,372.3,271.3,372.3,271.3z"/>
<path class="st1" d="M380.2,271.3h3c0.3,0,0.5,0.2,0.5,0.4c0,0,0,0,0,0.1v1.4c0,0.3-0.2,0.5-0.4,0.5c0,0,0,0-0.1,0h-3
	c-0.3,0-0.5-0.2-0.5-0.4c0,0,0,0,0-0.1v-1.4C379.7,271.6,379.9,271.3,380.2,271.3C380.2,271.3,380.2,271.3,380.2,271.3z"/>
<path class="st1" d="M388,271.3h3c0.3,0,0.5,0.2,0.5,0.4c0,0,0,0,0,0.1v1.4c0,0.3-0.2,0.5-0.4,0.5c0,0,0,0-0.1,0h-3
	c-0.3,0-0.5-0.2-0.5-0.4c0,0,0,0,0-0.1v-1.4C387.5,271.6,387.7,271.3,388,271.3z"/>
<path class="st1" d="M395.9,271.3h3c0.3,0,0.5,0.2,0.5,0.4c0,0,0,0,0,0.1v1.4c0,0.3-0.2,0.5-0.4,0.5c0,0,0,0-0.1,0h-3
	c-0.3,0-0.5-0.2-0.5-0.4c0,0,0,0,0-0.1v-1.4C395.4,271.6,395.6,271.3,395.9,271.3C395.9,271.3,395.9,271.3,395.9,271.3z"/>
<path class="st1" d="M403.7,271.3h3c0.3,0,0.5,0.2,0.5,0.4c0,0,0,0,0,0.1v1.4c0,0.3-0.2,0.5-0.4,0.5c0,0,0,0-0.1,0h-3
	c-0.3,0-0.5-0.2-0.5-0.4c0,0,0,0,0-0.1v-1.4C403.3,271.5,403.5,271.3,403.7,271.3z"/>
<path class="st1" d="M411.6,271.3h3c0.3,0,0.5,0.2,0.5,0.4c0,0,0,0,0,0.1v1.4c0,0.3-0.2,0.5-0.4,0.5c0,0,0,0-0.1,0h-3
	c-0.3,0-0.5-0.2-0.5-0.4c0,0,0,0,0-0.1v-1.4C411.1,271.6,411.3,271.3,411.6,271.3C411.6,271.3,411.6,271.3,411.6,271.3z"/>
<path class="st1" d="M419.5,271.3h3c0.3,0,0.5,0.2,0.5,0.4c0,0,0,0,0,0.1v1.4c0,0.3-0.2,0.5-0.4,0.5c0,0,0,0-0.1,0h-3
	c-0.3,0-0.5-0.2-0.5-0.4c0,0,0,0,0-0.1v-1.4C419,271.6,419.2,271.3,419.5,271.3C419.5,271.3,419.5,271.3,419.5,271.3z"/>
<path class="st1" d="M427.3,271.3h3c0.3,0,0.5,0.2,0.5,0.4c0,0,0,0,0,0.1v1.4c0,0.3-0.2,0.5-0.4,0.5c0,0,0,0-0.1,0h-3
	c-0.3,0-0.5-0.2-0.5-0.4c0,0,0,0,0-0.1v-1.4C426.8,271.6,427,271.3,427.3,271.3C427.3,271.3,427.3,271.3,427.3,271.3z"/>
<path class="st1" d="M435.2,271.3h3c0.3,0,0.5,0.2,0.5,0.4c0,0,0,0,0,0.1v1.4c0,0.3-0.2,0.5-0.4,0.5c0,0,0,0-0.1,0h-3
	c-0.3,0-0.5-0.2-0.5-0.4c0,0,0,0,0-0.1v-1.4C434.7,271.6,434.9,271.3,435.2,271.3C435.2,271.3,435.2,271.3,435.2,271.3z"/>
<path class="st1" d="M443,271.3h3c0.3,0,0.5,0.2,0.5,0.4c0,0,0,0,0,0.1v1.4c0,0.3-0.2,0.5-0.4,0.5c0,0,0,0-0.1,0h-3
	c-0.3,0-0.5-0.2-0.5-0.4c0,0,0,0,0-0.1v-1.4C442.5,271.6,442.7,271.3,443,271.3z"/>
<path class="st1" d="M450.9,271.3h3c0.3,0,0.5,0.2,0.5,0.4c0,0,0,0,0,0.1v1.4c0,0.3-0.2,0.5-0.4,0.5c0,0,0,0-0.1,0h-3
	c-0.3,0-0.5-0.2-0.5-0.4c0,0,0,0,0-0.1v-1.4C450.4,271.6,450.6,271.3,450.9,271.3C450.9,271.3,450.9,271.3,450.9,271.3z"/>
<path class="st1" d="M458.7,271.3h3c0.3,0,0.5,0.2,0.5,0.4c0,0,0,0,0,0.1v1.4c0,0.3-0.2,0.5-0.4,0.5c0,0,0,0-0.1,0h-3
	c-0.3,0-0.5-0.2-0.5-0.4c0,0,0,0,0-0.1v-1.4C458.3,271.5,458.5,271.3,458.7,271.3z"/>
<path class="st1" d="M466.6,271.3h3c0.3,0,0.5,0.2,0.5,0.4c0,0,0,0,0,0.1v1.4c0,0.3-0.2,0.5-0.4,0.5c0,0,0,0-0.1,0h-3
	c-0.3,0-0.5-0.2-0.5-0.4c0,0,0,0,0-0.1v-1.4C466.1,271.6,466.3,271.3,466.6,271.3C466.6,271.3,466.6,271.3,466.6,271.3z"/>
<path class="st1" d="M348.7,275.2h3c0.3,0,0.5,0.2,0.5,0.4c0,0,0,0,0,0.1v1.4c0,0.3-0.2,0.5-0.4,0.5c0,0,0,0-0.1,0h-3
	c-0.3,0-0.5-0.2-0.5-0.4c0,0,0,0,0-0.1v-1.4C348.2,275.5,348.4,275.2,348.7,275.2C348.7,275.2,348.7,275.2,348.7,275.2z"/>
<path class="st1" d="M356.5,275.2h3c0.3,0,0.5,0.2,0.5,0.4c0,0,0,0,0,0.1v1.4c0,0.3-0.2,0.5-0.4,0.5c0,0,0,0-0.1,0h-3
	c-0.3,0-0.5-0.2-0.5-0.4c0,0,0,0,0-0.1v-1.4C356,275.5,356.2,275.2,356.5,275.2C356.5,275.2,356.5,275.2,356.5,275.2z"/>
<path class="st1" d="M364.4,275.2h3c0.3,0,0.5,0.2,0.5,0.4c0,0,0,0,0,0.1v1.4c0,0.3-0.2,0.5-0.4,0.5c0,0,0,0-0.1,0h-3
	c-0.3,0-0.5-0.2-0.5-0.4c0,0,0,0,0-0.1v-1.4C363.9,275.5,364.1,275.2,364.4,275.2C364.4,275.2,364.4,275.2,364.4,275.2z"/>
<path class="st1" d="M372.2,275.2h3c0.3,0,0.5,0.2,0.5,0.4c0,0,0,0,0,0.1v1.4c0,0.3-0.2,0.5-0.4,0.5c0,0,0,0-0.1,0h-3
	c-0.3,0-0.5-0.2-0.5-0.4c0,0,0,0,0-0.1v-1.4C371.7,275.5,371.9,275.2,372.2,275.2z"/>
<path class="st1" d="M380.1,275.2h3c0.3,0,0.5,0.2,0.5,0.4c0,0,0,0,0,0.1v1.4c0,0.3-0.2,0.5-0.4,0.5c0,0,0,0-0.1,0h-3
	c-0.3,0-0.5-0.2-0.5-0.4c0,0,0,0,0-0.1v-1.4C379.6,275.5,379.8,275.2,380.1,275.2C380.1,275.2,380.1,275.2,380.1,275.2z"/>
<path class="st1" d="M387.9,275.2h3c0.3,0,0.5,0.2,0.5,0.4c0,0,0,0,0,0.1v1.4c0,0.3-0.2,0.5-0.4,0.5c0,0,0,0-0.1,0h-3
	c-0.3,0-0.5-0.2-0.5-0.4c0,0,0,0,0-0.1v-1.4C387.4,275.5,387.6,275.2,387.9,275.2z"/>
<path class="st1" d="M395.8,275.2h3c0.3,0,0.5,0.2,0.5,0.4c0,0,0,0,0,0.1v1.4c0,0.3-0.2,0.5-0.4,0.5c0,0,0,0-0.1,0h-3
	c-0.3,0-0.5-0.2-0.5-0.4c0,0,0,0,0-0.1v-1.4C395.3,275.5,395.5,275.2,395.8,275.2C395.8,275.2,395.8,275.2,395.8,275.2z"/>
<path class="st1" d="M403.7,275.2h3c0.3,0,0.5,0.2,0.5,0.4c0,0,0,0,0,0.1v1.4c0,0.3-0.2,0.5-0.4,0.5c0,0,0,0-0.1,0h-3
	c-0.3,0-0.5-0.2-0.5-0.4c0,0,0,0,0-0.1v-1.4C403.2,275.5,403.4,275.2,403.7,275.2C403.7,275.2,403.7,275.2,403.7,275.2z"/>
<path class="st1" d="M411.5,275.2h3c0.3,0,0.5,0.2,0.5,0.4c0,0,0,0,0,0.1v1.4c0,0.3-0.2,0.5-0.4,0.5c0,0,0,0-0.1,0h-3
	c-0.3,0-0.5-0.2-0.5-0.4c0,0,0,0,0-0.1v-1.4C411,275.5,411.2,275.2,411.5,275.2C411.5,275.2,411.5,275.2,411.5,275.2z"/>
<path class="st1" d="M419.4,275.2h3c0.3,0,0.5,0.2,0.5,0.4c0,0,0,0,0,0.1v1.4c0,0.3-0.2,0.5-0.4,0.5c0,0,0,0-0.1,0h-3
	c-0.3,0-0.5-0.2-0.5-0.4c0,0,0,0,0-0.1v-1.4C418.9,275.5,419.1,275.2,419.4,275.2C419.4,275.2,419.4,275.2,419.4,275.2z"/>
<path class="st1" d="M427.2,275.2h3c0.3,0,0.5,0.2,0.5,0.4c0,0,0,0,0,0.1v1.4c0,0.3-0.2,0.5-0.4,0.5c0,0,0,0-0.1,0h-3
	c-0.3,0-0.5-0.2-0.5-0.4c0,0,0,0,0-0.1v-1.4C426.7,275.5,426.9,275.2,427.2,275.2z"/>
<path class="st1" d="M435.1,275.2h3c0.3,0,0.5,0.2,0.5,0.4c0,0,0,0,0,0.1v1.4c0,0.3-0.2,0.5-0.4,0.5c0,0,0,0-0.1,0h-3
	c-0.3,0-0.5-0.2-0.5-0.4c0,0,0,0,0-0.1v-1.4C434.6,275.5,434.8,275.2,435.1,275.2C435.1,275.2,435.1,275.2,435.1,275.2z"/>
<path class="st1" d="M442.9,275.2h3c0.3,0,0.5,0.2,0.5,0.4c0,0,0,0,0,0.1v1.4c0,0.3-0.2,0.5-0.4,0.5c0,0,0,0-0.1,0h-3
	c-0.3,0-0.5-0.2-0.5-0.4c0,0,0,0,0-0.1v-1.4C442.4,275.5,442.6,275.2,442.9,275.2z"/>
<path class="st1" d="M450.8,275.2h3c0.3,0,0.5,0.2,0.5,0.4c0,0,0,0,0,0.1v1.4c0,0.3-0.2,0.5-0.4,0.5c0,0,0,0-0.1,0h-3
	c-0.3,0-0.5-0.2-0.5-0.4c0,0,0,0,0-0.1v-1.4C450.3,275.5,450.5,275.2,450.8,275.2C450.8,275.2,450.8,275.2,450.8,275.2z"/>
<path class="st1" d="M458.6,275.2h3c0.3,0,0.5,0.2,0.5,0.4c0,0,0,0,0,0.1v1.4c0,0.3-0.2,0.5-0.4,0.5c0,0,0,0-0.1,0h-3
	c-0.3,0-0.5-0.2-0.5-0.4c0,0,0,0,0-0.1v-1.4C458.2,275.4,458.4,275.2,458.6,275.2z"/>
<path class="st1" d="M466.5,275.2h3c0.3,0,0.5,0.2,0.5,0.4c0,0,0,0,0,0.1v1.4c0,0.3-0.2,0.5-0.4,0.5c0,0,0,0-0.1,0h-3
	c-0.3,0-0.5-0.2-0.5-0.4c0,0,0,0,0-0.1v-1.4C466,275.5,466.2,275.2,466.5,275.2C466.5,275.2,466.5,275.2,466.5,275.2z"/>
<path class="st1" d="M386.4,279.9h30.5c0.3,0,0.5,0.2,0.5,0.4c0,0,0,0,0,0.1v1.4c0,0.3-0.2,0.5-0.4,0.5c0,0,0,0-0.1,0h-30.5
	c-0.3,0-0.5-0.2-0.5-0.4c0,0,0,0,0-0.1v-1.4C385.9,280.2,386.1,279.9,386.4,279.9C386.4,279.9,386.4,279.9,386.4,279.9z"/>
<path class="st5" d="M503.9,90.1H303.3c-0.4,0-0.7-0.4-0.7-0.8c0,0,0-0.1,0-0.1c0-0.4,0.3-0.7,0.7-0.7c0,0,0,0,0,0h200.6
	c0.4,0,0.7,0.4,0.7,0.8c0,0,0,0.1,0,0.1C504.5,89.8,504.3,90.1,503.9,90.1z"/>
<ellipse class="st2" cx="317" cy="79.6" rx="4.7" ry="4.8"/>
<ellipse class="st2" cx="333.1" cy="79.6" rx="4.7" ry="4.8"/>
<ellipse class="st2" cx="349.3" cy="79.6" rx="4.7" ry="4.8"/>
<path class="st3" d="M309.3,292.6h-60c-4.4,0-8,3.6-8,8s3.6,8,8,8h22v62h16v-62h22c4.4,0,8-3.6,8-8S313.7,292.6,309.3,292.6z"/>
<path class="st3" d="M348.9,405H188.4c-32.2-0.1-59.4-23.8-63.9-55.6l-5.7-20.9c-11.7-43.3-29.6-84.8-53.2-123
	c-10.7-17.4-16.3-34.4-3.7-50.6l0.3-0.4c10.1-13.1,60.2-16,76.6-16.5h103.7c17.9,0.5,34.2,10.8,42.2,26.9
	c8.6,16.4,7.5,36.2-2.9,51.5c-35.1,52.7-45.8,85.7-34.8,107.1c10.6,20.7,43.2,31.3,102.6,33.3c15.9,0.5,23.3,13,23.3,24.3
	c0,11-7,23.2-22.5,23.8C349.9,405,349.4,405,348.9,405z"/>
<path class="st3" d="M215.7,547.5h60c4.4,0,8-3.6,8-8s-3.6-8-8-8h-22v-135h-16v135h-22c-4.4,0-8,3.6-8,8S211.3,547.5,215.7,547.5z"
	/>
<polygon class="st6" points="270,493 280.3,498.7 307.7,460.8 292.4,452.5 "/>
<path class="st7" d="M275,479.6l18.8,5.9l-3,7.9l12.9,18.7c1.7,2.4,1.1,5.7-1.3,7.3c-1.4,1-3.3,1.2-4.9,0.6l-21.8-8.3l-0.8-9.2
	l-4.4,7.2l-8.2-3.1L275,479.6z"/>
<path class="st6" d="M296.1,111.5c0.9,6.4-3.5,12.3-9.8,13.2c0,0,0,0-0.1,0c-0.7,0.1-1.3,0.1-2,0.1l-39.9,84.8l-12.5-17.4l41-80.2
	c0.6-6.4,6.3-11.1,12.7-10.5C290.9,102,295.3,106.1,296.1,111.5L296.1,111.5z"/>
<path class="st8" d="M163.9,226.8c0,0-1.1,14.8,15.7,17.7s61.5-25.4,68.9-29.8s21.1-59.1,21.1-59.1l-11.9-20.2
	c-14.7,18.6-26.3,35.8-27,48L163.9,226.8z"/>
<path class="st6" d="M183.2,277.8l3.6,15.5c0,0,0,14.3,2.6,17s57.9-2.6,57.9-2.6s-5.9-23.1-5.8-40.6L183.2,277.8z"/>
<path class="st7" d="M300.3,476.6l-20-11c-0.4-26,15.3-61.2,33.8-98.1c-41.5,7.1-80.7,9.4-114.6,0.8c-11.6-3.1-18.6-14.9-15.7-26.5
	c0.1-0.5,0.3-1.1,0.5-1.6c4-12.4-5-20.1,3.3-33.7c22-7.5,42.9-9.6,62-3l12,26.5l59.3-7.7c12-1.4,22.9,7.1,24.3,19.1c0,0,0,0,0,0l0,0
	v0.2c0.1,0.6,0.1,1.3,0.2,1.9C333.5,399.8,320,450.4,300.3,476.6z"/>
<path class="st8" d="M175.1,179.4l22.9-1.3c2-0.1,3.8,1,4.6,2.9l6.4,15.7l26.9,22.2c0,0,10.6,13.5,10.6,31s3.8,57.9,3.8,57.9
	s-15.5-21.8-25.1-16c-1.6,1-2.2,3-3.9,4c-0.9,0.5-2.8,0-3.7,0.5c-13.2,7.8-27,15.5-28.2,14.1c-2.5-2.6-5.6-16.1-5.6-16.1l-20.9-76.9
	c-2.3-8.2-0.8-17,4.1-24c1.5-2.1,3-3.6,4.4-3.8C174.5,188.8,172.8,181.6,175.1,179.4z"/>
<polygon class="st6" points="369.6,525.6 379.3,518.9 357.4,477.7 343.2,487.6 "/>
<path class="st7" d="M371.1,497.9L356,511.4c-24-26.8-42.2-64.4-57.6-107c-40.4-11.8-70.8-30.9-97.4-53.5c-9-7.6-15.8-17.4-8.1-26.7
	c0.4-0.4,0.7-0.9,1.1-1.3c9.1-9.3,32.1-7.5,45.6-16.1l30.1,32.2l-1.9,8.6l56.6,19.2c11.4,3.9,17.4,16.4,13.4,27.7c0,0,0,0.1,0,0.1
	l0,0l-0.1,0.2c-0.2,0.6-0.5,1.2-0.7,1.8L371.1,497.9z"/>
<path class="st7" d="M364,522.9l15.5-12.2l4.8,6.9l22.7-0.1c2.9,0,5.3,2.3,5.3,5.2c0,0,0,0,0,0c0,1.7-0.8,3.4-2.3,4.3l-19.2,13.3
	l-8.1-4.5l3.5,7.7l-7.2,5L364,522.9z"/>
<path class="st6" d="M208.9,373.1c-5.9-2.5-8.7-9.3-6.2-15.2c0.3-0.6,0.6-1.2,1-1.8L151.9,278l21.4-1.6l47.2,76.7
	c5.2,3.8,6.3,11.1,2.5,16.3C219.7,373.8,213.9,375.3,208.9,373.1L208.9,373.1z"/>
<path class="st8" d="M179.1,200.3c0,0-12.1-8.6-23.3,4.2c-11.2,12.8-10.2,65.8-10.4,74.3c0,2.7,3.8,8.4,9.1,15.1
	c2.4,3,5.1,6.2,7.8,9.3c1.6,1.8,0.2,5.6,1.8,7.4s6.2,1.5,7.7,3.1c7.2,7.8,13,13.7,13,13.7l23.4,0.3c0.3-17.4-11.7-33-27-48
	L179.1,200.3z"/>
<path class="st7" d="M155.5,124.5c-2.2,1.6-4.6,3.2-7.2,3.6s-5.9-0.9-6.6-3.5c-0.9-3.2,2-6.1,4.6-8.2l8.3-6.6
	c1.5-1.3,3.2-2.4,5.1-3.2c1.9-0.8,4.1-0.8,5.9,0.2c1.8,1.2,2.9,3.3,2.8,5.5c-0.1,2.1-0.8,4.2-2,6c-3.1,4.8-8.1,8.2-13.7,9.3"/>
<path class="st3" d="M218.3,296.6h-60c-4.4,0-8,3.6-8,8s3.6,8,8,8h22v62h16v-62h22c4.4,0,8-3.6,8-8S222.7,296.6,218.3,296.6z"/>
<path class="st7" d="M159.2,107.7c0.2-6-6.1-10.7-12.1-10.4s-11.1,4.6-14.5,9.5c-3.4,4.9-5.4,10.7-8.1,16s-6.2,10.6-11.6,13.4
	s-12.7,2.3-16.4-2.5c-2.3,3.5-2.8,7.9-1.4,11.9c1.5,3.9,4.3,7.1,7.9,9.2c1.5,0.8,3,1.5,4.6,2c0.7-1.8,1.6-3.5,2.8-5
	c-0.5,1.8-0.7,3.6-0.6,5.5c2.5,0.5,5,0.4,7.5-0.1c4.9-1.1,9-4.4,11.1-9c2.2-5.3,1.1-11.4,1.6-17.1s3.9-12.3,9.7-12.4
	c4.4-0.1,3.8,0.3,6.6,3.7"/>
<path class="st7" d="M199.1,139.2c0,14.4-11.6,26-26,26c-14.4,0-28-16.6-28-31s13.6-21,28-21C187.5,113.2,199.1,124.9,199.1,139.2z"
	/>
<circle class="st6" cx="181" cy="146.1" r="24.8"/>
<path class="st7" d="M212.1,142.2c-7.3,2-14.8,4.1-17.6,0c-0.6-2.7-1.6-5.3-3.1-7.7c-0.3,2.6-0.9,5.2-1.8,7.7c-9.3,2-18,2.5-25.4,0
	c-1,1.9-1.6,4-1.8,6.1l-1.2-0.6c-0.5-0.3-1.1-0.3-1.6-0.1c-0.4,0.2-0.6,0.6-0.6,1c-0.1,0.4,0,0.8,0.1,1.2c0.1,1.4,0.5,2.8,1.2,4.1
	c0.6,0.9,1.5,1.4,2.5,1.6c1,5.8,9.3,13.8,9.3,13.8c-25,1-25-16-25-32l3-6h10v-13h28c13.1-0.1,23.9,10.4,24,23.6
	C212.1,142,212.1,142.1,212.1,142.2L212.1,142.2z"/>
<path class="st5" d="M440,550.4L1.2,550.7c-0.6,0-1.2-0.5-1.2-1.1c0,0,0-0.1,0-0.1c0-0.6,0.5-1.2,1.1-1.2c0,0,0.1,0,0.1,0l0,0
	L440,548c0.7,0,1.2,0.5,1.2,1.2S440.7,550.4,440,550.4z"/>
<path class="st5" d="M733,550.4l-226.8,0.3c-0.7,0-1.2-0.5-1.2-1.2s0.5-1.2,1.2-1.2l0,0l0,0L733,548c0.7,0,1.2,0.5,1.2,1.2
	S733.7,550.4,733,550.4z"/>
<path class="st1" d="M450,191.5h-86c-7.5,0-13.5-6-13.5-13.5v-57c0-7.4,6.1-13.5,13.5-13.5h86c7.5,0,13.5,6,13.5,13.5v57
	C463.5,185.5,457.4,191.5,450,191.5z M364,109.5c-6.4,0-11.5,5.1-11.5,11.5v57c0,6.3,5.2,11.5,11.5,11.5h86
	c6.4,0,11.5-5.1,11.5-11.5v-57c0-6.3-5.2-11.5-11.5-11.5H364z"/>
<rect x="366.5" y="125.5" class="st1" width="23" height="2"/>
<rect x="366.5" y="133.5" class="st1" width="51" height="2"/>
<rect x="366.5" y="140.5" class="st1" width="51" height="2"/>
<rect x="366.5" y="147.5" class="st1" width="65" height="2"/>
<rect x="366.5" y="154.5" class="st1" width="34" height="2"/>
<rect x="366.5" y="161.5" class="st1" width="62" height="2"/>
<rect x="366.5" y="168.5" class="st1" width="11" height="2"/>
<path class="st2" d="M365.8,82.5c-0.1,0-0.2,0-0.3-0.1l-2.1-2.2c-0.1-0.2-0.1-0.3,0-0.5l2.1-2.2c0.1-0.1,0.4-0.2,0.5,0
	s0.2,0.4,0,0.5l0,0l-1.9,1.9l1.9,1.9c0.1,0.2,0.1,0.3,0,0.5C365.9,82.4,365.8,82.4,365.8,82.5L365.8,82.5z"/>
<path class="st2" d="M369.3,82.5c-0.1,0-0.2,0-0.3-0.1c-0.1-0.2-0.1-0.3,0-0.5l1.9-1.9l-1.9-1.9c-0.1-0.1-0.1-0.4,0-0.5
	s0.4-0.1,0.5,0l2.1,2.2c0.1,0.2,0.1,0.3,0,0.5l-2.1,2.2C369.5,82.4,369.5,82.5,369.3,82.5z"/>
<path class="st2" d="M481,77h-4c-0.4,0-0.8,0.3-0.8,0.8c0,0,0,0,0,0l0,0v4c0,0.4,0.4,0.8,0.8,0.8h4c0.4,0,0.8-0.4,0.8-0.8v-4
	C481.8,77.4,481.5,77,481,77C481,77,481,77,481,77z"/>
<path class="st2" d="M471.3,77h-4c-0.4,0-0.8,0.3-0.8,0.8c0,0,0,0,0,0l0,0v4c0,0.4,0.4,0.8,0.8,0.8h4c0.4,0,0.8-0.4,0.8-0.8v-4
	C472.1,77.4,471.7,77,471.3,77z"/>
<path class="st2" d="M490.1,77.2h-4c-0.4,0-0.8,0.3-0.8,0.8c0,0,0,0,0,0l0,0v4c0,0.4,0.3,0.8,0.8,0.8c0,0,0,0,0,0h4
	c0.4,0,0.8-0.3,0.8-0.8c0,0,0,0,0,0l0,0v-4C491,77.6,490.6,77.2,490.1,77.2z"/>
<path class="st2" d="M430.3,78.7h-31.7c-0.6,0-1,0.4-1,1s0.4,1,1,1h31.7c0.6,0,1-0.4,1-1S430.9,78.7,430.3,78.7z"/>
<line class="st9" x1="550.1" y1="208.6" x2="632.1" y2="208.7"/>
<path class="st8" d="M509,0l-1,6.8l-15.3,0.4l-0.7,5h18.2l-1,6.8h-18.1l-0.4,3h16l-3.3,23.6h-7.8l-4-3.6l1.8-13.1h-22.8L468.8,42
	l-4.9,3.6h-7.8l3.3-23.6h16l0.4-3h-17.6l-7.6,38.6H437l10.4-53.2l-2.5-2.9L509,0z M487.4,56.2l-8.1-7.4l-10.2,7.4h-16.7l20.3-15
	l1.4-10.1h15.2l-1.4,10.2l16.2,14.9L487.4,56.2z M459.6,12.2h17.3l0.6-4.6l-17,0.4L459.6,12.2z"/>
<path class="st8" d="M538.8,44.1l0.2-1.5h-22.7l2.3-16.7h60.8L577,42.6h-22.9l-0.2,1.5h24.3l-0.6,4.6h-24.3l-0.2,1.5h25.8l-0.8,6
	h-66.9l0.8-6h25.9l0.2-1.5h-24.3l0.6-4.6H538.8z M583.2,19.8l-0.6,4.6h-66.9l0.6-4.6H583.2z M580.4,18.2h-60.8l2.3-16.8h60.8
	L580.4,18.2z M539.5,38l0.2-1.5h-10.7l-0.2,1.5H539.5z M529.8,31.9h10.6l0.2-1.5H530L529.8,31.9z M568.9,13.7l0.2-1.5h-36.5
	l-0.2,1.5H568.9z M533.2,7.6h36.5l0.2-1.6h-36.5L533.2,7.6z M565.5,38l0.2-1.5H555l-0.2,1.5H565.5z M555.8,30.4l-0.2,1.5h10.6
	l0.2-1.5H555.8z"/>
<path class="st8" d="M607.6,9.4l-6.7,48.1h-14.1l6.3-45.2l-4.7,1l1.3-9.2l19.2-3.8L607.6,9.4z M601.9,57.5l7-19.7h10.6l-7,19.7
	H601.9z M622.2,28.8l0.6-4.6h-13L613,1.6h41.8l-3.2,22.6h-14l-0.6,4.6h15.7l-1,7.6h-15.7l-3,21.2h-14.8l3-21.2h-15.6l1-7.6
	L622.2,28.8z M639.9,17l1.2-8.2h-16.5l-1.1,8.2L639.9,17z M637.9,57.5l-0.8-19.6h10.6l0.8,19.6L637.9,57.5z"/>
<path class="st8" d="M659.5,56.2l4.7-33.4h-4.6l1-7.6h17.6l-4.1,29.7l3.8-1.4l-1.1,7.9L659.5,56.2z M676.5,1.5l2.2,10.6h-11.9
	l-2.2-10.6H676.5z M681.4,48.2l4.2-30.2h12.4l-4.2,30.2h4.5l5.4-38.9h-18.6l1.1-7.7h42.9l-1.1,7.7h-11L715.2,23h8.8l-1,7.4h-8.8
	l-2.5,17.8h11.1l-1.1,8h-44.4l1.1-8H681.4z"/>
<path class="st8" d="M501,143.1l5.1-36.5h-24.3l1-7.6h63.8l-1,7.6h-24.3l-5.1,36.5H542l-1,7.6h-66.9l1-7.6H501z"/>
<path class="st8" d="M547.8,150.7l5.1-28.2h6.8l-5.1,28.2H547.8z M579.7,104.1l-5.8,0.6l-1,7.5h6.9l-1,7.4h-7.9l-4.8,34.1h-10.5
	l4.8-34.1h-8.2l1-7.4h7.3l1-6.4l-6.9,0.6l1-7.4l25.1-2.3L579.7,104.1z M568,150.7l2.9-28.2h6.8l-2.9,28.2H568z M590.3,133l0.6-4.9
	h-12l1-7h38.1l-1,7h-12.2l-0.6,4.9h10.6l-1,7.3h-10.7l-0.9,6h12.8l-1,7h-39l1-7h12.4l0.9-6h-10.6l1-7.3H590.3z M584.8,97.5h35.4
	l-2.9,20.6h-35.4L584.8,97.5z M606.3,111.1l0.9-6.6h-11.4l-0.9,6.6H606.3z"/>
<path class="st8" d="M627.5,100.5H638l-5.5,39.4H622L627.5,100.5z M647.1,132.6l-8.3,20.9h-11.3l9-20.9l4.7-33.4l-1.7-3.1h12.8
	L647.1,132.6z M693.1,97.5l-1,7.4h-13.6l-0.8,5.6h13.5l-4.5,31.7c-0.2,1.5-1,2.9-2.1,3.8c-1.1,1-2.5,1.6-4,1.6h-7.8l3.2-4.2
	l3.6-25.2h-3l-5,35.3h-12.4l5-35.3h-2.9l-4.3,29.4h-10.5l5.2-37.1h13.5l0.8-5.6h-13.7l1-7.4L693.1,97.5z"/>
<path class="st7" d="M394.2,219.3l2.1-4l1.8-13.5h-1.5l0.5-3.8h8.4l-2.2,15.8l5.5,1.6h18.6l-0.5,3.8h-21.2l-4-1.2l-0.6,1.2H394.2z
	 M404.1,191.9l1.6,4.6h-6.1l-1.6-4.6H404.1z M426,191.2l-1.6,3.7h4.1l-0.5,3.7h-5.2l-1.5,3.4h7.2l-0.6,3.8h-3.2l2.2,8h-7.2l-2.1-7.5
	l-4.6,7.5h-7.2l5-8h-5.2l0.6-3.8h7.5l1.5-3.4h-2.4l-0.9,2.2h-5.3l3.1-7.6l-1.1-1.3h6.8l-1.2,3h2.6l1.1-2.6l-1-1.2H426z"/>
<path class="st7" d="M442,195.7l-3.4,24.2h-7.2l3.2-22.8l-2.4,0.4l0.6-4.6l9.8-1.9L442,195.7z M464.3,201.8l-8,0.8l1.2,12.1h4.2
	l1.7-1.5l-0.8,6.1h-12.1l-1.7-15.8l-6.8,0.7l0.6-3.8l5.9-0.6l-0.7-7l-1.3-1.5h8.8l0.8,7.8l8.9-0.9L464.3,201.8z M463.5,196.9h-6.1
	l-0.2-4.2h6.1L463.5,196.9z"/>
<path class="st7" d="M472.6,212.2l-5.1,1.7l0.6-4.6l5.1-1.7l0.8-5.8l-4.7-0.8l0.6-4.6l4.7,0.8l0.7-4.6l-1.3-1.5h7.8l-4.1,28.8h-6.3
	L472.6,212.2z M496.6,191.2l-2.8,7.5h8.4l-0.6,3.8h-5.2l3.5,17.2h-6.8l-2.6-12.5l-4.6,12.5h-7l6.4-17.2h-3.8l0.6-3.8h4.7l2.3-6.2
	l-0.7-1.3L496.6,191.2z M497.4,192.5h4.7l0.1,4.6h-4.9L497.4,192.5z"/>
<path class="st7" d="M509.9,219.1h-6.1l3-10.9h6.1L509.9,219.1z M529.3,191.2l-2.6,2.7h12.9l-0.6,3.9h-5.4l5.5,8.4h-8.1l-5.4-8.4
	h-2.8l-8.2,8.4h-8.8l8.7-8.4h-5.7l0.6-3.9h9.2l1.4-1.4l-1.1-1.3H529.3z M512.2,219.2l1.6-11.5h6.8l-1,7.3h9.4l1.5-1.3l-0.8,5.5
	L512.2,219.2z M526.4,201.4l1.2,4.5h-7.2l-0.8-4.5H526.4z M522.6,207h6l-0.1,6.9h-6L522.6,207z M531.2,208.2h6.1v10.9h-6.1V208.2z"
	/>
<path class="st7" d="M664.5,219.3l2.7-2.8l0.7-5.2h-2.3l-1,7.2h-5.3l1-7.2h-1.5l-1,7.2h-5.3l1-7.2h-2.3l-1.1,8h-6.8l1.5-10.6h10.6
	l0.3-0.8h-10.8l0.4-2.7h30.4l-0.4,2.7h-12l-0.4,0.8h12.2l-1.1,7.9c-0.1,0.7-0.4,1.4-1,1.9c-0.5,0.5-1.3,0.8-2,0.8H664.5z M671.7,198
	h-7.2l-0.9,6.5h-6.1l0.9-6.5h-7.2l-0.8,5.3h-5.6l1.1-8h12.9l0.1-0.7h-12.1l0.4-2.7h30.4l-0.4,2.7h-12.2l-0.1,0.7h12.9l-1.1,8h-5.7
	L671.7,198z M657.1,201.8l-0.3,2.3H651l0.3-2.3H657.1z M657.5,198.8l-0.3,2.3h-5.7l0.3-2.3H657.5z M670.3,201.8l-0.3,2.3h-5.7
	l0.3-2.3H670.3z M670.8,198.8l-0.3,2.3h-5.7l0.3-2.3H670.8z"/>
<path class="st7" d="M679.3,218.5l5.3-11h7.6l-5.3,11H679.3z M688.9,219.9l3.6-3.7l2.4-17.5h-12.1l0.5-3.8h12.2l0.3-2.3l-1.3-1.5
	h9.1l-0.6,3.8h12.2l-0.5,3.8h-12.2l-2.6,18.6c-0.3,1.5-1.6,2.6-3.1,2.6L688.9,219.9z M684.8,206.3l-1.4-6.5h7.6l1.4,6.5H684.8z
	 M705.9,218.5l-3-11h7.6l3,11H705.9z M703,206.3l3.2-6.4h7.6l-3.2,6.4H703z M706.3,194.2l-1.1-3h7.6l1.1,3H706.3z"/>
<path class="st7" d="M721.8,212.2l-5.1,1.7l0.6-4.6l5.1-1.7l0.8-5.8l-4.7-0.8l0.6-4.6l4.7,0.8l0.7-4.6l-1.2-1.5h7.8l-4,28.8h-6.3
	L721.8,212.2z M745.8,191.2l-2.8,7.5h8.4l-0.6,3.8h-5.2l3.6,17.2h-6.8l-2.6-12.5l-4.6,12.5h-7l6.4-17.2h-3.8l0.6-3.8h4.6l2.3-6.2
	l-0.7-1.3H745.8z M746.6,192.5h4.8l0.1,4.6h-4.9V192.5z"/>
<path class="st7" d="M759.1,219.1H753l3-10.9h6.1L759.1,219.1z M778.5,191.2l-2.6,2.7h12.9l-0.6,3.9h-5.4l5.5,8.4h-8.2l-5.4-8.4
	h-2.8l-8.2,8.4h-8.8l8.7-8.4h-5.7l0.6-3.9h9.2l1.5-1.4l-1.1-1.3L778.5,191.2z M761.4,219.2l1.6-11.5h6.8l-1,7.3h9.4l1.5-1.3
	l-0.8,5.5L761.4,219.2z M775.6,201.4l1.2,4.5h-7.2l-0.8-4.5H775.6z M771.8,207h6l-0.1,6.9h-6L771.8,207z M780.4,208.2h6.1v10.9h-6.1
	V208.2z"/>
<path class="st7" d="M662.5,324.7l4.2,14.2l8-14.2h8.1l-3.1,22.6h-6.9l2-11.9l-6.1,10.4h-6.2l-3.1-10l-1.5,11.5h-6.9l3.1-21.1
	l-1.6-1.5L662.5,324.7z"/>
<path class="st7" d="M710.2,324.7l-0.4,3.8h-12.7l-0.8,5h11.9l-0.4,3.8h-12.3l-0.8,6.2h13.4l-0.4,3.8h-21.5l3.1-21.1l-1.2-1.5
	L710.2,324.7z"/>
<path class="st7" d="M740.1,324.7l-1.5,11.5c0,0.4-0.1,0.7-0.3,1.1c-0.2,0.3-0.4,0.6-0.7,0.9c-0.3,0.2-0.6,0.4-1,0.6
	c-0.4,0.1-0.8,0.2-1.1,0.2h-5l8.1,8.4h-8.5l-7.7-8.4l-1.2,8.4h-7.7l2.7-21.1l-1.2-1.5H740.1z M723.6,328.5l-0.8,6.5h8.5l0.8-6.5
	H723.6z"/>
<path class="st7" d="M769.9,331.2h-7.7l0.4-2.7h-9.2l-1.9,15h9.2l0.4-4.6l-2.3-3.8h10.4l-1.5,12.3h-21.5c-0.3,0-0.7-0.1-1-0.2
	c-0.3-0.1-0.6-0.3-0.8-0.6c-0.2-0.2-0.4-0.5-0.5-0.9c-0.1-0.3-0.1-0.7,0-1.1l2.7-20h24.2L769.9,331.2z"/>
<path class="st7" d="M798.1,324.7l-0.4,3.8H785l-0.8,5h11.8l-0.4,3.8h-12.3l-0.8,6.1h13.4l-0.4,3.8h-21.5l3.1-21.1l-1.2-1.5
	L798.1,324.7z"/>
<path class="st7" d="M651.7,372.7l-1.6,11.5c0,0.4-0.1,0.7-0.3,1.1c-0.2,0.3-0.4,0.6-0.7,0.9c-0.3,0.2-0.6,0.4-1,0.6
	c-0.4,0.1-0.8,0.2-1.1,0.2h-5l8.1,8.4h-8.4l-7.7-8.4l-1.2,8.4h-7.7l2.7-21.1l-1.2-1.5L651.7,372.7z M635.2,376.5l-0.8,6.5h8.5
	l0.8-6.5H635.2z"/>
<path class="st7" d="M679.1,372.7l-0.4,3.8H666l-0.8,5h11.8l-0.4,3.8h-12.3l-0.8,6.1h13.4l-0.4,3.8h-21.5l3.1-21.1l-1.2-1.5
	L679.1,372.7z"/>
<path class="st7" d="M705.2,372.7c0.7,0,1.4,0.2,1.9,0.8c0.5,0.5,0.7,1.2,0.4,1.9l-1.9,13.4l2.3,0.8l-0.8,4.6l-3.1-1.2l-0.4,2.3
	h-18.9c-0.3,0-0.7-0.1-1-0.2c-0.3-0.1-0.6-0.3-0.8-0.6c-0.2-0.2-0.4-0.5-0.5-0.9c-0.1-0.3-0.1-0.7,0-1.1l2.7-20L705.2,372.7z
	 M694.8,389.5l0.8-4.6l3.1,1.2l1.2-9.6h-7.7l-1.9,15h7.7v-0.8L694.8,389.5z"/>
<path class="st7" d="M721.6,372.7l-2.7,18.8h9.2l2.7-17.7l-1.6-1.1h9.2l-3.1,22.6h-21.8c-0.7,0-1.3-0.2-1.7-0.8
	c-0.4-0.6-0.6-1.2-0.6-1.9l2.7-18.8l-1.2-1.1L721.6,372.7z"/>
<path class="st7" d="M765.9,372.7l-0.4,3.8h-12.7l-0.8,5H764l-0.4,3.8h-12.3l-0.8,6.2H764l-0.4,3.8h-21.6l3.1-21.1l-1.1-1.6H765.9z"
	/>
<path class="st7" d="M785.1,390.7l0.8-4.6h-15.4l1.9-13.4h22.7l-0.8,6.5h-7.7l0.4-2.7h-7.4l-1.2,5.8h15.4l-1.5,10.4
	c0,0.4-0.1,0.7-0.3,1.1c-0.2,0.3-0.4,0.6-0.7,0.9c-0.3,0.2-0.6,0.4-1,0.6c-0.4,0.1-0.8,0.2-1.1,0.2h-20l0.8-6.2l1.2,1.6L785.1,390.7
	z"/>
<path class="st7" d="M804.4,395.3l2.7-18.8h-8.4l0.4-3.8h24.6l-0.8,3.8h-8.1l-2.7,18.8H804.4z"/>
<line class="st9" x1="550.8" y1="340" x2="617.3" y2="340.1"/>
<path class="st7" d="M413.1,329.7l-3.5,22.6h-7.3l2.7-21.1l-1.2-1.5H413.1z"/>
<path class="st7" d="M432.7,347.7l0.8-4.6h-15.3l1.9-13.4h22.6l-0.8,6.5h-7.7l0.4-2.7h-7.3l-1.2,5.8h15.4l-1.5,10.4
	c0,0.4-0.1,0.7-0.3,1.1c-0.2,0.3-0.4,0.6-0.7,0.9c-0.3,0.2-0.6,0.4-1,0.6c-0.4,0.1-0.8,0.2-1.1,0.2h-20l0.8-6.2l1.2,1.6L432.7,347.7
	z"/>
<path class="st7" d="M462,347.7l0.8-4.6h-15.4l1.9-13.4H472l-0.8,6.5h-7.7l0.4-2.7h-7.3l-1.2,5.8h15.4l-1.5,10.4
	c0,0.4-0.1,0.7-0.3,1.1c-0.2,0.3-0.4,0.6-0.7,0.9c-0.3,0.2-0.6,0.4-1,0.6c-0.4,0.1-0.8,0.2-1.1,0.2h-20l0.8-6.2l1.2,1.6L462,347.7z"
	/>
<path class="st7" d="M485.9,329.7l-2.7,18.8h9.2l2.7-17.7l-1.6-1.1h9.2l-3.1,22.6h-21.9c-0.7,0-1.3-0.2-1.7-0.8
	c-0.4-0.6-0.6-1.2-0.6-1.9l2.7-18.8l-1.1-1.1H485.9z"/>
<path class="st7" d="M530.2,329.7l-0.4,3.8h-12.7l-0.8,5h11.9l-0.4,3.8h-12.3l-0.8,6.2h13.4l-0.4,3.8h-21.5l3.1-21.1l-1.2-1.5
	L530.2,329.7z"/>
<line class="st9" x1="472.1" y1="240" x2="472.1" y2="311.1"/>
<line class="st9" x1="715.7" y1="244.4" x2="715.7" y2="311.1"/>
<path class="st7" d="M640.1,488.8l3.7-11.3h6.6l-3.8,11.3L640.1,488.8z M644.1,475.9l-0.5-6.8h6.5l0.5,6.8H644.1z M645.3,467.6
	l-0.5-6.8h6.6l0.5,6.8H645.3z M659.5,475.6l0.5-3.4h-7.9l0.5-3.8h7.8l0.5-3.6l-7.1,0.2l0.5-3.8l21.9-0.6l-0.5,3.8l-7.5,0.2l-0.5,3.8
	h8.4l-0.5,3.8h-8.3l-0.5,3.4h7.6l-1.8,12.4h-22.2l1.8-12.4H659.5z M666.4,484.3l0.7-5h-8.5l-0.7,5H666.4z"/>
<path class="st7" d="M683.4,474l-1.4,10.4l1.1-0.2l1.7-12.1h-5l1.6-11.3h13.7l-1.6,11.3h-2.7l-0.4,2.9h3l-0.5,3.7h-3l-0.7,4.9
	l2.9-0.4l-0.6,3.9l-14.8,1.6l0.6-3.8l0.7-0.1l1.5-10.8H683.4z M686.7,464.2l-0.6,4.5h2.2l0.7-4.5H686.7z M699.2,470.6l2.4-5.9
	l-5.4,0.2l0.6-4l16.5-0.5l-0.5,3.8l-5.1,0.2l-2.5,6.2h7.4l-0.6,4.2h-3.5l2,13.9h-6l-1.7-12.2l-4.8,12.2h-6.2l5.7-13.9H694l0.6-4.2
	H699.2z"/>
<path class="st7" d="M713.7,487.3l2.6-14.1h3.4l-2.5,14.1H713.7z M729.7,464l-2.9,0.3l-0.5,3.8h3.4l-0.5,3.7h-3.9l-2.4,17h-5.3
	l2.4-17h-4.1l0.5-3.7h3.6l0.5-3.2l-3.4,0.3l0.5-3.7l12.6-1.2L729.7,464z M723.8,487.3l1.4-14.1h3.4l-1.4,14.1H723.8z M735,478.5
	l0.3-2.4h-6l0.5-3.5h19l-0.5,3.5h-6.1l-0.3,2.4h5.3l-0.5,3.6h-5.3l-0.4,3h6.4l-0.5,3.5h-19.5l0.5-3.5h6.2l0.4-3h-5.3l0.5-3.6H735z
	 M732.2,460.7h17.7l-1.5,10.3h-17.7L732.2,460.7z M743,467.5l0.4-3.3h-5.7l-0.4,3.3H743z"/>
<path class="st7" d="M768.5,462.2l0.1-0.8l-1.3-1.5h9.1l-0.3,2.3h10.6l-0.6,3.8h-24.5l-4.5,22.7h-6.8l5-25.1l-1.3-1.4H768.5z
	 M766.3,484.2l-5.6-3.8l0.1-0.8l0.5-3.4H784l-0.6,4.2l-6.8,3.8l7.1,4.5h-10.6l-2.1-1.3l-2.5,1.4H758L766.3,484.2z M784.6,466.8
	l-0.2,1.1h1.5l-0.4,3H784l-0.6,4.2h-21.3l0.6-4.2h-1.5l0.4-3h1.5l0.2-1.1h7.6l-0.2,1.1h6.1l0.2-1.1H784.6z M769.6,479.7l2.3,1.5
	l2.7-1.5H769.6z M776.3,472.1l0.2-1.2h-6.1l-0.2,1.2H776.3z"/>
<line class="st9" x1="715.7" y1="405.7" x2="715.7" y2="452.5"/>
<line class="st9" x1="471.9" y1="370.5" x2="472.6" y2="415"/>
<path class="st7" d="M436.1,433.9l-0.5,3.8h-3l-1.2,8.4h3.8l-0.6,3.8h-3.8l-1.7,12.1h-7.6l1.7-12.1h-11l-3.6,12.1h-7.6l3.6-12.1
	h-3.4l0.6-3.8h4l2.5-8.4h-4.6l0.5-3.8H436.1z M413.4,446.1h10.5l1.2-8.4h-9.2L413.4,446.1z"/>
<path class="st7" d="M462.1,433.2l-3.5,6.1H473l-0.5,3.8h-16.1l-0.9,1.5h14.9l-1,6.8l-5.8,4.2l7.7,6.3h-8.2l-3.9-3.2l-4.3,3.2h-8.2
	l8.7-6.3l-4.2-3.4l-5.6,9.7h-7.6l10.9-18.9h-7.4l0.5-3.8l2-3.5l-0.9-1.1h8.4l-2.6,4.6h2.3l2.9-5l-0.9-1L462.1,433.2z M453.7,447.6
	l-0.6,1.2h3.8l-0.2,1.2l3,2.5l3.4-2.5l0.3-2.4H453.7z M472.4,438.1h-6.8l-0.9-4.2h6.8L472.4,438.1z"/>
<path class="st7" d="M482.7,462l1.8-1.4l0.5-3.8h-3.1l-0.7,5.2h-6.8l2.7-18.9h16.7l-2.3,16.3c-0.3,1.5-1.6,2.6-3.1,2.6L482.7,462z
	 M493.3,435.5l0.6,6.8h-5.3l-0.1-0.7l-11.3,0.7l0.5-3.4l2.5-4.6l-0.9-1.1h8.4l-2.9,5.3l3.5-0.2l-0.2-2.8L493.3,435.5z M482.4,453.3
	h3.1l0.2-1.5h-3L482.4,453.3z M483.1,448.4h3l0.3-1.9h-3L483.1,448.4z M507.4,454.5l-7.4,1.2l-0.4,2.6h5.8h-0.1l1.7-1.5l-0.8,5.3
	h-14l1.9-13.6h6.8l-0.5,3.5l7.3-1.3L507.4,454.5z M509.5,439.3l-7.4,1.2l-0.4,2.6h5.7l1.7-1.5l-0.7,5.3h-14l1.9-13.7h6.8l-0.5,3.5
	l7.4-1.2L509.5,439.3z"/>
<path class="st7" d="M531.6,439.3h14.6l-2.8,20.1c-0.1,0.7-0.5,1.4-1.1,1.9c-0.6,0.5-1.3,0.7-2,0.7h-7.9l3.6-3.7l2.1-15.2h-8.5
	L519.4,462h-7.6l10.2-18.9h-8.2l0.5-3.8h9.8l2.7-5l-0.9-1.1h9L531.6,439.3z"/>
</svg>
