<svg id="图层_1" data-name="图层 1" xmlns="http://www.w3.org/2000/svg" viewBox="0 0 564.5 449.3"><defs><style>.cls-1{fill:#f2f2f2;}.cls-2{fill:#ccc;}.cls-3{fill:#e6e6e6;}.cls-4{fill:#00ab55;}.cls-5{fill:#fff;}.cls-6{fill:#3f3d56;}.cls-7{fill:#a0616a;}.cls-8{fill:#2f2e41;}</style></defs><path class="cls-1" d="M239.3,431.6a2.23,2.23,0,0,0,1.6-3.9l-.2-.6a.1.1,0,0,1,.1-.1,6.08,6.08,0,0,1,11.2,0c1.8,4.4,4.2,8.9,4.8,13.5a18.37,18.37,0,0,1-.3,6.2,72.42,72.42,0,0,0,6.6-30,67.92,67.92,0,0,0-.4-7.8c-.2-2.1-.6-4.2-1-6.3a73.14,73.14,0,0,0-14.5-31,19.88,19.88,0,0,1-8.1-8.4,15.06,15.06,0,0,1-1.3-4.1c.4.1,1.5-5.9,1.2-6.3.5-.8,1.5-1.2,2.1-2.1,3-4,7.1-3.3,9.2,2.2,4.6,2.3,4.6,6.1,1.8,9.8-1.8,2.3-2,5.5-3.6,8,.2.2.3.4.5.6a73.72,73.72,0,0,1,7.7,12.2,31.1,31.1,0,0,1,1.8-14.2c1.7-4.2,5-7.8,7.9-11.4a6.28,6.28,0,0,1,11.2,3.1v.2c-.4.2-.8.5-1.3.8a3.1,3.1,0,0,0,1.2,5.6h.1a36.91,36.91,0,0,1-.8,4.6c3.7,14.3-4.3,19.5-15.7,19.8a4.35,4.35,0,0,0-.7.4,70.79,70.79,0,0,1,2.8,10c.6,3,1,6,1.3,9a63.11,63.11,0,0,1-.1,11.5v-.1a19.13,19.13,0,0,1,6.4-10.9c4.9-4.1,11.9-5.6,17.3-8.8a3.51,3.51,0,0,1,5.4,3.4v.1a16.27,16.27,0,0,0-2.3,1.1c-.4.2-.8.5-1.3.8a3.1,3.1,0,0,0,1.2,5.6h.2a33.74,33.74,0,0,1-5.6,8.8c-2.3,12.5-12.3,13.7-22.9,10h0a82.11,82.11,0,0,1-5,14.7h-18c-.1-.2-.1-.4-.2-.6a21,21,0,0,0,5-.3l-4-4.9-.1-.1c-.7-.8-1.4-1.7-2-2.5h0a28.09,28.09,0,0,1,.8-7.6Z"/><path class="cls-2" d="M0,448.1a1.16,1.16,0,0,0,1.2,1.2H404.5a1.2,1.2,0,0,0,0-2.4H1.2A1.16,1.16,0,0,0,0,448.1Z"/><path class="cls-3" d="M544.7,449H338.2a19.67,19.67,0,0,1-19.7-19.7V19.7A19.67,19.67,0,0,1,338.2,0H544.8a19.67,19.67,0,0,1,19.7,19.7V429.3A19.76,19.76,0,0,1,544.7,449ZM338.2,2a17.67,17.67,0,0,0-17.7,17.7V429.3A17.67,17.67,0,0,0,338.2,447H544.8a17.67,17.67,0,0,0,17.7-17.7V150.7A148.73,148.73,0,0,0,413.8,2Z"/><circle class="cls-3" cx="377.1" cy="178.1" r="24"/><circle class="cls-3" cx="505.8" cy="178.1" r="24"/><circle class="cls-3" cx="441.5" cy="178.1" r="24"/><circle class="cls-3" cx="377.1" cy="247.1" r="24"/><circle class="cls-3" cx="505.8" cy="247.1" r="24"/><circle class="cls-3" cx="441.5" cy="247.1" r="24"/><circle class="cls-3" cx="377.1" cy="316.1" r="24"/><circle class="cls-3" cx="505.3" cy="385" r="24"/><ellipse class="cls-3" cx="409.8" cy="385" rx="56.5" ry="24"/><circle class="cls-3" cx="505.8" cy="316.1" r="24"/><circle class="cls-4" cx="441.5" cy="316.1" r="24"/><path class="cls-5" d="M426.9,28H215.7c-6.3,0-11.3,4.6-11.3,10.3v70.8c0,5.7,5.1,10.3,11.3,10.3H426.9c6.3,0,11.3-4.6,11.3-10.3V38.3C438.2,32.6,433.2,28,426.9,28Z"/><path class="cls-6" d="M452.8,28H217.1c-6.9,0-12.7,4.6-12.7,10.3v70.8c0,5.7,5.6,10.3,12.7,10.3H452.9c6.9,0,12.7-4.6,12.7-10.3V38.3C465.5,32.6,459.9,28,452.8,28Zm11.4,81.2c0,5.1-5.2,9.2-11.3,9.2H217.1c-6.3,0-11.3-4.2-11.3-9.2V38.3c0-5.1,5.2-9.2,11.3-9.2H452.9c6.3,0,11.3,4.2,11.3,9.2Z"/><polygon class="cls-7" points="68 180.4 65.9 192.6 84 236.7 93.8 231.7 84.3 190.4 82.9 174.7 68 180.4"/><path class="cls-4" d="M88,111.9s-9.5-4.6-16.9,10.9-6.5,49.6-6.5,49.6-2.7,2.6-1,4.3,3.3,4.6,1.6,7.9c-.9,1.7-3,5.1.4,6.1s19.7-3.6,19.7-3.6,6.1-2.7,2.6-4.5,1.4-12.9,1.4-12.9l4-32Z"/><ellipse class="cls-7" cx="91.9" cy="241.9" rx="7.2" ry="12.2" transform="translate(-66.97 37.64) rotate(-17.07)"/><polygon class="cls-7" points="185.3 442.6 194.4 440.1 189.3 403.9 175.9 407.5 185.3 442.6"/><path class="cls-8" d="M216.4,434h0a7.07,7.07,0,0,1,1.1,2.5h0a3.15,3.15,0,0,1-2.3,3.9L187.1,448a2.23,2.23,0,0,1-2.7-1.5l-.3-1.2s-2.3-3.1-.6-8.3c0,0,4.5,2.4,8.4-4.3l.8-3.3,13.6,5.3,6.5-.9c1.4-.3,2.5-.8,3.6.2Z"/><polygon class="cls-7" points="96.2 442.4 105.6 442.4 110.1 406.1 96.2 406.1 96.2 442.4"/><path class="cls-8" d="M128.4,442.1h0a8,8,0,0,1,.4,2.7h0a3.16,3.16,0,0,1-3.2,3.2h-29a2.22,2.22,0,0,1-2.2-2.2v-1.2s-1.4-3.6,1.5-8.1c0,0,3.7,3.5,9.2-2l1.6-2.9,11.8,8.6,6.5.8c1.4.1,2.7-.1,3.4,1.1Z"/><path class="cls-8" d="M158.8,226.2l24.7,106.6L195.4,419l-18.8,2.6-52-146.7L112.7,421.6l-21.3,1.7S74.3,249.3,82,227.9l76.8-1.7Z"/><polygon class="cls-7" points="188.3 100.1 196.8 91.2 206.6 44.5 195.8 43.2 180.4 82.7 172.6 96.4 188.3 100.1"/><path class="cls-4" d="M133.2,145.5s8,14.7,22.8,6,30.5-43,30.5-43,3.1-8.7,6.4-10.4c1.7-.9,6.2-1.9,3.8-4.6s-19.1-8.7-19.1-8.7-6.5-1.2-4.7,2.3-4.2,1.3-3.6,5-4.9,4.9-4.9,4.9l-31.2,48.5Z"/><ellipse class="cls-7" cx="203.12" cy="35.78" rx="12.2" ry="7.2" transform="translate(109.07 219.33) rotate(-72.86)"/><path class="cls-4" d="M134.3,94.5H110.9l-.9,7.4S80.5,110,81.3,114.4s5.2,78.1,5.2,78.1l-3.7,36.8s66.3,28,76.6-5.2l-5.2-38.3s12.5-65.5,9.6-68.5-27.2-14.7-27.2-14.7l-2.3-8.1Z"/><circle class="cls-7" cx="120.7" cy="73.6" r="21"/><path class="cls-8" d="M136.2,65c2.7-.2,5.4-.5,8-.7a6.19,6.19,0,0,1-2.5-1.7,2.25,2.25,0,0,1,0-2.8c.9-.8,2.3-.4,3.2.3a10.76,10.76,0,0,0-4.4-6.8c-2.8-1.9-9.7.4-13-.1-3.9-.5-4.4-3.8-8.2-4.3-1.5-.2-3.1-.3-4.2.6-1.3,1-1.4,3-2.5,4.1-1.6,1.7-4.4,1.2-6.6,1.7-3.2.7-5.7,3.5-6.8,6.6A29.32,29.32,0,0,0,98,71.7c0,3.7,0,8,2.6,10.5,1.6,1.6,6.1,6.9,6.6,9.1.3,1.6,14.2,3.5,17.2,3.4l10.3-3.4c1-4.4-.7-13.2-3.1-17.1.8,1,4.4,4.2,5,3s.3-4.9,1-6c.8-1.3-3-6.1-1.4-6.2Z"/><path class="cls-4" d="M226.4,95.92l5.4-17h9.78l-5.4,17Zm5.7-19.26-.72-10.26h9.78l.72,10.26ZM234,64.18l-.72-10.26H243l.72,10.26Zm22.38-5.4.54-3.84-2-2.16h13.74l-.84,6H278L277.1,65H266.9l-1.08,7.68h9.3l-.9,6.24h-9.3l-1.38,9.66h11.58l-.9,6.24H240.44l.9-6.24h10.74l1.38-9.66h-8.58l.9-6.24h8.58L255.44,65h-9.6l.9-6.24Z"/><path class="cls-4" d="M292.88,95.86l2-2.16,2.52-18.24h-4.32L289.88,95.8h-8.64l3.24-20.34H281.9l.78-5.52h2.64l2.58-16h21l-2.22,16h3.24l2.58-16h21l-2.22,16h1.26l-.78,5.52H330.5l-2.28,16.26A8.6,8.6,0,0,1,327,94.66a2.81,2.81,0,0,1-2.46,1.2h-7l2-2.16L322,75.46h-4.32L314.48,95.8h-8.64l3.24-20.34H305.9l-2.28,16.26a8.6,8.6,0,0,1-1.26,2.94,2.81,2.81,0,0,1-2.46,1.2ZM294,69.94h4.2L299.78,59h-4Zm24.6,0h4.2L324.38,59h-4Z"/><path class="cls-4" d="M354.14,61.6,351,84.4l5.94,11.4h-8.46l-1.62-4.08-2.64,4.08h-8.7l9.06-11.16,3.24-23Zm8.58-7.74-4.56,32.46h-4.44l-1.32-3.24,3.3-23.52h-8.88l-3.3,23.52-2.34,3.24H336.8l4.56-32.46Zm1.44,19.8h-2.52l.78-5.7h2.52l1.86-12.9-1.92-2.28H376L373.82,68h1.26l6.24-13.56h8.34L383.42,68h4.86l-.78,5.7H373l-2.16,15.18,4.26-.84-.78,5.7L361,95.86Zm18.36,1.5,2.88,20.7h-8.34l-2.88-20.7Z"/><path class="cls-4" d="M422.78,90.34l2.4-4H395.54l4.8-9.06h-8l.78-5.7h50.16l-.78,5.7H411.8L410,80.68h27.42l-.84,5.64-5.88,9.6h-29L407,90.34Zm20-36.48-2.16,15.42h-44.4l1.86-13.14-2-2.28Zm-12.18,5.7H409l-.54,4H430.1Z"/></svg>