<svg id="图层_1" data-name="图层 1" xmlns="http://www.w3.org/2000/svg" viewBox="0 0 600.26 689.23"><defs><style>.cls-1{fill:#f2f2f2;}.cls-2{fill:#ffb6b6;}.cls-3,.cls-6,.cls-7{fill:#00ab55;}.cls-4{fill:#2f2e41;}.cls-5{fill:#3f3d56;}.cls-6,.cls-7{isolation:isolate;}.cls-6{opacity:0.7;}.cls-7{opacity:0.25;}.cls-8{fill:#fff;}.cls-9{fill:#e6e6e6;}.cls-10{fill:none;}</style></defs><g id="图层_1-2" data-name="图层 1-2"><path class="cls-1" d="M518.8,609.2h-.5l-430-5a44.54,44.54,0,0,1-43.9-44.8C14,458.7.7,379.4,1,302.3,1.4,221.8,17.3,140,51,44.7A44.52,44.52,0,0,1,95.5.9H96l430,5a44.52,44.52,0,0,1,43.9,45h0l-.9,74.6h-.6l-5.1,439.7A44.56,44.56,0,0,1,518.8,609.2ZM95.6,3A42.49,42.49,0,0,0,53.1,45v.2l-.1.2C-11.4,227.1-13.2,361.5,46.4,559v.3a42.72,42.72,0,0,0,42,43l430,5h.5a42.49,42.49,0,0,0,42.5-42l4.7-405.8v-2l.5-46.4h.6l.7-60.1a42.6,42.6,0,0,0-42-43L95.9,3Z" transform="translate(-0.04 0)"/><polygon class="cls-1" points="480.56 429.1 480.56 431.1 234.96 431.1 234.96 429.1 480.56 429.1"/><polygon class="cls-1" points="481.06 386.6 481.06 388.6 234.96 388.6 234.96 386.6 481.06 386.6"/><polygon class="cls-1" points="481.56 344.1 481.56 346.1 234.96 346.1 234.96 344.1 481.56 344.1"/><path class="cls-1" d="M480,475.5v2H229.5V267.6h2V393.2a82.75,82.75,0,0,0,8.2,35.9c.3.7.7,1.3,1,2a82.42,82.42,0,0,0,73.1,44.4Z" transform="translate(-0.04 0)"/><path class="cls-1" d="M132.6,579.8a43.6,43.6,0,0,1-43-44C32.5,346.4,28.9,211.6,96.3,21.5A42.57,42.57,0,0,1,102.5.1L94,0A43.53,43.53,0,0,0,50,43c-67.3,190-63.7,324.8-6.6,514.3a43.53,43.53,0,0,0,43,44l430,5a43.59,43.59,0,0,0,37.8-21.5l-421.6-5Z" transform="translate(-0.04 0)"/><path class="cls-2" d="M196.6,353.2a7.12,7.12,0,0,1-6,8.1,4.87,4.87,0,0,1-1.2.1L174.9,394l-10-1.8,17.5-38.6a7.16,7.16,0,0,1,14.2-.4Z" transform="translate(-0.04 0)"/><path class="cls-3" d="M118.3,453.4h0a11.64,11.64,0,0,0,15.5,1.1L168,427.7,185,375l-12.3-5.7-23.2,46.2L120,435.8a11.68,11.68,0,0,0-2.9,16.2A8.06,8.06,0,0,0,118.3,453.4Z" transform="translate(-0.04 0)"/><path class="cls-4" d="M125.8,435a15.57,15.57,0,0,0-2.8-1.6v-.8a18.56,18.56,0,0,0-1.5-7.7,9.26,9.26,0,0,1-1.8,6,2.7,2.7,0,0,1-.7.8l-.2.2a21,21,0,0,0-4.3-.5,19.73,19.73,0,0,0-4.8.6c-2,.4-4,.9-5.9,1.3-.1,0-.2.1-.4.1a17.72,17.72,0,0,0-4.2-6.6,8.82,8.82,0,0,1,.5,6.2,3,3,0,0,1-.4,1,17.32,17.32,0,0,1-6.4-.4,10.89,10.89,0,0,1-2.5-1c-2.9-1.4-5.4-3.5-8.4-4.7a17.57,17.57,0,0,0-5-1.3c-1.4-8.2-1-15.6,3.4-20.9a21.89,21.89,0,0,1,21.9-21.9h0l10,3.5,10.1,3.5C127.1,403.8,134.6,414.9,125.8,435Z" transform="translate(-0.04 0)"/><polygon class="cls-2" points="143.16 665.8 150.06 669 166.16 643.5 155.96 638.7 143.16 665.8"/><path class="cls-4" d="M159.7,684.1l-7.3-12.7,2.3-4.9-2.4-1-7.5-3-1.8-.7-9.7,16.6,5.1,2.4,3.2-4.4v6l13.6,6.5a3.36,3.36,0,0,0,4.5-1.6h0a3.07,3.07,0,0,0,0-3.2Z" transform="translate(-0.04 0)"/><polygon class="cls-2" points="243.06 566.6 248.56 561.4 230.36 537.3 222.36 545.1 243.06 566.6"/><path class="cls-4" d="M266.1,557.7l-14.4,2.4-3.8-3.9-1.8,1.9-5.5,6-1.3,1.5,12.1,14.9,4.1-3.9-3-4.6,5.6,2.1L269,563.6a3.44,3.44,0,0,0,.1-4.8,3.21,3.21,0,0,0-3-1.1Z" transform="translate(-0.04 0)"/><path class="cls-4" d="M127.3,523.1l-27-6,.2,8.2s-28.2,21.8-2.2,42.8,70,23,70,23l-20,58,10,4,39.4-53.8c5.3-9.6,3.8-21.8-4.1-29.4a22.29,22.29,0,0,0-5.3-3.8c-12-6-44-18-44-18l-16-16-1-9Z" transform="translate(-0.04 0)"/><path class="cls-4" d="M126.3,538.1l55.5-35.3a16.26,16.26,0,0,1,19.8,1.7l41.8,45.6-11,9-43-30s-25,28-32,28S126.3,538.1,126.3,538.1Z" transform="translate(-0.04 0)"/><path class="cls-3" d="M96.3,540.9s-17-9.7-9-17.8,9-34,9-34l-13-39.2,10-7,3-11.9,18-1v8.9l18,20a24.58,24.58,0,0,1,4.8,25L132.3,497s14,37,2,42S96.3,540.9,96.3,540.9Z" transform="translate(-0.04 0)"/><path class="cls-1" d="M186.4,397.7l-47.3-42.2a17.31,17.31,0,1,1,22.4-26.4c.2.2.4.3.6.5l.1.1,47.3,42.2a17.32,17.32,0,1,1-23.1,25.8Z" transform="translate(-0.04 0)"/><circle class="cls-2" cx="109.56" cy="408.8" r="18"/><path class="cls-4" d="M118.9,405.1a16.11,16.11,0,0,0-1.5-6.1,9.26,9.26,0,0,1-1.8,6l-.1.1c-3.3,1.6-8.9.7-14.3,0v-20h11c10.8-3.6,19.7,4.3,20,20-5.1.9-9.9,1.4-13.3,0Z" transform="translate(-0.04 0)"/><path class="cls-4" d="M109.6,432.1c-2,.4-4,.9-5.9,1.3-.1,0-.2.1-.4.1a17.72,17.72,0,0,0-4.2-6.6,8.82,8.82,0,0,1,.5,6.2,3,3,0,0,1-.4,1,17.32,17.32,0,0,1-6.4-.4,10.89,10.89,0,0,1-2.5-1V390h21C103.2,403.9,102,417.9,109.6,432.1Z" transform="translate(-0.04 0)"/><path class="cls-4" d="M105.6,382.1a2.71,2.71,0,0,0-3.1-1.6,8.67,8.67,0,0,0-3.3,1.7,2.59,2.59,0,0,0-.6-3.7l-.1-.1a4.68,4.68,0,0,0-4.3-.3c-1.5.5-2.7,1.2-4.1,1.7a5.83,5.83,0,0,1-4.3.2,8.49,8.49,0,0,0,2.9,4.3,3.82,3.82,0,0,0-4.1,2,3.92,3.92,0,0,0,.5,4.5,5.54,5.54,0,0,0,5.2,1.3,12.88,12.88,0,0,0,4.9-2.6,15.69,15.69,0,0,1,4.9-2.7l-5.9,3.7a70.93,70.93,0,0,0,8.7-4.4,8.34,8.34,0,0,0,2.1-1.6A2.63,2.63,0,0,0,105.6,382.1Z" transform="translate(-0.04 0)"/><path class="cls-5" d="M77.4,561.7a8.57,8.57,0,0,1,6.6-8.4c4.3-1,8.7,1.6,12.3,4,6.5,4.3,14,0,20.9,5.3,10.2,7.7,12.3-3.9,11.7-17.6-.5-10.1,1.6-20,2-30,.4-9.6,2.6-19.3,9.3-25.2,2.8-2.5,6.3-4,9.9-3.1s6.7,4.2,10.3,5.6c6.7,2.6,13.8-.9,18.8-6.3,5.9-6.3,8.7-15.2,10.7-24.1,2.1-9.3,3.4-19,7.2-27.5,3.3-7.3,8.4-14,15.5-15.4,6.9-1.4,13.6,2.7,19.5,6.4,6.2,3.8,12.5,7.9,19.6,8.2,15.1.8,26.8-14.8,33.3-29.5,7.5-16.8,11.8-37.2,25.1-49.1,5.7-5.1,12.9-8.7,20.2-7.3s12.6,7.8,17.5,14.1,9.9,12.7,16.6,16.3a32.14,32.14,0,0,0,31.1.4c1.5-.8.2-3.3-1.3-2.6a29.82,29.82,0,0,1-22.5,2.1c-7.5-2.2-13.4-7.2-18.7-13.8-4.8-6-9.4-12.9-15.7-16.8s-13.7-3.8-20.3-.7-12.5,8.9-16.8,15.7c-5.1,7.9-8.5,17.2-11.9,26.3-6.2,16.4-14,35.8-29.8,40.9-14.9,4.8-25.9-11.1-39.9-13.6-6.8-1.2-13.3,1.6-18.2,7.5-5,6.1-7.9,14.2-9.8,22.3-2.3,10-3.6,20.7-7.9,29.8-3.4,7.2-9.7,13.9-16.9,14.4-4.1.3-7.2-2-10.8-4.2-3.2-2-6.5-3-10-2.2-6.7,1.6-11.8,8.7-14.4,15.9-6.3,17.8,2.4,40.8-9.9,56-2.2,2.8-5.1,4.9-8.4,5.3-4.4.6-8.4-1.9-12.1-4.4-6.4-4.3-14.4-10-21.4-4.1a11.77,11.77,0,0,0-4.1,9c.2,2.4,2.7,2.4,2.7.4Z" transform="translate(-0.04 0)"/><circle class="cls-3" cx="330.66" cy="347.1" r="9"/><circle class="cls-3" cx="255.7" cy="431.1" r="9" transform="translate(-210.84 614.45) rotate(-80.78)"/><path class="cls-1" d="M242,136c5.5-11.5,19.8-17.8,32-14.3,6.9,2,12.6,6.6,19,10s14.2,5.5,20.5,2.2c10.9-5.7,10.3-22.6,19.8-30.4,6.3-5.2,15.6-5,23.4-2.5s15,6.7,22.8,9a47.41,47.41,0,0,0,43-9.2l.3-.3a8.83,8.83,0,0,1,12.4.7,8.52,8.52,0,0,1,2.2,6.1l-1.5,53.6h-193Z" transform="translate(-0.04 0)"/><path class="cls-5" d="M411.3,126.3a.73.73,0,0,0,.4-1,.78.78,0,0,0-.4-.4,72.93,72.93,0,0,1-13.2-7.1.8.8,0,0,0-1.1.3,1.27,1.27,0,0,0-.1.6l2.2,6h-37v2h37l-2.2,6c-.3.7.6,1.3,1.2.9A58.52,58.52,0,0,1,411.3,126.3Z" transform="translate(-0.04 0)"/><path class="cls-5" d="M328.1,116.7a.69.69,0,0,0-.3-1,1.27,1.27,0,0,0-.6-.1,61.7,61.7,0,0,1-14.8,2.3.86.86,0,0,0-.8.8.55.55,0,0,0,.4.6l5.3,3.4-29.4,22.4,1.2,1.6,29.4-22.4,1.9,6.1a.88.88,0,0,0,1,.5,1.21,1.21,0,0,0,.5-.5A62.61,62.61,0,0,1,328.1,116.7Z" transform="translate(-0.04 0)"/><circle class="cls-3" cx="429.26" cy="96.7" r="17.1"/><circle class="cls-6" cx="345.26" cy="96.7" r="17.1"/><circle class="cls-7" cx="269.26" cy="112.7" r="17.1"/><path class="cls-8" d="M144.1,615.6H100.5a6.59,6.59,0,0,1-6.6-6.6h0V565.4a6.59,6.59,0,0,1,6.6-6.6h43.6a6.59,6.59,0,0,1,6.6,6.6h0V609a6.47,6.47,0,0,1-6.3,6.6Z" transform="translate(-0.04 0)"/><path class="cls-9" d="M144.1,615.6H100.5a6.59,6.59,0,0,1-6.6-6.6h0V565.4a6.59,6.59,0,0,1,6.6-6.6h43.6a6.59,6.59,0,0,1,6.6,6.6h0V609a6.47,6.47,0,0,1-6.3,6.6Zm-43.5-55.8a5.59,5.59,0,0,0-5.6,5.6h0V609a5.59,5.59,0,0,0,5.6,5.6h31a18.1,18.1,0,0,0,18.1-18.1v-31a5.59,5.59,0,0,0-5.6-5.6h0l-43.5-.1Z" transform="translate(-0.04 0)"/><path class="cls-1" d="M463.8,571.5a2.31,2.31,0,0,0,2.4-2.1,2.17,2.17,0,0,0-.8-1.8l-.2-.6c0-.1,0-.1.1-.1a6.1,6.1,0,0,1,8-3.2,5.9,5.9,0,0,1,3.2,3.2c1.8,4.4,4.2,8.9,4.8,13.5a16.13,16.13,0,0,1-.3,6.2,72.08,72.08,0,0,0,6.6-30,67.92,67.92,0,0,0-.4-7.8c-.2-2.1-.6-4.2-1-6.3a73.14,73.14,0,0,0-14.5-31,19.88,19.88,0,0,1-8.1-8.4,15.06,15.06,0,0,1-1.3-4.1c.4.1,1.5-5.9,1.2-6.3.5-.8,1.5-1.2,2.1-2.1,3-4,7.1-3.3,9.2,2.2,4.6,2.3,4.6,6.1,1.8,9.8-1.8,2.3-2,5.5-3.6,8,.2.2.3.4.5.6a73.72,73.72,0,0,1,7.7,12.2,31.18,31.18,0,0,1,1.8-14.2c1.7-4.2,5-7.8,7.9-11.4a6.33,6.33,0,0,1,8.8-1.1,6.23,6.23,0,0,1,2.4,4.2v.2c-.4.2-.8.5-1.3.8a3.08,3.08,0,0,0-.8,4.3,3.36,3.36,0,0,0,2,1.3h.1a36.91,36.91,0,0,1-.8,4.6c3.7,14.3-4.3,19.5-15.7,19.8a2.51,2.51,0,0,0-.7.4,70.79,70.79,0,0,1,2.8,10c.6,3,1,6,1.3,9a63.11,63.11,0,0,1-.1,11.5v-.1a18.81,18.81,0,0,1,6.4-10.9c4.9-4.1,11.9-5.6,17.3-8.8a3.55,3.55,0,0,1,4.9,1,2.89,2.89,0,0,1,.5,2.4v.1a16.27,16.27,0,0,0-2.3,1.1c-.4.2-.8.5-1.3.8a3.08,3.08,0,0,0-.8,4.3,3.36,3.36,0,0,0,2,1.3h.2a33.74,33.74,0,0,1-5.6,8.8c-2.3,12.5-12.3,13.7-22.9,10h0a84.89,84.89,0,0,1-5,14.7h-18c-.1-.2-.1-.4-.2-.6a20.71,20.71,0,0,0,5-.3l-4-4.9-.1-.1c-.7-.8-1.4-1.7-2-2.5h0a21.67,21.67,0,0,1,.8-7.6Z" transform="translate(-0.04 0)"/><path class="cls-2" d="M102.9,565.5a7.3,7.3,0,0,1-1.8-10,2.7,2.7,0,0,1,.7-.8L88,521.8l8.1-6.1,16.2,39.1a7.08,7.08,0,0,1,.5,8.8,6.92,6.92,0,0,1-9.6,2.1C103.1,565.7,103,565.6,102.9,565.5Z" transform="translate(-0.04 0)"/><path class="cls-3" d="M92.7,445.9h0a11.83,11.83,0,0,0-12.4,9.4L72.2,498l25,51,13-6-16-48,8.7-34.8a11.53,11.53,0,0,0-8.3-14c-.7-.1-1.3-.2-1.9-.3Z" transform="translate(-0.04 0)"/><path class="cls-9" d="M104.3,574.9a1.54,1.54,0,0,0-1.5,1.5v1a1.54,1.54,0,0,0,1.5,1.5h35a1.54,1.54,0,0,0,1.5-1.5v-1a1.54,1.54,0,0,0-1.5-1.5Z" transform="translate(-0.04 0)"/><path class="cls-9" d="M104.3,585.9a1.54,1.54,0,0,0-1.5,1.5v1a1.54,1.54,0,0,0,1.5,1.5h35a1.54,1.54,0,0,0,1.5-1.5v-1a1.54,1.54,0,0,0-1.5-1.5Z" transform="translate(-0.04 0)"/><path class="cls-9" d="M104.3,596.9a1.54,1.54,0,0,0-1.5,1.5v1a1.54,1.54,0,0,0,1.5,1.5h35a1.54,1.54,0,0,0,1.5-1.5v-1a1.54,1.54,0,0,0-1.5-1.5Z" transform="translate(-0.04 0)"/></g><rect class="cls-10" x="144.16" y="175.9" width="402.3" height="76.7"/><rect class="cls-10" x="435.86" y="380" width="164.4" height="44.1"/><rect class="cls-10" x="279.96" y="475.4" width="164.4" height="44.1"/><rect class="cls-10" x="132.96" y="296.3" width="164.4" height="44.1"/><path class="cls-3" d="M180.62,241H166.94l9.76-15.2h13.6Zm58.32-47.2-35.76,1.36-6.08,4.08h38.08l-1.2,8.56h-31.6L192,214.39h26.64l-.32-3.12h15.2l1.28,12.24h-15.2l-.16-1.52H210.7l-2.32,16.56a6.18,6.18,0,0,1-2.16,3.8,6.12,6.12,0,0,1-4.08,1.48H186.3l7.12-7.44L195.5,222H174.22l1-7.6,11.2-6.72H176.22l1.2-8.32,6-3.52-8.64.32,1.2-8.4,64.08-1.6ZM233.82,241H220.14l-5.44-15.2h13.68Z" transform="translate(-0.04 0)"/><path class="cls-3" d="M264.46,242.47l-23,1.36,1.12-7.44,23-1.52ZM246.78,206l10.32-16.24-1.68-2h16.72L260.46,206h9.12L257.9,224.23H267l-1,7.6h-22.8l1-7.6,6.8-10.64h-5.28Zm39.12,13.68-7.76,22.8H266l7.76-22.8Zm21.92-15.2,2.64,13.68H299.82l-.32-1.44-30.08,1.44,1-7.6,7.76-12.16h-7.6l1.12-7.6h12.8l.24-1.52-2.56-3h18.24l-.72,4.56h13l-1.12,7.6H293.42l-7.28,11.36,11.92-.56-.88-4.72Zm-6.72,15.2-1.92,13.68h6.08l3.44-3L307,242.47H285.74l3.2-22.8Z" transform="translate(-0.04 0)"/><path class="cls-3" d="M341.26,233.35l5.12-36.48H322.06l1-7.6h63.84l-1,7.6H361.58l-5.12,36.48H382.3l-1,7.6H314.38l1-7.6Z" transform="translate(-0.04 0)"/><path class="cls-3" d="M388.06,241l5.12-28.16H400L394.86,241ZM420,194.31l-5.84.56-1,7.52H420l-1,7.36h-7.76l-4.8,34.08H395.82l4.8-34.08h-8.16l1-7.36h7.28l1-6.4-6.88.64,1-7.36L421,187ZM408.3,241l2.88-28.16H418L415.1,241Zm22.32-17.68.64-4.88h-12l1-7H458.3l-1,7H445.18l-.64,4.88h10.64l-1,7.28H443.5l-.88,6h12.72l-1,7h-39l1-7h12.4l.88-6H419l1-7.28Zm-5.52-35.52h35.36l-2.88,20.56H422.22Zm21.44,13.6.88-6.64H436.06l-.88,6.64Z" transform="translate(-0.04 0)"/><path class="cls-3" d="M467.82,190.71H478.3l-5.52,39.44H462.3Zm19.6,32.16-8.32,20.88H467.74l9-20.88,4.72-33.44-1.68-3.12h12.8Zm46-35.12-1,7.44h-13.6l-.8,5.6H531.5L527,232.47a6.14,6.14,0,0,1-2.12,3.84,5.92,5.92,0,0,1-4,1.6H513.1l3.2-4.24,3.6-25.2h-3l-5,35.28H499.5l5-35.28h-2.88l-4.16,29.44H486.86l5.2-37.12h13.52l.8-5.6H492.7l1-7.44Z" transform="translate(-0.04 0)"/><path class="cls-4" d="M118.36,309.79h-6.84l4.88-7.6h6.8Zm29.16-23.6-17.88.68-3,2h19l-.6,4.28h-15.8l-5.2,3.32h13.32L137.2,295h7.6l.64,6.12h-7.6l-.08-.76H133.4l-1.16,8.28a3.06,3.06,0,0,1-1.08,1.9,3.1,3.1,0,0,1-2,.74H121.2l3.56-3.72,1-7.2H115.16l.52-3.8,5.6-3.36h-5.12l.6-4.16,3-1.76-4.32.16.6-4.2,32-.8ZM145,309.79h-6.84l-2.72-7.6h6.84Z" transform="translate(-0.04 0)"/><path class="cls-4" d="M160.28,310.55l-11.52.68.56-3.72,11.48-.76Zm-8.84-18.24,5.16-8.12-.84-1h8.36l-5.84,9.12h4.56L157,301.43h4.56l-.52,3.8h-11.4l.52-3.8,3.4-5.32h-2.64ZM171,299.15l-3.88,11.4H161l3.88-11.4Zm11-7.6,1.32,6.84H178l-.16-.72-15,.72.52-3.8,3.88-6.08h-3.8l.56-3.8h6.4l.12-.76-1.28-1.52h9.12l-.36,2.28h6.52l-.56,3.8h-9.12l-3.64,5.68,6-.28-.44-2.36Zm-3.36,7.6-1,6.84h3l1.72-1.52-.84,6.08H170.92l1.6-11.4Z" transform="translate(-0.04 0)"/><path class="cls-4" d="M192.36,311.19l1.88-2.2,1.08-7.6h-3l-1.76,9.8h-5.12l4.68-26.52-.68-1.32h13.64l-3.52,25.2a3.37,3.37,0,0,1-1,1.88,2.43,2.43,0,0,1-1.74.76Zm.68-13.6h2.8l.48-3.44h-2.64Zm1.32-7.24h2.52l.44-3.2H195Zm6,20.88,3.92-27.88h17l-.92,6.52a3.21,3.21,0,0,1-1,1.94,2.64,2.64,0,0,1-1.86.78h-4.24l1.56-1.48.56-4.12h-6.08l-1,7h11.4l-.84,5.8-3.28,4.56,3.2,6.92H214l-1.32-2.8-2,2.8Zm7.4-13.64-1.88,13.56,4.92-6.8-2.76-6h4.8l.88,2,1.44-2,.12-.72Z" transform="translate(-0.04 0)"/><path class="cls-4" d="M222.32,311.23l8.36-8.28h-6.4l.52-3.8h9.72l2-1.92h8.36l-2,1.92H256l-1.32,9.44a3.06,3.06,0,0,1-1.08,1.9,3.1,3.1,0,0,1-2,.74H243.6l3.6-3.72.64-4.56H239l-8.36,8.28Zm24-14.36-5-1.76-5.52,1.76H224.36l.52-3.8h7.28l1.76-.56-2.76-1h-6l4.48-8-.92-1.08h9.12L237,284h21.12l-.84,6.08-7.8,2.48,1.6.56h6.52l-.52,3.8Zm-10.56-9.12L242,290l6.84-2.2Z" transform="translate(-0.04 0)"/><path class="cls-4" d="M439,400.85l2.68-2.84.72-5.16h-2.28l-1,7.24h-5.32l1-7.24h-1.52l-1,7.24H427l1-7.24h-2.28l-1.12,8h-6.84l1.48-10.64h10.6l.32-.76h-10.8l.36-2.68h30.4l-.36,2.68h-12l-.36.76h12.2l-1.12,7.92a3.13,3.13,0,0,1-1,1.94,3,3,0,0,1-2,.78Zm7.16-21.28h-7.24l-.88,6.48H432l.88-6.48h-7.24l-.76,5.32h-5.64l1.12-8h12.92l.08-.72H421.19l.36-2.68H452l-.36,2.68h-12.2l-.08.72h12.92l-1.12,8h-5.72Zm-14.6,3.8-.32,2.28h-5.72l.32-2.28Zm.44-3-.32,2.28H426l.32-2.28Zm12.84,3-.32,2.28h-5.68l.32-2.28Zm.44-3-.32,2.28h-5.68l.32-2.28Z" transform="translate(-0.04 0)"/><path class="cls-4" d="M453.79,400.09l5.32-11h7.6l-5.32,11Zm9.64,1.44,3.6-3.72,2.4-17.48H457.31l.52-3.8H470l.32-2.32L469,372.73h9.12l-.56,3.8h12.16l-.52,3.8H477.07l-2.6,18.56a3.15,3.15,0,0,1-1.08,1.9,3.1,3.1,0,0,1-2,.74Zm-4.16-13.6-1.36-6.48h7.6l1.36,6.48Zm21.12,12.16-3-11H485l3,11Zm-2.88-12.16,3.2-6.44h7.6l-3.2,6.44Zm3.24-12.16-1.08-3h7.6l1.08,3Z" transform="translate(-0.04 0)"/><path class="cls-4" d="M520.59,387.17l-.84,6.08h-19l-.16,1.12h19.8l-1,7.16H492l2-14.36h-3l.84-6.08h12.32L504,380h8.84l.16,1.08h12.28l-.84,6.08ZM502,374.25h7.52l-.4,3H506l1.28,2.28h-6.08l-1.12-2-1.16,2H492l3.36-5.8-.88-1h8.36ZM498.71,386H517l.16-1.12H498.87Zm1.4,11.4-.16,1.16h12.2l.16-1.16Zm1.2-8.36-.16,1.16h11.4l.16-1.16ZM518,374.25h8.24l-.4,3H522l1.24,2.28h-6.08l-1.12-2-1.16,2H508l3.36-5.8-.88-1h8.36Z" transform="translate(-0.04 0)"/><path class="cls-4" d="M531.87,383.81l1-6.8h-1.92l.48-3.56H542l-.48,3.56h-2.32l-1,6.8h2.44l-.6,4h-2.4l-1,7.56,2.32-.44-.52,3.88-11,2,.52-3.8,2.2-.4,1.24-8.76h-2.08l.6-4Zm15.64,7.12.32-2.32h-6.64l2.12-15.16h20.08l-2.12,15.16h-7.36l-.32,2.32h7.28l-.56,3.8h-7.24l-.32,2.28h8.12l-.52,3.8H538.63l.52-3.8h7.52l.32-2.28h-6.76l.56-3.8Zm.84-6,.32-2.16h-2.24l-.28,2.16Zm-1.44-5.76h2.28l.28-2.16h-2.24Zm9.8,5.76.28-2.16h-2.24l-.32,2.16Zm-1.16-7.92-.28,2.16h2.2l.32-2.16Z" transform="translate(-0.04 0)"/><path class="cls-4" d="M286,530l2.08-4,1.88-13.52h-1.52l.52-3.8h8.36l-2.2,15.84,5.48,1.64h18.6l-.52,3.8H297.38l-4-1.16-.6,1.16Zm9.92-27.36,1.64,4.56h-6.08l-1.64-4.56Zm21.88-.72-1.64,3.72h4.08l-.52,3.68h-5.2L313,512.63h7.2l-.56,3.8H316.5l2.2,8h-7.2L309.42,517l-4.64,7.52h-7.24l5-8h-5.16l.56-3.8h7.48l1.48-3.36h-2.44l-.88,2.24h-5.32l3.08-7.6-1.12-1.32h6.84l-1.16,3h2.64l1.12-2.56-1-1.16Z" transform="translate(-0.04 0)"/><path class="cls-4" d="M333.82,506.39l-3.44,24.24h-7.24l3.24-22.76-2.36.44.64-4.56,9.8-1.92Zm22.28,6.08-8,.84,1.24,12.08h4.16l1.72-1.52-.84,6.08H342.26l-1.68-15.88-6.84.68.56-3.8,5.92-.6-.72-7-1.28-1.52H347l.76,7.76,8.92-.92Zm-.8-4.92h-6.08l-.2-4.2h6.08Z" transform="translate(-0.04 0)"/><path class="cls-4" d="M388.7,516.27l-.84,6.08h-19l-.16,1.12h19.8l-1,7.16H360.06l2-14.36h-3l.84-6.08h12.32l-.16-1.08h8.84l.16,1.08h12.28l-.84,6.08Zm-18.64-12.92h7.52l-.4,3h-3.12l1.28,2.28h-6.08l-1.12-2-1.16,2h-6.84l3.36-5.8-.88-1H371Zm-3.24,11.76h18.24l.16-1.12H367Zm1.4,11.4-.16,1.16h12.2l.16-1.16Zm1.2-8.36-.16,1.16h11.4l.16-1.16Zm16.64-14.8h8.24l-.4,3h-3.84l1.24,2.28h-6.08l-1.12-2-1.16,2H376.1l3.36-5.8-.88-1h8.36Z" transform="translate(-0.04 0)"/><path class="cls-4" d="M400,512.91l1-6.8H399l.48-3.56h10.56l-.48,3.56h-2.32l-1,6.8h2.44l-.6,4h-2.4l-1,7.56,2.32-.44L406.5,528l-11,2,.52-3.8,2.2-.4,1.24-8.76h-2.08l.6-4ZM415.62,520l.32-2.32H409.3l2.12-15.16H431.5l-2.12,15.16H422L421.7,520H429l-.56,3.8h-7.24l-.32,2.28H429l-.52,3.8H406.74l.52-3.8h7.52l.32-2.28h-6.76l.56-3.8Zm.84-6,.32-2.16h-2.24l-.28,2.16ZM415,508.31h2.28l.28-2.16h-2.24Zm9.8,5.76.28-2.16h-2.24l-.32,2.16Zm-1.16-7.92-.28,2.16h2.2l.32-2.16Z" transform="translate(-0.04 0)"/></svg>