<?xml version="1.0" encoding="utf-8"?>
<!-- Generator: Adobe Illustrator 25.3.1, SVG Export Plug-In . SVG Version: 6.00 Build 0)  -->
<svg version="1.1" xmlns="http://www.w3.org/2000/svg" xmlns:xlink="http://www.w3.org/1999/xlink" x="0px" y="0px"
	 viewBox="0 0 453 189" style="enable-background:new 0 0 453 189;" xml:space="preserve">
<style type="text/css">
	.st0{display:none;}
	.st1{display:inline;}
	.st2{enable-background:new    ;}
	.st3{fill:#00AB55;}
</style>
<g id="图层_1" class="st0">
	<g class="st1">
		<g id="图层_1_1_">
			<g class="st2">
				<path class="st3" d="M82.7,36.1c3.3,1,4.9,2.9,4.9,5.8c0,2.6-1.1,4.9-3.2,7c-8.2-3.8-15.8-5.6-22.9-5.6c-5,0-8.5,1-10.5,3
					c-2.1,2-3.1,4.7-3.1,8.2c0,3.6,1.2,6.5,3.7,8.7c2.4,2.1,7.1,4.3,13.9,6.4c8.1,2.4,14.2,5.2,18.4,8.3c4.2,3.1,6.4,8.2,6.6,15.3
					c0,7.9-2.7,13.8-8.1,17.8c-5.4,4-13.6,6-24.6,6c-7.7,0-13.5-0.5-17.5-1.6s-6-3.1-6-6.1c0-2.7,1.1-5.1,3.4-7.1
					c7.7,4.2,15.8,6.3,24.1,6.3c5.7,0,9.8-0.9,12.2-2.8c2.4-1.9,3.6-4.8,3.6-8.7c0-4.7-1.7-8.2-5.2-10.5s-9.1-4.7-16.7-7.1
					c-7.4-2.3-12.7-5.1-15.8-8.5s-4.7-7.9-4.7-13.4c0-6.9,2.6-12.4,7.7-16.5s12.5-6.1,22.1-6.1C73.5,34.6,79.4,35.1,82.7,36.1z"/>
			</g>
			<g class="st2">
				<path class="st3" d="M141.8,35.3c0.6,0.3,4.5,11.2,11.8,32.8c7.3,21.5,12.2,35.4,14.8,41.6h5.2c0.5,1.2,0.7,2.3,0.7,3.4
					c0,1-0.2,1.7-0.6,2.1c-0.4,0.4-1.1,0.6-2.1,0.6h-24.3c-0.5-1.3-0.8-2.6-0.8-3.7c0-0.8,0.2-1.4,0.6-1.8c0.4-0.4,1.1-0.6,2-0.6
					h3.2c-0.7-3.5-2.6-10.2-5.6-20h-26.4c-2.7,9.8-4.4,16.5-4.9,20h5.4c0.5,1.2,0.7,2.3,0.7,3.4c0,1-0.2,1.7-0.6,2.1
					s-1.1,0.6-2.1,0.6H97.4c-0.5-1.3-0.7-2.6-0.7-3.7c0-0.8,0.2-1.4,0.6-1.8s1.1-0.6,2-0.6h3.4c2.6-7.1,6.9-20,12.8-38.5
					s9.7-29.3,11.1-32.1c1.4-2.8,4-4.2,7.7-4.2C138.8,34.9,141.3,35,141.8,35.3z M144.5,82.1c-7.1-22.6-10.9-33.9-11.5-33.9
					s-4.1,11.3-10.6,33.9H144.5z"/>
				<path class="st3" d="M209.9,35.7c10.8,0,18.7,1.5,23.9,4.5s7.7,7.6,7.7,13.7c0,9.3-5.6,16.1-16.8,20.2
					c13.7,2.1,20.6,8.3,20.6,18.8c0,6.9-2.8,12.4-8.3,16.6s-15.3,6.2-29.2,6.2l-25.9,0.1c-0.5-1.3-0.8-2.6-0.8-3.8
					c0-0.8,0.2-1.4,0.6-1.7c0.4-0.4,1.1-0.6,2-0.6h4.3c0.3-5.5,0.4-17.3,0.4-35.4c0-16.3-0.1-27.1-0.4-32.6h-6.2
					c-0.5-1.3-0.8-2.6-0.8-3.7c0-0.8,0.2-1.4,0.6-1.8c0.4-0.4,1.1-0.6,2-0.6L209.9,35.7L209.9,35.7z M209.1,70.7
					c6.4,0,11-1.1,13.8-3.4s4.2-5.5,4.2-9.8c0-4.5-1.4-7.9-4.2-10s-7.2-3.2-13.1-3.2c-2.8,0-5.5,0.2-8,0.6c-0.2,5-0.3,13.5-0.3,25.4
					C203.8,70.6,206.3,70.7,209.1,70.7z M201.6,92.6c0,6.9,0.5,11,1.5,12.4s4.6,2.1,10.9,2.1c6.1,0,10.5-1.1,13.1-3.2s4-5.5,4-10.1
					c0-5.1-1.7-9-5-11.7c-3.4-2.7-8.5-4.1-15.4-4.1c-3.3,0-6.3,0.2-9,0.6v14H201.6z"/>
				<path class="st3" d="M266.7,45.6c6.4-7.3,15.4-11,27-11c10.6,0,18.7,2.7,24.3,8s8.3,15.1,8.3,29.2c0,15.4-3.2,26.8-9.6,34.1
					c-6.4,7.3-15.4,11-27,11c-10.6,0-18.7-2.7-24.3-8c-5.5-5.3-8.3-15.1-8.3-29.2C257.1,64.3,260.3,52.9,266.7,45.6z M276.8,101.1
					c3.5,4.8,8.8,7.2,15.7,7.2c6.4,0,11.3-2.4,14.6-7.3c3.3-4.9,4.9-12.8,4.9-23.8c0-13.2-1.8-22.2-5.3-26.9s-8.8-7.1-15.7-7.1
					c-6.4,0-11.3,2.4-14.6,7.3c-3.3,4.9-4.9,12.8-4.9,23.8C271.5,87.3,273.2,96.3,276.8,101.1z"/>
				<path class="st3" d="M369.1,109.7c0.5,1.2,0.7,2.3,0.7,3.4c0,1-0.2,1.7-0.6,2.1s-1.1,0.6-2.1,0.6h-27.5
					c-0.5-1.3-0.8-2.6-0.8-3.7c0-0.8,0.2-1.4,0.6-1.8s1.1-0.6,2-0.6h5.3c0.3-5.4,0.5-19.4,0.5-41.8c0-12-0.2-20.7-0.5-26.1H340
					c-0.5-1.3-0.7-2.6-0.7-3.7c0-0.8,0.2-1.4,0.6-1.8c0.4-0.4,1.1-0.6,2-0.6h25.3c11.9,0,20.4,1.6,25.4,4.9s7.6,8.5,7.6,15.5
					c0,10.8-6.5,18.2-19.5,22.1c3.7,1.1,6.7,3.2,9,6.2s4.7,7.4,7.3,13s4.6,9.1,6,10.3c1.5,1.3,3.5,1.9,6.2,1.8
					c0.8,2.8,0.7,4.7-0.3,5.7s-3.5,1.5-7.6,1.5c-4.6,0-8-0.6-10-1.8s-4.2-5.5-6.4-12.9c-2.2-7.4-4.5-12.6-7-15.6s-6-4.5-10.7-4.5
					c-2.4,0-4.8,0.2-7.2,0.6c0.1,13.5,0.2,22.5,0.5,27.1h8.6V109.7z M360.2,74.6h4.9c6.8,0,11.9-1.2,15.4-3.6s5.2-5.9,5.2-10.7
					c0-5.5-1.6-9.6-4.7-12.2c-3.2-2.6-7.7-3.9-13.6-3.9c-2.7,0-5,0.2-6.8,0.6c-0.3,3.4-0.5,11.3-0.5,23.7v6.1H360.2z"/>
			</g>
			<g class="st2">
				<path d="M42.7,147.2c0.1,0.3,0.2,0.6,0.2,0.8s0,0.4-0.1,0.5s-0.3,0.1-0.5,0.1h-0.7c-0.5,2-1.3,5.3-2.4,9.9s-1.8,7.3-2.1,7.9
					c-0.4,0.6-1,0.9-2,0.9c-1.2,0-1.9,0-2-0.1s-0.7-2.7-1.7-7.9s-1.6-7.8-1.6-7.8s-0.6,2.3-1.5,7s-1.5,7.3-1.9,7.9
					c-0.4,0.6-1,0.9-2,0.9c-1.1,0-1.8,0-1.9-0.1s-0.8-2.8-2.1-8s-2.2-8.8-2.8-10.6h-1.1c-0.1-0.3-0.2-0.6-0.2-0.9
					c0-0.2,0.1-0.4,0.2-0.4s0.3-0.1,0.5-0.1h5.9c0.1,0.3,0.2,0.6,0.2,0.8s0,0.4-0.1,0.5s-0.3,0.1-0.5,0.1h-0.8
					c0.2,1.4,0.7,4.4,1.7,8.8c0.9,4.4,1.5,6.7,1.6,6.7s0.7-2.8,1.8-8.4s1.6-8.4,1.8-8.5c0.1-0.1,0.9-0.1,2.3-0.1
					c0.6,0,1,0.1,1.2,0.3s0.8,3.1,1.9,8.5s1.7,8.1,1.8,8.1s0.6-2.2,1.5-6.6s1.3-7.4,1.4-8.8h-1.2c-0.1-0.3-0.2-0.6-0.2-0.9
					c0-0.2,0.1-0.4,0.2-0.4s0.3-0.1,0.5-0.1L42.7,147.2L42.7,147.2z"/>
				<path d="M56.3,147.2c0.1,0.3,0.2,0.6,0.2,0.8s0,0.4-0.1,0.5s-0.3,0.1-0.5,0.1h-1c-0.1,1.4-0.1,3.7-0.1,7h8.7c0-3.3,0-5.6-0.1-7
					h-1.5c-0.1-0.3-0.2-0.6-0.2-0.9c0-0.2,0.1-0.4,0.2-0.4s0.3-0.1,0.5-0.1h6.2c0.1,0.3,0.2,0.6,0.2,0.8s0,0.4-0.1,0.5
					s-0.3,0.1-0.5,0.1H67c-0.1,1.4-0.1,3.6-0.1,6.7c0,5.5,0,8.9,0.1,10.3h1.7c0.1,0.3,0.2,0.6,0.2,0.8s0,0.4-0.1,0.5
					s-0.3,0.1-0.5,0.1h-6.2c-0.1-0.3-0.2-0.6-0.2-0.9c0-0.2,0.1-0.4,0.2-0.4s0.3-0.1,0.5-0.1h1c0.1-1.2,0.1-3.9,0.1-8.1H55
					c0,4.3,0,7,0.1,8.1h1.5c0.1,0.3,0.2,0.6,0.2,0.8s0,0.4-0.1,0.5s-0.3,0.1-0.5,0.1H50c-0.1-0.3-0.2-0.6-0.2-0.9
					c0-0.2,0.1-0.4,0.2-0.4s0.3-0.1,0.5-0.1h1.2c0.1-1.4,0.1-4.8,0.1-10.4c0-3,0-5.2-0.1-6.5H50c-0.1-0.3-0.2-0.6-0.2-0.9
					c0-0.2,0.1-0.4,0.2-0.4s0.3-0.1,0.5-0.1h5.8V147.2z"/>
				<path d="M89.4,147.2c0.6,0,0.9,0.1,1.1,0.2s0.3,0.5,0.3,0.9c0,0.6-0.2,1.2-0.6,1.8c-1.8-0.8-4.4-1.1-7.6-1.1h-1.3
					c-0.1,1.1-0.1,3.3-0.1,6.6H89c0.1,0.4,0.2,0.8,0.2,1.2c0,0.3,0,0.5-0.1,0.5s-0.3,0.1-0.6,0.1h-7.1c0,4.2,0,6.8,0.1,7.7h2.1
					c3.1,0,5.6-0.3,7.3-1c0.3,0.5,0.5,1.1,0.5,1.7c0,0.4-0.1,0.7-0.4,0.9s-0.9,0.3-1.7,0.3H76.6c-0.1-0.3-0.2-0.6-0.2-0.9
					c0-0.2,0.1-0.3,0.2-0.4c0.1-0.1,0.3-0.1,0.5-0.1H78c0.1-1.4,0.1-4.9,0.1-10.5c0-3,0-5.2-0.1-6.5h-1.6c-0.1-0.3-0.2-0.6-0.2-0.9
					c0-0.2,0.1-0.4,0.2-0.4s0.3-0.1,0.5-0.1H89.4z"/>
				<path d="M106.1,165.7c0.1,0.3,0.2,0.6,0.2,0.8s0,0.4-0.1,0.5s-0.3,0.1-0.5,0.1h-6.9c-0.1-0.3-0.2-0.6-0.2-0.9
					c0-0.2,0.1-0.4,0.2-0.4s0.3-0.1,0.5-0.1h1.3c0.1-1.4,0.1-4.8,0.1-10.4c0-3,0-5.2-0.1-6.5h-1.7c-0.1-0.3-0.2-0.6-0.2-0.9
					c0-0.2,0.1-0.4,0.2-0.4s0.3-0.1,0.5-0.1h6.3c3,0,5.1,0.4,6.4,1.2s1.9,2.1,1.9,3.9c0,2.7-1.6,4.6-4.9,5.5
					c0.9,0.3,1.7,0.8,2.3,1.6s1.2,1.8,1.8,3.2s1.1,2.3,1.5,2.6s0.9,0.5,1.6,0.4c0.2,0.7,0.2,1.2-0.1,1.4c-0.3,0.2-0.9,0.4-1.9,0.4
					c-1.2,0-2-0.2-2.5-0.5s-1-1.4-1.6-3.2s-1.1-3.2-1.8-3.9s-1.5-1.1-2.7-1.1c-0.6,0-1.2,0-1.8,0.1c0,3.4,0.1,5.6,0.1,6.8h2.1V165.7
					z M103.9,156.9h1.2c1.7,0,3-0.3,3.9-0.9s1.3-1.5,1.3-2.7c0-1.4-0.4-2.4-1.2-3.1c-0.8-0.6-1.9-1-3.4-1c-0.7,0-1.2,0-1.7,0.1
					c-0.1,0.8-0.1,2.8-0.1,5.9C103.9,155.2,103.9,156.9,103.9,156.9z"/>
				<path d="M136.1,147.2c0.6,0,0.9,0.1,1.1,0.2s0.3,0.5,0.3,0.9c0,0.6-0.2,1.2-0.6,1.8c-1.8-0.8-4.4-1.1-7.6-1.1H128
					c-0.1,1.1-0.1,3.3-0.1,6.6h7.7c0.1,0.4,0.2,0.8,0.2,1.2c0,0.3,0,0.5-0.1,0.5s-0.3,0.1-0.6,0.1H128c0,4.2,0,6.8,0.1,7.7h2.1
					c3.1,0,5.6-0.3,7.3-1c0.3,0.5,0.5,1.1,0.5,1.7c0,0.4-0.1,0.7-0.4,0.9c-0.3,0.2-0.9,0.3-1.7,0.3h-12.7c-0.1-0.3-0.2-0.6-0.2-0.9
					c0-0.2,0.1-0.3,0.2-0.4c0.1-0.1,0.3-0.1,0.5-0.1h1.1c0.1-1.4,0.1-4.9,0.1-10.5c0-3,0-5.2-0.1-6.5h-1.6c-0.1-0.3-0.2-0.6-0.2-0.9
					c0-0.2,0.1-0.4,0.2-0.4s0.3-0.1,0.5-0.1H136.1z"/>
				<path d="M170.9,147.2c0.6,0,0.9,0.1,1.1,0.2s0.3,0.5,0.3,0.9c0,0.6-0.2,1.2-0.6,1.8c-1.8-0.8-4.4-1.1-7.6-1.1h-1.3
					c-0.1,1.1-0.1,3.4-0.1,7h7.2c0.1,0.4,0.2,0.8,0.2,1.2c0,0.3,0,0.5-0.1,0.5s-0.3,0.1-0.6,0.1h-6.7c0,4,0,6.6,0.1,7.7h2.4
					c0.1,0.3,0.2,0.6,0.2,0.8s0,0.4-0.1,0.5s-0.3,0.1-0.5,0.1h-6.9c-0.1-0.3-0.2-0.6-0.2-0.9c0-0.2,0.1-0.4,0.2-0.4s0.3-0.1,0.5-0.1
					h1.1c0.1-1.4,0.1-4.8,0.1-10.4c0-3,0-5.2-0.1-6.5h-1.6c-0.1-0.3-0.2-0.6-0.2-0.9c0-0.2,0.1-0.4,0.2-0.4s0.3-0.1,0.5-0.1
					L170.9,147.2L170.9,147.2z"/>
				<path d="M190.2,148.7c-0.1-0.3-0.2-0.6-0.2-0.9c0-0.2,0.1-0.4,0.2-0.4s0.3-0.1,0.5-0.1h5.7c0.1,0.3,0.2,0.6,0.2,0.8
					s0,0.4-0.1,0.5s-0.3,0.1-0.5,0.1h-1c0,1.4-0.1,4.6-0.1,9.8c0,3.5-0.7,5.9-2,7.1s-3.4,1.8-6.1,1.8c-2.3,0-4-0.4-4.9-1.3
					s-1.4-2.6-1.4-5.3c0-6.8,0-10.8-0.1-12.2h-1.3c-0.1-0.3-0.2-0.6-0.2-0.9c0-0.2,0.1-0.4,0.2-0.4s0.3-0.1,0.5-0.1h5.7
					c0.1,0.3,0.2,0.6,0.2,0.8s0,0.4-0.1,0.5s-0.3,0.1-0.5,0.1h-1c-0.1,1.6-0.1,4.9-0.1,9.9c0,2.8,0.4,4.6,1.1,5.5
					c0.7,0.8,1.8,1.3,3.1,1.3c1.6,0,2.7-0.4,3.3-1.3s0.9-2.5,0.9-4.8c0-5.4,0-9-0.1-10.6L190.2,148.7L190.2,148.7z"/>
				<path d="M209.2,165.7c0.1-1.4,0.1-4.8,0.1-10.4c0-3,0-5-0.1-6.2c-3.5,0.1-5.4,0.2-5.9,0.2c-0.4,0-0.7-0.1-0.9-0.2
					s-0.2-0.4-0.2-0.8c0-0.5,0.1-1.1,0.4-1.8c1.7,0.4,4.1,0.7,7.2,0.7h9.2c0.4,0,0.7,0.1,0.9,0.2c0.2,0.1,0.3,0.4,0.3,0.8
					c0,0.7-0.2,1.3-0.6,1.9c-1.6-0.7-3.8-1-6.4-1h-0.5c-0.1,1.1-0.1,3.2-0.1,6.3c0,5.5,0,8.9,0.1,10.3h2.1c0.1,0.3,0.2,0.6,0.2,0.8
					s0,0.4-0.1,0.5s-0.3,0.1-0.5,0.1h-7.2c-0.1-0.3-0.2-0.6-0.2-0.9c0-0.2,0.1-0.4,0.2-0.4s0.3-0.1,0.5-0.1L209.2,165.7L209.2,165.7
					z"/>
				<path d="M237.9,148.7c-0.1-0.3-0.2-0.6-0.2-0.9c0-0.2,0.1-0.4,0.2-0.4s0.3-0.1,0.5-0.1h5.7c0.1,0.3,0.2,0.6,0.2,0.8
					s0,0.4-0.1,0.5s-0.3,0.1-0.5,0.1h-1c0,1.4-0.1,4.6-0.1,9.8c0,3.5-0.7,5.9-2,7.1s-3.4,1.8-6.1,1.8c-2.3,0-4-0.4-4.9-1.3
					s-1.4-2.6-1.4-5.3c0-6.8,0-10.8-0.1-12.2h-1.3c-0.1-0.3-0.2-0.6-0.2-0.9c0-0.2,0.1-0.4,0.2-0.4s0.3-0.1,0.5-0.1h5.7
					c0.1,0.3,0.2,0.6,0.2,0.8s0,0.4-0.1,0.5s-0.3,0.1-0.5,0.1h-1c-0.1,1.6-0.1,4.9-0.1,9.9c0,2.8,0.4,4.6,1.1,5.5
					c0.7,0.8,1.8,1.3,3.1,1.3c1.6,0,2.7-0.4,3.3-1.3s0.9-2.5,0.9-4.8c0-5.4,0-9-0.1-10.6L237.9,148.7L237.9,148.7z"/>
				<path d="M258.8,165.7c0.1,0.3,0.2,0.6,0.2,0.8s0,0.4-0.1,0.5s-0.3,0.1-0.5,0.1h-6.9c-0.1-0.3-0.2-0.6-0.2-0.9
					c0-0.2,0.1-0.4,0.2-0.4s0.3-0.1,0.5-0.1h1.3c0.1-1.4,0.1-4.8,0.1-10.4c0-3,0-5.2-0.1-6.5h-1.7c-0.1-0.3-0.2-0.6-0.2-0.9
					c0-0.2,0.1-0.4,0.2-0.4s0.3-0.1,0.5-0.1h6.3c3,0,5.1,0.4,6.4,1.2s1.9,2.1,1.9,3.9c0,2.7-1.6,4.6-4.9,5.5
					c0.9,0.3,1.7,0.8,2.3,1.6s1.2,1.8,1.8,3.2s1.1,2.3,1.5,2.6s0.9,0.5,1.6,0.4c0.2,0.7,0.2,1.2-0.1,1.4c-0.3,0.2-0.9,0.4-1.9,0.4
					c-1.2,0-2-0.2-2.5-0.5s-1-1.4-1.6-3.2s-1.1-3.2-1.8-3.9s-1.5-1.1-2.7-1.1c-0.6,0-1.2,0-1.8,0.1c0,3.4,0.1,5.6,0.1,6.8h2.1V165.7
					z M256.6,156.9h1.2c1.7,0,3-0.3,3.9-0.9s1.3-1.5,1.3-2.7c0-1.4-0.4-2.4-1.2-3.1c-0.8-0.6-1.9-1-3.4-1c-0.7,0-1.2,0-1.7,0.1
					c-0.1,0.8-0.1,2.8-0.1,5.9L256.6,156.9L256.6,156.9z"/>
				<path d="M288.8,147.2c0.6,0,0.9,0.1,1.1,0.2s0.3,0.5,0.3,0.9c0,0.6-0.2,1.2-0.6,1.8c-1.8-0.8-4.4-1.1-7.6-1.1h-1.3
					c-0.1,1.1-0.1,3.3-0.1,6.6h7.7c0.1,0.4,0.2,0.8,0.2,1.2c0,0.3,0,0.5-0.1,0.5s-0.3,0.1-0.6,0.1h-7.1c0,4.2,0,6.8,0.1,7.7h2.1
					c3.1,0,5.6-0.3,7.3-1c0.3,0.5,0.5,1.1,0.5,1.7c0,0.4-0.1,0.7-0.4,0.9s-0.9,0.3-1.7,0.3h-12.7c-0.1-0.3-0.2-0.6-0.2-0.9
					c0-0.2,0.1-0.3,0.2-0.4c0.1-0.1,0.3-0.1,0.5-0.1h1.1c0.1-1.4,0.1-4.9,0.1-10.5c0-3,0-5.2-0.1-6.5h-1.6c-0.1-0.3-0.2-0.6-0.2-0.9
					c0-0.2,0.1-0.4,0.2-0.4s0.3-0.1,0.5-0.1H288.8z"/>
			</g>
			<g class="st2">
				<path d="M336.2,147.2c0.1,0.3,0.2,0.6,0.2,0.8s0,0.4-0.1,0.5s-0.3,0.1-0.5,0.1H335c-0.5,2-1.3,5.3-2.4,9.9s-1.8,7.3-2.1,7.9
					c-0.4,0.6-1,0.9-2,0.9c-1.2,0-1.9,0-2-0.1s-0.7-2.7-1.7-7.9s-1.6-7.8-1.6-7.8s-0.6,2.3-1.5,7s-1.5,7.3-1.9,7.9
					c-0.4,0.6-1,0.9-2,0.9c-1.1,0-1.8,0-1.9-0.1s-0.8-2.8-2.1-8s-2.2-8.8-2.8-10.6h-1.1c-0.1-0.3-0.2-0.6-0.2-0.9
					c0-0.2,0.1-0.4,0.2-0.4s0.3-0.1,0.5-0.1h5.9c0.1,0.3,0.2,0.6,0.2,0.8s0,0.4-0.1,0.5s-0.3,0.1-0.5,0.1H315
					c0.2,1.4,0.7,4.4,1.7,8.8c0.9,4.4,1.5,6.7,1.6,6.7s0.7-2.8,1.8-8.4s1.6-8.4,1.8-8.5c0.1-0.1,0.9-0.1,2.3-0.1
					c0.6,0,1,0.1,1.2,0.3s0.8,3.1,1.9,8.5s1.7,8.1,1.8,8.1s0.6-2.2,1.5-6.6s1.3-7.4,1.4-8.8h-1.2c-0.1-0.3-0.2-0.6-0.2-0.9
					c0-0.2,0.1-0.4,0.2-0.4s0.3-0.1,0.5-0.1L336.2,147.2L336.2,147.2z"/>
			</g>
			<g class="st2">
				<path d="M345,149.7c1.6-1.8,3.8-2.8,6.8-2.8c2.7,0,4.7,0.7,6.1,2s2.1,3.8,2.1,7.3c0,3.8-0.8,6.7-2.4,8.5s-3.9,2.8-6.8,2.8
					c-2.7,0-4.7-0.7-6.1-2s-2.1-3.8-2.1-7.3C342.6,154.3,343.4,151.5,345,149.7z M347.5,163.5c0.9,1.2,2.2,1.8,3.9,1.8
					c1.6,0,2.8-0.6,3.6-1.8s1.2-3.2,1.2-6c0-3.3-0.4-5.5-1.3-6.7s-2.2-1.8-3.9-1.8c-1.6,0-2.8,0.6-3.6,1.8s-1.2,3.2-1.2,6
					C346.2,160.1,346.7,162.3,347.5,163.5z"/>
				<path d="M375.4,165.7c0.1,0.3,0.2,0.6,0.2,0.8s0,0.4-0.1,0.5s-0.3,0.1-0.5,0.1h-7c-0.1-0.3-0.2-0.6-0.2-0.9
					c0-0.2,0.1-0.4,0.2-0.4s0.3-0.1,0.5-0.1h1.3c0.1-1.4,0.1-4.8,0.1-10.4c0-3,0-5.2-0.1-6.5h-1.7c-0.1-0.3-0.2-0.6-0.2-0.9
					c0-0.2,0.1-0.4,0.2-0.4s0.3-0.1,0.5-0.1h6.3c3,0,5.1,0.4,6.4,1.2s1.9,2.1,1.9,3.9c0,2.7-1.6,4.6-4.9,5.5
					c0.9,0.3,1.7,0.8,2.3,1.6s1.2,1.8,1.8,3.2s1.1,2.3,1.5,2.6s0.9,0.5,1.6,0.4c0.2,0.7,0.2,1.2-0.1,1.4c-0.3,0.2-0.9,0.4-1.9,0.4
					c-1.2,0-2-0.2-2.5-0.5s-1-1.4-1.6-3.2s-1.1-3.2-1.8-3.9s-1.5-1.1-2.7-1.1c-0.6,0-1.2,0-1.8,0.1c0,3.4,0.1,5.6,0.1,6.8h2.2V165.7
					z M373.2,156.9h1.2c1.7,0,3-0.3,3.9-0.9s1.3-1.5,1.3-2.7c0-1.4-0.4-2.4-1.2-3.1c-0.8-0.6-1.9-1-3.4-1c-0.7,0-1.2,0-1.7,0.1
					c-0.1,0.8-0.1,2.8-0.1,5.9L373.2,156.9L373.2,156.9z"/>
				<path d="M409.8,147.2c0.1,0.3,0.2,0.6,0.2,0.8s0,0.4-0.1,0.5s-0.3,0.1-0.5,0.1h-0.8l-6.4,6.7c2.8,4.4,4.5,7,5.1,7.9
					s1.1,1.5,1.5,1.9c0.4,0.3,0.8,0.5,1.4,0.5c0.2,0.7,0.2,1.1-0.1,1.4s-0.8,0.4-1.8,0.4c-1.2,0-2-0.1-2.4-0.4s-0.9-0.9-1.3-1.8
					s-1.9-3.6-4.4-8l-2.6,3.1c0,2.4,0,4.1,0.1,5.2h1.6c0.1,0.3,0.2,0.6,0.2,0.8s0,0.4-0.1,0.5s-0.3,0.1-0.5,0.1h-6.4
					c-0.1-0.3-0.2-0.6-0.2-0.9c0-0.2,0.1-0.4,0.2-0.4s0.3-0.1,0.5-0.1h1.3c0.1-1.4,0.1-4.8,0.1-10.4c0-3,0-5.2-0.1-6.5h-1.8
					c-0.1-0.3-0.2-0.6-0.2-0.9c0-0.2,0.1-0.4,0.2-0.4s0.3-0.1,0.5-0.1h6.4c0.1,0.3,0.2,0.6,0.2,0.8s0,0.4-0.1,0.5s-0.3,0.1-0.5,0.1
					h-1.1c-0.1,1.4-0.1,4.3-0.1,8.7c1.1-1.2,2.4-2.6,3.8-4.1s2.7-3.1,3.9-4.6H404c-0.1-0.3-0.2-0.6-0.2-0.9c0-0.2,0.1-0.3,0.2-0.4
					c0.1-0.1,0.3-0.1,0.5-0.1L409.8,147.2z"/>
				<path d="M428.9,147.3c0.8,0.2,1.2,0.7,1.2,1.4s-0.3,1.2-0.8,1.7c-2.1-0.9-4-1.4-5.7-1.4c-1.2,0-2.1,0.2-2.6,0.7s-0.8,1.2-0.8,2
					c0,0.9,0.3,1.6,0.9,2.2s1.8,1.1,3.5,1.6c2,0.6,3.6,1.3,4.6,2.1s1.6,2.1,1.6,3.8c0,2-0.7,3.4-2,4.5s-3.4,1.5-6.2,1.5
					c-1.9,0-3.4-0.1-4.4-0.4s-1.5-0.8-1.5-1.5s0.3-1.3,0.8-1.8c1.9,1.1,3.9,1.6,6,1.6c1.4,0,2.5-0.2,3.1-0.7s0.9-1.2,0.9-2.2
					c0-1.2-0.4-2.1-1.3-2.6s-2.3-1.2-4.2-1.8c-1.9-0.6-3.2-1.3-4-2.1s-1.2-2-1.2-3.4c0-1.7,0.6-3.1,1.9-4.1s3.1-1.5,5.5-1.5
					C426.6,146.9,428.1,147,428.9,147.3z"/>
			</g>
		</g>
	</g>
</g>
<g id="图层_2">
	<g>
		<path class="st3" d="M103,95.3l1.7-10.4H70.1l4.3-30.2h50.9l-1.7,14.7h-17.3l0.9-6H90.8l-2.6,13h34.6l-3.4,23.3
			c0,0.8-0.2,1.6-0.6,2.4c-0.4,0.8-0.9,1.4-1.6,1.9c-0.7,0.5-1.4,1-2.2,1.3c-0.8,0.3-1.7,0.4-2.6,0.4H67.5l1.7-13.9l2.6,3.5H103z"/>
		<path class="st3" d="M186,54.7l6.8,50.9h-15.5l-1.8-13.9H154l-6,13.9h-14.7l19.9-48.4l-2.6-2.5H186z M166.1,63.3l-8.6,19.8h17.3
			l-2.6-19.8H166.1z"/>
		<path class="st3" d="M262.2,54.7l-2.6,20.7l-5.2,3.4l4.3,3.5L256,99.6c-0.4,1.7-1.2,3.2-2.4,4.3c-1.2,1.1-2.7,1.7-4.4,1.7h-48.4
			l6-47.5l-2.6-3.4H262.2z M220.7,83.1L219,97h20.7l1.7-13.9H220.7z M223.3,63.3l-0.9,11.2h19.9l1.7-11.2H223.3z"/>
		<path class="st3" d="M324.9,54.7c0.8,0,1.6,0.2,2.3,0.4c0.7,0.3,1.3,0.7,1.8,1.3c0.5,0.5,0.9,1.2,1,1.9c0.2,0.7,0.1,1.5-0.1,2.4
			l-6,44.9h-48.4c-0.8,0-1.6-0.1-2.3-0.4c-0.7-0.3-1.3-0.7-1.8-1.3c-0.5-0.5-0.9-1.2-1-1.9c-0.2-0.8-0.2-1.5,0.1-2.4l6-44.9H324.9z
			 M292,63.3L287.7,97h19.9l5.1-33.7H292z"/>
		<path class="st3" d="M397.9,54.7l-3.4,25.9c0,0.8-0.2,1.6-0.6,2.4c-0.4,0.8-0.9,1.4-1.6,1.9c-0.7,0.5-1.4,1-2.2,1.3
			c-0.8,0.3-1.7,0.4-2.6,0.4h-11.2l18.2,19h-19l-17.3-19l-2.6,19h-17.3l6-47.5l-2.6-3.4H397.9z M360.8,63.3L359,78h19.1l1.7-14.7
			H360.8z"/>
	</g>
	<g>
		<path d="M16,131.2h4.6l0.8,9.8l4-10.4h4.9l-6.9,17h-5.2l-1.2-8.3l-3.4,8.3H8.5l-2-16.4l-0.6-0.6h5.5l0.9,10.4L16,131.2z"/>
		<path d="M43.7,130.7l-0.9,6.6h6.7l0.8-5.5l-0.9-1.1h6.6l-2.3,17H48l1.1-7.5h-6.7l-1.1,7.5h-5.8l2.3-16.1l-1.2-0.8H43.7z"/>
		<path d="M79.3,130.7l-0.3,2.9h-9.5l-0.6,3.7h8.9l-0.3,2.9h-9.2l-0.6,4.6h10.1l-0.3,2.9H61.5l2.3-15.8l-0.9-1.1H79.3z"/>
		<path d="M104.4,130.7l-1.1,8.6c0,0.3-0.1,0.5-0.2,0.8c-0.1,0.2-0.3,0.5-0.5,0.6c-0.2,0.2-0.5,0.3-0.7,0.4
			c-0.3,0.1-0.6,0.2-0.9,0.2h-3.8l6.1,6.3H97l-5.8-6.3l-0.9,6.3h-5.8l2-15.8l-0.9-1.1H104.4z M92.1,133.5l-0.6,4.9h6.4l0.6-4.9H92.1
			z"/>
		<path d="M127.7,130.7l-0.3,2.9h-9.5l-0.6,3.7h8.9l-0.3,2.9h-9.2l-0.6,4.6h10.1l-0.3,2.9h-16.1l2.3-15.8l-0.9-1.1H127.7z"/>
		<path d="M172.1,130.7l-0.3,2.9h-10.4l-0.6,4.9h9.5l-0.3,2.9h-9.8l-0.9,6.3h-5.8l2.3-15.8l-0.9-1.1H172.1z"/>
		<path d="M185.1,130.7l-2,14.1h6.9l2-13.3l-1.2-0.8h6.9l-2.3,17H179c-0.6,0-1-0.2-1.3-0.6c-0.3-0.4-0.4-0.9-0.4-1.4l2-14.1
			l-0.9-0.8H185.1z"/>
		<path d="M207.5,147.6l2-14.1h-6.3l0.3-2.9h18.4l-0.6,2.9h-6.1l-2,14.1H207.5z"/>
		<path d="M235,130.7l-2,14.1h6.9l2-13.3l-1.2-0.8h6.9l-2.3,17H229c-0.6,0-1-0.2-1.3-0.6c-0.3-0.4-0.4-0.9-0.4-1.4l2-14.1l-0.9-0.8
			H235z"/>
		<path d="M273,130.7l-1.1,8.6c0,0.3-0.1,0.5-0.2,0.8s-0.3,0.5-0.5,0.6c-0.2,0.2-0.5,0.3-0.7,0.4c-0.3,0.1-0.6,0.2-0.9,0.2h-3.8
			l6.1,6.3h-6.3l-5.8-6.3l-0.9,6.3h-5.8l2-15.8l-0.9-1.1H273z M260.6,133.5l-0.6,4.9h6.4l0.6-4.9H260.6z"/>
		<path d="M296.2,130.7l-0.3,2.9h-9.5l-0.6,3.7h8.9l-0.3,2.9h-9.2l-0.6,4.6h10.1l-0.3,2.9h-16.1l2.3-15.8l-0.9-1.1H296.2z"/>
		<path d="M332.1,131.2h4.6l0.8,9.8l4-10.4h4.9l-6.9,17h-5.2l-1.2-8.3l-3.5,8.3h-5.2l-2-16.4l-0.6-0.6h5.5l0.9,10.4L332.1,131.2z"/>
		<path d="M370,130.7c0.3,0,0.5,0.1,0.8,0.2c0.2,0.1,0.4,0.2,0.6,0.4s0.3,0.4,0.3,0.6c0.1,0.2,0,0.5,0,0.8l-2,15h-16.1
			c-0.3,0-0.5,0-0.8-0.2c-0.2-0.1-0.4-0.2-0.6-0.4s-0.3-0.4-0.3-0.6c-0.1-0.2,0-0.5,0-0.8l2-15H370z M359,133.5l-1.4,11.2h6.6
			l1.7-11.2H359z"/>
		<path d="M397,130.7l-1.1,8.6c0,0.3-0.1,0.5-0.2,0.8s-0.3,0.5-0.5,0.6c-0.2,0.2-0.5,0.3-0.7,0.4c-0.3,0.1-0.6,0.2-0.9,0.2h-3.8
			l6.1,6.3h-6.3l-5.8-6.3l-0.9,6.3h-5.8l2-15.8l-0.9-1.1H397z M384.7,133.5l-0.6,4.9h6.4l0.6-4.9H384.7z"/>
		<path d="M410.5,130.7l-0.9,5.2l6.1-5.2h6.6l-9.8,8.6l8.6,8.3h-6.9l-5.5-5.8l-0.9,5.8h-5.5l2-15.8l-0.9-1.1H410.5z"/>
		<path d="M439.5,144.2l0.6-3.5h-11.5l1.4-10.1h17l-0.6,4.9h-5.8l0.3-2h-5.5l-0.9,4.3h11.5l-1.1,7.8c0,0.3-0.1,0.5-0.2,0.8
			s-0.3,0.5-0.5,0.6c-0.2,0.2-0.5,0.3-0.7,0.4c-0.3,0.1-0.6,0.2-0.9,0.2h-15l0.6-4.6l0.9,1.2H439.5z"/>
	</g>
</g>
</svg>
